<?xml version="1.0" encoding="UTF-8"?>
<!DOCTYPE svg PUBLIC "-//W3C//DTD SVG 1.1//EN" "http://www.w3.org/Graphics/SVG/1.1/DTD/svg11.dtd">
<!-- Creator: CorelDRAW 2019 (64 Bit) -->
<svg xmlns="http://www.w3.org/2000/svg" xml:space="preserve" width="20mm" height="20mm" version="1.1" style="shape-rendering:geometricPrecision; text-rendering:geometricPrecision; image-rendering:optimizeQuality; fill-rule:evenodd; clip-rule:evenodd"
viewBox="0 0 304.42 304.42"
 xmlns:xlink="http://www.w3.org/1999/xlink">
 <defs>
  <style type="text/css">
   <![CDATA[
    .fil2 {fill:#03501D}
    .fil0 {fill:#7BB34C}
    .fil1 {fill:#F6F1D1}
   ]]>
  </style>
 </defs>
 <g id="Camada_x0020_1">
  <metadata id="CorelCorpID_0Corel-Layer"/>
  <g id="_3098548225760">
   <rect class="fil0" x="0" width="304.42" height="304.42" rx="8.76" ry="27.11"/>
   <g>
    <g>
     <path class="fil1" d="M39.66 130.43l64.8 -64.8 0 14.12 -52.97 52.97c-10.72,10.72 -10.72,28.26 0,38.98l75.31 75.31 0 14.12 -87.14 -87.15c-11.98,-11.98 -11.98,-31.58 0,-43.56zm121.6 141.97c-6.57,2 -13.69,1.77 -20.13,-0.7l4.08 -11.63c3.79,0.98 7.75,1.16 11.6,0.51l4.45 11.81z"/>
     <path class="fil2" d="M115.8 54.29l14.63 -14.63c11.98,-11.98 31.58,-11.98 43.56,0l23.67 23.67c-1.56,2.81 -3.34,6.03 -5.02,9.1l-20.93 -20.93c-10.72,-10.72 -28.26,-10.72 -38.98,0l-11.28 11.28 -5.64 -8.48zm97.31 24.49l51.65 51.66c11.98,11.98 11.98,31.58 0,43.56l-88.81 88.81 0 -14.12 76.98 -76.98c10.72,-10.72 10.72,-28.26 0,-38.98l-42.77 -42.77 2.95 -11.18z"/>
    </g>
    <g>
     <path class="fil2" d="M185.54 184.03c13.58,-41.43 -2.02,-41.93 2.44,-65.37 3.14,-13.02 17.95,-22.1 17.65,-56.59 -6.65,14.85 -15.11,33.2 -28.15,46.55 -4.69,4.81 -6.86,7.94 -9.72,7.35 -4.46,-0.93 -13.7,-8.11 -20.38,-13.96 -3.9,-3.41 -7.08,-6.41 -8.25,-7.52 -9.77,-9.27 -17.55,-17.48 -30,-39.88 0.41,15.62 2.11,26.4 7.29,36.62 2.57,5.06 5.99,9.98 10.53,15.28 6.77,7.9 14.95,15.67 22.39,23.53 12.98,13.73 35.08,35.75 36.19,53.98z"/>
     <ellipse class="fil2" cx="164.47" cy="87.54" rx="11.42" ry="14.23"/>
     <path class="fil2" d="M179.05 190.57c-1.26,4.61 -4.9,14.29 -16.76,32.27 -1.96,9.47 -1.21,32.5 5.36,50.51 1.07,-13.17 1.41,-22.96 2.67,-33.67 0.64,-5.47 1.55,-10.98 2.63,-16.44 2.01,-10.12 4.76,-18.29 7.43,-27.95 1.21,-4.4 1.65,-7.63 1.6,-10.14l-2.93 5.41z"/>
     <path class="fil1" d="M134.5 273.3c10.28,-31.41 24.43,-56.07 43.75,-78.63 0.5,-0.59 1.01,-1.17 1.52,-1.75 4.37,-5.01 1.56,-14.91 -1.77,-21.06 -5.01,-9.25 -12.17,-18.8 -18.9,-24.76 4.58,17.84 -2.24,27.15 -7.73,40.83 -4.28,10.67 -9.4,21.68 -13.18,33.74 -4.74,15.11 -7.39,31.86 -3.69,51.64z"/>
    </g>
   </g>
  </g>
 </g>
</svg>
