<svg width="191" height="218" viewBox="0 0 191 218" fill="none" xmlns="http://www.w3.org/2000/svg">
<mask id="mask0" mask-type="alpha" maskUnits="userSpaceOnUse" x="0" y="0" width="191" height="218">
<rect width="191" height="218" fill="#7BB34C"/>
</mask>
<g mask="url(#mask0)">
<path fill-rule="evenodd" clip-rule="evenodd" d="M7.10839 204.277L26.2824 197.494C30.8313 205.084 37.8626 209.025 43.3932 211.367C41.2778 214.765 28.9547 218.32 22.306 216.961C16.7437 215.824 10.2557 211.952 7.10848 204.277L7.10839 204.277ZM22.1431 189.311L24.8323 195.642L20.1826 197.459C19.2365 193.606 19.7396 191.32 22.1431 189.311ZM17.0724 197.341C15.2784 194.93 2.57826 182.821 0.370634 182.457C-0.11815 184.511 1.39352 185.349 3.10326 186.866C4.78114 188.355 5.67085 189.331 7.32845 190.863C10.0165 193.347 13.8028 196.354 15.7203 198.878C13.8937 199.096 15.583 200.008 10.8825 196.306C8.24052 194.227 -1.27648 185.473 -4.06445 186.159C-3.95697 188.801 9.43181 197.002 12.1372 200.308L4.79092 202.98C4.89101 208.293 10.9003 213.935 13.9308 215.746C26.394 223.198 34.4491 218.52 45.3572 213.241C49.9535 211.017 71.3538 220.931 87.329 194.993C92.6903 186.288 93.4877 166.726 88.2247 165.159C86.9962 167.096 89.46 170.558 89.6133 177.685C90.2221 206.065 53.3055 224.562 31.1235 200.417C12.9296 180.612 24.2681 147.915 51.9189 144.372C59.3695 143.417 70.3935 145.809 73.5662 149.427C70.8523 149.975 67.8601 149.475 65.5353 151.118C67.0242 153.333 75.2898 151.658 77.9879 150.937C77.7283 148.242 75.5168 139.765 72.7387 139.707C72.0372 141.879 73.9196 144.635 74.4925 146.963C67.0407 144.019 62.6857 141.167 52.5633 142.147C35.7076 143.777 21.8422 157.416 20.3264 174.112C20.1336 176.238 21.0064 186.401 20.9376 186.646C19.8559 190.495 19.1821 185.541 17.6132 195.396C17.3094 197.308 17.6592 196.088 17.0724 197.341L17.0724 197.341Z" fill="#FFFDED"/>
<path fill-rule="evenodd" clip-rule="evenodd" d="M49.0739 162.644L54.8271 178.65C55.4686 178.619 55.4324 178.775 56.4004 178.378C57.6554 177.864 64.9131 172.267 65.4131 170.242C63.2567 168.964 60.6444 172.523 56.2978 175.772L50.8869 161.356C49.9615 158.765 49.9769 160.103 49.2359 159.873C48.3852 161.097 48.1218 159.96 49.074 162.644L49.0739 162.644Z" fill="#7BB34C"/>
<path fill-rule="evenodd" clip-rule="evenodd" d="M27.3064 188.328C32.52 189.666 31.4809 186.226 31.4862 186.196C30.9696 186.076 30.5903 185.257 28.5627 186.256C25.7426 187.645 27.6124 187.659 27.3064 188.328L27.3064 188.328Z" fill="#7BB34C"/>
<path fill-rule="evenodd" clip-rule="evenodd" d="M79.6392 168.999C80.572 169.815 78.9876 170.587 82.1613 169.7C84.713 168.986 83.911 168.416 84.0294 167.432C81.2668 166.681 80.9606 167.292 79.6392 168.999V168.999Z" fill="#7BB34C"/>
<path fill-rule="evenodd" clip-rule="evenodd" d="M65.8208 206.312C66.623 205.081 66.7936 206.003 66.1629 203.855C65.338 201.044 65.0003 201.973 63.4505 202.169C63.8128 204.487 63.8722 205.755 65.8207 206.312L65.8208 206.312Z" fill="#7BB34C"/>
<path fill-rule="evenodd" clip-rule="evenodd" d="M47.0799 153.836C48.3149 152.022 47.8786 150.148 45.4942 149.395C44.1295 151.493 44.9887 153.228 47.0799 153.836Z" fill="#7BB34C"/>
<path fill-rule="evenodd" clip-rule="evenodd" d="M-3.47197 164.838C-0.708952 163.868 3.05657 160.86 6.0634 159.268C7.99971 159.889 8.95545 161.09 10.5893 162.288C12.1705 163.447 14.1014 164.328 15.1812 165.475C12.634 166.759 9.36745 167.064 6.20803 167.039C4.46739 167.026 2.49261 166.857 0.766912 166.601L-2.20794 165.78C-3.31692 165.176 -2.74101 165.595 -3.46973 164.836L-3.47197 164.838ZM-16.7095 158.684C-14.0286 156.673 -3.00903 149.638 -0.448762 148.795C0.986418 152.843 3.4354 154.67 4.39969 157.625L-5.6417 163.706C-8.63828 164.994 -15.282 160.929 -16.7076 158.687L-16.7095 158.684ZM-5.10983 136.473C-2.35139 134.854 -1.69769 134.835 0.780098 137.261C0.881699 144.458 -7.02279 143.012 -5.10983 136.473ZM15.3804 138.931C16.7353 137.535 23.2673 133.571 25.0722 133.023C26.2505 136.013 27.6927 139.017 28.1778 142.805L25.1185 144.562C24.7445 144.373 16.0666 139.452 15.3806 138.929L15.3804 138.931ZM-32.7639 135.784C-33.8384 130.936 -34.2835 124.983 -30.1107 122.449L-10.0659 110.423C-6.74259 109.85 0.680998 111.88 3.19963 113.436C2.1368 114.733 -1.93635 117.024 -3.77219 118.144C-9.31465 121.522 -9.58052 120.747 -9.9375 123.587C-6.72749 123.685 0.0150513 118.536 2.94068 116.714C5.63495 115.037 6.33204 114.313 9.56192 116.567C11.638 118.014 13.5714 118.994 15.051 120.805C12.6849 123.553 3.89847 127.349 3.08868 128.975C1.10205 132.959 8.82012 127.898 10.3219 127.007C12.413 125.767 15.3969 123.585 17.3553 122.917C19.5894 124.999 21.8044 127.53 23.3879 130.373C21.7649 132.406 17.6641 134.285 15.2907 135.845C10.1111 139.246 10.7701 137.041 3.75612 137.925L2.51635 135.866C1.38522 134.038 -0.0674235 132.684 -3.05777 133.044C-5.80477 133.375 -4.75479 134.49 -7.10406 133.626C-10.7978 132.265 -20.2126 121.588 -23.4482 123.455C-22.9933 125.807 -9.50382 134.993 -8.06065 135.675C-7.56934 146.247 -5.55049 142.015 -1.13604 145.16C-2.08062 147.358 -1.08071 146.051 -3.38433 147.543L-19.1426 156.977C-21.2978 155.713 -21.4684 155.387 -23.1241 153.442C-24.9813 151.26 -25.2757 151.568 -25.9341 149.668L-15.0087 142.751C-12.6974 141.307 -12.8836 141.922 -12.4934 139.472C-16.2226 139.479 -23.8669 145.958 -27.6123 147.469C-29.4679 145.743 -31.5182 141.225 -31.9614 138.202C-29.2366 137.06 -21.3776 132.876 -21.1763 130.088C-24.0932 129.875 -29.8067 134.447 -32.764 135.786L-32.7639 135.784ZM-29.8666 119.206C-28.0251 115.618 -22.3223 111.562 -16.7953 110.985C-18.2177 112.548 -27.5245 118.397 -29.8666 119.206ZM29.8999 139.195L29.6919 137.583C24.7404 128.259 26.7084 128.778 19.0892 121.113L18.1595 119.971C9.04079 113.708 0.0285947 105.957 -15.4666 108.122C-49.4829 112.874 -37.664 160.878 -1.67659 168.575C3.84174 169.756 14.8227 170.887 17.9976 166.254C18.9926 162.928 13.0659 162.116 7.07662 156.299C-3.56061 145.966 0.74094 133.835 18.1442 143.113C20.1769 144.198 22.6138 145.912 24.2391 147.387C25.1821 148.243 28.1545 152.204 30.3673 149.571C31.7972 146.784 30.7231 142.171 29.9019 139.197L29.8999 139.195Z" fill="#FFFDED"/>
<path fill-rule="evenodd" clip-rule="evenodd" d="M18.1557 119.966L19.0854 121.108C20.6716 120.155 19.6305 121.546 20.5087 119.221C21.1746 117.455 21.5362 114.712 20.9648 113.221C19.5653 113.413 20.156 113.591 19.7207 113.814C14.6068 116.459 9.50126 105.472 12.2188 99.5606C14.9508 93.6208 17.3084 95.7955 19.631 93.1356C22.6557 89.6692 20.2561 88.4856 25.7734 85.965C32.1234 83.0635 33.5995 86.3788 37.0929 86.2781C39.0115 86.2224 40.692 82.7391 46.4002 83.1052C55.4913 83.6879 58.2124 91.0417 57.326 98.8704C63.8028 101.724 65.713 109.448 62.5077 114.645C60.1097 118.531 60.6661 114.997 60.5541 120.571C60.3564 130.289 49.1133 134.828 42.2722 128.53C42.1884 126.485 43.5397 128.454 42.695 125.55C40.3289 126.061 30.861 135.01 29.6882 137.578L29.8962 139.19C31.2407 138.514 30.0747 139.216 31.148 138.403L39.8406 130.175C44.907 132.089 46.699 135.262 54.0819 132.755C64.8664 129.092 61.1326 121.015 64.0025 116.347C68.53 108.979 66.0434 102.496 59.9733 97.6118C59.5822 92.7785 60.0123 89.9893 57.1046 86.4948C55.1554 84.1545 52.217 81.5712 47.7054 80.9694C41.2499 80.1103 38.6778 83.6935 36.6669 83.7668C32.3013 83.9261 31.2624 81.0804 24.6192 83.9957C19.0168 86.4538 20.9085 88.4198 17.7004 91.5952C14.4764 94.7887 13.2638 92.1505 10.2697 98.6653C8.6039 102.289 8.83623 106.742 10.4698 110.08C12.4836 114.193 14.662 114.632 18.4605 117.389L18.158 119.964L18.1557 119.966Z" fill="#7BB34C"/>
<path fill-rule="evenodd" clip-rule="evenodd" d="M25.953 100.878C27.9963 99.6584 26.8268 98.6945 28.6442 96.2894C29.4468 95.2287 31.4123 93.5848 33.3403 93.2056C41.0885 91.6825 40.1649 98.2568 43.9354 97.544C44.1561 92.064 33.2176 87.2808 27.1546 94.6067C25.9508 96.0601 23.9281 99.3212 25.9551 100.878L25.953 100.878Z" fill="#7BB34C"/>
<path fill-rule="evenodd" clip-rule="evenodd" d="M32.8011 126.094C33.2854 123.147 34.9393 121.266 33.9079 119.056C31.2291 119.966 29.1359 127.816 29.8099 130.497C32.3005 130.373 37.4285 125.33 39.5169 124.031C41.5107 122.789 41.6463 123.374 41.656 120.703C38.078 120.87 36.0629 124.697 32.801 126.096L32.8011 126.094Z" fill="#7BB34C"/>
<path fill-rule="evenodd" clip-rule="evenodd" d="M26.9738 123.981C28.8127 121.503 30.8069 119.359 30.8881 117.042C27.6234 116.937 28.816 119.006 26.2484 120.691C26.2527 118.727 26.3218 116.778 26.364 114.819C26.4302 111.711 26.9708 111.361 24.7639 110.661C23.8242 112.644 23.3555 123.22 24.4328 125.613C26.5804 125.417 25.3452 126.175 26.9759 123.981L26.9738 123.981Z" fill="#7BB34C"/>
<path fill-rule="evenodd" clip-rule="evenodd" d="M218.563 83.7556C219.333 80.9304 218.995 76.123 219.39 72.7436C221.001 71.5022 222.532 71.397 224.446 70.7319C226.297 70.0878 228.119 68.9986 229.676 68.7607C229.287 71.5865 227.685 74.4491 225.871 77.036C224.871 78.4611 223.612 79.9915 222.421 81.2665L220.056 83.2497C218.929 83.8197 219.601 83.5834 218.563 83.7526L218.563 83.7556ZM205.983 91.1607C205.849 87.8121 206.312 74.7462 207.072 72.1602C211.219 73.2765 214.113 72.2971 217.094 73.1809L216.4 84.8996C215.76 88.0978 208.641 91.2596 205.986 91.1603L205.983 91.1607ZM194.281 69.0026C194.515 65.8131 194.87 65.264 198.274 64.6011C204.256 68.6027 198.579 74.2893 194.281 69.0026ZM207.936 53.5288C207.556 51.6213 208 43.9933 208.574 42.1964C211.704 42.9235 214.996 43.4414 218.39 45.1924L218.1 48.7082C217.732 48.9092 208.755 53.2597 207.934 53.5275L207.936 53.5288ZM178.016 91.3783C173.415 89.5111 168.262 86.4982 168.545 81.6248L170.022 58.2955C171.436 55.2343 177.322 50.2755 180.033 49.0849C180.497 50.696 180.071 55.3502 179.951 57.4974C179.586 63.9773 178.797 63.7564 180.932 65.6626C182.835 63.0755 182.424 54.602 182.585 51.1591C182.733 47.9888 182.533 47.0039 186.222 45.6242C188.592 44.7368 190.495 43.7009 192.827 43.511C193.746 47.0191 191.884 56.4075 192.763 57.9972C194.915 61.894 195.129 52.6671 195.249 50.9251C195.415 48.4997 195.311 44.8041 195.873 42.8128C198.856 42.1556 202.196 41.7684 205.436 42.0787C206.189 44.5692 205.408 49.0118 205.345 51.851C205.205 58.046 203.763 56.2517 200.51 62.528L198.111 62.3797C195.964 62.2732 194.024 62.7005 192.623 65.3669C191.337 67.8163 192.851 67.5851 190.805 69.0282C187.588 71.2967 173.454 72.9871 173.154 76.7104C175.349 77.6711 190.569 71.7799 191.949 70.9789C200.932 76.5758 198.594 72.5117 203.689 70.6624C204.962 72.6878 204.454 71.1227 204.374 73.8659L203.197 92.1948C200.933 93.2517 200.567 93.207 198.026 93.4659C195.175 93.7563 195.262 94.1736 193.324 93.6368L193.831 80.716C193.954 77.9932 194.355 78.4959 192.559 76.7837C190.449 79.8583 191.443 89.8291 190.561 93.7704C188.086 94.318 183.203 93.4413 180.462 92.0902C181.069 89.1989 182.086 80.354 179.905 78.6055C178.073 80.8857 178.594 88.1847 178.018 91.3796L178.016 91.3783ZM166.013 79.5828C164.104 76.0301 164.003 69.0328 166.665 64.155C167.144 66.2132 166.676 77.1952 166.013 79.5828ZM216.396 41.7254L214.95 40.9814C204.464 39.7653 206.008 38.44 195.372 40.3612L193.904 40.4784C183.573 44.4308 172.075 47.4501 165.062 61.4359C149.665 92.138 195.894 109.657 222.659 84.3991C226.764 80.5262 233.929 72.128 231.917 66.8843C229.743 64.177 225.71 68.5954 217.521 70.2239C202.976 73.1161 195.431 62.6885 212.948 53.6278C214.995 52.5701 217.789 51.5365 219.926 51.0357C221.167 50.7457 226.115 50.5468 225.203 47.2305C223.721 44.4713 219.313 42.7373 216.399 41.725L216.396 41.7254Z" fill="#FFFDED"/>
<path fill-rule="evenodd" clip-rule="evenodd" d="M193.898 40.4787L195.366 40.3616C195.481 38.5146 196.036 40.1616 194.62 38.1187C193.544 36.5679 191.492 34.7135 189.94 34.3377C189.303 35.5985 189.785 35.2134 189.722 35.6985C188.997 41.4101 177.053 39.3762 173.729 33.7835C170.39 28.1626 173.518 27.4561 172.647 24.0341C171.51 19.5763 169.173 20.8799 170.23 14.9069C171.446 8.032 175.013 8.69877 176.913 5.76558C177.957 4.15442 176.043 0.793641 179.585 -3.69801C185.225 -10.8516 192.824 -8.91753 198.766 -3.7438C204.792 -7.45586 212.235 -4.64441 214.693 0.944346C216.532 5.12457 213.938 2.66072 218.463 5.91675C226.352 11.5962 223.707 23.4288 214.639 25.4859C212.907 24.3939 215.295 24.3989 212.425 23.446C211.503 25.6842 213.496 38.5587 214.944 40.9817L216.389 41.7257C216.596 40.2353 216.512 41.5934 216.452 40.2482L214.612 28.4215C219.064 25.3366 222.694 25.6629 224.82 18.1613C227.927 7.20374 219.158 5.69275 216.943 0.679924C213.448 -7.22949 206.699 -8.86265 199.232 -6.63774C195.031 -9.05935 192.979 -10.9967 188.451 -10.5865C185.418 -10.3102 181.624 -9.35751 178.567 -5.98483C174.195 -1.1579 175.685 2.99365 174.604 4.69071C172.257 8.37525 169.325 7.61518 167.954 14.7392C166.797 20.7469 169.49 20.3055 170.283 24.7491C171.082 29.2161 168.222 28.7169 171.885 34.8799C173.923 38.3085 177.721 40.6449 181.396 41.1947C185.926 41.8716 187.524 40.3275 191.95 38.7653L193.898 40.4758L193.898 40.4787Z" fill="#7BB34C"/>
<path fill-rule="evenodd" clip-rule="evenodd" d="M182.61 23.2242C182.766 20.8497 181.308 21.2654 180.36 18.4039C179.942 17.141 179.704 14.5898 180.487 12.7873C183.631 5.54374 188.519 10.0361 190.073 6.52727C185.686 3.2349 175.539 9.52506 178.129 18.6751C178.642 20.4912 180.179 24.0075 182.611 23.2225L182.61 23.2242Z" fill="#7BB34C"/>
<path fill-rule="evenodd" clip-rule="evenodd" d="M202.209 35.4982C201.213 32.5778 200.58 29.7189 198.718 28.3368C196.778 30.9646 199.159 31.1573 199.089 34.2277C197.474 33.1095 195.909 31.9462 194.32 30.7994C191.799 28.9805 191.817 28.3366 189.989 29.7565C191.087 31.6555 199.529 38.0453 202.11 38.5165C203.168 36.637 203.091 38.0846 202.211 35.4966L202.209 35.4982Z" fill="#7BB34C"/>
<path fill-rule="evenodd" clip-rule="evenodd" d="M102.885 82.8702L101.117 84.0219C106.414 90.2099 108.998 92.4256 115.612 94.7621C134.535 101.452 137.559 125.149 122.973 136.592C109.769 146.951 87.6028 141.644 84.1806 120.022C83.1195 113.325 81.7924 110.189 76.5038 103.9L75.1598 105.257C80.8883 114.331 80.5428 112.677 82.3115 121.983C86.1363 142.105 109.059 150.235 124.309 138.214C134.474 130.2 136.521 116.759 132.046 107C129 100.354 124.096 96.084 118.303 93.5674C110.345 90.1054 110.15 90.8417 102.885 82.874L102.885 82.8702Z" fill="#FFFDED"/>
<path fill-rule="evenodd" clip-rule="evenodd" d="M125.922 71.8922C130.407 72.1731 134.631 71.5728 138.658 76.9557C141.114 80.2391 141.891 87.5806 141.751 90.9068C138.961 92.5308 137.368 91.5771 135.788 94.0059C137.501 95.0814 136.669 94.7765 138.768 94.3444C140.708 93.9477 140.348 93.805 142.005 93.715L142.959 100.649C137.508 102.806 135.062 102.138 134.11 104.788C136.275 105.777 139.829 104.121 143.004 102.846C143.753 105.519 143.506 107.673 144.302 109.984C142.315 111 140.839 110.939 139.989 112.428C142.018 114.617 140.635 112.957 144.185 112.898L146.882 135.075C147.12 137.283 148.188 140.776 146.618 142.351C142.66 141.092 140.241 128.051 136.349 127.254C134.949 129.86 140.477 137.249 141.899 140.099C143.275 142.854 144.777 145.344 147.388 144.301C150.668 142.989 149.766 140.611 149.406 138.335C147.636 127.164 144.911 99.5908 143.506 86.7625C143.008 82.2146 143.036 77.696 138.329 73.4678C134.785 70.2851 129.169 68.766 125.616 70.5992L125.918 71.8956L125.922 71.8922Z" fill="#FFFDED"/>
<path fill-rule="evenodd" clip-rule="evenodd" d="M73.4629 103.936C65.1758 86.3993 87.62 69.8951 101.684 80.8191C99.6286 82.7053 98.2395 83.6254 95.7046 84.2064C93.1559 84.7917 91.8086 84.0631 90.2067 84.7942C89.6629 89.7605 93.3482 90.4753 89.6295 95.826C87.081 95.5166 87.2531 96.0624 84.7196 95.2746C82.3666 94.5419 81.4579 93.488 79.4257 93.497C76.9897 97.4883 80.3177 98.1317 73.4611 103.934L73.4629 103.936ZM75.1599 105.257L76.5038 103.901C79.3868 101.808 79.9087 98.9304 81.1165 96.5323C84.1072 97.0948 88.5924 99.1363 91.2568 97.3573C93.7562 95.6879 93.509 89.5512 92.4684 87.0419C95.3177 86.2611 98.2554 86.3515 101.117 84.0187L102.885 82.867L104.742 80.6167C101.119 76.4409 95.4753 75.518 91.9147 75.3422C85.1298 75.006 84.8117 76.7471 78.2867 79.0988C73.919 74.2471 67.6295 73.3899 64.3286 75.9231C63.6279 76.4612 63.107 76.6896 62.6001 78.2884C66.7213 79.5052 70.0995 72.545 76.5917 80.7131C71.2531 86.9312 68.5845 92.3193 69.8926 100.155C70.2473 102.279 70.814 105.434 72.9409 106.535L75.1561 105.257L75.1599 105.257Z" fill="#7BB34C"/>
<path fill-rule="evenodd" clip-rule="evenodd" d="M123.542 71.4657L124.482 72.2443L125.921 71.892L125.619 70.5956C123.421 58.8854 133.093 57.8322 134.685 54.6386C133.553 53.5848 134.487 53.1744 131.79 54.2282C127.56 55.8801 125.473 59.6368 123.628 63.1689C121.139 57.7299 121.044 50.937 118.092 50.3363C116.976 52.308 117.167 50.2042 119.139 56.8667C119.834 59.2154 120.735 61.1421 121.23 63.7467C119.068 63.2412 116.823 61.4426 114.393 60.9784C112.979 60.7075 112.006 60.7741 110.487 60.9435C106.587 61.3815 107.359 62.5671 107.196 63.0092C109.946 64.4011 110.726 61.8629 116.215 63.9351C119.565 65.2009 122.89 67.8542 123.545 71.464L123.542 71.4657Z" fill="#7BB34C"/>
<path fill-rule="evenodd" clip-rule="evenodd" d="M124.48 72.2421L123.541 71.4635C119.933 69.7045 110.747 82.1432 115.814 88.7797C117.304 86.8794 116.657 86.3824 116.557 84.4062C116.478 82.8178 116.596 81.9315 117.168 80.1724C118.607 75.7517 120.836 75.0892 124.478 72.24L124.48 72.2421Z" fill="#FFFDED"/>
<path fill-rule="evenodd" clip-rule="evenodd" d="M122.966 127.817C127.342 127.15 128.804 112.42 124.702 110.049C122.28 112.85 127.268 115.343 123.865 123.694C123.638 124.25 123.056 125.319 122.924 125.753C122.258 127.948 122.345 125.973 122.966 127.817V127.817Z" fill="#FFFDED"/>
<path d="M38.2662 39.3087L38.31 39.454C39.7343 39.0237 40.576 38.6654 41.0679 38.2828C41.3176 38.0885 41.481 37.8854 41.584 37.6608C41.6864 37.4378 41.7246 37.2035 41.7385 36.9552C41.7481 36.7837 41.7463 36.597 41.7444 36.3994C41.7436 36.3157 41.7427 36.2301 41.7427 36.1429C41.7428 35.8453 41.7522 35.5149 41.8022 35.1382C41.9019 34.3867 42.1647 33.4409 42.8503 32.2098L42.7178 32.136L42.8504 32.2098C44.3499 29.5167 44.6837 27.4827 44.314 26.0701C43.9411 24.6452 42.8602 23.8826 41.621 23.7329C39.1575 23.4354 36.061 25.5514 36.4875 29.5904C36.4875 29.5904 36.4875 29.5905 36.4875 29.5905L36.6384 29.5745L38.2662 39.3087ZM41.5521 40.2657L41.4158 40.294L41.4323 40.4322L41.4327 40.4352L41.4367 40.4693L41.455 40.4983C43.0225 42.9811 43.3087 43.9544 43.4486 44.8982C43.4716 45.0535 43.4908 45.2089 43.5107 45.3702C43.6149 46.2161 43.7395 47.2275 44.5505 49.2669L44.5703 49.3168L44.6171 49.3431C44.6589 49.3666 44.7022 49.3911 44.7468 49.4164C45.2775 49.7168 46.007 50.1297 46.8415 50.384C47.749 50.6607 48.7927 50.754 49.8559 50.3105L49.8561 50.3104C51.8448 49.4777 52.66 47.0952 51.3997 45.0045C50.8753 44.1336 50.0891 43.7726 49.2402 43.4939C49.0467 43.4304 48.8507 43.3712 48.6533 43.3116C47.9755 43.107 47.2805 42.8971 46.6106 42.4887L46.6105 42.4887C45.7994 41.9948 45.3486 41.564 45.0635 41.2118C44.9205 41.0353 44.8173 40.8764 44.7295 40.7343C44.7124 40.7066 44.6956 40.6791 44.679 40.6518C44.6126 40.543 44.5493 40.4392 44.4821 40.3515C44.3945 40.2372 44.2928 40.1393 44.1505 40.0708C44.0101 40.0033 43.8419 39.97 43.6293 39.9648C43.21 39.9544 42.5764 40.0529 41.5521 40.2657ZM58.5286 29.9739L58.8616 29.6588L58.8438 29.6609C60.6061 27.853 61.2469 25.9227 60.6945 24.5421C60.1012 23.0595 58.1974 22.3426 55.1939 23.0266L55.13 23.0411L55.0968 23.0976C54.2223 24.5846 53.9285 25.4272 53.7348 26.274C53.6814 26.5076 53.636 26.7388 53.5882 26.9822C53.4635 27.6175 53.3224 28.3362 52.9788 29.4004L53.1178 29.4453L52.9788 29.4004C52.545 30.7448 52.024 31.8375 51.479 32.8885C51.3364 33.1633 51.1919 33.4359 51.0468 33.7097C50.6381 34.4805 50.2244 35.2608 49.836 36.1273L49.7235 36.3783L49.9958 36.3396C53.7687 35.8045 54.8749 35.2345 55.548 34.2333C55.7338 33.9569 55.882 33.6592 56.0462 33.3294C56.4673 32.4838 56.9938 31.4266 58.5286 29.9739ZM66.3782 47.9236L66.375 47.9233C66.2075 46.6383 65.9243 45.7309 65.6619 45.0329C65.5812 44.8182 65.5009 44.6196 65.4277 44.4385C65.3834 44.3289 65.3417 44.2257 65.3041 44.1292C65.2021 43.8679 65.126 43.6466 65.0872 43.4383C65.0124 43.0373 65.0722 42.6689 65.4174 42.1563C65.7697 41.6331 66.4117 40.9718 67.4933 39.9975L67.678 39.8311L67.4457 39.7428L63.9686 38.421L63.8339 38.3698L63.7758 38.5016C63.5564 38.9989 63.5772 39.4922 63.5985 39.9979C63.6035 40.1151 63.6085 40.2329 63.6105 40.3515C63.6214 40.9913 63.5579 41.7245 63.0111 42.6817L63.0111 42.6817C63.0111 42.6817 63.0109 42.682 63.0105 42.6827L63.0087 42.6854C63.007 42.6878 63.0047 42.691 63.0016 42.695C62.9953 42.7031 62.9866 42.7134 62.9753 42.726C62.9526 42.7512 62.9218 42.7826 62.8829 42.8205C62.8051 42.8961 62.7 42.992 62.5718 43.1072C62.5163 43.1571 62.4568 43.2103 62.3936 43.2669C62.166 43.4705 61.8913 43.7162 61.5934 43.9942C60.8328 44.704 59.9119 45.6324 59.2062 46.6394C58.5036 47.6419 57.9959 48.7481 58.1039 49.8077C58.2137 50.8839 58.9512 51.8612 60.6195 52.6124L60.6283 52.6164L60.6376 52.6192C62.3826 53.1505 63.9359 52.8675 64.9981 51.992C66.0609 51.116 66.6065 49.6681 66.3782 47.9236ZM70.9698 31.5603L70.9602 31.569L70.9576 31.5724C70.5186 31.9685 70.0417 32.3563 69.5546 32.7526L69.5252 32.7765C69.0254 33.183 68.5159 33.5983 68.0333 34.0356C67.0687 34.9097 66.1998 35.8822 65.7158 37.0762L65.6402 37.2628L65.8404 37.2841C66.4915 37.3535 67.0122 37.4172 67.4516 37.471C67.7131 37.503 67.9459 37.5315 68.1601 37.5555C68.7294 37.6194 69.1562 37.6502 69.604 37.624C70.4563 37.5741 71.3751 37.3171 73.5189 36.7175C73.6138 36.6909 73.711 36.6637 73.8108 36.6359C74.7098 36.3847 75.463 36.138 76.0698 35.845C76.6776 35.5515 77.1474 35.2073 77.471 34.7564C78.1208 33.851 78.1427 32.571 77.6614 30.5762L77.6452 30.5089L77.5837 30.477C75.8753 29.5921 74.8042 29.3044 73.8535 29.5415C73.38 29.6596 72.9488 29.9048 72.4934 30.2475C72.0739 30.5632 71.6253 30.9683 71.1002 31.4426C71.0572 31.4814 71.0138 31.5206 70.9698 31.5603ZM75.7425 44.4398L75.6221 44.3329L75.5225 44.4595L75.5199 44.4629L75.5055 44.4812L75.4972 44.503C75.3372 44.926 74.9139 46.1008 74.5144 47.2939C74.3146 47.8905 74.1203 48.4928 73.9678 49.0086C73.8163 49.5208 73.7027 49.9581 73.6686 50.2193L73.6685 50.2196C73.5113 51.4392 73.7729 52.6302 74.3949 53.4634C75.0223 54.3039 76.0105 54.7699 77.2634 54.5324C77.8497 54.4212 78.3036 54.2016 78.6387 53.8913C78.9742 53.5807 79.1818 53.1874 79.2884 52.7438C79.4998 51.8633 79.3155 50.776 78.9424 49.6902C78.5677 48.5999 77.9952 47.4901 77.4051 46.5541C76.8165 45.6203 76.2033 44.8483 75.7425 44.4398ZM91.8347 42.8511L91.8228 42.789L91.7704 42.7538C87.3902 39.8081 83.0423 40.7332 77.5244 42.2214L77.5639 42.368L77.4297 42.4389C77.6115 42.7826 78.0394 43.3363 78.5954 43.9773C79.1549 44.6223 79.854 45.3667 80.5882 46.095C81.3222 46.8232 82.0929 47.5369 82.7955 48.1199C83.4946 48.7 84.1377 49.1603 84.6143 49.3712L84.6144 49.3713C86.9707 50.4109 89.0218 50.0233 90.3638 48.7307C91.6994 47.4441 92.3023 45.2897 91.8347 42.8511ZM18.4649 50.0107L18.5076 50.1162L18.6209 50.1048C20.9788 49.866 22.3943 48.6506 22.9788 46.9509C23.5587 45.2647 23.3127 43.1269 22.4153 41.0383C22.3245 40.827 22.2364 40.6223 22.1509 40.4239C20.976 37.6953 20.309 36.1462 20.1506 34.6498C19.9825 33.0619 20.3877 31.5236 21.4264 28.6756L23.7519 26.7714C25.5346 26.2378 26.853 26.2262 27.9619 26.5052C29.0685 26.7836 29.9804 27.3543 30.9529 28.0188L31.6832 29.4263L31.6942 29.4599C32.6814 32.4935 32.0423 34.5039 31.3166 36.4243C31.2698 36.548 31.2227 36.6714 31.1755 36.7948C30.4886 38.5924 29.805 40.3816 30.4673 42.8761L30.5098 43.0364L30.6657 42.9799C32.7007 42.2412 34.5037 41.5231 35.5598 40.2339C36.6305 38.9269 36.9101 37.0698 36.0076 34.1251C35.3393 31.9442 34.7825 29.8802 34.7906 28.0322C34.7986 26.1942 35.3654 24.5774 36.9453 23.275L36.9453 23.275C40.3325 20.4816 45.3229 22.5189 46.3001 26.1979L46.4468 26.1589L46.3001 26.1979C46.6141 27.3798 46.5919 28.3292 46.3876 29.1712C46.1824 30.017 45.792 30.7616 45.3557 31.5365C45.2998 31.6359 45.2432 31.7356 45.1861 31.836C44.3547 33.3002 43.4438 34.9045 43.4904 37.4329L43.4937 37.6102L43.6683 37.5795C45.5363 37.2519 46.9787 36.1723 48.1091 34.7997C49.2384 33.4285 50.0628 31.7576 50.6966 30.2299C51.0723 29.3246 51.3267 28.3768 51.5548 27.4503C51.5996 27.2687 51.6432 27.0882 51.6866 26.9089C51.8653 26.1697 52.0387 25.4528 52.2576 24.7802C52.7993 23.1153 53.607 21.7622 55.4137 21.1158C59.1982 19.7632 62.7718 22.5102 62.7188 26.3117L62.7188 26.3117C62.697 27.9068 61.708 29.269 60.4963 30.645C60.2575 30.9162 60.0099 31.1879 59.7605 31.4617C58.7585 32.5614 57.7261 33.6945 57.1089 34.9598L57.035 35.1113L57.1934 35.169L59.4588 35.9933L59.4702 35.9974L59.4821 35.9997C61.3521 36.3587 62.5074 36.2239 63.4359 35.7558C63.8969 35.5234 64.2946 35.2125 64.691 34.8533C64.9166 34.6488 65.148 34.4227 65.3911 34.1851C65.5695 34.0107 65.7543 33.8302 65.9478 33.6474C66.09 33.5132 66.2592 33.3518 66.4502 33.1696C67.2037 32.451 68.297 31.4082 69.4145 30.43C70.1148 29.817 70.822 29.2316 71.4585 28.769C72.0995 28.303 72.6536 27.973 73.0508 27.8555C74.9344 27.2998 76.6667 27.5702 77.9254 28.4547C79.1828 29.3381 79.9863 30.8471 79.9898 32.8084C79.9913 33.8575 79.7716 34.6874 79.3871 35.3585C79.0025 36.0299 78.4478 36.5517 77.7651 36.9763C76.4013 37.8247 74.5493 38.2738 72.5731 38.753L72.534 38.7625L72.3123 38.8162L72.4476 38.9999C73.2687 40.1152 73.8588 40.7387 74.4282 41.0102C75.0167 41.2906 75.5591 41.1855 76.2342 40.9394C76.4469 40.8618 76.6763 40.7689 76.9294 40.6664C78.2703 40.1233 80.2748 39.3115 83.9749 39.0941L83.9749 39.0941C85.9436 38.9782 87.9242 39.0525 89.5971 39.5123C91.2688 39.9719 92.6172 40.8115 93.3528 42.2158C94.3209 44.0656 94.336 45.7767 93.7552 47.2195C93.1725 48.6666 91.9843 49.8578 90.5232 50.6474C87.5929 52.2309 83.6351 52.1697 81.3719 49.4124L81.0587 49.0309L81.1034 49.5225C81.3824 52.5877 80.5077 54.9168 79.07 56.0197C78.3536 56.5692 77.4916 56.8203 76.544 56.7084C75.594 56.5962 74.548 56.1178 73.4736 55.1901C72.4607 54.3149 71.9582 53.3823 71.7691 52.4119C71.5792 51.4369 71.7031 50.4114 71.9654 49.3484C72.1493 48.6031 72.3981 47.8501 72.6501 47.0875C72.7586 46.759 72.8677 46.4288 72.9725 46.0966C73.3184 45 73.6141 43.8897 73.6607 42.7965L73.6644 42.7093L73.5909 42.6623C73.3666 42.5187 73.1609 42.3847 72.9707 42.2609C72.5744 42.0028 72.2454 41.7885 71.9561 41.6226C71.5245 41.3752 71.1614 41.2233 70.7646 41.1871C70.3684 41.151 69.9553 41.2317 69.4256 41.4176C68.8972 41.603 68.2383 41.8985 67.3493 42.3026L67.2669 42.34L67.2607 42.4304C67.1573 43.9451 67.5216 45.1834 67.8578 46.326C67.9451 46.6225 68.0304 46.9126 68.1052 47.1993C68.2878 47.8996 68.4102 48.5843 68.3611 49.3128C68.3122 50.0396 68.0921 50.8184 67.5778 51.704L67.5778 51.704C65.9235 54.5537 62.727 55.2688 60.1686 54.3651C58.8906 53.9137 57.7795 53.0603 57.1037 51.8748C56.4291 50.6913 56.1819 49.1656 56.6501 47.3551L56.6501 47.3551C56.9648 46.1357 57.7896 45.0879 58.7766 44.1137C59.2693 43.6274 59.7983 43.1633 60.3196 42.7067L60.3447 42.6847C60.8561 42.2369 61.3601 41.7956 61.8071 41.3524L61.8723 41.2878L61.8453 41.2001L60.9062 38.1422L60.8804 38.0579L60.7944 38.0387C56.4495 37.0647 50.8449 38.0244 46.0969 38.8985L45.8716 38.9399L45.9977 39.1312C46.5996 40.0448 47.1828 40.6028 47.7608 40.9693C48.3378 41.3352 48.901 41.5045 49.4479 41.6512C49.5094 41.6676 49.5705 41.6838 49.6314 41.6999C50.1158 41.828 50.5841 41.9519 51.062 42.1912C51.5956 42.4584 52.1446 42.8722 52.7207 43.6048L52.7207 43.6049C53.8783 45.0755 54.1833 46.5667 53.9262 47.8943C53.6684 49.2259 52.8421 50.4087 51.709 51.2492C49.4414 52.9313 45.9853 53.2182 43.5014 50.6121C42.7503 49.8239 42.4226 48.5453 42.145 47.166C42.1075 46.9796 42.0709 46.7915 42.0342 46.603C41.9368 46.1023 41.8389 45.5993 41.7226 45.1211C41.5623 44.4619 41.3642 43.8366 41.0756 43.3094C40.7862 42.7805 40.4026 42.3446 39.87 42.0738C39.3375 41.8031 38.6719 41.7056 37.8331 41.8248C36.1638 42.062 33.7718 43.1628 30.2705 45.5486L30.1738 45.6145L30.2129 45.7247C30.8489 47.5185 31.413 48.6315 31.9775 49.3342C32.5485 50.0451 33.1179 50.3335 33.7456 50.4855C34.054 50.5602 34.3702 50.6021 34.7048 50.6464C35.7158 50.7805 36.8946 50.9367 38.5314 52.0854C42.0861 54.5795 41.5536 59.3306 38.1249 61.3024L36.7029 60.4683C37.2852 59.8548 37.8343 59.2041 38.2638 58.5452C38.725 57.8375 39.0547 57.1102 39.1313 56.4017C39.2086 55.6865 39.0267 54.9972 38.479 54.3815C37.9362 53.7712 37.0425 53.2422 35.7121 52.8195L35.7121 52.8195C35.1209 52.6317 34.5953 52.4751 34.1254 52.3353L34.1118 52.3312C33.6469 52.1928 33.2381 52.0711 32.8723 51.9512C32.1331 51.7088 31.5824 51.4777 31.1214 51.1444C30.2026 50.48 29.6077 49.3873 28.6597 46.8667L28.6062 46.7246L28.4641 46.7781C28.3821 46.809 28.3026 46.8388 28.2256 46.8677C27.4074 47.1747 26.8676 47.3773 26.4322 47.6536C25.9466 47.9617 25.5953 48.3574 25.1178 49.0623L25.0333 49.1869L25.1573 49.2724C25.7417 49.6752 26.2401 50.0061 26.668 50.2889C26.7156 50.3204 26.7624 50.3513 26.8083 50.3816C27.1749 50.6238 27.4858 50.8291 27.7542 51.0159C28.3581 51.436 28.7328 51.7526 29.0215 52.158C29.3112 52.5649 29.5218 53.0715 29.7766 53.8854C29.9257 54.3613 30.0877 54.9348 30.289 55.6474C30.4097 56.0744 30.5445 56.5515 30.6991 57.0875L28.5762 56.1485C28.0833 54.2425 27.3705 53.0947 26.4107 52.2718C25.5047 51.4951 24.3861 51.0162 23.0696 50.4527C22.9857 50.4167 22.9009 50.3805 22.8154 50.3437L22.7291 50.3067L22.6574 50.3674L19.9277 52.6792L17.5045 52.226C17.2928 51.5195 17.0183 50.884 16.753 50.2697C16.6191 49.9596 16.4875 49.6549 16.3675 49.3493C15.9968 48.4049 15.7199 47.4173 15.7677 46.1372L15.7677 46.1371C15.7921 45.4743 15.8665 44.9328 15.9452 44.4419C15.9621 44.3365 15.9793 44.2329 15.9962 44.1306C16.0578 43.7595 16.1165 43.4059 16.1479 43.0449C16.2291 42.1106 16.1287 41.1232 15.4755 39.5354C14.5018 37.1676 12.9401 36.1846 11.2987 36.1678C9.67367 36.1512 8.01252 37.0829 6.82202 38.4526L6.78982 38.4896L6.78541 38.5385C6.52325 41.4436 7.50131 43.2113 8.76505 44.892C9.01707 45.2271 9.27946 45.5579 9.5453 45.8931C10.5989 47.2214 11.7068 48.6182 12.4389 50.6265C12.3856 50.7078 12.3524 50.7871 12.3399 50.865C12.3238 50.9657 12.3443 51.0535 12.3842 51.1254C12.3559 51.126 12.3256 51.1267 12.2931 51.1273C12.1085 51.1311 11.8524 51.1364 11.4952 51.1474C11.4943 51.1474 11.4934 51.1474 11.4925 51.1475L10.4816 51.1419C10.4129 50.9115 10.3557 50.7142 10.3059 50.5421C10.1735 50.0858 10.0926 49.8067 9.98472 49.5555C9.8273 49.189 9.61076 48.8755 9.11276 48.1547L9.11148 48.1528L9.11143 48.1527L9.06571 48.0866C8.67877 47.527 8.49982 47.2682 8.28048 47.0497C8.11416 46.884 7.92248 46.7399 7.60114 46.4983C7.49312 46.4171 7.37046 46.3249 7.22918 46.2171L5.73485 43.9572C4.90693 41.8039 4.63494 39.7835 5.0915 38.1561C5.54582 36.5366 6.72783 35.2831 8.86709 34.6673C10.2898 34.2581 11.4167 34.1832 12.337 34.3468C13.2549 34.51 13.9771 34.912 14.5896 35.4736C15.2044 36.0373 15.71 36.7629 16.1902 37.5745C16.4301 37.98 16.6625 38.4047 16.8988 38.84C16.923 38.8846 16.9473 38.9294 16.9717 38.9743C17.18 39.3582 17.3922 39.7492 17.6146 40.1385L17.8113 41.3151C17.905 42.714 17.8135 43.7191 17.7307 44.6289C17.6992 44.9755 17.6689 45.3083 17.6506 45.6438C17.5841 46.8643 17.6827 48.0765 18.4649 50.0107ZM25.369 49.2325C25.398 49.1898 25.4264 49.1484 25.4542 49.1082L35.6661 52.9641C35.0701 52.7749 34.5408 52.6173 34.0671 52.4762C30.7908 51.5008 30.1712 51.3164 28.5176 46.9201C28.4891 46.9308 28.461 46.9414 28.4332 46.9519C28.3828 46.9708 28.3335 46.9893 28.2852 47.0075C26.5582 47.6558 26.1502 47.8089 25.2434 49.1474L25.369 49.2325ZM25.2994 45.8212L25.3536 45.9629C26.69 45.452 27.4976 45.0015 27.9725 44.511C28.4584 44.009 28.5852 43.477 28.5978 42.8472C28.6034 42.5661 28.587 42.2649 28.5689 41.934C28.5072 40.8009 28.4265 39.3189 29.1459 37.1004C30.2404 33.7268 30.2851 31.3757 29.7246 29.8767C29.4433 29.1244 29.0088 28.5854 28.4784 28.2456C27.9484 27.9062 27.3324 27.7719 26.6977 27.8124C24.173 27.9738 21.3102 30.8966 21.9857 34.9683C22.2923 36.8182 22.8889 37.9895 23.4758 39.1417C23.5947 39.3751 23.7132 39.6077 23.8288 39.845C24.512 41.2475 25.1141 42.8463 25.1476 45.8229L25.2994 45.8212Z" fill="#FFFDED" stroke="#FFFDED" stroke-width="0.303522"/>
<path fill-rule="evenodd" clip-rule="evenodd" d="M53.2146 12.7462L39.1471 18.2039C40.2494 16.8865 42.442 14.2012 44.2002 13.2061C46.832 11.7187 50.507 12.751 53.2116 12.7466L53.2146 12.7462ZM21.3011 28.5838L23.6823 26.6341C24.6214 18.7918 32.3034 9.87079 38.3006 5.89457C45.2777 1.26665 60.2234 -2.13151 69.3904 -2.33755C66.1185 1.11518 51.4963 5.86865 46.0169 9.23906C40.0422 12.9161 32.1792 21.4216 31.0731 27.9144L31.8469 29.4055C33.825 27.9471 34.1307 24.5361 35.7928 22.8891C41.0312 17.7012 57.9845 15.9131 59.0388 11.7556C55.8251 10.054 52.2182 11.0799 49.0618 10.0377C55.4119 6.61245 64.7327 3.08073 73.9087 -1.84592C76.5314 -3.25584 76.213 -2.61878 76.3176 -4.97268C70.3755 -5.53611 58.9035 -3.17855 52.4549 -1.88733C31.6878 2.26879 27.4211 14.6862 24.7663 16.9038C17.0082 23.3916 16.3085 21.7266 8.7627 33.5352C12.8092 34.4284 12.1893 29.6116 22.8326 21.1202C22.4388 22.4846 22.1606 23.2024 21.6256 24.7915C21.4157 25.4156 21.0564 26.4274 20.9879 27.0072C20.6557 29.862 20.6681 27.8889 21.3018 28.5898L21.3011 28.5838Z" fill="#7BB34C"/>
<path fill-rule="evenodd" clip-rule="evenodd" d="M4.0969 53.4002C29.562 52.0649 29.587 67.0734 59.8867 68.9858C59.3351 69.5131 59.5665 69.403 58.5688 69.9315C56.7808 70.8813 52.7674 71.1639 50.8062 71.2509C48.079 71.3742 45.4175 71.0739 42.8801 70.6091C37.8026 69.6828 33.054 67.2593 29.7561 65.2864C15.4179 56.7003 14.7813 58.4634 5.81639 54.363L4.0969 53.4002V53.4002ZM38.1301 61.4794L36.4672 60.5038C34.4842 59.9209 32.9742 58.869 30.9386 57.3571L28.4507 56.2566L19.9739 52.8408L17.3884 52.3572L11.5034 51.2979L10.3747 51.2918L7.19557 51.0594L7.12335 46.324L5.60576 44.0289C4.42865 45.5141 4.83757 48.5863 4.8918 50.6828C1.86531 51.8597 -1.12718 50.6543 -3.26056 52.7334C-2.62885 54.4433 10.909 58.3655 10.915 58.3648C11.1669 58.3745 11.2385 58.4883 11.389 58.5712L11.6328 58.6675C13.2873 59.2131 13.416 58.8829 14.7684 60.2531L16.6871 61.0148C18.685 61.6204 22.3753 63.3722 23.7817 64.7085L25.0076 65.0179C44.6898 78.6893 66.3699 72.679 67.7303 67.1402C65.2695 65.7797 46.6915 68.0672 38.1335 61.482L38.1301 61.4794Z" fill="#7BB34C"/>
<path fill-rule="evenodd" clip-rule="evenodd" d="M23.7751 64.706L21.9184 67.0547C16.2448 67.7186 16.8334 65.5272 16.6805 61.0123L14.7618 60.2506C14.6211 60.7625 14.7312 59.9425 14.5716 61.4501C13.4022 72.4896 25.5385 70.5511 25.0041 65.015L23.7781 64.7056L23.7751 64.706Z" fill="#FFFDED"/>
<path fill-rule="evenodd" clip-rule="evenodd" d="M11.6261 58.6653L11.3823 58.569L9.14267 58.8849C6.51745 62.7618 0.632175 67.3177 1.09971 71.3946C3.11483 70.965 3.27935 70.2423 4.28558 68.5543C7.18753 63.6907 10.0891 61.9021 11.0871 60.3496C11.8145 59.2206 11.5211 60.1695 11.623 58.6657L11.6261 58.6653Z" fill="#FFFDED"/>
<path d="M102.138 -19.7646L102.129 -19.7723C102.128 -19.7728 102.127 -19.7732 102.127 -19.7737M102.138 -19.7646L102.136 -19.771L102.134 -19.7788L102.126 -19.7757L102.127 -19.7737M102.138 -19.7646L102.153 -19.7525L102.145 -19.7737M102.138 -19.7646L102.165 -19.6789L102.127 -19.7737M102.127 -19.7737C100 -21.4745 99.062 -23.4736 98.9703 -25.4124C98.8786 -27.3515 99.6337 -29.2294 100.892 -30.6873C102.15 -32.1452 103.912 -33.1835 105.834 -33.4431C107.756 -33.7027 109.838 -33.1833 111.737 -31.5268C112.627 -30.7494 113.26 -29.9323 113.853 -29.1094C113.963 -28.9573 114.071 -28.805 114.179 -28.6527C114.656 -27.9811 115.133 -27.3099 115.728 -26.6566C116.25 -26.0826 116.696 -25.7172 117.052 -25.4336C117.077 -25.4138 117.102 -25.3943 117.126 -25.3753C117.444 -25.1217 117.685 -24.9303 117.833 -24.6999C117.993 -24.4513 118.045 -24.158 117.975 -23.6945C117.905 -23.2312 117.713 -22.5969 117.384 -21.6651C116.084 -17.9872 114.565 -16.6195 113.395 -15.7135C113.295 -15.6359 113.198 -15.5617 113.103 -15.4897C112.645 -15.1418 112.257 -14.8468 111.978 -14.4724C111.642 -14.0226 111.463 -13.4577 111.512 -12.5479C113.575 -12.3232 115.316 -13.8417 116.641 -15.6945C117.968 -17.5489 118.876 -19.7351 119.274 -20.8324C119.816 -22.3294 119.929 -24.4142 119.964 -26.6774C119.971 -27.1839 119.975 -27.6993 119.979 -28.219C119.992 -30.0208 120.006 -31.8742 120.185 -33.5864C120.415 -35.7923 120.919 -37.766 122.051 -39.0944C123.183 -40.4236 124.942 -41.1055 127.677 -40.7309C129.113 -40.5342 130.169 -40.0345 130.95 -39.3307C131.73 -38.627 132.234 -37.7199 132.566 -36.7093C133.108 -35.0596 133.191 -33.1327 133.267 -31.3634C133.284 -30.9656 133.301 -30.5757 133.322 -30.1988L133.326 -30.1422L133.316 -30.1901C130.732 -29.658 129.099 -29.8704 127.034 -30.4552M102.145 -19.7737L127.034 -30.4552M102.145 -19.7737C105.014 -20.673 106.349 -21.4563 107.244 -22.0805C107.417 -22.2016 107.574 -22.3166 107.722 -22.4252C108.339 -22.8774 108.806 -23.2195 109.698 -23.4304C110.082 -23.5211 110.29 -23.5889 110.406 -23.6346C110.438 -23.647 110.462 -23.6578 110.482 -23.6669M102.145 -19.7737L127.034 -30.4552M127.034 -30.4552C126.589 -30.5811 126.137 -30.7529 125.689 -30.9242L125.663 -30.9342C125.223 -31.1021 124.787 -31.2687 124.364 -31.3902C123.503 -31.6375 122.699 -31.6972 122.03 -31.2038C122.117 -30.4414 122.677 -29.8319 123.515 -29.3538C124.354 -28.8748 125.469 -28.5287 126.658 -28.2935C129.037 -27.8231 131.711 -27.797 133.063 -28.0371L132.998 -28.0256L133.056 -28.0285L133.064 -28.0289L133.073 -28.0293L133.379 -21.8815L133.382 -21.811L133.372 -21.8728C131.889 -21.6226 130.682 -21.7702 129.621 -21.8999C129.445 -21.9214 129.273 -21.9425 129.104 -21.9611C127.921 -22.0919 126.907 -22.1053 125.854 -21.3493C126.511 -20.1757 127.841 -19.6966 129.292 -19.5417C130.74 -19.3871 132.305 -19.5562 133.43 -19.6777L133.441 -19.6789L133.483 -19.6835L133.45 -19.6731C134.906 -14.9542 136.317 -12.8323 137.803 -11.4354C138.452 -10.8261 139.114 -10.3546 139.801 -9.8655C139.902 -9.79369 140.004 -9.72149 140.106 -9.64842C140.903 -9.07774 141.733 -8.45414 142.613 -7.54375L142.622 -7.53485L142.615 -7.53622C142.341 -6.2485 141.55 -4.77664 140.529 -3.34377C139.507 -1.91075 138.253 -0.51606 137.051 0.617406C135.611 1.97575 133.704 3.05073 131.889 4.04311C131.773 4.10632 131.658 4.16919 131.543 4.23178C129.86 5.15039 128.288 6.00778 127.283 6.96836C127.418 7.11903 127.529 7.2677 127.633 7.40559L127.637 7.4117C127.74 7.54918 127.835 7.67557 127.936 7.78288C128.039 7.89171 128.148 7.98061 128.278 8.04118C128.408 8.10172 128.56 8.13415 128.749 8.12943C129.127 8.11997 129.654 7.9616 130.449 7.58215C131.244 7.20281 132.307 6.60296 133.76 5.71153C135.541 4.61766 136.958 3.59283 138.492 2.13575C140.06 0.64597 141.185 -0.957829 142.228 -2.46235L142.309 -2.57862C143.321 -4.03897 144.265 -5.40028 145.473 -6.46355L145.613 -6.58721L145.484 -6.46307C146.365 -5.54873 147.328 -4.86584 148.318 -4.18955C148.411 -4.12602 148.505 -4.06254 148.598 -3.99894C149.499 -3.38559 150.418 -2.7603 151.311 -1.95615L151.328 -1.94079L151.313 -1.94683C151.07 -1.34464 150.904 -0.876753 150.76 -0.47191C150.396 0.553475 150.176 1.17442 149.197 2.5487C148.774 3.14323 148.391 3.57305 148.068 3.9268C148.043 3.95402 148.019 3.98078 147.995 4.00713C147.706 4.32345 147.472 4.58015 147.308 4.84769C147.132 5.13705 147.038 5.43903 147.05 5.84252C147.062 6.24458 147.179 6.74767 147.422 7.43969C148.763 6.67965 150.048 5.13064 151.098 3.53834C152.149 1.94288 152.964 0.305164 153.362 -0.622695L153.398 -0.705629L153.372 -0.627341C157.457 0.694362 159.752 3.11582 160.478 5.61958C161.203 8.12343 160.357 10.7082 158.161 12.3541C156.388 13.683 154.791 13.9889 153.336 13.7555C151.883 13.5221 150.573 12.75 149.375 11.9248C149.076 11.7184 148.784 11.5088 148.498 11.3033L148.454 11.2721C148.183 11.0775 147.918 10.8871 147.658 10.7073C147.111 10.3284 146.588 9.99688 146.084 9.77296C145.581 9.54905 145.098 9.43296 144.631 9.48427C144.164 9.53546 143.713 9.75346 143.272 10.1992C143.219 10.9942 143.428 11.8825 143.797 12.8205C144.167 13.7596 144.697 14.7478 145.282 15.7411C145.676 16.4112 146.096 17.0833 146.509 17.7442C146.708 18.0631 146.905 18.3794 147.097 18.6915C147.688 19.6504 148.228 20.5702 148.615 21.4066L148.624 21.4261L148.613 21.4159C148.482 21.552 148.347 21.6927 148.207 21.8374C146.872 23.2261 145.186 24.9785 143.38 26.4621C142.938 26.8254 142.427 27.1734 141.897 27.5254C141.82 27.5765 141.743 27.6277 141.665 27.6791C141.209 27.9814 140.745 28.2886 140.306 28.6132C139.28 29.371 138.389 30.222 138.04 31.321C138.222 31.3691 138.451 31.3799 138.597 31.3742C138.66 31.3719 138.739 31.3787 138.821 31.3858C138.836 31.3871 138.851 31.3884 138.867 31.3897C138.966 31.398 139.069 31.4046 139.157 31.3956C139.456 31.3651 139.705 31.3428 139.91 31.3275C140.012 31.2964 140.121 31.2633 140.24 31.2281C140.894 31.034 141.697 30.5277 142.568 29.8574C143.438 29.1873 144.373 28.354 145.29 27.5067C145.704 27.1236 146.115 26.7375 146.514 26.3624C146.998 25.9081 147.464 25.4697 147.899 25.0722C148.638 24.3975 149.288 23.8393 149.781 23.5182M110.482 -23.6669L110.881 -23.5642M110.482 -23.6669L110.469 -23.6702C110.471 -23.671 110.473 -23.6718 110.474 -23.6726L110.487 -23.6694M110.482 -23.6669C110.484 -23.6678 110.486 -23.6686 110.487 -23.6694M110.881 -23.5642C110.968 -23.536 111.08 -23.5036 111.225 -23.4672C110.831 -21.9509 109.623 -20.8661 108.143 -19.9982C107.045 -19.3537 105.799 -18.8295 104.628 -18.3369C104.219 -18.1649 103.819 -17.9968 103.438 -17.8288L103.441 -17.8211L103.445 -17.8135L103.468 -17.7608M110.881 -23.5642C110.855 -23.5727 110.831 -23.5808 110.809 -23.5886M110.881 -23.5642L111.143 -23.497C111.054 -23.5204 110.98 -23.5419 110.917 -23.5616L110.809 -23.5886M103.468 -17.7608C103.456 -17.7797 103.445 -17.7984 103.434 -17.8168L103.468 -17.7602L103.468 -17.7608ZM103.468 -17.7608C104.349 -16.302 106.151 -13.6281 108.031 -11.1163C108.984 -9.84417 109.956 -8.61352 110.839 -7.60336C111.722 -6.5934 112.516 -5.8032 113.111 -5.41256L113.109 -5.40853L113.118 -5.41158C115.543 -6.17291 116.929 -6.88388 118.049 -7.65867C118.609 -8.04601 119.103 -8.44921 119.626 -8.88236C119.669 -8.91771 119.711 -8.95325 119.755 -8.989C120.24 -9.39143 120.757 -9.82012 121.381 -10.2863C121.551 -10.4136 121.659 -10.5055 121.739 -10.577C121.766 -10.6011 121.79 -10.6227 121.812 -10.6426C121.855 -10.6821 121.89 -10.7145 121.928 -10.7447C122.042 -10.835 122.179 -10.9041 122.609 -11.0717C122.734 -11.1202 122.846 -11.1651 122.947 -11.2066C123.221 -11.2236 123.581 -11.2559 124.045 -11.3078C124.159 -11.3208 124.378 -11.3253 124.543 -11.2967C124.527 -11.1357 124.518 -10.9926 124.51 -10.8623C124.477 -10.3435 124.457 -10.0281 124.112 -9.6001C123.896 -9.33101 123.55 -9.01754 122.993 -8.58229C122.435 -8.1471 121.665 -7.59051 120.599 -6.83517C118.415 -5.28809 116.735 -4.50429 114.249 -3.48508L114.235 -3.52109L114.244 -3.47561C114.577 -1.9285 114.49 -1.00086 114.102 -0.460244C113.715 0.0799302 113.025 0.236635 112.143 0.235536C111.582 0.234834 110.945 0.170252 110.26 0.10091C109.87 0.0613279 109.464 0.0201954 109.048 -0.0114947C107.904 -0.0986532 106.687 -0.11418 105.512 0.171769L105.514 0.179867L105.516 0.187964L105.526 0.230839M105.526 0.230839C105.52 0.214951 105.513 0.199035 105.506 0.183094L105.526 0.231004L105.526 0.230839ZM105.526 0.230839C105.956 1.25147 106.379 2.16131 106.759 2.97781C106.825 3.12086 106.891 3.26104 106.954 3.39845C107.387 4.33254 107.749 5.13838 107.979 5.84604C108.209 6.55373 108.307 7.16234 108.213 7.70216C108.12 8.2399 107.835 8.71033 107.297 9.14289C106.854 8.79646 106.471 8.27297 106.129 7.64571C105.786 7.01607 105.484 6.2824 105.206 5.51943C105 4.95497 104.806 4.37467 104.617 3.8087C104.551 3.60963 104.485 3.41233 104.419 3.21812C104.168 2.47188 103.919 1.77119 103.656 1.19125L103.648 1.19469L103.641 1.19814L103.524 1.25101M103.524 1.25101C103.564 1.22977 103.604 1.20855 103.644 1.18735L103.515 1.25524L103.524 1.25101ZM103.524 1.25101C102.066 2.03246 101.115 2.84459 100.466 3.7861C99.799 4.75317 99.4518 5.85606 99.2017 7.20075C98.9619 8.48934 98.9963 9.44157 99.142 10.182C99.28 10.8838 99.5179 11.395 99.7162 11.8211C99.7271 11.8445 99.7379 11.8676 99.7485 11.8905C99.9529 12.331 100.104 12.6815 100.041 13.0687C99.9786 13.4548 99.7035 13.8795 99.0509 14.4663C96.8335 12.8296 96.439 10.2239 96.8398 7.73663C97.2409 5.24727 98.4385 2.87894 99.3989 1.72522C101.791 -1.14723 103.934 -1.98566 106.031 -2.1494C107.068 -2.23034 108.093 -2.14641 109.133 -2.06136L109.169 -2.05834C110.221 -1.97228 111.287 -1.88706 112.392 -1.9727L112.406 -1.97374L112.399 -1.98525C111.55 -3.41969 110.124 -5.28202 108.471 -7.36691C108.042 -7.90736 107.599 -8.46278 107.146 -9.0296C105.852 -10.6496 104.483 -12.3628 103.183 -14.086C101.428 -16.4121 99.7971 -18.7561 98.6419 -20.9131C97.4865 -23.0704 96.8076 -25.0393 96.954 -26.6159C97.329 -30.6579 100.34 -35.3644 106.526 -35.639C108.053 -35.7067 109.236 -35.4836 110.219 -35.0598C111.202 -34.636 111.986 -34.0114 112.714 -33.2752C113.214 -32.7692 113.688 -32.2108 114.181 -31.6287C114.406 -31.3637 114.634 -31.0939 114.872 -30.8218C115.63 -29.9524 116.476 -29.0613 117.552 -28.2387L117.557 -28.2454L117.562 -28.252L117.576 -28.2711L117.564 -28.2422C117.642 -28.4302 117.694 -28.5353 117.732 -28.6072C117.738 -28.6191 117.744 -28.63 117.749 -28.6403C117.777 -28.6925 117.796 -28.728 117.811 -28.775C117.83 -28.8312 117.844 -28.9039 117.864 -29.0421C117.877 -29.1345 117.893 -29.2565 117.916 -29.4228C117.927 -29.5055 117.939 -29.5991 117.953 -29.7055C118.054 -30.4625 118.029 -31.2943 117.997 -32.1723C117.995 -32.2086 117.994 -32.2451 117.993 -32.2816C117.962 -33.1271 117.929 -34.0141 118 -34.9185C118.149 -36.8049 118.751 -38.7665 120.763 -40.58C124.953 -44.355 130.597 -43.2198 133.3 -39.7203C134.596 -38.0414 135.113 -36.0068 135.293 -33.772C135.429 -32.0789 135.371 -30.2718 135.312 -28.418C135.293 -27.8246 135.274 -27.2264 135.261 -26.6257C135.154 -21.6715 135.466 -16.5448 139.74 -12.5032C140.894 -11.412 142.613 -10.2104 144.589 -8.96188C146.315 -7.87064 148.237 -6.74327 150.148 -5.62212C150.424 -5.46047 150.699 -5.29895 150.974 -5.13769C153.153 -3.8579 155.279 -2.59427 157.043 -1.41C158.807 -0.225566 160.209 0.87887 160.94 1.84012C164.261 6.20755 162.689 11.4338 159.598 13.9116C158.095 15.1168 156.741 15.7205 155.503 15.9335C154.264 16.1465 153.141 15.9688 152.099 15.6104C151.068 15.2559 150.116 14.7247 149.212 14.2195L149.181 14.2024C148.268 13.6924 147.402 13.2112 146.55 12.9699L146.532 12.9649L146.54 12.9814C147.684 15.4383 149.387 18.2596 151.226 21.2489C151.416 21.5579 151.608 21.8688 151.8 22.1812C153.47 24.891 155.213 27.7197 156.723 30.5263C158.408 33.6565 159.802 36.7587 160.483 39.6371C161.163 42.5154 161.129 45.1691 159.958 47.403C157.021 53.002 150.576 55.4692 144.769 52.9426C143.528 52.403 142.254 51.3816 141.045 50.1126C139.837 48.8437 138.695 47.3276 137.719 45.7994C136.744 44.2711 135.935 42.7308 135.393 41.4134C135.121 40.7547 134.917 40.1519 134.792 39.6342C134.667 39.1204 134.621 38.6912 134.664 38.3748C134.896 38.3793 135.092 38.3759 135.261 38.373C135.298 38.3724 135.333 38.3718 135.367 38.3713C135.561 38.3684 135.715 38.3691 135.847 38.3886C135.978 38.408 136.088 38.4461 136.191 38.5182C136.294 38.5904 136.392 38.6969 136.501 38.8537C136.702 39.1438 136.939 39.6039 137.313 40.3328C137.344 40.3931 137.376 40.4552 137.409 40.5192C137.84 41.3569 138.441 42.518 139.344 44.1265C139.579 44.5444 139.796 44.9533 140.006 45.3492C140.409 46.108 140.786 46.8192 141.214 47.4548C141.866 48.4226 142.635 49.2165 143.792 49.7396L143.792 49.74L143.795 49.7403C143.833 49.7443 143.872 49.7365 143.912 49.725C143.931 49.7192 143.951 49.7125 143.97 49.7057C143.99 49.6989 144.009 49.6922 144.028 49.6862C144.105 49.6623 144.174 49.6532 144.231 49.711L144.237 49.7058L144.231 49.711C144.331 49.8113 144.473 49.8562 144.649 49.8533C144.825 49.8504 145.037 49.7998 145.278 49.7083C145.761 49.5252 146.365 49.1774 147.047 48.7153C148.41 47.791 150.084 46.4081 151.721 44.9663C153.358 43.5244 154.958 42.0234 156.171 40.8627C156.902 40.1632 157.493 39.5875 157.867 39.2228C158.114 38.9822 158.267 38.8334 158.304 38.8015L158.321 38.8213L158.306 38.7914L154.882 32.1165L154.874 32.1203L154.867 32.1241L154.801 32.1578M154.801 32.1578C154.824 32.1426 154.847 32.1278 154.87 32.1133L154.796 32.1606L154.801 32.1578ZM154.801 32.1578C154.033 32.6635 153.013 33.5769 151.853 34.6529C151.597 34.8901 151.334 35.1352 151.065 35.3857C150.079 36.3057 149.016 37.2974 147.935 38.2312C146.559 39.4193 145.154 40.5133 143.839 41.2467C142.527 41.9789 141.307 42.3507 140.298 42.1001C140.277 41.5816 140.287 41.2248 140.349 40.9598C140.41 40.6943 140.524 40.5209 140.711 40.369C140.895 40.2189 141.149 40.09 141.495 39.9146L141.511 39.9066C141.865 39.7272 142.313 39.4996 142.874 39.1534C144.645 38.0611 146.772 36.545 148.696 34.8818C150.62 33.2187 152.342 31.408 153.302 29.7262L153.309 29.7299L153.302 29.7181L149.902 23.4527L149.894 23.4567L149.887 23.4606L149.781 23.5182M149.781 23.5182C149.818 23.494 149.854 23.4711 149.89 23.4496L149.742 23.5394L149.781 23.5182ZM110.487 -23.6694L110.809 -23.5886M110.487 -23.6694C110.501 -23.6761 110.513 -23.6818 110.522 -23.6867C110.526 -23.6889 110.53 -23.6908 110.533 -23.6926C110.539 -23.6957 110.543 -23.6982 110.547 -23.7002C110.553 -23.7033 110.557 -23.7045 110.559 -23.7048C110.561 -23.705 110.562 -23.7048 110.566 -23.7031C110.569 -23.7014 110.573 -23.6988 110.579 -23.6948L110.582 -23.693C110.597 -23.6832 110.62 -23.668 110.663 -23.6477C110.697 -23.6313 110.744 -23.6116 110.809 -23.5886M147.115 51.7236L147.099 51.7372L147.12 51.7382C150.839 51.9037 153.879 51.0923 155.939 49.3685C157.999 47.6444 159.077 45.0088 158.871 41.5289L158.87 41.512L158.858 41.5231L147.115 51.7236ZM123.528 -11.4915C123.408 -11.4248 123.218 -11.3367 122.943 -11.2231C122.842 -11.2168 122.752 -11.2127 122.674 -11.2104C122.528 -11.2062 122.419 -11.2085 122.342 -11.2158C122.304 -11.2194 122.273 -11.2244 122.25 -11.2303C122.227 -11.2362 122.211 -11.243 122.203 -11.2501C122.194 -11.2567 122.192 -11.2629 122.194 -11.2689C122.195 -11.2759 122.201 -11.285 122.213 -11.2958C122.237 -11.3172 122.282 -11.3414 122.341 -11.3671C122.459 -11.4183 122.634 -11.4736 122.82 -11.522C123.006 -11.5705 123.202 -11.612 123.363 -11.6356C123.443 -11.6475 123.514 -11.6548 123.571 -11.6563C123.599 -11.6571 123.624 -11.6564 123.644 -11.6542C123.664 -11.6519 123.678 -11.6481 123.688 -11.6431C123.697 -11.6382 123.7 -11.6329 123.7 -11.6276C123.7 -11.6214 123.696 -11.6119 123.685 -11.5986C123.661 -11.5725 123.611 -11.5373 123.528 -11.4915ZM139.107 31.6136C139.275 31.5482 139.536 31.4599 139.914 31.3439C140.122 31.3284 140.285 31.3202 140.409 31.3179C140.532 31.3157 140.616 31.3193 140.668 31.3275C140.694 31.3316 140.711 31.3367 140.72 31.3423C140.725 31.345 140.727 31.3474 140.728 31.3491C140.729 31.3506 140.729 31.352 140.728 31.3541C140.728 31.3553 140.727 31.3567 140.726 31.3582C140.725 31.3599 140.723 31.3617 140.721 31.3638C140.717 31.3677 140.712 31.372 140.704 31.3767C140.701 31.3791 140.696 31.3816 140.692 31.3841C140.679 31.3914 140.663 31.399 140.644 31.407C140.594 31.4287 140.523 31.4526 140.439 31.4774C140.272 31.527 140.051 31.5801 139.827 31.6267C139.604 31.6733 139.377 31.7133 139.199 31.7367C139.11 31.7484 139.033 31.7559 138.974 31.7581C138.944 31.7592 138.92 31.7589 138.9 31.7571C138.893 31.7564 138.886 31.7555 138.88 31.7544C138.872 31.7527 138.866 31.7506 138.862 31.7483C138.859 31.7464 138.858 31.745 138.858 31.7445C138.858 31.744 138.858 31.7426 138.859 31.7395C138.863 31.733 138.873 31.7237 138.893 31.7115C138.931 31.6874 139 31.6552 139.107 31.6136Z" fill="#FFFDED" stroke="#FFFDED" stroke-width="0.0166677"/>
<path fill-rule="evenodd" clip-rule="evenodd" d="M100.912 30.4634C110.472 21.3241 122.037 36.4012 113.828 43.9738C104.754 52.3426 91.9181 39.0615 100.912 30.4634V30.4634ZM118.622 22.1916C127.602 13.1669 140.09 27.6645 131.282 35.6485C127.375 39.1904 120.496 38.9041 118.777 35.3332C115.764 29.0698 113.937 26.9002 118.622 22.1916V22.1916ZM133.684 21.3933C130.209 17.6104 128.079 18.4166 128.36 16.3679C128.808 13.1045 135.77 11.2341 139.081 10.8149C139.948 15.3711 137.899 20.2303 135.675 23.1641L133.684 21.3931L133.684 21.3933ZM102.328 26.5297C97.1585 15.183 112.88 6.83112 119.289 18.8634C115.399 21.0622 114.431 24.0005 113.189 27.0003C109.384 25.4699 107.831 25.2793 102.328 26.5298L102.328 26.5297ZM116.024 11.6167C116.607 9.33654 117.618 6.67002 119.955 4.72428C123.222 9.23143 125.25 9.6908 126.03 16.677C124.912 17.6345 123.441 17.3291 121.306 17.8122C119.152 13.8969 117.887 14.0357 116.024 11.6167V11.6167ZM118.506 39.1061C122.129 39.2953 124.396 42.2424 130.368 39.0375C139.207 34.2944 134.287 28.9982 137.451 24.4043C140.557 19.8947 142.684 14.6424 140.844 8.59893C135.24 8.68552 132.795 10.1155 127.668 13.0582C125.833 8.08062 123.365 4.09041 119.433 2.20008C116.051 4.18551 114.491 8.51252 113.888 11.0315C108.679 10.9728 105.227 10.4767 101.266 15.4741C97.8333 19.8047 99.4626 21.9272 100.051 27.9129C97.5351 31.1682 95.6734 32.9617 95.7483 37.1851C95.8316 41.8347 98.3871 45.5801 101.784 47.3303C109.172 51.1381 117.735 46.6511 118.505 39.1063L118.506 39.1061Z" fill="#7BB34C"/>
<path fill-rule="evenodd" clip-rule="evenodd" d="M103.73 41.5656C106.006 39.9487 104.792 40.5222 106.45 38.8915C108.323 39.8137 107.331 40.0725 109.218 38.8079C108.136 36.7333 108.037 38.0428 107.426 36.5C106.549 34.2852 108.101 35.9988 107.077 33.7941C104.592 34.1534 105.815 34.739 104.703 35.2554C103.008 36.0418 104.427 33.8234 101.672 36.0158C102.303 37.693 102.354 36.4074 103.066 37.7253C104.113 39.663 102.85 38.2566 103.73 41.5656L103.73 41.5656Z" fill="#7BB34C"/>
<path fill-rule="evenodd" clip-rule="evenodd" d="M122.19 25.2316C121.991 25.2536 120.916 25.2762 120.762 25.3385C119.208 25.9686 119.891 25.5305 119.132 26.6023C120.613 27.7396 120.98 27.1828 121.622 28.1946C122.724 29.9312 120.341 29.2009 123.058 30.535C125.12 28.7696 123.217 29.479 124.464 28.3341C126.035 26.8929 125.762 29.3985 127.083 26.6452C125.613 25.1464 127.279 26.0446 124.482 25.6016C124.565 23.3874 124.996 24.3563 123.532 22.5369C121.778 23.553 122.233 23.2032 122.19 25.2317L122.19 25.2316Z" fill="#7BB34C"/>
<path fill-rule="evenodd" clip-rule="evenodd" d="M107.155 17.9856C106.886 18.0287 105.574 18.1507 105.419 18.2001L104.072 19.0528C104.265 20.7189 104.703 20.2195 106.43 20.6789C106.464 21.0516 106.376 21.5879 106.586 22.0276C108.279 25.5821 104.015 19.4159 107.44 23.1423C107.519 23.2272 107.71 23.3548 107.859 23.4414C109.017 21.9452 108.36 21.8793 109.151 21.1802C109.776 20.6275 110.982 20.6619 111.85 19.794C110.35 17.6323 111.842 19.0131 109.26 18.2396C109.187 17.2881 109.387 16.3665 107.892 15.4655C106.645 17.0019 107.001 16.0732 107.155 17.9857L107.155 17.9856Z" fill="#7BB34C"/>
<path fill-rule="evenodd" clip-rule="evenodd" d="M171.42 187.606C166.123 184.042 162.493 181.152 159.192 176.173C151.293 164.253 149.81 147.968 158.566 134.901L225.872 180.24C221.176 189.801 206.851 195.262 200.742 195.831C190.137 196.821 183.115 195.475 171.421 187.604L171.42 187.606ZM188.393 152.228C192.342 147.045 199.882 152.313 196.316 157.738L188.393 152.228ZM179.098 146.174C183.08 138.617 194.103 136.953 201.017 141.492C208.647 146.503 210.818 156.269 205.868 163.705C203.407 163.12 200.844 160.881 198.542 159.237C199.306 155.423 200.554 152.231 196.435 149.351C192.656 146.707 189.384 148.168 186.292 151.042L179.097 146.176L179.098 146.174ZM207.702 165.375C208.66 163.113 209.586 161.552 210.143 159.299C210.75 156.846 210.258 155.504 210.966 153.118C219.437 158.14 225.64 167.787 223.78 176.226L207.704 165.376L207.702 165.375ZM181.613 140.111L181.085 140.513L177.265 144.595L158.034 132.04C150.303 141.099 149.708 155.716 151.282 162.957C156.605 187.432 189.383 208.416 215.761 192.733C220.292 190.038 225.336 185.713 228.543 180.424C227.617 177.769 227.274 179.535 226.372 177.329L225.092 166.296L224.755 165.355C224.127 164.372 219.535 156.727 219.493 156.6L218.559 156.327C216.178 153.995 210.687 151.242 209.52 149.003C206.026 142.292 201.716 136.347 191.399 136.838C185.993 137.096 184.606 139.017 181.616 140.111L181.613 140.111Z" fill="#FFFDED"/>
<path fill-rule="evenodd" clip-rule="evenodd" d="M181.085 140.513L181.613 140.111C183.022 137.812 182.428 133.317 182.358 130.853C182.201 125.293 183.024 116.792 180.468 112.992C177.445 108.497 174.799 109.255 171.151 108.236C172.128 99.9598 176.183 102.284 178.492 99.0058C175.75 96.456 172.272 100.364 170.306 102.955C169.574 100.415 169.68 96.5168 167.502 94.6072C165.339 96.7553 168.318 99.6262 167.573 103.459C164.901 101.695 158.756 99.8545 158.993 102.868C159.719 104.639 164.213 101.696 168.916 108.403C163.726 113.622 158.949 112.992 164.134 126.165C166.986 133.406 169.909 145.397 175.222 139.229C172.15 137.676 174.062 139.323 171.305 138.165L170.172 134.828C172.508 134.174 174.992 134.694 175.796 132.201C173.755 131.089 171.422 132.26 169.286 132.536C168.281 131.122 168.492 130.852 167.321 129.369C169.844 127.502 170.16 128.767 171.21 126.982C169.943 125.461 168.815 126.08 166.841 126.459C157.849 113.743 173.586 105.328 178.87 114.606C180.639 117.712 179.96 124.177 180.07 127.82L180.139 137.818C180.195 140.06 179.654 139.792 181.08 140.513L181.085 140.513Z" fill="#7BB34C"/>
<path fill-rule="evenodd" clip-rule="evenodd" d="M182.656 148.278C186.275 149.499 183.885 146.879 189.538 145.125C194.55 143.57 201.509 146.803 202.406 153.411C202.903 157.074 200.815 159.37 202.107 161.455C203.592 160.828 201.896 163.559 203.961 159.683C209.255 149.754 193.804 135.905 183.968 145.778L182.655 148.28L182.656 148.278Z" fill="#7BB34C"/>
<path fill-rule="evenodd" clip-rule="evenodd" d="M103.847 232.855C99.6553 228.041 96.8978 224.309 94.9989 218.645C90.457 205.085 93.2435 188.972 105.086 178.62L158.349 239.847C151.337 247.864 136.086 249.428 130.038 248.396C119.539 246.604 113.105 243.485 103.849 232.854L103.847 232.855ZM129.406 203.082C134.563 199.099 140.481 206.14 135.631 210.457L129.406 203.082ZM121.997 194.826C127.801 188.559 138.878 189.808 144.38 195.983C150.451 202.799 150.019 212.794 143.311 218.694C141.086 217.492 139.19 214.665 137.393 212.481C139.119 208.994 141.151 206.235 137.919 202.386C134.953 198.853 131.415 199.417 127.684 201.392L121.995 194.828L121.997 194.826ZM144.65 220.782C146.161 218.846 147.461 217.578 148.582 215.545C149.804 213.333 149.676 211.91 150.978 209.789C157.859 216.834 161.351 227.759 157.369 235.428L144.652 220.784L144.65 220.782ZM125.997 189.622L125.382 189.874L120.635 192.827L105.313 175.718C95.4993 182.465 91.1378 196.429 90.783 203.831C89.5831 228.85 115.807 257.609 145.347 249.293C150.421 247.865 156.413 244.993 160.882 240.716C160.675 237.912 159.886 239.529 159.586 237.164L161.208 226.176L161.126 225.18C160.774 224.068 158.319 215.494 158.312 215.361L157.48 214.856C155.785 211.986 151.195 207.905 150.648 205.44C149.011 198.053 146.388 191.195 136.296 188.996C131.008 187.845 129.171 189.34 126 189.623L125.997 189.622Z" fill="#FFFDED"/>
<path fill-rule="evenodd" clip-rule="evenodd" d="M125.382 189.873L125.997 189.622C127.952 187.766 128.543 183.271 129.114 180.873C130.402 175.462 133.4 167.464 131.916 163.132C130.16 158.007 127.408 158.054 124.149 156.125C127.236 148.384 130.55 151.68 133.63 149.111C131.643 145.938 127.27 148.812 124.7 150.805C124.651 148.162 125.764 144.425 124.155 142.016C121.509 143.53 123.642 147.075 121.93 150.584C119.806 148.188 114.348 144.819 113.796 147.791C114.039 149.689 119.141 148.01 121.947 155.707C115.582 159.404 111.131 157.557 112.727 171.624C113.605 179.357 113.322 191.696 120.052 187.115C117.487 184.819 118.907 186.905 116.545 185.072L116.314 181.555C118.74 181.529 121.005 182.674 122.427 180.475C120.744 178.872 118.187 179.399 116.052 179.112C115.448 177.486 115.721 177.28 114.975 175.544C117.896 174.395 117.873 175.698 119.35 174.246C118.519 172.449 117.27 172.754 115.265 172.609C109.874 157.998 127.254 153.947 129.954 164.277C130.858 167.735 128.527 173.804 127.69 177.35L125.166 187.026C124.64 189.205 124.187 188.806 125.378 189.872L125.382 189.873Z" fill="#7BB34C"/>
<path fill-rule="evenodd" clip-rule="evenodd" d="M157.48 214.859L158.312 215.364L163.341 217.148C165.934 217.907 187.259 207.18 191.102 205.42C195.736 203.298 198.348 201.034 199.984 206.692C197.456 210.28 184.092 213.075 179.356 214.355C167.555 217.548 164.604 216.925 161.126 225.183L161.208 226.18C161.358 226.178 161.655 226.894 163.774 224.82C164.678 223.937 165.043 223.132 165.635 222.213C167.887 218.716 174.372 218.268 181.831 216.036C189.88 213.625 202.885 211.513 202.05 205.562C200.754 196.305 188.899 203.987 180.665 207.787C176.76 209.589 173.094 211.213 169.208 213.07C166.739 214.251 165.759 215.198 163.572 214.682C162.332 214.389 162.057 214.093 161.047 213.909C159.704 213.666 159.487 213.874 158.02 213.57L157.485 214.861L157.48 214.859Z" fill="#7BB34C"/>
<path fill-rule="evenodd" clip-rule="evenodd" d="M124.888 197.781C128.067 199.897 126.438 196.747 132.352 196.518C137.595 196.314 143.479 201.24 142.634 207.854C142.165 211.521 139.554 213.197 140.261 215.547C141.858 215.325 139.513 217.523 142.512 214.316C150.197 206.096 138.861 188.718 126.802 195.705L124.887 197.782L124.888 197.781Z" fill="#7BB34C"/>
</g>
</svg>
