<svg width="316" height="338" viewBox="0 0 316 338" fill="none" xmlns="http://www.w3.org/2000/svg">
<path fill-rule="evenodd" clip-rule="evenodd" d="M50.7183 265.277L69.8923 258.494C74.4412 266.084 81.4725 270.025 87.0031 272.367C84.8877 275.765 72.5646 279.32 65.9159 277.961C60.3535 276.824 53.8656 272.952 50.7183 265.277L50.7183 265.277ZM65.753 250.311L68.4421 256.642L63.7925 258.459C62.8464 254.606 63.3494 252.32 65.753 250.311ZM60.6823 258.341C58.8883 255.93 46.1881 243.821 43.9805 243.457C43.4917 245.511 45.0034 246.349 46.7131 247.866C48.391 249.355 49.2807 250.331 50.9383 251.863C53.6264 254.347 57.4126 257.354 59.3302 259.878C57.5036 260.096 59.1929 261.008 54.4924 257.306C51.8504 255.227 42.3334 246.473 39.5454 247.159C39.6529 249.801 53.0417 258.002 55.747 261.308L48.4008 263.98C48.5009 269.293 54.5101 274.935 57.5406 276.746C70.0038 284.198 78.059 279.52 88.9671 274.241C93.5634 272.017 114.964 281.931 130.939 255.993C136.3 247.288 137.098 227.726 131.835 226.159C130.606 228.096 133.07 231.558 133.223 238.685C133.832 267.065 96.9154 285.562 74.7334 261.417C56.5394 241.612 67.878 208.915 95.5287 205.372C102.979 204.417 114.003 206.809 117.176 210.427C114.462 210.975 111.47 210.475 109.145 212.118C110.634 214.333 118.9 212.658 121.598 211.937C121.338 209.242 119.127 200.765 116.349 200.707C115.647 202.879 117.529 205.635 118.102 207.963C110.651 205.019 106.296 202.167 96.1732 203.147C79.3175 204.777 65.452 218.416 63.9362 235.112C63.7435 237.238 64.6163 247.401 64.5475 247.646C63.4657 251.495 62.792 246.541 61.2231 256.396C60.9192 258.308 61.2691 257.088 60.6822 258.341L60.6823 258.341Z" fill="#F6F1D1"/>
<path fill-rule="evenodd" clip-rule="evenodd" d="M92.6838 223.644L98.4369 239.65C99.0785 239.619 99.0423 239.775 100.01 239.378C101.265 238.864 108.523 233.267 109.023 231.242C106.867 229.964 104.254 233.523 99.9077 236.772L94.4967 222.356C93.5714 219.765 93.5867 221.103 92.8458 220.873C91.995 222.097 91.7316 220.96 92.6839 223.644L92.6838 223.644Z" fill="#0A5425"/>
<path fill-rule="evenodd" clip-rule="evenodd" d="M70.9163 249.328C76.1298 250.666 75.0908 247.226 75.096 247.196C74.5794 247.076 74.2002 246.257 72.1726 247.256C69.3525 248.645 71.2223 248.659 70.9162 249.328L70.9163 249.328Z" fill="#0A5425"/>
<path fill-rule="evenodd" clip-rule="evenodd" d="M123.249 229.999C124.182 230.815 122.597 231.587 125.771 230.7C128.323 229.986 127.521 229.416 127.639 228.432C124.877 227.681 124.571 228.292 123.249 229.999V229.999Z" fill="#0A5425"/>
<path fill-rule="evenodd" clip-rule="evenodd" d="M109.431 267.312C110.233 266.081 110.403 267.003 109.773 264.855C108.948 262.044 108.61 262.973 107.06 263.169C107.423 265.487 107.482 266.755 109.431 267.312L109.431 267.312Z" fill="#0A5425"/>
<path fill-rule="evenodd" clip-rule="evenodd" d="M90.6898 214.836C91.9248 213.022 91.4884 211.148 89.104 210.395C87.7394 212.493 88.5986 214.228 90.6898 214.836Z" fill="#0A5425"/>
<path fill-rule="evenodd" clip-rule="evenodd" d="M40.1379 225.838C42.9009 224.868 46.6664 221.86 49.6733 220.268C51.6096 220.889 52.5653 222.09 54.1992 223.288C55.7804 224.447 57.7113 225.328 58.7911 226.475C56.2439 227.759 52.9773 228.064 49.8179 228.039C48.0773 228.026 46.1025 227.857 44.3768 227.601L41.4019 226.78C40.2929 226.176 40.8688 226.595 40.1401 225.836L40.1379 225.838ZM26.9003 219.684C29.5812 217.673 40.6008 210.638 43.1611 209.795C44.5963 213.843 47.0453 215.67 48.0096 218.625L37.9682 224.706C34.9716 225.994 28.3278 221.929 26.9023 219.687L26.9003 219.684ZM38.5 197.473C41.2585 195.854 41.9122 195.835 44.39 198.261C44.4916 205.458 36.5871 204.012 38.5 197.473ZM58.9903 199.931C60.3452 198.535 66.8772 194.571 68.682 194.023C69.8603 197.013 71.3025 200.017 71.7876 203.805L68.7283 205.562C68.3543 205.373 59.6764 200.452 58.9904 199.929L58.9903 199.931ZM10.846 196.784C9.77145 191.936 9.32637 185.983 13.4991 183.449L33.5439 171.423C36.8673 170.85 44.2909 172.88 46.8095 174.436C45.7467 175.733 41.6735 178.024 39.8377 179.144C34.2952 182.522 34.0293 181.747 33.6724 184.587C36.8824 184.685 43.6249 179.536 46.5505 177.714C49.2448 176.037 49.9419 175.313 53.1718 177.567C55.2479 179.014 57.1813 179.994 58.6609 181.805C56.2947 184.553 47.5083 188.349 46.6985 189.975C44.7119 193.959 52.43 188.898 53.9318 188.007C56.0229 186.767 59.0067 184.585 60.9651 183.917C63.1992 185.999 65.4142 188.53 66.9977 191.373C65.3747 193.406 61.274 195.285 58.9006 196.845C53.721 200.246 54.38 198.041 47.366 198.925L46.1262 196.866C44.9951 195.038 43.5424 193.684 40.5521 194.044C37.8051 194.375 38.8551 195.49 36.5058 194.626C32.8121 193.265 23.3973 182.588 20.1617 184.455C20.6165 186.807 34.106 195.993 35.5492 196.675C36.0405 207.247 38.0594 203.015 42.4738 206.16C41.5292 208.358 42.5292 207.051 40.2255 208.543L24.4673 217.977C22.3121 216.713 22.1415 216.387 20.4858 214.442C18.6286 212.26 18.3342 212.568 17.6757 210.668L28.6012 203.751C30.9125 202.307 30.7263 202.922 31.1165 200.472C27.3873 200.479 19.743 206.958 15.9975 208.469C14.1419 206.743 12.0916 202.225 11.6484 199.202C14.3733 198.06 22.2323 193.876 22.4335 191.088C19.5166 190.875 13.8032 195.447 10.8458 196.786L10.846 196.784ZM13.7432 180.206C15.5847 176.618 21.2876 172.562 26.8145 171.985C25.3921 173.548 16.0853 179.397 13.7432 180.206ZM73.5098 200.195L73.3018 198.583C68.3502 189.259 70.3182 189.778 62.699 182.113L61.7693 180.971C52.6507 174.708 43.6385 166.957 28.1433 169.122C-5.87305 173.874 5.94586 221.878 41.9333 229.575C47.4516 230.756 58.4326 231.887 61.6075 227.254C62.6024 223.928 56.6758 223.116 50.6865 217.299C40.0493 206.966 44.3508 194.835 61.754 204.113C63.7868 205.198 66.2237 206.912 67.849 208.387C68.792 209.243 71.7643 213.204 73.9771 210.571C75.4071 207.784 74.3329 203.171 73.5117 200.197L73.5098 200.195Z" fill="#F6F1D1"/>
<path fill-rule="evenodd" clip-rule="evenodd" d="M61.7656 180.966L62.6953 182.108C64.2815 181.155 63.2404 182.546 64.1186 180.221C64.7845 178.455 65.146 175.712 64.5747 174.221C63.1752 174.413 63.7659 174.591 63.3306 174.814C58.2166 177.459 53.1111 166.472 55.8286 160.561C58.5607 154.621 60.9183 156.796 63.2408 154.136C66.2655 150.669 63.866 149.486 69.3833 146.965C75.7333 144.063 77.2093 147.379 80.7027 147.278C82.6214 147.222 84.3018 143.739 90.0101 144.105C99.1012 144.688 101.822 152.042 100.936 159.87C107.413 162.724 109.323 170.448 106.118 175.645C103.72 179.531 104.276 175.997 104.164 181.571C103.966 191.289 92.7232 195.828 85.8821 189.53C85.7982 187.485 87.1495 189.454 86.3049 186.55C83.9388 187.061 74.4709 196.01 73.2981 198.578L73.506 200.19C74.8505 199.514 73.6845 200.216 74.7578 199.403L83.4504 191.175C88.5169 193.089 90.3088 196.262 97.6918 193.755C108.476 190.092 104.743 182.015 107.612 177.347C112.14 169.979 109.653 163.496 103.583 158.612C103.192 153.778 103.622 150.989 100.714 147.495C98.7653 145.155 95.8268 142.571 91.3152 141.969C84.8598 141.11 82.2876 144.693 80.2768 144.767C75.9111 144.926 74.8723 142.08 68.2291 144.996C62.6266 147.454 64.5183 149.42 61.3103 152.595C58.0863 155.789 56.8736 153.151 53.8796 159.665C52.2138 163.289 52.4461 167.742 54.0796 171.08C56.0934 175.193 58.2719 175.632 62.0703 178.389L61.7678 180.964L61.7656 180.966Z" fill="#0A5425"/>
<path fill-rule="evenodd" clip-rule="evenodd" d="M69.5629 161.878C71.6061 160.658 70.4367 159.694 72.2541 157.289C73.0567 156.229 75.0222 154.585 76.9501 154.206C84.6984 152.682 83.7748 159.257 87.5452 158.544C87.7659 153.064 76.8275 148.281 70.7645 155.607C69.5607 157.06 67.538 160.321 69.565 161.878L69.5629 161.878Z" fill="#0A5425"/>
<path fill-rule="evenodd" clip-rule="evenodd" d="M76.411 187.094C76.8953 184.147 78.5492 182.266 77.5178 180.056C74.839 180.966 72.7458 188.816 73.4198 191.497C75.9104 191.373 81.0384 186.33 83.1268 185.031C85.1206 183.789 85.2562 184.374 85.2659 181.703C81.6879 181.87 79.6727 185.697 76.4109 187.096L76.411 187.094Z" fill="#0A5425"/>
<path fill-rule="evenodd" clip-rule="evenodd" d="M70.5837 184.981C72.4226 182.503 74.4168 180.359 74.4979 178.042C71.2333 177.937 72.4259 180.006 69.8582 181.691C69.8625 179.727 69.9316 177.778 69.9738 175.819C70.0401 172.711 70.5807 172.361 68.3738 171.661C67.434 173.644 66.9653 184.22 68.0427 186.613C70.1903 186.417 68.9551 187.175 70.5858 184.981L70.5837 184.981Z" fill="#0A5425"/>
<path fill-rule="evenodd" clip-rule="evenodd" d="M262.173 144.756C262.943 141.93 262.605 137.123 263 133.744C264.611 132.502 266.142 132.397 268.056 131.732C269.907 131.088 271.729 129.999 273.286 129.761C272.897 132.586 271.294 135.449 269.48 138.036C268.481 139.461 267.222 140.991 266.031 142.267L263.666 144.25C262.539 144.82 263.211 144.583 262.173 144.753L262.173 144.756ZM249.593 152.161C249.459 148.812 249.922 135.746 250.682 133.16C254.829 134.276 257.723 133.297 260.704 134.181L260.01 145.9C259.369 149.098 252.251 152.26 249.596 152.16L249.593 152.161ZM237.891 130.003C238.125 126.813 238.48 126.264 241.884 125.601C247.866 129.603 242.189 135.289 237.891 130.003ZM251.546 114.529C251.166 112.621 251.61 104.993 252.184 103.196C255.314 103.924 258.606 104.441 262 106.192L261.71 109.708C261.342 109.909 252.364 114.26 251.544 114.528L251.546 114.529ZM221.626 152.378C217.025 150.511 211.871 147.498 212.154 142.625L213.631 119.296C215.046 116.234 220.932 111.275 223.642 110.085C224.107 111.696 223.681 116.35 223.561 118.497C223.195 124.977 222.407 124.756 224.542 126.663C226.445 124.075 226.034 115.602 226.195 112.159C226.343 108.989 226.143 108.004 229.832 106.624C232.202 105.737 234.105 104.701 236.436 104.511C237.356 108.019 235.494 117.407 236.373 118.997C238.525 122.894 238.739 113.667 238.858 111.925C239.025 109.5 238.921 105.804 239.483 103.813C242.466 103.156 245.806 102.768 249.046 103.079C249.799 105.569 249.018 110.012 248.954 112.851C248.815 119.046 247.373 117.252 244.12 123.528L241.721 123.38C239.573 123.273 237.634 123.7 236.233 126.367C234.946 128.816 236.461 128.585 234.415 130.028C231.198 132.297 217.064 133.987 216.764 137.71C218.959 138.671 234.178 132.78 235.559 131.979C244.542 137.576 242.204 133.512 247.299 131.662C248.572 133.688 248.064 132.123 247.984 134.866L246.806 153.195C244.542 154.252 244.177 154.207 241.636 154.466C238.785 154.756 238.872 155.174 236.933 154.637L237.441 141.716C237.564 138.993 237.965 139.496 236.169 137.784C234.058 140.858 235.053 150.829 234.171 154.77C231.696 155.318 226.813 154.441 224.072 153.09C224.679 150.199 225.696 141.354 223.515 139.605C221.683 141.886 222.204 149.185 221.628 152.38L221.626 152.378ZM209.623 140.583C207.714 137.03 207.613 130.033 210.275 125.155C210.754 127.213 210.286 138.195 209.623 140.583ZM260.005 102.725L258.56 101.981C248.073 100.765 249.618 99.44 238.982 101.361L237.514 101.478C227.183 105.431 215.685 108.45 208.672 122.436C193.275 153.138 239.504 170.657 266.269 145.399C270.374 141.526 277.538 133.128 275.526 127.884C273.353 125.177 269.32 129.595 261.131 131.224C246.586 134.116 239.041 123.689 256.558 114.628C258.605 113.57 261.399 112.537 263.536 112.036C264.777 111.746 269.725 111.547 268.813 108.23C267.33 105.471 262.923 103.737 260.008 102.725L260.005 102.725Z" fill="#F6F1D1"/>
<path fill-rule="evenodd" clip-rule="evenodd" d="M237.508 101.479L238.976 101.362C239.091 99.5146 239.646 101.162 238.23 99.1187C237.154 97.5679 235.102 95.7135 233.55 95.3377C232.913 96.5985 233.395 96.2134 233.332 96.6985C232.607 102.41 220.663 100.376 217.339 94.7835C213.999 89.1626 217.128 88.4561 216.257 85.0341C215.12 80.5763 212.783 81.8799 213.84 75.9069C215.056 69.032 218.623 69.6988 220.523 66.7656C221.567 65.1544 219.653 61.7936 223.194 57.302C228.835 50.1484 236.433 52.0825 242.375 57.2562C248.402 53.5441 255.844 56.3556 258.303 61.9443C260.141 66.1246 257.548 63.6607 262.073 66.9167C269.962 72.5962 267.317 84.4288 258.248 86.4859C256.517 85.3939 258.905 85.3989 256.035 84.446C255.112 86.6842 257.105 99.5587 258.554 101.982L259.999 102.726C260.206 101.235 260.122 102.593 260.061 101.248L258.222 89.4215C262.673 86.3366 266.303 86.6629 268.43 79.1613C271.537 68.2037 262.768 66.6927 260.553 61.6799C257.058 53.7705 250.309 52.1373 242.842 54.3623C238.641 51.9407 236.589 50.0033 232.061 50.4135C229.028 50.6898 225.233 51.6425 222.177 55.0152C217.805 59.8421 219.295 63.9936 218.214 65.6907C215.867 69.3752 212.935 68.6152 211.564 75.7392C210.407 81.7469 213.099 81.3055 213.893 85.7491C214.692 90.2161 211.831 89.7169 215.495 95.8799C217.533 99.3085 221.331 101.645 225.006 102.195C229.536 102.872 231.134 101.327 235.56 99.7653L237.507 101.476L237.508 101.479Z" fill="#0A5425"/>
<path fill-rule="evenodd" clip-rule="evenodd" d="M226.22 84.2242C226.375 81.8497 224.918 82.2654 223.97 79.4039C223.552 78.141 223.314 75.5898 224.097 73.7873C227.241 66.5437 232.129 71.0361 233.682 67.5273C229.296 64.2349 219.149 70.5251 221.739 79.6751C222.252 81.4912 223.789 85.0075 226.221 84.2225L226.22 84.2242Z" fill="#0A5425"/>
<path fill-rule="evenodd" clip-rule="evenodd" d="M250.867 92.9001C248.715 90.8286 248.105 88.3992 245.701 87.994C244.929 90.7155 250.203 96.8947 252.793 97.8619C254.105 95.7409 252.864 88.6568 252.98 86.1999C253.09 83.8537 253.648 84.0739 251.454 82.5497C249.561 85.5905 251.568 89.422 250.868 92.9014L250.867 92.9001Z" fill="#0A5425"/>
<path fill-rule="evenodd" clip-rule="evenodd" d="M245.819 96.4982C244.823 93.5778 244.19 90.7189 242.328 89.3368C240.388 91.9646 242.769 92.1573 242.699 95.2277C241.084 94.1095 239.519 92.9462 237.93 91.7994C235.409 89.9805 235.427 89.3366 233.599 90.7565C234.697 92.6555 243.139 99.0453 245.72 99.5165C246.778 97.637 246.701 99.0846 245.82 96.4966L245.819 96.4982Z" fill="#0A5425"/>
<path fill-rule="evenodd" clip-rule="evenodd" d="M146.495 143.87L144.727 145.022C150.024 151.21 152.607 153.426 159.222 155.762C178.145 162.452 181.169 186.149 166.583 197.592C153.379 207.951 131.213 202.644 127.79 181.022C126.729 174.325 125.402 171.189 120.114 164.9L118.77 166.257C124.498 175.331 124.153 173.677 125.921 182.983C129.746 203.105 152.669 211.235 167.919 199.214C178.084 191.2 180.131 177.759 175.656 168C172.61 161.354 167.706 157.084 161.913 154.567C153.955 151.105 153.76 151.842 146.494 143.874L146.495 143.87Z" fill="#F6F1D1"/>
<path fill-rule="evenodd" clip-rule="evenodd" d="M169.532 132.892C174.016 133.173 178.241 132.573 182.268 137.956C184.724 141.239 185.501 148.581 185.361 151.907C182.571 153.531 180.978 152.577 179.398 155.006C181.111 156.081 180.279 155.776 182.378 155.344C184.317 154.948 183.958 154.805 185.614 154.715L186.568 161.649C181.118 163.806 178.671 163.138 177.72 165.788C179.885 166.777 183.439 165.121 186.614 163.846C187.363 166.519 187.116 168.673 187.912 170.984C185.925 172 184.449 171.939 183.599 173.428C185.628 175.617 184.245 173.957 187.795 173.898L190.492 196.075C190.73 198.283 191.798 201.776 190.228 203.351C186.27 202.092 183.851 189.051 179.959 188.254C178.559 190.86 184.087 198.249 185.509 201.099C186.885 203.854 188.386 206.344 190.998 205.301C194.278 203.989 193.376 201.611 193.016 199.335C191.246 188.164 188.521 160.591 187.116 147.763C186.618 143.215 186.645 138.696 181.939 134.468C178.395 131.285 172.779 129.766 169.226 131.599L169.528 132.896L169.532 132.892Z" fill="#F6F1D1"/>
<path fill-rule="evenodd" clip-rule="evenodd" d="M117.073 164.936C108.786 147.399 131.23 130.895 145.294 141.819C143.238 143.705 141.849 144.625 139.315 145.206C136.766 145.792 135.418 145.063 133.817 145.794C133.273 150.761 136.958 151.475 133.239 156.826C130.691 156.517 130.863 157.062 128.329 156.275C125.976 155.542 125.068 154.488 123.036 154.497C120.6 158.488 123.928 159.132 117.071 164.934L117.073 164.936ZM118.77 166.257L120.114 164.901C122.997 162.808 123.519 159.93 124.726 157.532C127.717 158.095 132.202 160.136 134.867 158.357C137.366 156.688 137.119 150.551 136.078 148.042C138.928 147.261 141.865 147.351 144.727 145.019L146.495 143.867L148.352 141.617C144.728 137.441 139.085 136.518 135.525 136.342C128.74 136.006 128.422 137.747 121.897 140.099C117.529 135.247 111.239 134.39 107.938 136.923C107.238 137.461 106.717 137.69 106.21 139.288C110.331 140.505 113.709 133.545 120.202 141.713C114.863 147.931 112.194 153.319 113.502 161.155C113.857 163.279 114.424 166.434 116.551 167.535L118.766 166.257L118.77 166.257Z" fill="#0A5425"/>
<path fill-rule="evenodd" clip-rule="evenodd" d="M167.152 132.466L168.091 133.244L169.531 132.892L169.229 131.596C167.031 119.885 176.703 118.832 178.295 115.639C177.163 114.585 178.096 114.174 175.4 115.228C171.17 116.88 169.083 120.637 167.238 124.169C164.749 118.73 164.654 111.937 161.702 111.336C160.586 113.308 160.776 111.204 162.749 117.867C163.443 120.215 164.344 122.142 164.84 124.747C162.678 124.241 160.433 122.443 158.003 121.978C156.589 121.708 155.616 121.774 154.097 121.944C150.197 122.381 150.969 123.567 150.806 124.009C153.556 125.401 154.336 122.863 159.824 124.935C163.174 126.201 166.5 128.854 167.154 132.464L167.152 132.466Z" fill="#0A5425"/>
<path fill-rule="evenodd" clip-rule="evenodd" d="M168.09 133.242L167.151 132.464C163.543 130.705 154.357 143.143 159.424 149.78C160.914 147.879 160.266 147.382 160.167 145.406C160.087 143.818 160.206 142.932 160.777 141.172C162.217 136.752 164.446 136.089 168.088 133.24L168.09 133.242Z" fill="#F6F1D1"/>
<path fill-rule="evenodd" clip-rule="evenodd" d="M166.576 188.817C170.952 188.15 172.414 173.42 168.312 171.049C165.89 173.85 170.877 176.343 167.475 184.694C167.248 185.25 166.665 186.319 166.534 186.753C165.868 188.948 165.955 186.973 166.576 188.817V188.817Z" fill="#F6F1D1"/>
<path fill-rule="evenodd" clip-rule="evenodd" d="M68.9092 106.821C68.8417 100.817 66.4737 100.338 65.7452 95.9435C64.421 87.9613 76.9729 84.61 72.6114 98.0535C70.7338 103.844 74.2417 104.783 68.9092 106.821V106.821ZM81.876 100.309C82.1532 94.3243 80.7059 94.9278 80.2483 90.5745C79.4163 82.6957 92.2923 82.4236 86.3276 93.136C83.5503 98.1223 87.5734 98.5874 81.876 100.309V100.309ZM85.1929 101.414C89.3002 100.561 86.8456 101.612 90.1414 103.618C91.9115 104.697 93.8887 104.437 94.8796 106.083C96.095 108.099 95.3056 110.376 93.4073 111.17C91.3661 112.022 89.3859 110.821 88.3014 110.211C86.3853 105.393 88.3395 106.401 85.1932 101.417L85.1929 101.414ZM102.034 90.8637C97.7408 94.9273 101.138 96.118 93.5843 97.1894C94.6323 94.8514 95.858 93.1587 96.7331 90.447C97.6887 87.4874 97.1015 87.1263 98.8375 84.1745C104.807 82.8151 106.006 87.1014 102.031 90.8641L102.034 90.8637ZM109.838 108.943C110.283 112.347 107.705 114.513 104.292 113.474C97.7379 110.523 106.422 104.337 106.753 103.757C107.881 101.782 107.019 100.708 107.525 99.5629L111.002 100.885C106.676 104.781 109.173 103.851 109.835 108.95L109.838 108.943ZM114.681 92.673C117.019 90.5634 117.713 89.8449 121.124 91.6118C122.084 95.5933 120.968 96.4874 117.38 97.4897C112.653 98.8111 113.612 98.5745 109.466 98.1332C110.409 95.8079 112.863 94.3172 114.679 92.6764L114.681 92.673ZM119.252 105.553C121.032 107.132 125.359 114.527 120.845 115.383C118.457 115.836 117.122 113.617 117.429 111.239C117.558 110.248 118.931 106.399 119.249 105.557L119.252 105.553ZM121.174 103.368C126.697 101.878 130.979 100.977 135.296 103.88C136.216 108.682 132.906 112.271 128.286 110.232C126.462 109.426 121.864 104.673 121.174 103.368V103.368ZM75.4536 90.4062L74.6799 88.9151C72.7096 87.5665 70.9242 86.5383 67.289 87.6348L64.9079 89.5845C62.8107 95.3273 63.2168 95.8872 65.8857 102.098C67.6623 106.233 66.8244 110.487 62.2155 110.954C60.6683 107.128 61.8347 106.194 61.572 102.297L61.3697 101.087C59.3509 97.5614 58.1862 93.8671 52.435 95.5215C48.067 96.7787 47.5323 100.679 49.209 105.027L50.7266 107.322C51.8968 108.216 51.7508 108.016 52.5965 109.239C53.6012 110.694 53.4209 110.437 53.9783 112.293L55.107 112.299C57.4551 112.227 55.635 112.395 56.2187 111.65C54.3701 106.475 50.0314 105.259 50.5464 99.5522C52.8878 96.8583 57.0339 95.9455 58.945 100.593C60.236 103.731 59.3246 104.445 59.2259 107.132C59.1281 109.748 60.3612 111.169 60.995 113.358L63.5806 113.842L66.3654 111.483C69.2357 112.715 71.0814 113.403 72.0573 117.258L74.5452 118.358C72.6948 111.988 73.519 113.363 68.8533 110.147C69.7995 108.751 70.2025 108.645 72.1275 107.92C74.0201 112.952 74.5583 112.466 79.276 113.964C84.5435 115.638 82.5818 118.901 80.0704 121.502L81.7334 122.478C85.3195 120.482 85.9077 115.543 82.2285 112.961C77.8087 109.86 76.5029 113.83 73.9658 106.674C87.96 97.1383 83.8572 108.417 87.0014 111.717C92.095 117.061 101.179 110.519 96.4499 104.511C94.0937 101.515 92.1039 103.644 89.7342 100.048C94.4901 99.1722 100.062 98.2208 104.371 99.1868L105.31 102.245C103.509 104.03 100.763 105.797 100.113 108.317C98.2048 115.697 107.926 118.626 111.319 112.78C113.419 109.165 110.766 107.191 111.022 103.441C114.586 101.821 114.329 102.004 117.119 103.79C116.936 108.079 112.837 112.722 116.984 116.305C121.349 120.073 125.428 116.696 124.864 110.509C129.513 116.172 141.047 110.692 137.097 103.145C135.574 100.237 131.528 99.71 127.576 99.9426C118.724 100.463 119.469 104.378 116.18 99.91C120.146 98.9482 123.758 98.0929 123.751 93.8082C123.744 89.7986 120.459 87.5766 116.618 88.71C114.92 89.2119 110.855 93.2146 109.453 94.537C107.591 96.2966 106.824 97.5616 103.121 96.8507L100.855 96.0264C102.373 92.9141 106.435 90.6266 106.48 87.3138C106.535 83.41 102.86 80.5834 98.9725 81.9729C95.2316 83.3113 95.6505 87.5958 94.1663 91.1717C92.903 94.2169 90.8958 97.791 87.252 98.4301C87.1541 93.12 91.3373 91.9796 90.0567 87.1589C89.0532 83.3812 83.9376 81.2888 80.4586 84.1579C77.2161 86.8308 78.1367 90.8109 79.4723 95.1695C81.2628 101.011 78.3111 102.354 74.2238 103.837C72.8371 98.6135 77.4546 96.5777 75.4483 90.413L75.4536 90.4062Z" fill="#F6F1D1"/>
<path fill-rule="evenodd" clip-rule="evenodd" d="M96.8245 73.7462L82.7569 79.2039C83.8593 77.8865 86.0519 75.2012 87.8101 74.2061C90.4419 72.7187 94.1168 73.751 96.8215 73.7466L96.8245 73.7462ZM64.911 89.5838L67.2921 87.6341C68.2313 79.7918 75.9133 70.8708 81.9104 66.8946C88.8876 62.2667 103.833 58.8685 113 58.6624C109.728 62.1152 95.1062 66.8686 89.6268 70.2391C83.652 73.9161 75.789 82.4216 74.6829 88.9144L75.4567 90.4055C77.4348 88.9471 77.7405 85.5361 79.4027 83.8891C84.6411 78.7012 101.594 76.9131 102.649 72.7556C99.435 71.054 95.8281 72.0799 92.6717 71.0377C99.0218 67.6124 108.343 64.0807 117.519 59.1541C120.141 57.7442 119.823 58.3812 119.927 56.0273C113.985 55.4639 102.513 57.8215 96.0648 59.1127C75.2977 63.2688 71.031 75.6862 68.3761 77.9038C60.6181 84.3916 59.9183 82.7266 52.3726 94.5352C56.4191 95.4284 55.7992 90.6116 66.4424 82.1202C66.0487 83.4846 65.7705 84.2024 65.2354 85.7915C65.0256 86.4156 64.6662 87.4274 64.5978 88.0072C64.2655 90.862 64.278 88.8889 64.9117 89.5898L64.911 89.5838Z" fill="#0A5425"/>
<path fill-rule="evenodd" clip-rule="evenodd" d="M47.7068 114.4C73.1719 113.065 73.1968 128.073 103.497 129.986C102.945 130.513 103.176 130.403 102.179 130.931C100.391 131.881 96.3772 132.164 94.416 132.251C91.6889 132.374 89.0274 132.074 86.49 131.609C81.4124 130.683 76.6639 128.259 73.366 126.286C59.0277 117.7 58.3912 119.463 49.4263 115.363L47.7068 114.4V114.4ZM81.74 122.479L80.077 121.504C78.0941 120.921 76.584 119.869 74.5484 118.357L72.0606 117.257L63.5838 113.841L60.9983 113.357L55.1132 112.298L53.9846 112.292L50.8054 112.059L50.7332 107.324L49.2156 105.029C48.0385 106.514 48.4474 109.586 48.5017 111.683C45.4752 112.86 42.4827 111.654 40.3493 113.733C40.981 115.443 54.5189 119.366 54.5249 119.365C54.7767 119.375 54.8483 119.488 54.9988 119.571L55.2426 119.667C56.8971 120.213 57.0259 119.883 58.3782 121.253L60.2969 122.015C62.2948 122.62 65.9852 124.372 67.3916 125.709L68.6175 126.018C88.2996 139.689 109.98 133.679 111.34 128.14C108.879 126.78 90.3013 129.067 81.7434 122.482L81.74 122.479Z" fill="#0A5425"/>
<path fill-rule="evenodd" clip-rule="evenodd" d="M67.385 125.706L65.5283 128.055C59.8547 128.719 60.4433 126.527 60.2904 122.012L58.3717 121.251C58.231 121.763 58.3411 120.942 58.1815 122.45C57.012 133.49 69.1484 131.551 68.6139 126.015L67.388 125.706L67.385 125.706Z" fill="#F6F1D1"/>
<path fill-rule="evenodd" clip-rule="evenodd" d="M55.2359 119.665L54.9921 119.569L52.7525 119.885C50.1273 123.762 44.242 128.318 44.7096 132.395C46.7247 131.965 46.8892 131.242 47.8954 129.554C50.7974 124.691 53.699 122.902 54.6969 121.35C55.4244 120.221 55.1309 121.17 55.2329 119.666L55.2359 119.665Z" fill="#F6F1D1"/>
<path fill-rule="evenodd" clip-rule="evenodd" d="M190.73 112.73L202.473 102.529C202.883 109.485 198.165 113.061 190.73 112.73ZM145.744 41.2212C137.239 34.422 147.754 22.8595 155.341 29.4795C157.121 31.033 157.872 32.7454 159.331 34.349C161.422 36.647 162.302 35.605 160.986 39.3321C158.388 46.6845 154.913 44.7979 155.114 48.4597C159.256 48.9184 162.096 42.3658 162.892 40.1704C165.063 34.1763 160.352 18.7798 171.286 20.2774C177.023 21.0631 176.689 26.6927 176.924 30.8017C174.342 31.3335 172.71 31.1213 170.646 30.5367C168.868 30.034 166.976 28.7945 165.631 29.7923C165.973 32.8663 173.968 33.4517 176.674 32.9711L176.98 39.119C173.527 39.702 171.568 38.1239 169.453 39.6482C170.767 42.0123 174.799 41.5727 177.052 41.3294C179.964 50.7687 182.7 49.8227 186.217 53.462C185.669 56.0342 183.059 59.3451 180.656 61.6113C177.777 64.3263 173.03 65.9094 170.881 67.9679C171.975 69.1873 171.565 70.2845 177.374 66.7186C179.156 65.6245 180.573 64.5994 182.108 63.1418C185.245 60.1609 186.61 56.724 189.088 54.5427C190.85 56.3727 192.945 57.2759 194.916 59.05C194.053 61.1787 194.164 61.6281 192.8 63.5439C191.11 65.9203 190.044 65.6634 191.028 68.4518C193.719 66.9332 196.184 62.2371 196.98 60.3806C205.144 63.0227 206.152 70.0596 201.766 73.3474C194.68 78.6582 190.413 67.6085 186.874 71.1956C186.655 74.3859 190.673 79.0665 192.217 82.4101C190.825 83.8523 188.978 85.8178 186.985 87.4557C185.218 88.9078 182.336 90.1155 181.64 92.3267C181.823 92.3771 182.058 92.3883 182.208 92.3825C182.354 92.3772 182.589 92.422 182.768 92.4039C187.605 91.91 179.359 93.5696 183.852 92.2361C186.473 91.4577 191.49 85.6788 193.504 84.4567L196.905 90.7221C194.985 94.0831 190.021 97.9621 186.48 100.146C184.235 101.53 183.812 101.019 183.9 103.107C187.954 104.124 195.385 95.1002 198.484 93.1203L201.908 99.7952C201.538 100.118 189.411 112.276 187.847 110.705C187.726 110.582 187.552 110.747 187.405 110.732C185.096 109.687 184.331 107.562 182.962 105.122C179.35 98.689 180.555 99.412 178.266 99.3664C177.905 101.915 183.407 111.789 188.375 113.95C194.187 116.479 200.636 114.01 203.575 108.407C208.266 99.4613 194.731 83.8032 190.157 73.9779C193.56 74.9417 197.198 79.7417 203.213 74.9181C206.307 72.4379 207.881 67.2066 204.557 62.8351C201.628 58.9852 187.969 52.8532 183.356 48.4908C174.813 40.4128 182.108 27.9974 176.916 21.2746C174.21 17.7715 168.561 16.6353 164.368 20.4138C160.338 24.0443 161.959 28.269 161.555 31.2933C161.383 32.5755 161.478 32.0016 161.166 32.7546C156.866 29.4663 156.246 25.0818 150.135 25.3527C143.944 25.6275 140.931 30.3382 140.556 34.3834C139.969 40.6998 152.609 53.2835 156.002 59.019C151.584 59.3613 147.789 56.9718 143.002 62.7199C141.079 65.0297 138.21 72.1988 142.661 75.477C145.287 73.1193 141.861 73.353 142.82 68.2023C143.32 65.5139 144.208 63.796 147.258 62.1947C148.311 64.5128 149.121 68.7639 150.907 70.1535C153.075 68.4146 151.173 66.0569 149.124 61.1799C153.819 60.0373 159.194 63.7122 157.862 57.5226C160.348 56.5033 162.029 55.7192 164.214 54.1716C168.477 51.1503 168.008 51.3074 168.161 49.6965C167.995 49.6662 167.771 49.6707 167.654 49.6839C162.563 50.2535 169.954 48.4648 166.216 49.9205C165.356 50.2556 165.665 50.1985 164.986 50.7071C162.268 52.7379 161.573 54.0582 156.726 55.5805C154.349 54.0207 148.787 46.0694 147.051 43.1789C149.994 41.8811 154.061 40.5743 154.845 37.5268C153.555 37.2034 154.842 37.199 153.306 37.5615C151.088 38.0855 151.493 39.4207 145.744 41.221L145.744 41.2212Z" fill="#F6F1D1"/>
<path fill-rule="evenodd" clip-rule="evenodd" d="M144.522 91.4634C154.082 82.3241 165.647 97.4012 157.438 104.974C148.364 113.343 135.528 100.061 144.522 91.4634V91.4634ZM162.232 83.1916C171.212 74.1669 183.7 88.6645 174.892 96.6485C170.985 100.19 164.106 99.9041 162.387 96.3332C159.374 90.0698 157.547 87.9002 162.232 83.1916V83.1916ZM177.294 82.3933C173.819 78.6104 171.689 79.4166 171.97 77.3679C172.418 74.1045 179.379 72.2341 182.691 71.8149C183.558 76.3711 181.509 81.2303 179.284 84.1641L177.294 82.3931L177.294 82.3933ZM145.938 87.5297C140.768 76.183 156.49 67.8311 162.899 79.8634C159.009 82.0622 158.041 85.0005 156.799 88.0003C152.994 86.4699 151.441 86.2793 145.938 87.5298L145.938 87.5297ZM159.634 72.6167C160.217 70.3365 161.228 67.67 163.565 65.7243C166.832 70.2314 168.86 70.6908 169.64 77.677C168.522 78.6345 167.051 78.3291 164.915 78.8122C162.762 74.8969 161.497 75.0357 159.634 72.6167V72.6167ZM162.115 100.106C165.739 100.295 168.006 103.242 173.978 100.038C182.817 95.2944 177.896 89.9982 181.061 85.4043C184.167 80.8947 186.294 75.6424 184.454 69.5989C178.849 69.6855 176.405 71.1155 171.278 74.0582C169.443 69.0806 166.975 65.0904 163.043 63.2001C159.661 65.1855 158.101 69.5125 157.498 72.0315C152.289 71.9728 148.837 71.4767 144.876 76.4741C141.443 80.8047 143.072 82.9272 143.661 88.9129C141.145 92.1682 139.283 93.9617 139.358 98.1851C139.441 102.835 141.997 106.58 145.394 108.33C152.782 112.138 161.345 107.651 162.115 100.106L162.115 100.106Z" fill="#0A5425"/>
<path fill-rule="evenodd" clip-rule="evenodd" d="M147.34 102.566C149.616 100.949 148.402 101.522 150.06 99.8915C151.933 100.814 150.94 101.072 152.828 99.8079C151.746 97.7333 151.647 99.0428 151.036 97.5C150.159 95.2852 151.711 96.9988 150.687 94.7941C148.202 95.1534 149.425 95.739 148.313 96.2554C146.618 97.0418 148.036 94.8234 145.282 97.0158C145.913 98.693 145.964 97.4074 146.676 98.7253C147.723 100.663 146.46 99.2566 147.34 102.566L147.34 102.566Z" fill="#0A5425"/>
<path fill-rule="evenodd" clip-rule="evenodd" d="M165.8 86.2316C165.601 86.2536 164.526 86.2762 164.372 86.3385C162.817 86.9686 163.501 86.5305 162.741 87.6023C164.223 88.7396 164.59 88.1828 165.232 89.1946C166.334 90.9312 163.951 90.2009 166.667 91.535C168.73 89.7696 166.826 90.479 168.074 89.3341C169.645 87.8929 169.371 90.3985 170.693 87.6452C169.223 86.1464 170.889 87.0446 168.092 86.6016C168.174 84.3874 168.606 85.3563 167.142 83.5369C165.388 84.553 165.843 84.2032 165.8 86.2317L165.8 86.2316Z" fill="#0A5425"/>
<path fill-rule="evenodd" clip-rule="evenodd" d="M150.764 78.9856C150.496 79.0287 149.184 79.1507 149.029 79.2001L147.682 80.0528C147.875 81.7189 148.312 81.2195 150.039 81.6789C150.074 82.0516 149.986 82.5879 150.195 83.0276C151.889 86.5821 147.625 80.4159 151.05 84.1423C151.128 84.2272 151.32 84.3548 151.469 84.4414C152.627 82.9452 151.97 82.8793 152.761 82.1802C153.386 81.6275 154.592 81.6619 155.46 80.794C153.96 78.6323 155.452 80.0131 152.87 79.2396C152.796 78.2881 152.997 77.3665 151.502 76.4655C150.255 78.0019 150.611 77.0732 150.765 78.9857L150.764 78.9856Z" fill="#0A5425"/>
<path fill-rule="evenodd" clip-rule="evenodd" d="M215.029 248.606C209.733 245.042 206.103 242.152 202.802 237.173C194.902 225.253 193.42 208.968 202.176 195.901L269.482 241.24C264.786 250.801 250.46 256.262 244.352 256.831C233.747 257.821 226.725 256.475 215.031 248.604L215.029 248.606ZM232.003 213.228C235.952 208.045 243.492 213.313 239.926 218.738L232.003 213.228ZM222.708 207.174C226.69 199.617 237.713 197.953 244.627 202.492C252.257 207.503 254.428 217.269 249.478 224.705C247.017 224.12 244.454 221.881 242.152 220.237C242.915 216.423 244.164 213.231 240.045 210.351C236.265 207.707 232.994 209.168 229.902 212.042L222.707 207.176L222.708 207.174ZM251.312 226.375C252.27 224.113 253.196 222.552 253.753 220.299C254.36 217.846 253.868 216.504 254.576 214.118C263.047 219.14 269.25 228.787 267.39 237.226L251.314 226.376L251.312 226.375ZM225.223 201.111L224.694 201.513L220.875 205.595L201.644 193.04C193.913 202.099 193.317 216.716 194.892 223.957C200.214 248.432 232.993 269.416 259.371 253.733C263.902 251.038 268.945 246.713 272.153 241.424C271.227 238.769 270.884 240.535 269.982 238.329L268.702 227.296L268.364 226.355C267.737 225.372 263.145 217.727 263.103 217.6L262.169 217.327C259.788 214.995 254.297 212.242 253.13 210.003C249.636 203.292 245.326 197.347 235.009 197.838C229.603 198.096 228.216 200.017 225.226 201.111L225.223 201.111Z" fill="#F6F1D1"/>
<path fill-rule="evenodd" clip-rule="evenodd" d="M224.695 201.513L225.223 201.111C226.631 198.812 226.038 194.317 225.968 191.853C225.811 186.293 226.634 177.792 224.078 173.992C221.055 169.497 218.409 170.255 214.761 169.236C215.737 160.96 219.792 163.284 222.102 160.006C219.36 157.456 215.882 161.364 213.916 163.955C213.183 161.415 213.29 157.517 211.112 155.607C208.949 157.755 211.928 160.626 211.183 164.459C208.51 162.695 202.366 160.855 202.602 163.868C203.329 165.639 207.823 162.696 212.526 169.403C207.336 174.622 202.559 173.992 207.744 187.165C210.595 194.406 213.519 206.397 218.832 200.229C215.76 198.676 217.672 200.323 214.915 199.165L213.782 195.828C216.118 195.174 218.602 195.694 219.406 193.201C217.365 192.089 215.032 193.26 212.896 193.536C211.891 192.122 212.102 191.852 210.931 190.369C213.454 188.502 213.769 189.767 214.82 187.982C213.552 186.461 212.425 187.08 210.451 187.459C201.459 174.743 217.196 166.328 222.48 175.606C224.249 178.712 223.569 185.177 223.679 188.82L223.749 198.818C223.805 201.06 223.264 200.792 224.69 201.513L224.695 201.513Z" fill="#0A5425"/>
<path fill-rule="evenodd" clip-rule="evenodd" d="M262.17 217.33L263.104 217.603L268.423 218.023C271.125 218.084 288.943 202.2 292.199 199.504C296.125 196.254 298.061 193.39 301.107 198.432C299.595 202.552 287.411 208.713 283.168 211.177C272.597 217.318 269.586 217.48 268.366 226.358L268.703 227.299C268.848 227.258 269.32 227.873 270.83 225.322C271.473 224.234 271.618 223.362 271.951 222.321C273.221 218.36 279.368 216.247 285.995 212.159C293.144 207.746 305.158 202.337 302.81 196.805C299.161 188.2 289.7 198.69 282.731 204.494C279.427 207.246 276.306 209.764 273.034 212.565C270.955 214.345 270.254 215.513 268.008 215.581C266.734 215.62 266.392 215.405 265.369 215.489C264.009 215.602 263.853 215.86 262.357 215.946L262.175 217.331L262.17 217.33Z" fill="#0A5425"/>
<path fill-rule="evenodd" clip-rule="evenodd" d="M226.266 209.278C229.885 210.499 227.495 207.879 233.148 206.125C238.16 204.57 245.119 207.803 246.016 214.411C246.513 218.074 244.425 220.37 245.716 222.455C247.202 221.828 245.506 224.559 247.571 220.683C252.865 210.754 237.414 196.905 227.577 206.778L226.265 209.28L226.266 209.278Z" fill="#0A5425"/>
<path fill-rule="evenodd" clip-rule="evenodd" d="M147.457 293.855C143.265 289.041 140.508 285.309 138.609 279.645C134.067 266.085 136.853 249.972 148.695 239.62L201.959 300.847C194.947 308.864 179.696 310.428 173.648 309.396C163.149 307.604 156.715 304.485 147.459 293.854L147.457 293.855ZM173.016 264.082C178.173 260.099 184.09 267.14 179.241 271.457L173.016 264.082ZM165.607 255.826C171.411 249.559 182.488 250.808 187.99 256.983C194.061 263.799 193.629 273.794 186.921 279.694C184.696 278.492 182.8 275.665 181.003 273.481C182.728 269.994 184.761 267.235 181.529 263.386C178.563 259.853 175.025 260.417 171.294 262.392L165.605 255.828L165.607 255.826ZM188.26 281.782C189.771 279.846 191.07 278.578 192.192 276.545C193.414 274.333 193.286 272.91 194.588 270.789C201.469 277.834 204.961 288.759 200.978 296.428L188.261 281.784L188.26 281.782ZM169.606 250.622L168.992 250.874L164.245 253.827L148.923 236.718C139.109 243.465 134.748 257.429 134.393 264.831C133.193 289.85 159.417 318.609 188.957 310.293C194.031 308.865 200.023 305.993 204.491 301.716C204.285 298.912 203.496 300.529 203.196 298.164L204.818 287.176L204.736 286.18C204.384 285.068 201.929 276.494 201.922 276.361L201.09 275.856C199.395 272.986 194.805 268.905 194.258 266.44C192.621 259.053 189.998 252.195 179.906 249.996C174.618 248.845 172.78 250.34 169.609 250.623L169.606 250.622Z" fill="#F6F1D1"/>
<path fill-rule="evenodd" clip-rule="evenodd" d="M168.992 250.873L169.607 250.622C171.562 248.766 172.153 244.271 172.724 241.873C174.012 236.462 177.01 228.464 175.525 224.132C173.77 219.007 171.018 219.054 167.759 217.125C170.846 209.384 174.16 212.68 177.24 210.111C175.252 206.938 170.88 209.812 168.31 211.805C168.261 209.162 169.373 205.425 167.764 203.016C165.119 204.53 167.252 208.075 165.54 211.584C163.416 209.188 157.958 205.819 157.406 208.791C157.649 210.689 162.751 209.01 165.557 216.707C159.192 220.404 154.741 218.557 156.337 232.624C157.215 240.357 156.932 252.696 163.662 248.115C161.097 245.819 162.517 247.905 160.155 246.072L159.924 242.555C162.35 242.529 164.615 243.674 166.037 241.475C164.354 239.872 161.797 240.399 159.662 240.112C159.058 238.486 159.331 238.28 158.585 236.544C161.506 235.395 161.482 236.698 162.96 235.246C162.129 233.449 160.88 233.754 158.875 233.609C153.484 218.998 170.864 214.947 173.564 225.277C174.468 228.735 172.137 234.804 171.299 238.35L168.776 248.026C168.25 250.205 167.797 249.806 168.987 250.872L168.992 250.873Z" fill="#0A5425"/>
<path fill-rule="evenodd" clip-rule="evenodd" d="M201.09 275.859L201.922 276.364L206.951 278.148C209.544 278.907 230.869 268.18 234.712 266.42C239.346 264.298 241.958 262.034 243.594 267.692C241.066 271.28 227.702 274.075 222.966 275.355C211.164 278.548 208.214 277.925 204.736 286.183L204.818 287.18C204.968 287.178 205.265 287.894 207.384 285.82C208.288 284.937 208.653 284.132 209.245 283.213C211.497 279.716 217.982 279.268 225.441 277.036C233.49 274.625 246.495 272.513 245.66 266.562C244.364 257.305 232.509 264.987 224.275 268.787C220.37 270.589 216.703 272.213 212.818 274.07C210.349 275.251 209.369 276.198 207.182 275.682C205.942 275.389 205.667 275.093 204.657 274.909C203.314 274.666 203.097 274.874 201.63 274.57L201.095 275.861L201.09 275.859Z" fill="#0A5425"/>
<path fill-rule="evenodd" clip-rule="evenodd" d="M168.498 258.781C171.677 260.897 170.047 257.747 175.962 257.518C181.205 257.314 187.089 262.24 186.244 268.854C185.775 272.521 183.164 274.197 183.871 276.547C185.468 276.325 183.123 278.523 186.122 275.316C193.807 267.096 182.471 249.718 170.412 256.705L168.496 258.782L168.498 258.781Z" fill="#0A5425"/>
</svg>
