<svg width="191" height="218" viewBox="0 0 191 218" fill="none" xmlns="http://www.w3.org/2000/svg">
<mask id="mask0" mask-type="alpha" maskUnits="userSpaceOnUse" x="0" y="0" width="191" height="218">
<rect width="191" height="218" fill="#7BB34C"/>
</mask>
<g mask="url(#mask0)">
<path fill-rule="evenodd" clip-rule="evenodd" d="M7.10839 204.277L26.2824 197.494C30.8313 205.084 37.8626 209.025 43.3932 211.367C41.2778 214.765 28.9547 218.32 22.306 216.961C16.7437 215.824 10.2557 211.952 7.10848 204.277L7.10839 204.277ZM22.1431 189.311L24.8323 195.642L20.1826 197.459C19.2365 193.606 19.7396 191.32 22.1431 189.311ZM17.0724 197.341C15.2784 194.93 2.57826 182.821 0.370634 182.457C-0.11815 184.511 1.39352 185.349 3.10326 186.866C4.78114 188.355 5.67085 189.331 7.32845 190.863C10.0165 193.347 13.8028 196.354 15.7203 198.878C13.8937 199.096 15.583 200.008 10.8825 196.306C8.24052 194.227 -1.27648 185.473 -4.06445 186.159C-3.95697 188.801 9.43181 197.002 12.1372 200.308L4.79092 202.98C4.89101 208.293 10.9003 213.935 13.9308 215.746C26.394 223.198 34.4491 218.52 45.3572 213.241C49.9535 211.017 71.3538 220.931 87.329 194.993C92.6903 186.288 93.4877 166.726 88.2247 165.159C86.9962 167.096 89.46 170.558 89.6133 177.685C90.2221 206.065 53.3055 224.562 31.1235 200.417C12.9296 180.612 24.2681 147.915 51.9189 144.372C59.3695 143.417 70.3935 145.809 73.5662 149.427C70.8523 149.975 67.8601 149.475 65.5353 151.118C67.0242 153.333 75.2898 151.658 77.9879 150.937C77.7283 148.242 75.5168 139.765 72.7387 139.707C72.0372 141.879 73.9196 144.635 74.4925 146.963C67.0407 144.019 62.6857 141.167 52.5633 142.147C35.7076 143.777 21.8422 157.416 20.3264 174.112C20.1336 176.238 21.0064 186.401 20.9376 186.646C19.8559 190.495 19.1821 185.541 17.6132 195.396C17.3094 197.308 17.6592 196.088 17.0724 197.341L17.0724 197.341Z" fill="#F6F1D1"/>
<path fill-rule="evenodd" clip-rule="evenodd" d="M49.0739 162.644L54.8271 178.65C55.4686 178.619 55.4324 178.775 56.4004 178.378C57.6554 177.864 64.9131 172.267 65.4131 170.242C63.2567 168.964 60.6444 172.523 56.2978 175.772L50.8869 161.356C49.9615 158.765 49.9769 160.103 49.2359 159.873C48.3852 161.097 48.1218 159.96 49.074 162.644L49.0739 162.644Z" fill="#0A5425"/>
<path fill-rule="evenodd" clip-rule="evenodd" d="M27.3064 188.328C32.52 189.666 31.4809 186.226 31.4862 186.196C30.9696 186.076 30.5903 185.257 28.5627 186.256C25.7426 187.645 27.6124 187.659 27.3064 188.328L27.3064 188.328Z" fill="#0A5425"/>
<path fill-rule="evenodd" clip-rule="evenodd" d="M79.6392 168.999C80.572 169.815 78.9876 170.587 82.1613 169.7C84.713 168.986 83.911 168.416 84.0294 167.432C81.2668 166.681 80.9606 167.292 79.6392 168.999V168.999Z" fill="#0A5425"/>
<path fill-rule="evenodd" clip-rule="evenodd" d="M65.8208 206.312C66.623 205.081 66.7936 206.003 66.1629 203.855C65.338 201.044 65.0003 201.973 63.4505 202.169C63.8128 204.487 63.8722 205.755 65.8207 206.312L65.8208 206.312Z" fill="#0A5425"/>
<path fill-rule="evenodd" clip-rule="evenodd" d="M47.0799 153.836C48.3149 152.022 47.8786 150.148 45.4942 149.395C44.1295 151.493 44.9887 153.228 47.0799 153.836Z" fill="#0A5425"/>
<path fill-rule="evenodd" clip-rule="evenodd" d="M-3.47197 164.838C-0.708952 163.868 3.05657 160.86 6.0634 159.268C7.99971 159.889 8.95545 161.09 10.5893 162.288C12.1705 163.447 14.1014 164.328 15.1812 165.475C12.634 166.759 9.36745 167.064 6.20803 167.039C4.46739 167.026 2.49261 166.857 0.766912 166.601L-2.20794 165.78C-3.31692 165.176 -2.74101 165.595 -3.46973 164.836L-3.47197 164.838ZM-16.7095 158.684C-14.0286 156.673 -3.00903 149.638 -0.448762 148.795C0.986418 152.843 3.4354 154.67 4.39969 157.625L-5.6417 163.706C-8.63828 164.994 -15.282 160.929 -16.7076 158.687L-16.7095 158.684ZM-5.10983 136.473C-2.35139 134.854 -1.69769 134.835 0.780098 137.261C0.881699 144.458 -7.02279 143.012 -5.10983 136.473ZM15.3804 138.931C16.7353 137.535 23.2673 133.571 25.0722 133.023C26.2505 136.013 27.6927 139.017 28.1778 142.805L25.1185 144.562C24.7445 144.373 16.0666 139.452 15.3806 138.929L15.3804 138.931ZM-32.7639 135.784C-33.8384 130.936 -34.2835 124.983 -30.1107 122.449L-10.0659 110.423C-6.74259 109.85 0.680998 111.88 3.19963 113.436C2.1368 114.733 -1.93635 117.024 -3.77219 118.144C-9.31465 121.522 -9.58052 120.747 -9.9375 123.587C-6.72749 123.685 0.0150513 118.536 2.94068 116.714C5.63495 115.037 6.33204 114.313 9.56192 116.567C11.638 118.014 13.5714 118.994 15.051 120.805C12.6849 123.553 3.89847 127.349 3.08868 128.975C1.10205 132.959 8.82012 127.898 10.3219 127.007C12.413 125.767 15.3969 123.585 17.3553 122.917C19.5894 124.999 21.8044 127.53 23.3879 130.373C21.7649 132.406 17.6641 134.285 15.2907 135.845C10.1111 139.246 10.7701 137.041 3.75612 137.925L2.51635 135.866C1.38522 134.038 -0.0674235 132.684 -3.05777 133.044C-5.80477 133.375 -4.75479 134.49 -7.10406 133.626C-10.7978 132.265 -20.2126 121.588 -23.4482 123.455C-22.9933 125.807 -9.50382 134.993 -8.06065 135.675C-7.56934 146.247 -5.55049 142.015 -1.13604 145.16C-2.08062 147.358 -1.08071 146.051 -3.38433 147.543L-19.1426 156.977C-21.2978 155.713 -21.4684 155.387 -23.1241 153.442C-24.9813 151.26 -25.2757 151.568 -25.9341 149.668L-15.0087 142.751C-12.6974 141.307 -12.8836 141.922 -12.4934 139.472C-16.2226 139.479 -23.8669 145.958 -27.6123 147.469C-29.4679 145.743 -31.5182 141.225 -31.9614 138.202C-29.2366 137.06 -21.3776 132.876 -21.1763 130.088C-24.0932 129.875 -29.8067 134.447 -32.764 135.786L-32.7639 135.784ZM-29.8666 119.206C-28.0251 115.618 -22.3223 111.562 -16.7953 110.985C-18.2177 112.548 -27.5245 118.397 -29.8666 119.206ZM29.8999 139.195L29.6919 137.583C24.7404 128.259 26.7084 128.778 19.0892 121.113L18.1595 119.971C9.04079 113.708 0.0285947 105.957 -15.4666 108.122C-49.4829 112.874 -37.664 160.878 -1.67659 168.575C3.84174 169.756 14.8227 170.887 17.9976 166.254C18.9926 162.928 13.0659 162.116 7.07662 156.299C-3.56061 145.966 0.74094 133.835 18.1442 143.113C20.1769 144.198 22.6138 145.912 24.2391 147.387C25.1821 148.243 28.1545 152.204 30.3673 149.571C31.7972 146.784 30.7231 142.171 29.9019 139.197L29.8999 139.195Z" fill="#F6F1D1"/>
<path fill-rule="evenodd" clip-rule="evenodd" d="M18.1557 119.966L19.0854 121.108C20.6716 120.155 19.6305 121.546 20.5087 119.221C21.1746 117.455 21.5362 114.712 20.9648 113.221C19.5653 113.413 20.156 113.591 19.7207 113.814C14.6068 116.459 9.50126 105.472 12.2188 99.5606C14.9508 93.6208 17.3084 95.7955 19.631 93.1356C22.6557 89.6692 20.2561 88.4856 25.7734 85.965C32.1234 83.0635 33.5995 86.3788 37.0929 86.2781C39.0115 86.2224 40.692 82.7391 46.4002 83.1052C55.4913 83.6879 58.2124 91.0417 57.326 98.8704C63.8028 101.724 65.713 109.448 62.5077 114.645C60.1097 118.531 60.6661 114.997 60.5541 120.571C60.3564 130.289 49.1133 134.828 42.2722 128.53C42.1884 126.485 43.5397 128.454 42.695 125.55C40.3289 126.061 30.861 135.01 29.6882 137.578L29.8962 139.19C31.2407 138.514 30.0747 139.216 31.148 138.403L39.8406 130.175C44.907 132.089 46.699 135.262 54.0819 132.755C64.8664 129.092 61.1326 121.015 64.0025 116.347C68.53 108.979 66.0434 102.496 59.9733 97.6118C59.5822 92.7785 60.0123 89.9893 57.1046 86.4948C55.1554 84.1545 52.217 81.5712 47.7054 80.9694C41.2499 80.1103 38.6778 83.6935 36.6669 83.7668C32.3013 83.9261 31.2624 81.0804 24.6192 83.9957C19.0168 86.4538 20.9085 88.4198 17.7004 91.5952C14.4764 94.7887 13.2638 92.1505 10.2697 98.6653C8.6039 102.289 8.83623 106.742 10.4698 110.08C12.4836 114.193 14.662 114.632 18.4605 117.389L18.158 119.964L18.1557 119.966Z" fill="#0A5425"/>
<path fill-rule="evenodd" clip-rule="evenodd" d="M25.953 100.878C27.9963 99.6584 26.8268 98.6945 28.6442 96.2894C29.4468 95.2287 31.4123 93.5848 33.3403 93.2056C41.0885 91.6825 40.1649 98.2568 43.9354 97.544C44.1561 92.064 33.2176 87.2808 27.1546 94.6067C25.9508 96.0601 23.9281 99.3212 25.9551 100.878L25.953 100.878Z" fill="#0A5425"/>
<path fill-rule="evenodd" clip-rule="evenodd" d="M32.8011 126.094C33.2854 123.147 34.9393 121.266 33.9079 119.056C31.2291 119.966 29.1359 127.816 29.8099 130.497C32.3005 130.373 37.4285 125.33 39.5169 124.031C41.5107 122.789 41.6463 123.374 41.656 120.703C38.078 120.87 36.0629 124.697 32.801 126.096L32.8011 126.094Z" fill="#0A5425"/>
<path fill-rule="evenodd" clip-rule="evenodd" d="M26.9738 123.981C28.8127 121.503 30.8069 119.359 30.8881 117.042C27.6234 116.937 28.816 119.006 26.2484 120.691C26.2527 118.727 26.3218 116.778 26.364 114.819C26.4302 111.711 26.9708 111.361 24.7639 110.661C23.8242 112.644 23.3555 123.22 24.4328 125.613C26.5804 125.417 25.3452 126.175 26.9759 123.981L26.9738 123.981Z" fill="#0A5425"/>
<path fill-rule="evenodd" clip-rule="evenodd" d="M218.563 83.7556C219.333 80.9304 218.995 76.123 219.39 72.7436C221.001 71.5022 222.532 71.397 224.446 70.7319C226.297 70.0878 228.119 68.9986 229.676 68.7607C229.287 71.5865 227.685 74.4491 225.871 77.036C224.871 78.4611 223.612 79.9915 222.421 81.2665L220.056 83.2497C218.929 83.8197 219.601 83.5834 218.563 83.7526L218.563 83.7556ZM205.983 91.1607C205.849 87.8121 206.312 74.7462 207.072 72.1602C211.219 73.2765 214.113 72.2971 217.094 73.1809L216.4 84.8996C215.76 88.0978 208.641 91.2596 205.986 91.1603L205.983 91.1607ZM194.281 69.0026C194.515 65.8131 194.87 65.264 198.274 64.6011C204.256 68.6027 198.579 74.2893 194.281 69.0026ZM207.936 53.5288C207.556 51.6213 208 43.9933 208.574 42.1964C211.704 42.9235 214.996 43.4414 218.39 45.1924L218.1 48.7082C217.732 48.9092 208.755 53.2597 207.934 53.5275L207.936 53.5288ZM178.016 91.3783C173.415 89.5111 168.262 86.4982 168.545 81.6248L170.022 58.2955C171.436 55.2343 177.322 50.2755 180.033 49.0849C180.497 50.696 180.071 55.3502 179.951 57.4974C179.586 63.9773 178.797 63.7564 180.932 65.6626C182.835 63.0755 182.424 54.602 182.585 51.1591C182.733 47.9888 182.533 47.0039 186.222 45.6242C188.592 44.7368 190.495 43.7009 192.827 43.511C193.746 47.0191 191.884 56.4075 192.763 57.9972C194.915 61.894 195.129 52.6671 195.249 50.9251C195.415 48.4997 195.311 44.8041 195.873 42.8128C198.856 42.1556 202.196 41.7684 205.436 42.0787C206.189 44.5692 205.408 49.0118 205.345 51.851C205.205 58.046 203.763 56.2517 200.51 62.528L198.111 62.3797C195.964 62.2732 194.024 62.7005 192.623 65.3669C191.337 67.8163 192.851 67.5851 190.805 69.0282C187.588 71.2967 173.454 72.9871 173.154 76.7104C175.349 77.6711 190.569 71.7799 191.949 70.9789C200.932 76.5758 198.594 72.5117 203.689 70.6624C204.962 72.6878 204.454 71.1227 204.374 73.8659L203.197 92.1948C200.933 93.2517 200.567 93.207 198.026 93.4659C195.175 93.7563 195.262 94.1736 193.324 93.6368L193.831 80.716C193.954 77.9932 194.355 78.4959 192.559 76.7837C190.449 79.8583 191.443 89.8291 190.561 93.7704C188.086 94.318 183.203 93.4413 180.462 92.0902C181.069 89.1989 182.086 80.354 179.905 78.6055C178.073 80.8857 178.594 88.1847 178.018 91.3796L178.016 91.3783ZM166.013 79.5828C164.104 76.0301 164.003 69.0328 166.665 64.155C167.144 66.2132 166.676 77.1952 166.013 79.5828ZM216.396 41.7254L214.95 40.9814C204.464 39.7653 206.008 38.44 195.372 40.3612L193.904 40.4784C183.573 44.4308 172.075 47.4501 165.062 61.4359C149.665 92.138 195.894 109.657 222.659 84.3991C226.764 80.5262 233.929 72.128 231.917 66.8843C229.743 64.177 225.71 68.5954 217.521 70.2239C202.976 73.1161 195.431 62.6885 212.948 53.6278C214.995 52.5701 217.789 51.5365 219.926 51.0357C221.167 50.7457 226.115 50.5468 225.203 47.2305C223.721 44.4713 219.313 42.7373 216.399 41.725L216.396 41.7254Z" fill="#F6F1D1"/>
<path fill-rule="evenodd" clip-rule="evenodd" d="M193.898 40.4787L195.366 40.3616C195.481 38.5146 196.036 40.1616 194.62 38.1187C193.544 36.5679 191.492 34.7135 189.94 34.3377C189.303 35.5985 189.785 35.2134 189.722 35.6985C188.997 41.4101 177.053 39.3762 173.729 33.7835C170.39 28.1626 173.518 27.4561 172.647 24.0341C171.51 19.5763 169.173 20.8799 170.23 14.9069C171.446 8.032 175.013 8.69877 176.913 5.76558C177.957 4.15442 176.043 0.793641 179.585 -3.69801C185.225 -10.8516 192.824 -8.91753 198.766 -3.7438C204.792 -7.45586 212.235 -4.64441 214.693 0.944346C216.532 5.12457 213.938 2.66072 218.463 5.91675C226.352 11.5962 223.707 23.4288 214.639 25.4859C212.907 24.3939 215.295 24.3989 212.425 23.446C211.503 25.6842 213.496 38.5587 214.944 40.9817L216.389 41.7257C216.596 40.2353 216.512 41.5934 216.452 40.2482L214.612 28.4215C219.064 25.3366 222.694 25.6629 224.82 18.1613C227.927 7.20374 219.158 5.69275 216.943 0.679924C213.448 -7.22949 206.699 -8.86265 199.232 -6.63774C195.031 -9.05935 192.979 -10.9967 188.451 -10.5865C185.418 -10.3102 181.624 -9.35751 178.567 -5.98483C174.195 -1.1579 175.685 2.99365 174.604 4.69071C172.257 8.37525 169.325 7.61518 167.954 14.7392C166.797 20.7469 169.49 20.3055 170.283 24.7491C171.082 29.2161 168.222 28.7169 171.885 34.8799C173.923 38.3085 177.721 40.6449 181.396 41.1947C185.926 41.8716 187.524 40.3275 191.95 38.7653L193.898 40.4758L193.898 40.4787Z" fill="#0A5425"/>
<path fill-rule="evenodd" clip-rule="evenodd" d="M182.61 23.2242C182.766 20.8497 181.308 21.2654 180.36 18.4039C179.942 17.141 179.704 14.5898 180.487 12.7873C183.631 5.54374 188.519 10.0361 190.073 6.52727C185.686 3.2349 175.539 9.52506 178.129 18.6751C178.642 20.4912 180.179 24.0075 182.611 23.2225L182.61 23.2242Z" fill="#0A5425"/>
<path fill-rule="evenodd" clip-rule="evenodd" d="M202.209 35.4982C201.213 32.5778 200.58 29.7189 198.718 28.3368C196.778 30.9646 199.159 31.1573 199.089 34.2277C197.474 33.1095 195.909 31.9462 194.32 30.7994C191.799 28.9805 191.817 28.3366 189.989 29.7565C191.087 31.6555 199.529 38.0453 202.11 38.5165C203.168 36.637 203.091 38.0846 202.211 35.4966L202.209 35.4982Z" fill="#0A5425"/>
<path fill-rule="evenodd" clip-rule="evenodd" d="M102.885 82.8702L101.117 84.0219C106.414 90.2099 108.998 92.4256 115.612 94.7621C134.535 101.452 137.559 125.149 122.973 136.592C109.769 146.951 87.6028 141.644 84.1806 120.022C83.1195 113.325 81.7924 110.189 76.5038 103.9L75.1598 105.257C80.8883 114.331 80.5428 112.677 82.3115 121.983C86.1363 142.105 109.059 150.235 124.309 138.214C134.474 130.2 136.521 116.759 132.046 107C129 100.354 124.096 96.084 118.303 93.5674C110.345 90.1054 110.15 90.8417 102.885 82.874L102.885 82.8702Z" fill="#F6F1D1"/>
<path fill-rule="evenodd" clip-rule="evenodd" d="M125.922 71.8922C130.407 72.1731 134.631 71.5728 138.658 76.9557C141.114 80.2391 141.891 87.5806 141.751 90.9068C138.961 92.5308 137.368 91.5771 135.788 94.0059C137.501 95.0814 136.669 94.7765 138.768 94.3444C140.708 93.9477 140.348 93.805 142.005 93.715L142.959 100.649C137.508 102.806 135.062 102.138 134.11 104.788C136.275 105.777 139.829 104.121 143.004 102.846C143.753 105.519 143.506 107.673 144.302 109.984C142.315 111 140.839 110.939 139.989 112.428C142.018 114.617 140.635 112.957 144.185 112.898L146.882 135.075C147.12 137.283 148.188 140.776 146.618 142.351C142.66 141.092 140.241 128.051 136.349 127.254C134.949 129.86 140.477 137.249 141.899 140.099C143.275 142.854 144.777 145.344 147.388 144.301C150.668 142.989 149.766 140.611 149.406 138.335C147.636 127.164 144.911 99.5908 143.506 86.7625C143.008 82.2146 143.036 77.696 138.329 73.4678C134.785 70.2851 129.169 68.766 125.616 70.5992L125.918 71.8956L125.922 71.8922Z" fill="#F6F1D1"/>
<path fill-rule="evenodd" clip-rule="evenodd" d="M73.4629 103.936C65.1758 86.3993 87.62 69.8951 101.684 80.8191C99.6286 82.7053 98.2395 83.6254 95.7046 84.2064C93.1559 84.7917 91.8086 84.0631 90.2067 84.7942C89.6629 89.7605 93.3482 90.4753 89.6295 95.826C87.081 95.5166 87.2531 96.0624 84.7196 95.2746C82.3666 94.5419 81.4579 93.488 79.4257 93.497C76.9897 97.4883 80.3177 98.1317 73.4611 103.934L73.4629 103.936ZM75.1599 105.257L76.5038 103.901C79.3868 101.808 79.9087 98.9304 81.1165 96.5323C84.1072 97.0948 88.5924 99.1363 91.2568 97.3573C93.7562 95.6879 93.509 89.5512 92.4684 87.0419C95.3177 86.2611 98.2554 86.3515 101.117 84.0187L102.885 82.867L104.742 80.6167C101.119 76.4409 95.4753 75.518 91.9147 75.3422C85.1298 75.006 84.8117 76.7471 78.2867 79.0988C73.919 74.2471 67.6295 73.3899 64.3286 75.9231C63.6279 76.4612 63.107 76.6896 62.6001 78.2884C66.7213 79.5052 70.0995 72.545 76.5917 80.7131C71.2531 86.9312 68.5845 92.3193 69.8926 100.155C70.2473 102.279 70.814 105.434 72.9409 106.535L75.1561 105.257L75.1599 105.257Z" fill="#0A5425"/>
<path fill-rule="evenodd" clip-rule="evenodd" d="M123.542 71.4657L124.482 72.2443L125.921 71.892L125.619 70.5956C123.421 58.8854 133.093 57.8322 134.685 54.6386C133.553 53.5848 134.487 53.1744 131.79 54.2282C127.56 55.8801 125.473 59.6368 123.628 63.1689C121.139 57.7299 121.044 50.937 118.092 50.3363C116.976 52.308 117.167 50.2042 119.139 56.8667C119.834 59.2154 120.735 61.1421 121.23 63.7467C119.068 63.2412 116.823 61.4426 114.393 60.9784C112.979 60.7075 112.006 60.7741 110.487 60.9435C106.587 61.3815 107.359 62.5671 107.196 63.0092C109.946 64.4011 110.726 61.8629 116.215 63.9351C119.565 65.2009 122.89 67.8542 123.545 71.464L123.542 71.4657Z" fill="#0A5425"/>
<path fill-rule="evenodd" clip-rule="evenodd" d="M124.48 72.2421L123.541 71.4635C119.933 69.7045 110.747 82.1432 115.814 88.7797C117.304 86.8794 116.657 86.3824 116.557 84.4062C116.478 82.8178 116.596 81.9315 117.168 80.1724C118.607 75.7517 120.836 75.0892 124.478 72.24L124.48 72.2421Z" fill="#F6F1D1"/>
<path fill-rule="evenodd" clip-rule="evenodd" d="M122.966 127.817C127.342 127.15 128.804 112.42 124.702 110.049C122.28 112.85 127.268 115.343 123.865 123.694C123.638 124.25 123.056 125.319 122.924 125.753C122.258 127.948 122.345 125.973 122.966 127.817V127.817Z" fill="#F6F1D1"/>
<path fill-rule="evenodd" clip-rule="evenodd" d="M25.2994 45.8212C25.2318 39.8167 22.8639 39.3378 22.1354 34.9435C20.8112 26.9613 33.363 23.61 29.0015 37.0535C27.1239 42.8435 30.6318 43.7826 25.2994 45.8212V45.8212ZM38.2662 39.3087C38.5433 33.3243 37.0961 33.9278 36.6384 29.5745C35.8064 21.6957 48.6824 21.4236 42.7178 32.136C39.9405 37.1223 43.9635 37.5874 38.2662 39.3087V39.3087ZM41.583 40.4143C45.6904 39.561 43.2357 40.6116 46.5316 42.6183C48.3016 43.6973 50.2789 43.4372 51.2697 45.0828C52.4851 47.0991 51.6957 49.3756 49.7975 50.1704C47.7562 51.022 45.7761 49.8213 44.6915 49.2108C42.7754 44.3926 44.7296 45.4007 41.5833 40.4173L41.583 40.4143ZM58.4243 29.8637C54.131 33.9273 57.5283 35.118 49.9745 36.1894C51.0224 33.8514 52.2482 32.1587 53.1232 29.447C54.0788 26.4874 53.4917 26.1263 55.2276 23.1745C61.1973 21.8151 62.3959 26.1014 58.4213 29.8641L58.4243 29.8637ZM66.2277 47.9433C66.6732 51.3474 64.0947 53.5131 60.6818 52.474C54.1281 49.5229 62.8116 43.3375 63.1429 42.7569C64.2709 40.7824 63.4092 39.7082 63.9146 38.5629L67.3917 39.8847C63.0662 43.7809 65.5627 42.8506 66.2254 47.9497L66.2277 47.9433ZM71.0715 31.673C73.4091 29.5634 74.103 28.8449 77.5139 30.6118C78.4744 34.5933 77.3583 35.4874 73.77 36.4897C69.0428 37.8111 70.002 37.5745 65.8564 37.1332C66.7989 34.8079 69.2531 33.3172 71.0689 31.6764L71.0715 31.673ZM75.6418 44.5533C77.4226 46.1323 81.7488 53.5275 77.2352 54.3833C74.8468 54.836 73.5125 52.6169 73.8191 50.239C73.9486 49.2484 75.3207 45.3985 75.6392 44.5567L75.6418 44.5533ZM77.5639 42.368C83.0871 40.8783 87.3691 39.9767 91.6857 42.8797C92.6065 47.6821 89.2958 51.2709 84.6757 49.2324C82.8525 48.4257 78.2544 43.6734 77.5639 42.368V42.368ZM31.8438 29.4062L31.07 27.9151C29.0997 26.5665 27.3144 25.5383 23.6792 26.6348L21.2981 28.5845C19.2009 34.3273 19.6069 34.8872 22.2759 41.0982C24.0525 45.2331 23.2145 49.487 18.6056 49.9538C17.0584 46.1278 18.2248 45.194 17.9622 41.2975L17.7598 40.0867C15.741 36.5614 14.5763 32.8671 8.82514 34.5215C4.45717 35.7787 3.92241 39.6786 5.59914 44.0271L7.11673 46.3222C8.28697 47.2159 8.14091 47.0163 8.98661 48.239C9.99137 49.6935 9.81101 49.4368 10.3685 51.2931L11.4971 51.2992C13.8452 51.2272 12.0251 51.3952 12.6088 50.6501C10.7603 45.4753 6.42154 44.2593 6.93656 38.5522C9.2779 35.8583 13.424 34.9455 15.3351 39.5931C16.6261 42.7313 15.7147 43.4452 15.6161 46.1315C15.5182 48.7475 16.7513 50.1686 17.3852 52.3581L19.9707 52.8417L22.7555 50.4832C25.6258 51.7153 27.4715 52.4032 28.4475 56.2575L30.9353 57.3579C29.085 50.9882 29.9091 52.3633 25.2434 49.1474C26.1896 47.7508 26.5927 47.6447 28.5176 46.9201C30.4103 51.9521 30.9484 51.4661 35.6661 52.9641C40.9336 54.638 38.9719 57.901 36.4605 60.502L38.1235 61.4776C41.7096 59.4821 42.2978 54.5427 38.6186 51.9612C34.1988 48.8596 32.893 52.83 30.356 45.674C44.3502 36.1383 40.2473 47.4174 43.3916 50.7168C48.4852 56.0612 57.5695 49.5193 52.84 43.511C50.4839 40.515 48.494 42.6443 46.1244 39.0477C50.8802 38.1722 56.4523 37.2208 60.7612 38.1868L61.7002 41.2446C59.8987 43.0305 57.1535 44.7973 56.5031 47.3171C54.5949 54.6972 64.3158 57.6255 67.709 51.7802C69.809 48.1645 67.156 46.1912 67.4121 42.4407C70.9757 40.8209 70.7194 41.0042 73.509 42.7901C73.3263 47.079 69.2273 51.7216 73.3744 55.305C77.7391 59.0733 81.8177 55.6956 81.2546 49.5087C85.9032 55.172 97.4372 49.6923 93.4872 42.1454C91.9637 39.2366 87.9181 38.71 83.966 38.9426C75.1146 39.4626 75.8594 43.3781 72.5698 38.91C76.5359 37.9482 80.1478 37.0929 80.1415 32.8082C80.1344 28.7986 76.8496 26.5766 73.0079 27.71C71.3101 28.2119 67.2449 32.2146 65.8436 33.537C63.9808 35.2966 63.2146 36.5616 59.5107 35.8507L57.2453 35.0264C58.7634 31.9141 62.8252 29.6266 62.8706 26.3138C62.925 22.41 59.2502 19.5834 55.3626 20.9729C51.6218 22.3113 52.0407 26.5958 50.5564 30.1717C49.2932 33.2169 47.286 36.791 43.6421 37.4301C43.5442 32.12 47.7274 30.9796 46.4468 26.1589C45.4433 22.3812 40.3277 20.2888 36.8488 23.1579C33.6063 25.8308 34.5269 29.8109 35.8625 34.1695C37.653 40.0115 34.7012 41.3536 30.6139 42.8372C29.2272 37.6135 33.8447 35.5777 31.8385 29.413L31.8438 29.4062Z" fill="#F6F1D1"/>
<path fill-rule="evenodd" clip-rule="evenodd" d="M53.2146 12.7462L39.1471 18.2039C40.2494 16.8865 42.442 14.2012 44.2002 13.2061C46.832 11.7187 50.507 12.751 53.2116 12.7466L53.2146 12.7462ZM21.3011 28.5838L23.6823 26.6341C24.6214 18.7918 32.3034 9.87079 38.3006 5.89457C45.2777 1.26665 60.2234 -2.13151 69.3904 -2.33755C66.1185 1.11518 51.4963 5.86865 46.0169 9.23906C40.0422 12.9161 32.1792 21.4216 31.0731 27.9144L31.8469 29.4055C33.825 27.9471 34.1307 24.5361 35.7928 22.8891C41.0312 17.7012 57.9845 15.9131 59.0388 11.7556C55.8251 10.054 52.2182 11.0799 49.0618 10.0377C55.4119 6.61245 64.7327 3.08073 73.9087 -1.84592C76.5314 -3.25584 76.213 -2.61878 76.3176 -4.97268C70.3755 -5.53611 58.9035 -3.17855 52.4549 -1.88733C31.6878 2.26879 27.4211 14.6862 24.7663 16.9038C17.0082 23.3916 16.3085 21.7266 8.7627 33.5352C12.8092 34.4284 12.1893 29.6116 22.8326 21.1202C22.4388 22.4846 22.1606 23.2024 21.6256 24.7915C21.4157 25.4156 21.0564 26.4274 20.9879 27.0072C20.6557 29.862 20.6681 27.8889 21.3018 28.5898L21.3011 28.5838Z" fill="#0A5425"/>
<path fill-rule="evenodd" clip-rule="evenodd" d="M4.0969 53.4002C29.562 52.0649 29.587 67.0734 59.8867 68.9858C59.3351 69.5131 59.5665 69.403 58.5688 69.9315C56.7808 70.8813 52.7674 71.1639 50.8062 71.2509C48.079 71.3742 45.4175 71.0739 42.8801 70.6091C37.8026 69.6828 33.054 67.2593 29.7561 65.2864C15.4179 56.7003 14.7813 58.4634 5.81639 54.363L4.0969 53.4002V53.4002ZM38.1301 61.4794L36.4672 60.5038C34.4842 59.9209 32.9742 58.869 30.9386 57.3571L28.4507 56.2566L19.9739 52.8408L17.3884 52.3572L11.5034 51.2979L10.3747 51.2918L7.19557 51.0594L7.12335 46.324L5.60576 44.0289C4.42865 45.5141 4.83757 48.5863 4.8918 50.6828C1.86531 51.8597 -1.12718 50.6543 -3.26056 52.7334C-2.62885 54.4433 10.909 58.3655 10.915 58.3648C11.1669 58.3745 11.2385 58.4883 11.389 58.5712L11.6328 58.6675C13.2873 59.2131 13.416 58.8829 14.7684 60.2531L16.6871 61.0148C18.685 61.6204 22.3753 63.3722 23.7817 64.7085L25.0076 65.0179C44.6898 78.6893 66.3699 72.679 67.7303 67.1402C65.2695 65.7797 46.6915 68.0672 38.1335 61.482L38.1301 61.4794Z" fill="#0A5425"/>
<path fill-rule="evenodd" clip-rule="evenodd" d="M23.7751 64.706L21.9184 67.0547C16.2448 67.7186 16.8334 65.5272 16.6805 61.0123L14.7618 60.2506C14.6211 60.7625 14.7312 59.9425 14.5716 61.4501C13.4022 72.4896 25.5385 70.5511 25.0041 65.015L23.7781 64.7056L23.7751 64.706Z" fill="#F6F1D1"/>
<path fill-rule="evenodd" clip-rule="evenodd" d="M11.6261 58.6653L11.3823 58.569L9.14267 58.8849C6.51745 62.7618 0.632175 67.3177 1.09971 71.3946C3.11483 70.965 3.27935 70.2423 4.28558 68.5543C7.18753 63.6907 10.0891 61.9021 11.0871 60.3496C11.8145 59.2206 11.5211 60.1695 11.623 58.6657L11.6261 58.6653Z" fill="#F6F1D1"/>
<path fill-rule="evenodd" clip-rule="evenodd" d="M147.121 51.7299L158.863 41.5294C159.273 48.485 154.555 52.0609 147.121 51.7299ZM102.134 -19.7788C93.6291 -26.578 104.145 -38.1405 111.731 -31.5205C113.511 -29.967 114.262 -28.2546 115.722 -26.651C117.812 -24.353 118.692 -25.395 117.376 -21.6679C114.778 -14.3155 111.303 -16.2021 111.504 -12.5403C115.646 -12.0816 118.486 -18.6342 119.282 -20.8296C121.454 -26.8237 116.742 -42.2202 127.676 -40.7226C133.413 -39.9369 133.079 -34.3073 133.314 -30.1983C130.732 -29.6665 129.1 -29.8787 127.037 -30.4633C125.258 -30.966 123.367 -32.2055 122.021 -31.2077C122.363 -28.1337 130.358 -27.5483 133.064 -28.0289L133.37 -21.881C129.917 -21.298 127.958 -22.8761 125.843 -21.3518C127.157 -18.9877 131.189 -19.4273 133.442 -19.6706C136.354 -10.2313 139.09 -11.1773 142.607 -7.53796C142.059 -4.96581 139.449 -1.65495 137.046 0.611344C134.167 3.32634 129.42 4.90937 127.271 6.96791C128.365 8.18732 127.955 9.28453 133.764 5.71863C135.546 4.62453 136.963 3.59937 138.498 2.14179C141.635 -0.839084 143.001 -4.27602 145.478 -6.45729C147.24 -4.62725 149.335 -3.72413 151.306 -1.94996C150.444 0.178652 150.554 0.628062 149.191 2.54387C147.5 4.92035 146.434 4.66336 147.418 7.45184C150.109 5.93324 152.574 1.2371 153.37 -0.619411C161.534 2.02274 162.543 9.05965 158.156 12.3474C151.07 17.6582 146.803 6.60853 143.264 10.1956C143.046 13.3859 147.063 18.0665 148.607 21.4101C147.216 22.8523 145.369 24.8178 143.375 26.4557C141.608 27.9078 138.726 29.1155 138.03 31.3267C138.213 31.3771 138.448 31.3883 138.598 31.3825C138.744 31.3772 138.979 31.422 139.158 31.4039C143.995 30.91 135.749 32.5696 140.242 31.2361C142.863 30.4577 147.88 24.6788 149.894 23.4567L153.295 29.7221C151.376 33.0831 146.411 36.9621 142.87 39.1463C140.625 40.5303 140.202 40.0188 140.29 42.1067C144.344 43.1242 151.775 34.1002 154.874 32.1203L158.298 38.7952C157.929 39.1175 145.801 51.2758 144.237 49.7051C144.116 49.5823 143.942 49.7473 143.795 49.732C141.486 48.6874 140.721 46.5615 139.352 44.1224C135.74 37.689 136.946 38.412 134.657 38.3664C134.295 40.9153 139.797 50.7894 144.766 52.9502C150.577 55.4787 157.026 53.0095 159.965 47.4069C164.656 38.4613 151.121 22.8032 146.548 12.9779C149.951 13.9417 153.588 18.7417 159.604 13.9181C162.697 11.4379 164.271 6.20664 160.947 1.83507C158.018 -2.01477 144.359 -8.14684 139.746 -12.5092C131.203 -20.5872 138.498 -33.0026 133.306 -39.7254C130.601 -43.2285 124.951 -44.3647 120.758 -40.5862C116.728 -36.9557 118.349 -32.731 117.945 -29.7067C117.773 -28.4245 117.868 -28.9984 117.557 -28.2454C113.256 -31.5337 112.637 -35.9182 106.525 -35.6473C100.334 -35.3725 97.321 -30.6618 96.9457 -26.6166C96.359 -20.3002 108.999 -7.71649 112.392 -1.98101C107.975 -1.63867 104.179 -4.02816 99.3925 1.71988C97.4696 4.02973 94.5998 11.1988 99.0514 14.477C101.678 12.1193 98.2516 12.353 99.2099 7.20228C99.7099 4.51391 100.598 2.79598 103.648 1.19469C104.701 3.51276 105.511 7.76394 107.297 9.15352C109.466 7.41455 107.563 5.05688 105.514 0.179867C110.209 -0.962683 115.584 2.71217 114.253 -3.47737C116.738 -4.49669 118.419 -5.28077 120.604 -6.82837C124.867 -9.84973 124.398 -9.69263 124.552 -11.3035C124.385 -11.3338 124.161 -11.3293 124.044 -11.3161C118.953 -10.7465 126.344 -12.5352 122.606 -11.0795C121.746 -10.7444 122.055 -10.8015 121.376 -10.2929C118.659 -8.2621 117.963 -6.94181 113.116 -5.41953C110.739 -6.97934 105.177 -14.9306 103.441 -17.8211C106.384 -19.1189 110.451 -20.4257 111.235 -23.4732C109.946 -23.7966 111.232 -23.801 109.696 -23.4385C107.478 -22.9145 107.883 -21.5793 102.134 -19.779L102.134 -19.7788Z" fill="#F6F1D1"/>
<path fill-rule="evenodd" clip-rule="evenodd" d="M100.912 30.4634C110.472 21.3241 122.037 36.4012 113.828 43.9738C104.754 52.3426 91.9181 39.0615 100.912 30.4634V30.4634ZM118.622 22.1916C127.602 13.1669 140.09 27.6645 131.282 35.6485C127.375 39.1904 120.496 38.9041 118.777 35.3332C115.764 29.0698 113.937 26.9002 118.622 22.1916V22.1916ZM133.684 21.3933C130.209 17.6104 128.079 18.4166 128.36 16.3679C128.808 13.1045 135.77 11.2341 139.081 10.8149C139.948 15.3711 137.899 20.2303 135.675 23.1641L133.684 21.3931L133.684 21.3933ZM102.328 26.5297C97.1585 15.183 112.88 6.83112 119.289 18.8634C115.399 21.0622 114.431 24.0005 113.189 27.0003C109.384 25.4699 107.831 25.2793 102.328 26.5298L102.328 26.5297ZM116.024 11.6167C116.607 9.33654 117.618 6.67002 119.955 4.72428C123.222 9.23143 125.25 9.6908 126.03 16.677C124.912 17.6345 123.441 17.3291 121.306 17.8122C119.152 13.8969 117.887 14.0357 116.024 11.6167V11.6167ZM118.506 39.1061C122.129 39.2953 124.396 42.2424 130.368 39.0375C139.207 34.2944 134.287 28.9982 137.451 24.4043C140.557 19.8947 142.684 14.6424 140.844 8.59893C135.24 8.68552 132.795 10.1155 127.668 13.0582C125.833 8.08062 123.365 4.09041 119.433 2.20008C116.051 4.18551 114.491 8.51252 113.888 11.0315C108.679 10.9728 105.227 10.4767 101.266 15.4741C97.8333 19.8047 99.4626 21.9272 100.051 27.9129C97.5351 31.1682 95.6734 32.9617 95.7483 37.1851C95.8316 41.8347 98.3871 45.5801 101.784 47.3303C109.172 51.1381 117.735 46.6511 118.505 39.1063L118.506 39.1061Z" fill="#0A5425"/>
<path fill-rule="evenodd" clip-rule="evenodd" d="M103.73 41.5656C106.006 39.9487 104.792 40.5222 106.45 38.8915C108.323 39.8137 107.331 40.0725 109.218 38.8079C108.136 36.7333 108.037 38.0428 107.426 36.5C106.549 34.2852 108.101 35.9988 107.077 33.7941C104.592 34.1534 105.815 34.739 104.703 35.2554C103.008 36.0418 104.427 33.8234 101.672 36.0158C102.303 37.693 102.354 36.4074 103.066 37.7253C104.113 39.663 102.85 38.2566 103.73 41.5656L103.73 41.5656Z" fill="#0A5425"/>
<path fill-rule="evenodd" clip-rule="evenodd" d="M122.19 25.2316C121.991 25.2536 120.916 25.2762 120.762 25.3385C119.208 25.9686 119.891 25.5305 119.132 26.6023C120.613 27.7396 120.98 27.1828 121.622 28.1946C122.724 29.9312 120.341 29.2009 123.058 30.535C125.12 28.7696 123.217 29.479 124.464 28.3341C126.035 26.8929 125.762 29.3985 127.083 26.6452C125.613 25.1464 127.279 26.0446 124.482 25.6016C124.565 23.3874 124.996 24.3563 123.532 22.5369C121.778 23.553 122.233 23.2032 122.19 25.2317L122.19 25.2316Z" fill="#0A5425"/>
<path fill-rule="evenodd" clip-rule="evenodd" d="M107.155 17.9856C106.886 18.0287 105.574 18.1507 105.419 18.2001L104.072 19.0528C104.265 20.7189 104.703 20.2195 106.43 20.6789C106.464 21.0516 106.376 21.5879 106.586 22.0276C108.279 25.5821 104.015 19.4159 107.44 23.1423C107.519 23.2272 107.71 23.3548 107.859 23.4414C109.017 21.9452 108.36 21.8793 109.151 21.1802C109.776 20.6275 110.982 20.6619 111.85 19.794C110.35 17.6323 111.842 19.0131 109.26 18.2396C109.187 17.2881 109.387 16.3665 107.892 15.4655C106.645 17.0019 107.001 16.0732 107.155 17.9857L107.155 17.9856Z" fill="#0A5425"/>
<path fill-rule="evenodd" clip-rule="evenodd" d="M171.42 187.606C166.123 184.042 162.493 181.152 159.192 176.173C151.293 164.253 149.81 147.968 158.566 134.901L225.872 180.24C221.176 189.801 206.851 195.262 200.742 195.831C190.137 196.821 183.115 195.475 171.421 187.604L171.42 187.606ZM188.393 152.228C192.342 147.045 199.882 152.313 196.316 157.738L188.393 152.228ZM179.098 146.174C183.08 138.617 194.103 136.953 201.017 141.492C208.647 146.503 210.818 156.269 205.868 163.705C203.407 163.12 200.844 160.881 198.542 159.237C199.306 155.423 200.554 152.231 196.435 149.351C192.656 146.707 189.384 148.168 186.292 151.042L179.097 146.176L179.098 146.174ZM207.702 165.375C208.66 163.113 209.586 161.552 210.143 159.299C210.75 156.846 210.258 155.504 210.966 153.118C219.437 158.14 225.64 167.787 223.78 176.226L207.704 165.376L207.702 165.375ZM181.613 140.111L181.085 140.513L177.265 144.595L158.034 132.04C150.303 141.099 149.708 155.716 151.282 162.957C156.605 187.432 189.383 208.416 215.761 192.733C220.292 190.038 225.336 185.713 228.543 180.424C227.617 177.769 227.274 179.535 226.372 177.329L225.092 166.296L224.755 165.355C224.127 164.372 219.535 156.727 219.493 156.6L218.559 156.327C216.178 153.995 210.687 151.242 209.52 149.003C206.026 142.292 201.716 136.347 191.399 136.838C185.993 137.096 184.606 139.017 181.616 140.111L181.613 140.111Z" fill="#F6F1D1"/>
<path fill-rule="evenodd" clip-rule="evenodd" d="M181.085 140.513L181.613 140.111C183.022 137.812 182.428 133.317 182.358 130.853C182.201 125.293 183.024 116.792 180.468 112.992C177.445 108.497 174.799 109.255 171.151 108.236C172.128 99.9598 176.183 102.284 178.492 99.0058C175.75 96.456 172.272 100.364 170.306 102.955C169.574 100.415 169.68 96.5168 167.502 94.6072C165.339 96.7553 168.318 99.6262 167.573 103.459C164.901 101.695 158.756 99.8545 158.993 102.868C159.719 104.639 164.213 101.696 168.916 108.403C163.726 113.622 158.949 112.992 164.134 126.165C166.986 133.406 169.909 145.397 175.222 139.229C172.15 137.676 174.062 139.323 171.305 138.165L170.172 134.828C172.508 134.174 174.992 134.694 175.796 132.201C173.755 131.089 171.422 132.26 169.286 132.536C168.281 131.122 168.492 130.852 167.321 129.369C169.844 127.502 170.16 128.767 171.21 126.982C169.943 125.461 168.815 126.08 166.841 126.459C157.849 113.743 173.586 105.328 178.87 114.606C180.639 117.712 179.96 124.177 180.07 127.82L180.139 137.818C180.195 140.06 179.654 139.792 181.08 140.513L181.085 140.513Z" fill="#0A5425"/>
<path fill-rule="evenodd" clip-rule="evenodd" d="M182.656 148.278C186.275 149.499 183.885 146.879 189.538 145.125C194.55 143.57 201.509 146.803 202.406 153.411C202.903 157.074 200.815 159.37 202.107 161.455C203.592 160.828 201.896 163.559 203.961 159.683C209.255 149.754 193.804 135.905 183.968 145.778L182.655 148.28L182.656 148.278Z" fill="#0A5425"/>
<path fill-rule="evenodd" clip-rule="evenodd" d="M103.847 232.855C99.6553 228.041 96.8978 224.309 94.9989 218.645C90.457 205.085 93.2435 188.972 105.086 178.62L158.349 239.847C151.337 247.864 136.086 249.428 130.038 248.396C119.539 246.604 113.105 243.485 103.849 232.854L103.847 232.855ZM129.406 203.082C134.563 199.099 140.481 206.14 135.631 210.457L129.406 203.082ZM121.997 194.826C127.801 188.559 138.878 189.808 144.38 195.983C150.451 202.799 150.019 212.794 143.311 218.694C141.086 217.492 139.19 214.665 137.393 212.481C139.119 208.994 141.151 206.235 137.919 202.386C134.953 198.853 131.415 199.417 127.684 201.392L121.995 194.828L121.997 194.826ZM144.65 220.782C146.161 218.846 147.461 217.578 148.582 215.545C149.804 213.333 149.676 211.91 150.978 209.789C157.859 216.834 161.351 227.759 157.369 235.428L144.652 220.784L144.65 220.782ZM125.997 189.622L125.382 189.874L120.635 192.827L105.313 175.718C95.4993 182.465 91.1378 196.429 90.783 203.831C89.5831 228.85 115.807 257.609 145.347 249.293C150.421 247.865 156.413 244.993 160.882 240.716C160.675 237.912 159.886 239.529 159.586 237.164L161.208 226.176L161.126 225.18C160.774 224.068 158.319 215.494 158.312 215.361L157.48 214.856C155.785 211.986 151.195 207.905 150.648 205.44C149.011 198.053 146.388 191.195 136.296 188.996C131.008 187.845 129.171 189.34 126 189.623L125.997 189.622Z" fill="#F6F1D1"/>
<path fill-rule="evenodd" clip-rule="evenodd" d="M125.382 189.873L125.997 189.622C127.952 187.766 128.543 183.271 129.114 180.873C130.402 175.462 133.4 167.464 131.916 163.132C130.16 158.007 127.408 158.054 124.149 156.125C127.236 148.384 130.55 151.68 133.63 149.111C131.643 145.938 127.27 148.812 124.7 150.805C124.651 148.162 125.764 144.425 124.155 142.016C121.509 143.53 123.642 147.075 121.93 150.584C119.806 148.188 114.348 144.819 113.796 147.791C114.039 149.689 119.141 148.01 121.947 155.707C115.582 159.404 111.131 157.557 112.727 171.624C113.605 179.357 113.322 191.696 120.052 187.115C117.487 184.819 118.907 186.905 116.545 185.072L116.314 181.555C118.74 181.529 121.005 182.674 122.427 180.475C120.744 178.872 118.187 179.399 116.052 179.112C115.448 177.486 115.721 177.28 114.975 175.544C117.896 174.395 117.873 175.698 119.35 174.246C118.519 172.449 117.27 172.754 115.265 172.609C109.874 157.998 127.254 153.947 129.954 164.277C130.858 167.735 128.527 173.804 127.69 177.35L125.166 187.026C124.64 189.205 124.187 188.806 125.378 189.872L125.382 189.873Z" fill="#0A5425"/>
<path fill-rule="evenodd" clip-rule="evenodd" d="M157.48 214.859L158.312 215.364L163.341 217.148C165.934 217.907 187.259 207.18 191.102 205.42C195.736 203.298 198.348 201.034 199.984 206.692C197.456 210.28 184.092 213.075 179.356 214.355C167.555 217.548 164.604 216.925 161.126 225.183L161.208 226.18C161.358 226.178 161.655 226.894 163.774 224.82C164.678 223.937 165.043 223.132 165.635 222.213C167.887 218.716 174.372 218.268 181.831 216.036C189.88 213.625 202.885 211.513 202.05 205.562C200.754 196.305 188.899 203.987 180.665 207.787C176.76 209.589 173.094 211.213 169.208 213.07C166.739 214.251 165.759 215.198 163.572 214.682C162.332 214.389 162.057 214.093 161.047 213.909C159.704 213.666 159.487 213.874 158.02 213.57L157.485 214.861L157.48 214.859Z" fill="#0A5425"/>
<path fill-rule="evenodd" clip-rule="evenodd" d="M124.888 197.781C128.067 199.897 126.438 196.747 132.352 196.518C137.595 196.314 143.479 201.24 142.634 207.854C142.165 211.521 139.554 213.197 140.261 215.547C141.858 215.325 139.513 217.523 142.512 214.316C150.197 206.096 138.861 188.718 126.802 195.705L124.887 197.782L124.888 197.781Z" fill="#0A5425"/>
</g>
</svg>
