<svg width="585" height="476" viewBox="0 0 585 476" fill="none" xmlns="http://www.w3.org/2000/svg">
<mask id="mask0" mask-type="alpha" maskUnits="userSpaceOnUse" x="0" y="0" width="585" height="476">
<rect width="585" height="476" fill="#C4C4C4"/>
</mask>
<g mask="url(#mask0)">
<path fill-rule="evenodd" clip-rule="evenodd" d="M50.3064 470.846L89.1482 464.18C95.3461 480.167 107.482 489.998 117.276 496.286C112.121 502.081 87.4219 504.828 75.1702 500.053C64.9204 496.057 53.8 486.535 50.3066 470.846L50.3064 470.846ZM83.9267 447.196L86.9862 460.167L77.5108 462.112C76.9675 454.444 78.6777 450.244 83.9267 447.196ZM71.6097 460.867C68.9743 455.675 48.6916 428.384 44.5949 426.966C42.9878 430.728 45.6 432.824 48.3677 436.281C51.0836 439.675 52.4625 441.832 55.1258 445.301C59.4448 450.925 65.6893 457.91 68.5236 463.359C64.9636 463.177 67.8907 465.472 60.1279 456.862C55.7643 452.024 40.4601 432.186 34.9112 432.58C34.2497 437.663 57.1293 457.715 61.2115 464.916L46.3062 467.608C44.7549 477.788 54.3808 490.533 59.5742 494.986C80.9318 513.304 97.8491 507.012 120.412 500.508C129.919 497.768 167.536 523.72 206.551 479.425C219.644 464.558 227.582 427.462 218.046 422.742C215.064 426.039 218.634 433.457 216.59 447.119C208.445 501.517 131.878 524.735 97.4349 471.349C69.1843 427.56 101.561 368.836 155.528 371.139C170.07 371.759 190.338 379.941 195.211 387.891C189.848 388.047 184.298 386.111 179.319 388.487C181.437 393.205 197.771 392.716 203.16 392.224C203.548 386.994 202.105 370.079 196.818 369.058C194.766 372.976 197.457 378.855 197.788 383.489C184.522 375.424 177.141 368.549 157.489 367.1C124.764 364.686 93.8118 386.185 85.4418 417.573C84.3765 421.57 82.7102 441.266 82.4984 441.711C79.1704 448.707 79.5084 439.024 73.2802 457.331C72.0729 460.883 73.1413 458.667 71.6097 460.867L71.6097 460.867Z" fill="#F6F1D1"/>
<path fill-rule="evenodd" clip-rule="evenodd" d="M144.103 405.099L149.84 437.553C151.076 437.704 150.955 437.991 152.934 437.55C155.499 436.98 171.195 428.671 172.814 424.968C169.115 421.82 162.959 427.76 153.593 432.54L147.987 403.235C147.069 397.983 146.66 400.543 145.321 399.861C143.294 401.921 143.164 399.662 144.103 405.099L144.103 405.099Z" fill="#0A5425"/>
<path fill-rule="evenodd" clip-rule="evenodd" d="M94.1095 447.011C103.627 451.277 102.771 444.365 102.791 444.31C101.844 443.911 101.388 442.224 97.188 443.467C91.347 445.194 94.9131 445.835 94.1094 447.01L94.1095 447.011Z" fill="#0A5425"/>
<path fill-rule="evenodd" clip-rule="evenodd" d="M200.39 427.261C201.904 429.125 198.625 430.08 204.977 429.427C210.084 428.9 208.739 427.547 209.288 425.706C204.259 423.367 203.474 424.434 200.39 427.261V427.261Z" fill="#0A5425"/>
<path fill-rule="evenodd" clip-rule="evenodd" d="M143.184 387.624C146.137 384.565 145.918 380.844 141.611 378.624C138.317 382.183 139.389 385.779 143.184 387.624Z" fill="#0A5425"/>
<path fill-rule="evenodd" clip-rule="evenodd" d="M33.3854 405.999C34.7854 400.5 33.9732 391.197 34.6301 384.637C37.7102 382.18 40.6731 381.926 44.3591 380.575C47.9253 379.267 51.4195 377.098 54.4287 376.586C53.7671 382.074 50.7546 387.672 47.3243 392.743C45.4342 395.536 43.0439 398.542 40.7782 401.051L36.2619 404.97C34.097 406.111 35.3909 405.631 33.3846 405.993L33.3854 405.999ZM9.25293 420.754C8.88515 414.271 9.35739 388.942 10.7453 383.907C18.8166 385.935 24.3914 383.944 30.1947 385.559L29.2318 408.285C28.0946 414.502 14.4062 420.86 9.25867 420.754L9.25293 420.754ZM-14.1381 378.205C-13.7895 372.018 -13.1189 370.943 -6.54632 369.548C5.17448 377.106 -5.64041 388.308 -14.1381 378.205ZM11.8139 347.782C11.0163 344.099 11.6286 329.306 12.6813 325.806C18.7696 327.113 25.1639 328.009 31.7966 331.292L31.3482 338.112C30.6431 338.514 13.3908 347.234 11.8106 347.78L11.8139 347.782ZM-44.923 422.085C-53.8977 418.617 -63.9805 412.947 -63.5906 403.496L-61.4873 358.25C-58.8459 352.273 -47.6034 342.474 -42.3913 340.08C-41.4393 343.186 -42.1123 352.217 -42.275 356.381C-42.7733 368.947 -44.3087 368.545 -40.1091 372.168C-36.5067 367.094 -37.5789 350.691 -37.3795 344.015C-37.1949 337.868 -37.6151 335.967 -30.513 333.174C-25.9496 331.377 -22.2953 329.309 -17.7851 328.865C-15.8895 335.632 -19.1925 353.881 -17.4379 356.933C-13.1422 364.412 -13.0263 346.529 -12.8519 343.15C-12.6087 338.446 -12.929 331.289 -11.9047 327.413C-6.14773 326.043 0.311587 325.184 6.598 325.68C8.1376 330.481 6.76915 339.113 6.73847 344.616C6.66901 356.623 3.81815 353.193 -2.28158 365.459L-6.93449 365.25C-11.0977 365.113 -14.8413 366.004 -17.4684 371.215C-19.882 376.003 -16.9556 375.505 -20.8719 378.368C-27.0308 382.868 -54.3594 386.602 -54.8196 393.825C-50.5365 395.615 -21.2411 383.707 -18.5921 382.11C-1.00671 392.662 -5.66803 384.864 4.14223 381.115C6.67538 384.998 5.63935 381.982 5.57434 387.299L3.88823 422.848C-0.463697 424.97 -1.17302 424.895 -6.0879 425.479C-11.6014 426.134 -11.42 426.94 -15.1932 425.963L-14.6297 400.914C-14.4805 395.634 -13.6869 396.595 -17.222 393.336C-21.2109 399.362 -18.9603 418.647 -20.5413 426.312C-25.3179 427.453 -34.8076 425.913 -40.1606 423.385C-39.0788 417.763 -37.3962 400.594 -41.6792 397.277C-45.1534 401.755 -43.9072 415.879 -44.9197 422.087L-44.923 422.085ZM-68.5618 399.622C-72.3748 392.801 -72.7994 379.248 -67.8003 369.711C-66.8049 373.683 -67.3544 394.975 -68.5618 399.622ZM27.8198 324.639L24.9951 323.245C4.63877 321.23 7.5885 318.612 -12.9554 322.68L-15.7955 322.954C-35.6839 330.948 -57.8608 337.171 -70.9941 364.495C-99.8268 424.478 -9.69227 456.917 41.3422 407.112C49.1684 399.475 62.7764 382.972 58.708 372.878C54.4085 367.704 46.7395 376.395 30.9263 379.816C2.84156 385.892 -12.1162 365.935 21.528 347.811C25.4595 345.695 30.839 343.602 34.9628 342.563C37.357 341.96 46.9363 341.414 45.0626 335.019C42.1003 329.721 33.5054 326.505 27.8255 324.639L27.8198 324.639Z" fill="#F6F1D1"/>
<path fill-rule="evenodd" clip-rule="evenodd" d="M-15.8076 322.956L-12.9675 322.681C-12.8035 319.099 -11.6757 322.272 -14.4849 318.36C-16.62 315.39 -20.6571 311.864 -23.6753 311.187C-24.8681 313.65 -23.9465 312.888 -24.0535 313.83C-25.2732 324.92 -48.4798 321.367 -55.1011 310.64C-61.7533 299.859 -55.7147 298.388 -57.5144 291.786C-59.8617 283.187 -64.3463 285.788 -62.4931 274.182C-60.361 260.823 -53.428 261.999 -49.842 256.254C-47.8731 253.099 -51.6903 246.65 -44.9745 237.832C-34.2795 223.79 -19.4947 227.29 -7.81435 237.12C3.74016 229.733 18.2512 234.938 23.1966 245.685C26.8939 253.725 21.7898 249.035 30.6622 255.197C46.1307 265.944 41.3902 288.954 23.8881 293.234C20.4979 291.175 25.1243 291.107 19.5332 289.354C17.819 293.72 22.0987 318.599 24.9831 323.246L27.8077 324.641C28.1601 321.746 28.0409 324.38 27.8805 321.776L23.9327 298.923C32.4564 292.801 39.4999 293.315 43.3762 278.713C49.0386 257.382 32.0002 254.74 27.5469 245.1C20.5178 229.89 7.3889 226.945 -7.00458 231.498C-15.2226 226.943 -19.2613 223.257 -28.0197 224.198C-33.8871 224.832 -41.2081 226.801 -47.0201 233.435C-55.333 242.929 -52.3116 250.924 -54.351 254.247C-58.7783 261.461 -64.4844 260.084 -66.909 273.931C-68.9543 285.608 -63.7525 284.665 -62.0713 293.249C-60.3781 301.877 -65.9358 301.003 -58.6371 312.824C-54.5771 319.4 -47.1435 323.803 -40.0053 324.749C-31.2079 325.914 -28.1619 322.87 -19.6378 319.7L-15.8084 322.95L-15.8076 322.956Z" fill="#0A5425"/>
<path fill-rule="evenodd" clip-rule="evenodd" d="M9.79493 305.901C5.55997 301.958 4.29927 297.271 -0.372536 296.564C-1.77979 301.862 8.63965 313.662 13.6889 315.451C16.1609 311.3 13.5276 297.615 13.6719 292.851C13.8078 288.302 14.8965 288.711 10.5975 285.829C7.02848 291.782 11.0413 299.14 9.79819 305.904L9.79493 305.901Z" fill="#0A5425"/>
<path fill-rule="evenodd" clip-rule="evenodd" d="M0.133153 313.036C-1.89169 307.41 -3.21148 301.892 -6.8628 299.275C-10.5361 304.429 -5.91802 304.725 -5.95414 310.676C-9.11784 308.562 -12.1885 306.359 -15.3044 304.189C-20.2482 300.747 -20.2331 299.499 -23.7296 302.309C-21.5394 305.953 -4.97689 318.058 0.0393352 318.887C2.02715 315.211 1.92592 318.018 0.135629 313.033L0.133153 313.036Z" fill="#0A5425"/>
<path fill-rule="evenodd" clip-rule="evenodd" d="M508.96 45.02C510.496 50.482 515.85 58.1327 518.561 64.1426C517.122 67.8108 514.683 69.5118 512.166 72.5244C509.731 75.4401 507.79 79.0659 505.44 81.0134C503.269 75.9302 503.079 69.5758 503.515 63.4692C503.755 60.1048 504.323 56.3066 505.031 53.0009L506.983 47.3488C508.287 45.2784 507.406 46.3407 508.963 45.0246L508.96 45.02ZM522.483 20.1758C526.042 25.6067 538.297 47.7793 539.612 52.8337C531.608 55.1126 527.775 59.6244 521.942 61.1267L511.414 40.9629C509.29 35.0102 517.967 22.6611 522.478 20.1794L522.483 20.1758ZM564.013 45.3313C566.804 50.864 566.761 52.1305 561.766 56.6246C547.836 55.9385 551.602 40.8301 564.013 45.3313ZM556.747 84.6539C559.279 87.4452 566.144 100.563 566.983 104.12C561.056 106.032 555.07 108.453 547.685 108.926L544.663 102.795C545.073 102.095 555.655 85.9169 556.751 84.6545L556.747 84.6539ZM568.737 -8.06163C578.243 -9.54503 589.81 -9.67566 594.197 -1.29566L614.997 38.9419C615.697 45.4388 610.859 59.5455 607.543 64.2253C605.165 62.0109 601.233 53.8532 599.292 50.1657C593.441 39.0336 594.972 38.6145 589.523 37.5758C588.94 43.7713 598.07 57.4414 601.234 63.3225C604.148 68.7384 605.462 70.1752 600.708 76.1447C597.654 79.982 595.523 83.6006 591.839 86.2398C586.814 81.3271 580.551 63.8704 577.506 62.105C570.046 57.7747 578.886 73.3206 580.425 76.334C582.566 80.5299 586.421 86.5677 587.472 90.4368C583.171 94.5017 578.006 98.4748 572.314 101.188C568.581 97.8003 565.45 89.6399 562.725 84.8588C556.783 74.4255 560.966 75.9703 560.117 62.2982L564.251 60.1532C567.925 58.1901 570.722 55.547 570.392 49.7201C570.089 44.3673 567.803 46.261 569.763 41.824C572.848 34.848 594.649 17.951 591.436 11.4651C586.832 12.0562 567.414 37.0157 565.918 39.7229C545.413 39.3764 553.348 43.7994 546.726 51.9504C542.591 49.8542 544.996 51.9482 542.394 47.3105L526.082 15.6801C528.79 11.6674 529.442 11.3775 533.407 8.41422C537.854 5.09036 537.294 4.48329 541.05 3.44308L553.086 25.4189C555.596 30.0656 554.428 29.6301 559.119 30.6852C559.561 23.4727 547.97 7.89561 545.508 0.467353C549.074 -2.90925 558.062 -6.32006 563.963 -6.80638C565.836 -1.39704 572.963 14.3138 578.33 15.0449C579.1 9.43038 570.96 -2.17898 568.733 -8.06214L568.737 -8.06163ZM600.44 -0.425896C607.152 3.57524 614.296 15.1008 614.734 25.8596C611.886 22.9173 601.717 4.20255 600.44 -0.425896ZM554.455 112.699L557.599 112.495C576.236 104.063 574.99 107.805 590.748 94.011L593.071 92.3532C606.299 75.4875 622.394 59.0103 620.108 28.7802C615.09 -37.5833 520.811 -20.6149 501.512 48.0335C498.552 58.5601 495.018 79.6564 503.587 86.3642C509.898 88.6961 512.195 77.3348 524.179 66.4661C545.464 47.1629 568.396 56.969 548.319 89.4855C545.972 93.2834 542.36 97.7857 539.308 100.748C537.536 102.466 529.513 107.729 534.333 112.331C539.547 115.438 548.598 113.926 554.451 112.703L554.455 112.699Z" fill="#F6F1D1"/>
<path fill-rule="evenodd" clip-rule="evenodd" d="M593.081 92.3458L590.758 94.0036C592.407 97.1879 589.844 95.0039 594.233 96.9874C597.567 98.4917 602.826 99.5272 605.778 98.6051C605.58 95.8753 605.163 96.9958 604.784 96.1265C600.297 85.9128 622.171 77.3873 633.268 83.3674C644.42 89.379 639.925 93.6715 644.784 98.489C651.116 104.763 653.7 100.268 657.897 111.247C662.73 123.882 656.137 126.33 655.904 133.098C655.776 136.815 662.306 140.492 660.898 151.486C658.656 168.994 644.102 173.355 629.071 170.68C622.758 182.855 607.588 185.602 597.932 178.766C590.711 173.652 597.476 175.162 586.711 174.262C567.942 172.688 560.543 150.389 573.561 137.932C577.527 138.021 573.554 140.392 579.273 139.115C578.574 134.477 562.43 115.07 557.608 112.487L554.465 112.692C555.607 115.375 554.393 113.034 555.834 115.209L570.679 133.028C566.357 142.591 560 145.667 563.943 160.252C569.703 181.556 585.781 175.326 594.457 181.448C608.149 191.107 620.991 187.093 631.181 175.954C640.575 175.791 645.916 176.964 653.03 171.77C657.795 168.288 663.151 162.922 664.868 154.271C667.321 141.893 660.707 136.48 660.812 132.582C661.04 124.12 666.67 122.46 661.847 109.256C657.781 98.1207 653.747 101.538 648 94.9446C642.22 88.3183 647.47 86.2969 635.239 79.708C628.435 76.0423 619.796 75.9455 613.141 78.6951C604.939 82.0849 603.823 86.2437 598.026 93.2511L593.084 92.3504L593.081 92.3458Z" fill="#0A5425"/>
<path fill-rule="evenodd" clip-rule="evenodd" d="M579.434 119.916C585.073 121.214 588.508 124.643 592.908 122.919C591.478 117.628 576.554 112.617 571.287 113.592C571.222 118.423 580.344 128.958 582.6 133.156C584.757 137.164 583.61 137.355 588.774 137.701C588.889 130.761 581.735 126.395 579.43 119.916L579.434 119.916Z" fill="#0A5425"/>
<path fill-rule="evenodd" clip-rule="evenodd" d="M584.234 108.906C588.8 112.766 592.702 116.886 597.173 117.327C597.777 111.027 593.63 113.079 590.686 107.907C594.483 108.156 598.243 108.529 602.027 108.851C608.029 109.36 608.64 110.448 610.263 106.266C606.545 104.206 586.149 102.003 581.39 103.792C581.506 107.97 580.19 105.488 584.233 108.911L584.234 108.906Z" fill="#0A5425"/>
<path fill-rule="evenodd" clip-rule="evenodd" d="M323.411 406.408L319.358 406.95C323.472 422.189 326.148 428.217 335.774 437.814C363.31 465.278 348.863 509.256 313.815 517.129C282.086 524.255 247.724 496.51 259.745 455.829C263.466 443.229 263.756 436.637 259.741 421.229L256.26 422.484C258.725 443.131 259.498 439.949 254.841 457.704C244.774 496.095 278.108 529.41 314.801 521.079C339.259 515.524 354.035 493.713 354.333 472.912C354.54 458.747 349.517 447.192 341.476 437.964C330.437 425.28 329.483 426.406 323.407 406.414L323.411 406.408Z" fill="#F6F1D1"/>
<path fill-rule="evenodd" clip-rule="evenodd" d="M372.86 406.388C380.472 410.615 388.363 413.083 390.925 425.854C392.487 433.644 387.733 447.136 384.718 452.839C378.483 453.356 376.491 450.361 371.704 453.295C373.805 456.603 372.603 455.376 376.635 456.368C380.359 457.29 379.849 456.741 382.822 457.963L378.717 470.888C367.383 470.123 363.659 466.918 359.788 470.76C362.752 474.295 370.35 474.357 376.966 474.77C376.051 480.071 373.824 483.633 373.292 488.34C368.97 488.462 366.438 487.128 363.71 489.023C365.438 494.544 364.4 490.487 370.661 493.34L356.908 534.387C355.487 538.448 354.445 545.449 350.386 546.897C344.511 541.398 351.139 516.567 344.994 511.931C340.374 515.325 343.892 532.856 344.006 539.027C344.119 544.994 344.672 550.6 350.11 550.95C356.942 551.386 357.344 546.474 358.609 542.192C364.816 521.174 383.013 470.664 391.24 447.05C394.157 438.678 397.967 430.795 393.254 419.478C389.705 410.958 381.144 403.623 373.401 403.871L372.85 406.39L372.86 406.388Z" fill="#F6F1D1"/>
<path fill-rule="evenodd" clip-rule="evenodd" d="M254.391 418.759C254.498 381.176 307.511 370.994 323.018 401.819C317.852 403.407 314.655 403.86 309.736 402.766C304.79 401.667 303.039 399.27 299.628 399.215C294.54 407.451 300.392 411.771 289.43 418.035C285.229 415.371 285.075 416.47 281.299 412.981C277.792 409.739 277.08 407.139 273.517 405.462C265.931 410.416 271.218 414.314 254.39 418.754L254.391 418.759ZM256.259 422.485L259.741 421.23C266.527 419.971 269.837 415.37 273.947 412.181C278.712 415.656 284.858 422.963 291.002 422.069C296.765 421.23 301.443 410.288 301.713 405.031C307.348 406.038 312.412 408.643 319.362 406.945L323.415 406.403L328.537 404.012C325.676 393.688 316.571 387.374 310.488 384.101C298.897 377.862 296.891 380.643 283.516 379.323C279.916 367.197 269.626 360.459 261.741 362.142C260.066 362.5 258.965 362.465 256.747 364.84C262.943 370.402 274.651 361.038 279.206 380.735C264.687 387.168 255.531 394.372 251.293 409.172C250.145 413.182 248.509 419.175 251.313 422.872L256.253 422.481L256.259 422.485Z" fill="#0A5425"/>
<path fill-rule="evenodd" clip-rule="evenodd" d="M369.052 403.66L370.046 405.805L372.859 406.387L373.41 403.868C379.318 381.549 397.116 387.762 402.56 383.5C401.459 380.714 403.433 380.773 397.837 380.371C389.062 379.739 382.281 384.573 376.111 389.216C376.287 377.627 381.778 365.663 377.113 362.153C373.519 364.674 375.604 361.152 373.507 374.451C372.765 379.139 372.737 383.26 371.434 388.229C368.073 385.545 365.644 380.528 361.778 377.692C359.53 376.04 357.773 375.347 354.974 374.378C347.785 371.896 348.149 374.613 347.496 375.251C351.147 379.976 354.627 376.186 362.503 384.382C367.31 389.387 370.919 396.799 369.057 403.659L369.052 403.66Z" fill="#0A5425"/>
<path fill-rule="evenodd" clip-rule="evenodd" d="M370.045 405.799L369.05 403.655C364.203 397.572 337.772 411.684 341.109 427.515C345.299 425.431 344.58 424.023 346.053 420.483C347.236 417.637 348.181 416.185 350.646 413.583C356.847 407.048 361.298 407.745 370.044 405.794L370.045 405.799Z" fill="#F6F1D1"/>
<path fill-rule="evenodd" clip-rule="evenodd" d="M321.11 501.771C329.321 504.248 344.148 479.694 338.946 472.13C332.375 475.013 339.025 483.528 326.116 495.305C325.256 496.09 323.347 497.475 322.756 498.124C319.762 501.409 321.558 498.027 321.11 501.771V501.771Z" fill="#F6F1D1"/>
<path fill-rule="evenodd" clip-rule="evenodd" d="M-18.1909 137.014C-28.7374 132.099 -31.5589 135.835 -39.8464 133.424C-54.9013 129.047 -50.2352 104.31 -30.405 123.197C-21.8636 131.331 -17.2826 125.989 -18.1909 137.014V137.014ZM-18.6996 108.902C-28.9222 103.402 -29.081 106.436 -37.0697 103.587C-51.5315 98.4363 -41.2143 75.7137 -27.4992 95.113C-21.1159 104.144 -16.9313 97.506 -18.6996 108.902V108.902ZM-13.9881 104.034C-12.0359 96.1434 -12.258 101.312 -5.98968 97.2364C-2.62106 95.0486 -1.41815 91.3763 2.28732 91.0246C6.82843 90.5913 10.144 93.8785 9.94136 97.8609C9.71807 102.141 5.96074 104.594 3.98521 105.977C-6.03842 105.286 -2.63923 102.717 -13.9825 104.036L-13.9881 104.034ZM-18.3038 65.7689C-14.8034 76.6754 -9.8756 71.7383 -14.3353 85.833C-17.5414 82.0425 -19.4712 78.4822 -23.4751 74.6806C-27.8447 70.5305 -28.9675 71.2536 -32.6693 65.7467C-30.0406 54.1781 -21.5477 55.6769 -18.3057 65.7744L-18.3038 65.7689ZM19.8223 67.2903C26.1425 69.3654 27.7649 75.6854 23.089 80.7767C12.44 89.7526 8.91245 69.3977 8.17593 68.3324C5.6718 64.7068 3.07306 65.3117 1.49572 63.4687L6.71943 58.5021C9.90056 69.3246 10.3679 64.1834 19.8315 67.2997L19.8223 67.2903ZM-4.54222 45.1905C-6.26827 39.3385 -6.9419 37.5241 -0.996258 33.0461C6.76458 34.7053 7.39112 37.4046 6.13446 44.5136C4.48077 53.8796 4.87141 52.0057 0.625715 58.8781C-2.64675 55.2824 -3.19398 49.7455 -4.53855 45.198L-4.54222 45.1905ZM21.7907 48.0023C26.0418 46.2148 42.5875 44.8554 40.2993 53.4581C39.0884 58.01 34.0932 58.4811 30.1958 55.9523C28.5739 54.8958 22.9982 49.2717 21.7944 48.0097L21.7907 48.0023ZM19.5839 42.8127C21.611 31.9149 23.625 23.6786 32.3147 18.5706C41.4763 20.9873 44.971 29.7791 37.5373 36.142C34.5998 38.6509 22.4433 42.7006 19.5839 42.8127V42.8127ZM-41.3826 111.822L-44.6362 111.924C-48.6436 114.236 -51.9365 116.493 -53.0678 123.763L-51.6575 129.557C-43.3826 138.034 -42.0641 137.794 -28.9762 138.337C-20.2634 138.699 -13.5341 143.729 -16.5819 152.172C-24.5628 151.668 -25.2164 148.848 -32.2439 146.04L-34.5287 145.379C-42.3795 145.951 -49.8098 144.889 -51.7401 156.323C-53.2049 165.008 -46.84 169.211 -37.8376 169.927L-32.5561 169.199C-30.0139 167.904 -30.4851 167.992 -27.64 167.539C-24.2569 167.003 -24.8565 167.103 -21.1464 167.685L-20.1897 165.718C-18.3473 161.556 -19.5794 164.876 -20.3918 163.232C-30.9816 162.124 -36.7428 168.685 -46.2815 163.001C-49.0252 156.653 -47.1447 148.644 -37.4233 149.201C-30.8587 149.576 -30.3756 151.767 -25.7651 154.191C-21.277 156.555 -17.7607 155.592 -13.4044 156.319L-10.3924 152.208L-12.1785 145.366C-7.62011 141.384 -4.87133 138.736 2.68027 140.262L6.68802 136.838C-5.99093 134.732 -2.89781 134.444 -12.4268 139.9C-14.0736 137.076 -13.9211 136.283 -13.5735 132.313C-3.19618 133.224 -3.59409 131.877 2.97724 124.89C10.3168 117.091 14.373 123.253 16.8119 129.821L19.9102 127.733C19.4299 119.796 11.2937 114.628 3.69981 118.892C-5.42328 124.013 0.418512 129.623 -14.2096 128.057C-19.1388 95.6159 -2.87306 112.238 5.52656 109.51C19.1326 105.091 15.3182 83.7374 0.857511 86.9638C-6.3514 88.5688 -4.29947 93.8298 -12.5689 94.955C-10.1121 85.9127 -7.10377 75.3807 -1.8046 68.6626L4.32469 69.5851C5.93456 74.2293 6.72026 80.5063 10.5773 83.7545C21.871 93.274 35.1347 78.7461 27.767 67.9186C23.2106 61.2191 17.5395 64.2 11.2019 60.609C11.359 53.0255 11.4645 53.627 16.9226 50.2504C24.2623 54.1645 28.9371 65.2169 38.6734 60.9755C48.9153 56.5089 46.433 46.5524 35.1524 42.3503C48.9428 38.976 49.0373 14.2329 32.5418 14.8078C26.1832 15.0313 21.8722 21.6577 18.9659 28.757C12.4552 44.6563 19.9199 46.6371 9.35673 48.639C11.0009 40.9041 12.5341 33.877 5.04334 30.2966C-1.96734 26.9482 -8.60252 30.8244 -9.84258 38.4859C-10.3888 41.8726 -6.80343 52.3297 -5.66768 55.8862C-4.15513 60.6153 -2.58725 63.0143 -6.93385 68.8891L-10.2728 72.1559C-14.4376 66.895 -15.0293 57.8817 -20.7787 55.0257C-27.5531 51.6585 -35.5714 55.7092 -36.4025 63.6655C-37.1998 71.3226 -29.3637 74.182 -24.3606 79.7724C-20.0993 84.5318 -15.5378 91.0341 -17.4756 97.9356C-26.8344 93.6558 -25.3204 85.3918 -34.8155 83.5884C-42.2563 82.1751 -50.1997 89.3583 -48.1033 97.8409C-46.1517 105.746 -38.4267 107.474 -29.6926 108.794C-17.9859 110.562 -18.1153 116.844 -18.9493 125.228C-29.2375 123.272 -28.9238 113.499 -41.3752 111.837L-41.3826 111.822Z" fill="#F6F1D1"/>
<path fill-rule="evenodd" clip-rule="evenodd" d="M-22.7213 180.408C-3.70951 134.801 22.5314 147.337 51.2694 96.0062C51.7283 97.4117 51.7299 96.9151 51.8169 99.1011C51.9774 103.021 49.1073 110.269 47.6154 113.769C45.5449 118.636 42.7895 123.034 39.8506 127.078C33.9764 135.172 25.7623 141.436 19.5514 145.544C-7.46698 163.396 -4.92029 165.986 -19.5982 178.211L-22.7213 180.408V180.408ZM19.9194 127.723L16.8211 129.811C14.1407 132.787 11.0374 134.543 6.68976 136.832L2.68201 140.256L-10.3907 152.202L-13.4026 156.313L-20.186 165.707L-21.1427 167.673L-24.2136 173.033L-32.5469 169.19L-37.8284 169.917C-36.2204 173.218 -30.5105 175.079 -26.8024 176.742C-27.2832 183.015 -31.8972 187.233 -30.0532 192.703C-26.5366 193.032 -8.33701 172.669 -8.33321 172.658C-8.10515 172.226 -7.84642 172.196 -7.57539 172.003L-7.20286 171.658C-4.8629 169.225 -5.33181 168.723 -1.80446 167.509L1.13448 164.795C3.86699 161.813 10.0207 156.834 13.534 155.497L15.102 153.615C55.4837 130.689 63.1556 87.7755 54.6194 80.7563C50.1802 83.915 38.6044 118.288 19.9268 127.72L19.9194 127.723Z" fill="#0A5425"/>
<path fill-rule="evenodd" clip-rule="evenodd" d="M13.5234 155.507L16.0704 160.719C12.4748 171.188 9.13954 168.322 1.12384 164.805L-1.81509 167.519C-1.03866 168.194 -2.37906 167.314 0.121004 168.856C18.427 180.153 25.2131 157.325 15.0933 153.619L13.5253 155.501L13.5234 155.507Z" fill="#F6F1D1"/>
<path fill-rule="evenodd" clip-rule="evenodd" d="M-7.21269 171.667L-7.58522 172.013L-8.9107 176.19C-4.33801 184.026 -1.31181 198.126 6.20254 200.727C7.14096 196.846 6.01638 195.953 3.91082 192.78C-2.15364 183.634 -2.84617 177.066 -4.722 174.021C-6.0847 171.804 -4.67288 173.112 -7.21459 171.673L-7.21269 171.667Z" fill="#F6F1D1"/>
<path fill-rule="evenodd" clip-rule="evenodd" d="M252.098 1.52957L235.528 -23.6466C248.992 -22.6453 254.646 -12.664 252.098 1.52957ZM103.19 69.5315C87.9438 84.1158 68.4428 60.9458 83.1084 48.0789C86.5499 45.0606 90.0319 44.0579 93.487 41.6678C98.4383 38.2441 96.6637 36.2852 103.483 39.7725C116.935 46.6533 112.418 52.8421 119.502 53.3986C121.449 45.5609 109.595 38.4202 105.583 36.3278C94.6301 30.6148 63.8485 35.7024 69.5376 15.0884C72.5225 4.27255 83.2483 6.36278 91.2003 6.96841C91.5575 12.0637 90.7299 15.1435 89.0765 18.9561C87.6532 22.2432 84.7863 25.5562 86.3565 28.3966C92.3482 28.5306 95.5293 13.3262 95.3025 8.00563L107.188 9.00017C107.42 15.7822 103.885 19.1376 106.268 23.5918C111.147 21.6763 111.34 13.82 111.452 9.43156C130.33 6.26657 129.217 0.768209 137.111 -5.04989C141.91 -3.33516 147.597 2.5297 151.331 7.72769C155.805 13.9549 157.624 23.4793 161.025 28.1348C163.648 26.3483 165.65 27.4183 160.296 15.3443C158.653 11.6401 157.049 8.65466 154.644 5.33253C149.726 -1.45863 143.477 -4.96606 139.925 -10.286C143.893 -13.1983 146.166 -16.9898 150.081 -20.3181C153.947 -18.1147 154.839 -18.2116 158.167 -15.0996C162.296 -11.2417 161.528 -9.26013 167.137 -10.4326C164.913 -15.9917 156.528 -21.9336 153.167 -23.9401C160.342 -38.9402 174.116 -39.0662 179.302 -29.7965C187.678 -14.8215 165.359 -9.46925 171.338 -1.74952C177.409 -0.508764 187.431 -7.01976 194.25 -9.12582C196.662 -6.08187 199.962 -2.02923 202.594 2.22065C204.929 5.98735 206.507 11.834 210.574 13.7397C210.718 13.4 210.8 12.9521 210.827 12.6635C210.855 12.3805 211.002 11.9404 211.013 11.5932C211.308 2.17644 212.374 18.4397 210.969 9.46705C210.149 4.23405 200.341 -6.88815 198.512 -11.0712L211.42 -15.9906C217.381 -11.4393 223.553 -0.907582 226.837 6.456C228.918 11.1228 227.826 11.8039 231.859 12.172C234.856 4.64828 219.437 -11.9455 216.432 -18.4065L230.132 -23.2649C230.656 -22.4723 250.886 3.94635 247.467 6.54625C247.2 6.7481 247.473 7.12392 247.405 7.4017C244.805 11.5686 240.526 12.4902 235.489 14.4927C222.204 19.7744 223.903 17.6449 223.226 22.0291C228.029 23.3789 248.408 15.353 253.836 6.36648C260.187 -4.14457 257.104 -17.1655 247.1 -24.2504C231.127 -35.5619 197.573 -13.5956 177.526 -7.3395C180.252 -13.6271 190.407 -19.3778 182.691 -32.1721C178.723 -38.7519 169.081 -43.1193 159.83 -37.86C151.683 -33.2266 136.392 -8.57098 126.827 -0.833912C109.116 13.4947 87.1482 -3.70859 72.9011 4.53224C65.4774 8.82728 61.8418 19.3855 68.0197 28.4103C73.9555 37.0832 82.4863 35.0566 88.1906 36.6115C90.6088 37.2719 89.531 36.941 90.8972 37.7333C83.4754 45.147 74.8954 45.2084 73.8436 57.0147C72.7785 68.9755 81.0504 75.9749 88.7227 77.7362C100.703 80.4879 128.122 59.4501 140.01 54.4097C139.531 62.9809 133.965 69.6562 143.773 80.3271C147.715 84.6142 160.745 91.9701 168.186 84.2641C164.334 78.6139 163.901 85.2538 154.255 82.0882C149.221 80.4363 146.15 78.2892 143.86 72.0184C148.582 70.5923 156.955 70.1316 160.084 67.0579C157.302 62.4464 152.284 65.4943 142.391 68.1745C141.404 58.8629 149.845 49.4863 137.615 50.4508C136.297 45.4144 135.223 41.9845 132.813 37.3905C128.107 28.4253 128.288 29.3678 125.234 28.6577C125.133 28.9695 125.084 29.4017 125.079 29.6292C124.863 39.5532 123.33 24.8979 125.164 32.4518C125.586 34.1897 125.556 33.581 126.358 35.017C129.559 40.758 131.916 42.433 133.592 52.1344C129.985 56.298 113.284 64.9346 107.286 67.5241C105.55 61.5386 104.087 53.3918 98.4358 51.102C97.483 53.4951 97.8056 51.0238 98.1067 54.0659C98.5424 58.4608 101.211 58.0274 103.189 69.5316L103.19 69.5315Z" fill="#F6F1D1"/>
<path fill-rule="evenodd" clip-rule="evenodd" d="M199.367 84.8035C184.274 64.0913 216.205 45.759 228.637 63.474C242.375 83.0537 213.566 104.288 199.367 84.8035V84.8035ZM188.037 48.6631C173.015 29.0937 204.071 8.84067 217.138 27.8106C222.936 36.2255 220.616 49.3631 213.316 51.7457C200.511 55.9215 195.875 58.8722 188.037 48.6631V48.6631ZM190.379 19.5294C182.22 25.2304 183.22 29.5283 179.358 28.4622C173.205 26.7625 171.404 12.9111 171.451 6.4434C180.425 5.95001 189.23 11.1361 194.292 16.1628L190.378 19.5292L190.379 19.5294ZM192.177 81.0723C169.055 88.0807 157.059 55.7383 181.817 46.5252C185.039 54.5615 190.433 57.1759 195.875 60.3331C191.956 67.248 191.191 70.1809 192.177 81.0719L192.177 81.0723ZM167.059 50.9321C162.83 49.2256 157.969 46.5975 154.833 41.6094C164.33 36.4932 165.734 32.7174 179.352 33.0165C180.903 35.4094 179.938 38.157 180.317 42.3819C172.243 45.5098 172.184 47.9764 167.059 50.9321V50.9321ZM220.492 53.2377C221.787 46.3276 228.031 42.7308 223.412 30.4378C216.577 12.2422 205.139 20.3292 197.131 13.0693C189.269 5.94386 179.729 0.508811 167.649 2.48809C166.373 13.2732 168.491 18.3359 172.823 28.939C162.791 31.1835 154.493 34.8967 149.851 41.9623C152.794 48.9672 160.703 53.077 165.386 54.8827C163.933 64.8722 162.092 71.3735 170.671 80.2668C178.105 87.9738 182.6 85.3908 194.247 85.8002C199.852 91.4698 202.817 95.5067 210.948 96.4495C219.899 97.4857 227.75 93.5414 231.985 87.4676C241.198 74.258 234.784 56.6579 220.492 53.2383L220.492 53.2377Z" fill="#0A5425"/>
<path fill-rule="evenodd" clip-rule="evenodd" d="M221.414 82.248C218.894 77.46 219.683 79.9391 216.978 76.3355C219.231 72.9758 219.473 74.9488 217.53 70.9982C213.267 72.5429 215.756 73.0701 212.636 73.8464C208.157 74.9614 211.847 72.4215 207.349 73.8211C207.4 78.6857 208.84 76.487 209.545 78.7558C210.62 82.2125 206.724 78.9183 210.226 84.7729C213.609 83.992 211.154 83.5628 213.868 82.5344C217.858 81.0222 214.832 83.0865 221.414 82.2477L221.414 82.248Z" fill="#0A5425"/>
<path fill-rule="evenodd" clip-rule="evenodd" d="M194.793 42.5919C194.784 42.9799 194.551 45.0499 194.631 45.3626C195.441 48.5096 194.776 47.0842 196.639 48.8186C199.205 46.2656 198.229 45.4175 200.338 44.4453C203.957 42.7747 201.941 47.1637 205.202 42.2902C202.342 37.875 203.215 41.7131 201.337 39.0222C198.973 35.6357 203.715 36.8047 198.767 33.5583C195.51 35.9958 197.664 33.0276 196.094 38.2859C191.862 37.5572 193.834 36.9773 189.963 39.3212C191.463 42.9522 190.909 41.9882 194.794 42.5919L194.793 42.5919Z" fill="#0A5425"/>
<path fill-rule="evenodd" clip-rule="evenodd" d="M177.009 69.6042C177.022 70.1314 176.919 72.682 176.974 72.9923L178.265 75.7986C181.514 75.8573 180.668 74.888 181.995 71.6895C182.719 71.7195 183.727 72.0257 184.625 71.7368C191.887 69.3996 178.948 76.0017 186.986 70.383C187.169 70.2535 187.463 69.9181 187.668 69.6552C185.092 67.0457 184.797 68.2908 183.658 66.5923C182.757 65.2485 183.133 62.9426 181.69 61.0514C177.152 63.3761 180.188 60.8654 178.038 65.6259C176.192 65.5222 174.473 64.8995 172.358 67.5396C174.988 70.3289 173.296 69.4075 177.009 69.6039L177.009 69.6042Z" fill="#0A5425"/>
<path fill-rule="evenodd" clip-rule="evenodd" d="M529.438 349.113C538.503 363.386 539.784 362.539 557.399 369.708C563.124 372.038 571.555 376.137 577.339 377.181C585.317 378.627 588.075 376.822 594.396 375.773L582.284 398.115L522.321 374.051L529.436 349.119L529.438 349.113ZM540.482 309.216C547.262 285.025 553.707 257.685 561.706 234.232L651.521 270.72C641.494 292.928 626.014 317.928 614.238 339.621C608.493 350.198 602.886 364.938 593.842 369.909C582.501 376.132 574.774 371.782 560.228 365.862C524.563 351.34 530.941 343.28 540.482 309.216V309.216ZM569.888 205.038L666.149 244.595L653.945 266.696L562.864 229.536L569.888 205.038V205.038ZM583.976 403.807C590.11 395.766 670.608 247.785 672.118 241.66L567.414 199.303C564.368 204.068 519.191 363.733 517.245 376.256C524.157 380.948 574.281 400.916 583.981 403.81L583.976 403.807Z" fill="#F6F1D1"/>
<path fill-rule="evenodd" clip-rule="evenodd" d="M588.594 299.611L580.972 320.591C575.074 318.171 570.128 313.892 568.286 309.134L588.599 299.613L588.594 299.611ZM592.547 301.115C594.912 303.558 602.038 318.797 602.076 322.067C598.108 322.758 590.808 324.568 585.241 321.673L592.547 301.115V301.115ZM607.023 319.005C603.876 314.587 598.652 304.202 597.601 298.849L618.486 306.4C614.963 313.14 612.38 315.9 607.025 318.999L607.023 319.005ZM618.654 284.809C621.206 289.562 621.788 294.972 619.771 302.26L598.881 294.419L618.654 284.809ZM562.492 308.21C575.862 335.834 614.797 333.021 623.812 304.271C626.618 295.334 625.404 284.092 620.514 279.659C614.082 281.062 582.996 297.66 576.165 300.427C570.588 302.689 565.974 303.13 562.49 308.216L562.492 308.21Z" fill="#0A5425"/>
<path fill-rule="evenodd" clip-rule="evenodd" d="M550.649 349.962C546.949 345.502 544.638 339.853 545.62 332.596L567.413 335.709C562.658 341.358 555.604 344.899 550.643 349.96L550.649 349.962ZM549.512 355.04C554.335 352.975 573.816 337.824 576.225 333.434C570.59 330.977 548.316 328.257 542.292 328.799C538.513 337.314 543.897 351.537 549.51 355.046L549.512 355.04Z" fill="#0A5425"/>
<path fill-rule="evenodd" clip-rule="evenodd" d="M456.379 509.505C445.809 503.08 438.525 497.81 431.689 488.468C415.333 466.102 411.007 434.713 426.786 408.638L561.121 490.378C552.885 509.303 525.645 521.155 513.873 522.804C493.433 525.667 479.721 523.69 456.382 509.501L456.379 509.505ZM486.07 439.508C493.25 429.123 508.315 438.645 501.899 449.466L486.07 439.508ZM467.537 428.621C474.57 413.638 495.757 409.432 509.545 417.599C524.761 426.616 529.838 445.325 520.921 460.161C516.105 459.25 510.944 455.145 506.341 452.168C507.478 444.717 509.609 438.428 501.38 433.221C493.827 428.44 487.626 431.562 481.898 437.401L467.535 428.625L467.537 428.621ZM524.62 463.229C526.272 458.766 527.926 455.661 528.801 451.25C529.758 446.447 528.686 443.893 529.843 439.213C546.688 448.177 559.558 466.295 556.712 482.796L524.624 463.231L524.62 463.229ZM471.863 416.661L470.876 417.487L463.848 425.73L425.501 403.147C411.347 421.372 411.502 449.719 415.197 463.594C427.688 510.493 493.012 548.179 542.666 515.463C551.195 509.843 560.571 501.019 566.307 490.495C564.277 485.438 563.771 488.888 561.827 484.697L558.364 463.457L557.626 461.665C556.323 459.82 546.751 445.432 546.659 445.189L544.826 444.746C540.01 440.444 529.135 435.607 526.676 431.377C519.312 418.7 510.438 407.578 490.513 409.451C480.071 410.434 477.558 414.275 471.869 416.66L471.863 416.661Z" fill="#F6F1D1"/>
<path fill-rule="evenodd" clip-rule="evenodd" d="M470.876 417.486L471.863 416.661C474.383 412.084 472.832 403.438 472.476 398.674C471.674 387.927 472.508 371.397 467.221 364.271C460.967 355.841 455.913 357.544 448.761 355.898C449.911 339.791 457.968 343.928 462.145 337.375C456.61 332.685 450.227 340.561 446.653 345.751C445.008 340.9 444.866 333.346 440.479 329.844C436.484 334.196 442.507 339.486 441.408 346.971C436.078 343.797 424.02 340.783 424.747 346.595C426.312 349.958 434.746 343.859 444.45 356.421C434.871 366.988 425.568 366.194 436.783 391.229C442.949 404.99 449.68 427.939 459.413 415.525C453.328 412.794 457.176 415.811 451.736 413.815L449.244 407.458C453.707 405.984 458.562 406.766 459.895 401.869C455.845 399.9 451.434 402.376 447.323 403.1C445.253 400.454 445.636 399.913 443.238 397.145C447.955 393.307 448.678 395.726 450.552 392.178C447.962 389.348 445.835 390.645 442.048 391.556C423.506 367.748 453.214 350.052 464.272 367.539C467.973 373.391 467.237 385.967 467.775 393.007L468.804 412.355C469.112 416.688 468.041 416.217 470.866 417.485L470.876 417.486Z" fill="#0A5425"/>
<path fill-rule="evenodd" clip-rule="evenodd" d="M544.828 444.751L546.661 445.195L556.994 445.533C562.229 445.41 595.298 413.07 601.359 407.56C608.668 400.918 612.16 395.203 618.506 404.689C615.948 412.8 592.915 425.815 584.923 430.963C565.01 443.794 559.196 444.378 557.628 461.671L558.366 463.462C558.642 463.371 559.61 464.518 562.305 459.445C563.454 457.282 563.655 455.582 564.208 453.537C566.31 445.756 578.021 441.116 590.481 432.61C603.926 423.429 626.696 411.886 621.657 401.387C613.823 385.058 596.448 406.209 583.479 418.066C577.329 423.688 571.514 428.842 565.432 434.555C561.567 438.186 560.314 440.511 555.971 440.844C553.51 441.032 552.828 440.646 550.855 440.901C548.233 441.241 547.955 441.754 545.067 442.055L544.838 444.752L544.828 444.751Z" fill="#0A5425"/>
<path fill-rule="evenodd" clip-rule="evenodd" d="M474.611 432.376C481.725 434.415 476.865 429.557 487.65 425.657C497.212 422.199 510.971 427.835 513.299 440.545C514.588 447.591 510.753 452.221 513.438 456.142C516.257 454.795 513.219 460.232 516.87 452.547C526.229 432.854 495.084 407.43 476.926 427.419L474.609 432.379L474.611 432.376Z" fill="#0A5425"/>
<path fill-rule="evenodd" clip-rule="evenodd" d="M471.769 48.3235C463.689 57.6895 457.29 64.0057 446.949 69.2073C422.192 81.6516 390.52 80.7429 367.403 60.8797L470.174 -58.1379C487.483 -46.8948 494.681 -18.073 494.366 -6.18999C493.82 14.4416 489.609 27.6402 471.766 48.3208L471.769 48.3235ZM407.626 7.4979C398.567 -1.29633 410.443 -14.5854 420.058 -6.47296L407.626 7.4979ZM393.832 23.9816C380.214 14.575 379.559 -7.01609 389.888 -19.2686C401.29 -32.79 420.58 -34.7126 433.742 -23.471C432.05 -18.8712 427.15 -14.4576 423.455 -10.4084C416.293 -12.7589 410.442 -15.8971 403.949 -8.6391C397.989 -1.97808 400.045 4.65278 404.86 11.2653L393.836 23.9843L393.832 23.9816ZM437.379 -26.6137C433.249 -28.979 430.46 -31.1219 426.253 -32.7128C421.674 -34.4485 418.978 -33.8115 414.552 -35.7247C426.171 -50.8617 446.164 -60.5672 461.97 -55.04L437.382 -26.6169L437.379 -26.6137ZM382.749 17.7428L383.401 18.8525L390.372 27.144L361.776 61.242C377.418 78.2078 405.401 82.729 419.696 81.3717C468.013 76.7855 515.954 18.5697 491.873 -35.7992C487.736 -45.1386 480.579 -55.8412 471.145 -63.2338C465.823 -62.0658 469.142 -60.9975 464.688 -59.7714L443.168 -59.8577L441.279 -59.4254C439.244 -58.445 423.474 -51.3761 423.22 -51.3248L422.48 -49.5907C417.443 -45.5499 410.88 -35.6214 406.302 -33.8937C392.584 -28.7204 380.151 -21.8013 378.713 -1.84028C377.961 8.62046 381.335 11.7326 382.749 17.7369L382.749 17.7428Z" fill="#F6F1D1"/>
<path fill-rule="evenodd" clip-rule="evenodd" d="M383.4 18.8524L382.749 17.7426C378.65 14.5026 369.867 14.6067 365.11 14.1722C354.377 13.1906 338.212 9.64262 330.311 13.6828C320.965 18.4612 321.811 23.7265 319.008 30.5091C303.312 26.7189 308.721 19.4544 302.947 14.2537C297.408 18.9398 304.123 26.5347 308.653 30.9155C303.597 31.7376 296.123 30.6327 291.946 34.3819C295.579 39.0392 301.79 33.9714 308.991 36.2894C304.982 41.0236 300.021 52.4192 305.874 52.6607C309.449 51.6713 304.823 42.347 318.813 34.8477C327.656 46.038 325.34 55.0821 351.881 48.149C366.471 44.3363 390.216 41.4815 379.576 29.8353C375.878 35.3864 379.489 32.0884 376.623 37.1244L369.942 38.5346C369.224 33.889 370.797 29.2298 366.186 27.1076C363.577 30.7774 365.291 35.5369 365.327 39.7101C362.376 41.3156 361.905 40.8485 358.781 42.7576C355.772 37.4728 358.278 37.1584 355.087 34.7243C351.869 36.8124 352.798 39.1245 353.071 43.0102C326.532 57.3719 313.977 25.1531 333.048 17.1296C339.43 14.4444 351.712 17.2444 358.745 17.8741L377.997 20.05C382.322 20.4599 381.682 21.4388 383.398 18.8614L383.4 18.8524Z" fill="#0A5425"/>
<path fill-rule="evenodd" clip-rule="evenodd" d="M398.702 17.6231C401.886 10.9431 396.294 14.9357 394.226 3.65492C392.391 -6.34597 400.219 -18.9878 413.138 -19.1877C420.301 -19.2976 424.234 -14.7514 428.545 -16.7534C427.681 -19.7559 432.543 -15.8625 425.565 -20.7314C407.685 -33.2088 377.473 -6.68218 394.195 14.5228L398.705 17.6258L398.702 17.6231Z" fill="#0A5425"/>
</g>
</svg>
