<svg width="826" height="707" viewBox="0 0 826 707" fill="none" xmlns="http://www.w3.org/2000/svg">
<path fill-rule="evenodd" clip-rule="evenodd" d="M191.306 607.345L230.148 600.679C236.346 616.666 248.482 626.497 258.276 632.785C253.121 638.579 228.422 641.326 216.17 636.551C205.92 632.556 194.8 623.034 191.307 607.345L191.306 607.345ZM224.927 583.695L227.986 596.666L218.511 598.611C217.968 590.942 219.678 586.743 224.927 583.695ZM212.61 597.366C209.974 592.174 189.692 564.883 185.595 563.464C183.988 567.227 186.6 569.322 189.368 572.78C192.084 576.174 193.463 578.331 196.126 581.799C200.445 587.424 206.689 594.409 209.524 599.857C205.964 599.676 208.891 601.971 201.128 593.361C196.764 588.523 181.46 568.685 175.911 569.079C175.25 574.161 198.129 594.213 202.212 601.415L187.306 604.107C185.755 614.286 195.381 627.032 200.574 631.485C221.932 649.802 238.849 643.511 261.412 637.007C270.919 634.267 308.536 660.219 347.551 615.923C360.644 601.057 368.582 563.961 359.046 559.24C356.064 562.538 359.634 569.956 357.59 583.617C349.445 638.016 272.878 661.234 238.435 607.848C210.184 564.059 242.561 505.335 296.528 507.638C311.07 508.258 331.338 516.44 336.211 524.39C330.848 524.546 325.298 522.61 320.319 524.986C322.437 529.703 338.771 529.215 344.16 528.723C344.548 523.492 343.105 506.577 337.818 505.557C335.766 509.474 338.457 515.354 338.788 519.988C325.522 511.923 318.141 505.047 298.489 503.599C265.764 501.185 234.812 522.684 226.442 554.071C225.377 558.068 223.71 577.764 223.498 578.21C220.17 585.205 220.508 575.523 214.28 593.83C213.073 597.381 214.141 595.166 212.61 597.366L212.61 597.366Z" fill="#F6F1D1"/>
<path fill-rule="evenodd" clip-rule="evenodd" d="M285.103 541.598L290.84 574.052C292.076 574.203 291.955 574.49 293.934 574.049C296.499 573.479 312.195 565.17 313.814 561.467C310.115 558.319 303.959 564.259 294.593 569.038L288.987 539.734C288.069 534.482 287.66 537.042 286.321 536.359C284.294 538.419 284.164 536.161 285.103 541.598L285.103 541.598Z" fill="#0A5425"/>
<path fill-rule="evenodd" clip-rule="evenodd" d="M235.109 583.509C244.627 587.775 243.771 580.864 243.791 580.809C242.844 580.41 242.388 578.722 238.188 579.965C232.347 581.692 235.913 582.333 235.109 583.509L235.109 583.509Z" fill="#0A5425"/>
<path fill-rule="evenodd" clip-rule="evenodd" d="M341.39 563.76C342.904 565.624 339.625 566.579 345.977 565.925C351.084 565.398 349.739 564.046 350.288 562.205C345.259 559.866 344.474 560.933 341.39 563.76V563.76Z" fill="#0A5425"/>
<path fill-rule="evenodd" clip-rule="evenodd" d="M302.764 630.486C304.7 628.397 304.723 630.213 304.223 625.906C303.569 620.267 302.62 621.93 299.596 621.796C299.528 626.341 299.225 628.783 302.764 630.485L302.764 630.486Z" fill="#0A5425"/>
<path fill-rule="evenodd" clip-rule="evenodd" d="M284.184 524.123C287.137 521.064 286.918 517.343 282.611 515.123C279.317 518.682 280.389 522.278 284.184 524.123Z" fill="#0A5425"/>
<path fill-rule="evenodd" clip-rule="evenodd" d="M174.385 542.497C175.785 536.999 174.973 527.696 175.63 521.136C178.71 518.678 181.673 518.424 185.359 517.074C188.925 515.766 192.419 513.596 195.429 513.085C194.767 518.572 191.755 524.17 188.324 529.241C186.434 532.035 184.044 535.041 181.778 537.55L177.262 541.469C175.097 542.61 176.391 542.13 174.385 542.491L174.385 542.497ZM150.253 557.253C149.885 550.77 150.357 525.441 151.745 520.406C159.817 522.434 165.391 520.442 171.195 522.057L170.232 544.784C169.095 551.001 155.406 557.358 150.259 557.252L150.253 557.253ZM126.862 514.704C127.211 508.517 127.881 507.442 134.454 506.047C146.174 513.605 135.36 524.807 126.862 514.704ZM152.814 484.281C152.016 480.598 152.629 465.805 153.681 462.305C159.77 463.612 166.164 464.508 172.797 467.79L172.348 474.611C171.643 475.012 154.391 483.733 152.811 484.278L152.814 484.281ZM96.077 558.583C87.1023 555.115 77.0195 549.446 77.4094 539.995L79.5127 494.748C82.1541 488.771 93.3966 478.973 98.6087 476.578C99.5607 479.685 98.8877 488.715 98.725 492.879C98.2267 505.445 96.6913 505.043 100.891 508.667C104.493 503.593 103.421 487.189 103.621 480.514C103.805 474.367 103.385 472.465 110.487 469.672C115.05 467.876 118.705 465.807 123.215 465.363C125.111 472.13 121.807 490.38 123.562 493.431C127.858 500.911 127.974 483.028 128.148 479.649C128.391 474.944 128.071 467.788 129.095 463.912C134.852 462.541 141.312 461.683 147.598 462.179C149.138 466.979 147.769 475.612 147.738 481.114C147.669 493.121 144.818 489.692 138.718 501.957L134.066 501.748C129.902 501.612 126.159 502.502 123.532 507.714C121.118 512.501 124.044 512.004 120.128 514.866C113.969 519.366 86.6406 523.1 86.1804 530.324C90.4635 532.114 119.759 520.205 122.408 518.609C139.993 529.16 135.332 521.362 145.142 517.614C147.675 521.496 146.639 518.481 146.574 523.798L144.888 559.347C140.536 561.468 139.827 561.393 134.912 561.978C129.399 562.633 129.58 563.439 125.807 562.462L126.37 537.412C126.52 532.133 127.313 533.094 123.778 529.835C119.789 535.86 122.04 555.146 120.459 562.81C115.682 563.952 106.192 562.412 100.839 559.883C101.921 554.262 103.604 537.093 99.3208 533.776C95.8466 538.253 97.0928 552.377 96.0803 558.586L96.077 558.583ZM72.4382 536.121C68.6252 529.3 68.2006 515.747 73.1997 506.21C74.1951 510.182 73.6456 531.474 72.4382 536.121ZM168.82 461.138L165.995 459.743C145.639 457.728 148.588 455.11 128.045 459.178L125.205 459.453C105.316 467.446 83.1392 473.67 70.0059 500.994C41.1732 560.977 131.308 593.416 182.342 543.611C190.168 535.974 203.776 519.47 199.708 509.377C195.408 504.202 187.739 512.893 171.926 516.315C143.842 522.391 128.884 502.434 162.528 484.31C166.46 482.194 171.839 480.101 175.963 479.061C178.357 478.459 187.936 477.913 186.063 471.517C183.1 466.22 174.505 463.003 168.826 461.137L168.82 461.138Z" fill="#F6F1D1"/>
<path fill-rule="evenodd" clip-rule="evenodd" d="M125.192 459.454L128.032 459.18C128.196 455.598 129.324 458.77 126.515 454.858C124.38 451.889 120.343 448.363 117.325 447.685C116.132 450.149 117.053 449.387 116.946 450.329C115.727 461.418 92.5202 457.866 85.8989 447.139C79.2467 436.357 85.2853 434.887 83.4856 428.285C81.1383 419.685 76.6537 422.287 78.5069 410.68C80.639 397.321 87.572 398.497 91.158 392.753C93.1269 389.597 89.3097 383.148 96.0255 374.331C106.72 360.288 121.505 363.788 133.186 373.619C144.74 366.231 159.251 371.436 164.197 382.184C167.894 390.223 162.79 385.534 171.662 391.695C187.131 402.442 182.39 425.453 164.888 429.733C161.498 427.673 166.124 427.606 160.533 425.853C158.819 430.219 163.099 455.097 165.983 459.745L168.808 461.139C169.16 458.245 169.041 460.879 168.881 458.275L164.933 435.421C173.456 429.3 180.5 429.814 184.376 415.211C190.039 393.881 173 391.239 168.547 381.599C161.518 366.388 148.389 363.444 133.995 367.997C125.777 363.442 121.739 359.755 112.98 360.697C107.113 361.331 99.7919 363.3 93.9799 369.934C85.667 379.427 88.6884 387.422 86.649 390.745C82.2217 397.96 76.5156 396.583 74.091 410.43C72.0457 422.106 77.2475 421.164 78.9287 429.747C80.6219 438.376 75.0642 437.501 82.3629 449.323C86.4229 455.899 93.8565 460.302 100.995 461.248C109.792 462.412 112.838 459.368 121.362 456.198L125.192 459.449L125.192 459.454Z" fill="#0A5425"/>
<path fill-rule="evenodd" clip-rule="evenodd" d="M102.762 426.392C102.986 421.786 100.176 422.639 98.2458 417.126C97.3955 414.693 96.8522 409.758 98.309 406.24C104.165 392.104 113.782 400.649 116.677 393.8C108.073 387.564 88.6179 400.081 93.9324 417.724C94.9857 421.226 98.077 427.988 102.764 426.389L102.762 426.392Z" fill="#0A5425"/>
<path fill-rule="evenodd" clip-rule="evenodd" d="M150.795 442.4C146.56 438.456 145.299 433.769 140.627 433.062C139.22 438.36 149.64 450.16 154.689 451.95C157.161 447.798 154.528 434.114 154.672 429.35C154.808 424.801 155.897 425.209 151.597 422.328C148.028 428.28 152.041 435.638 150.798 442.402L150.795 442.4Z" fill="#0A5425"/>
<path fill-rule="evenodd" clip-rule="evenodd" d="M141.133 449.535C139.108 443.909 137.789 438.391 134.137 435.774C130.464 440.928 135.082 441.224 135.046 447.175C131.882 445.061 128.811 442.858 125.696 440.687C120.752 437.245 120.767 435.997 117.27 438.808C119.461 442.451 136.023 454.556 141.039 455.385C143.027 451.71 142.926 454.517 141.136 449.531L141.133 449.535Z" fill="#0A5425"/>
<path fill-rule="evenodd" clip-rule="evenodd" d="M649.96 181.519C651.496 186.981 656.85 194.631 659.561 200.641C658.122 204.309 655.683 206.01 653.166 209.023C650.731 211.939 648.79 215.565 646.44 217.512C644.269 212.429 644.079 206.074 644.515 199.968C644.755 196.604 645.323 192.805 646.031 189.5L647.983 183.847C649.287 181.777 648.406 182.839 649.963 181.523L649.96 181.519ZM663.483 156.674C667.042 162.105 679.297 184.278 680.612 189.332C672.608 191.611 668.775 196.123 662.942 197.625L652.414 177.462C650.29 171.509 658.967 159.16 663.478 156.678L663.483 156.674ZM705.013 181.83C707.804 187.363 707.761 188.629 702.766 193.123C688.836 192.437 692.602 177.329 705.013 181.83ZM697.747 221.153C700.279 223.944 707.144 237.062 707.983 240.619C702.056 242.531 696.07 244.951 688.685 245.425L685.663 239.293C686.073 238.593 696.655 222.416 697.751 221.153L697.747 221.153ZM709.737 128.437C719.243 126.954 730.81 126.823 735.197 135.203L755.997 175.441C756.697 181.937 751.859 196.044 748.543 200.724C746.165 198.51 742.233 190.352 740.292 186.664C734.441 175.532 735.972 175.113 730.523 174.074C729.94 180.27 739.07 193.94 742.234 199.821C745.148 205.237 746.462 206.674 741.708 212.643C738.654 216.481 736.523 220.099 732.839 222.738C727.814 217.826 721.551 200.369 718.506 198.604C711.046 194.273 719.886 209.819 721.425 212.833C723.566 217.029 727.421 223.066 728.472 226.935C724.171 231 719.006 234.973 713.314 237.687C709.581 234.299 706.45 226.139 703.725 221.358C697.783 210.924 701.966 212.469 701.117 198.797L705.251 196.652C708.925 194.689 711.722 192.046 711.392 186.219C711.089 180.866 708.803 182.76 710.763 178.323C713.848 171.347 735.649 154.45 732.436 147.964C727.832 148.555 708.414 173.514 706.918 176.222C686.413 175.875 694.348 180.298 687.726 188.449C683.591 186.353 685.996 188.447 683.394 183.809L667.082 152.179C669.79 148.166 670.442 147.876 674.407 144.913C678.854 141.589 678.294 140.982 682.05 139.942L694.086 161.918C696.596 166.564 695.428 166.129 700.119 167.184C700.561 159.971 688.97 144.394 686.508 136.966C690.074 133.589 699.062 130.179 704.963 129.692C706.836 135.102 713.963 150.812 719.33 151.544C720.1 145.929 711.96 134.32 709.733 128.437L709.737 128.437ZM741.44 136.073C748.152 140.074 755.296 151.599 755.734 162.358C752.886 159.416 742.717 140.701 741.44 136.073ZM695.455 249.198L698.599 248.993C717.236 240.562 715.99 244.304 731.748 230.51L734.071 228.852C747.299 211.986 763.394 195.509 761.108 165.279C756.09 98.9153 661.811 115.884 642.512 184.532C639.552 195.059 636.018 216.155 644.587 222.863C650.898 225.195 653.195 213.833 665.179 202.965C686.464 183.662 709.396 193.468 689.319 225.984C686.972 229.782 683.36 234.284 680.308 237.247C678.536 238.965 670.513 244.227 675.333 248.829C680.547 251.936 689.598 250.425 695.451 249.201L695.455 249.198Z" fill="#F6F1D1"/>
<path fill-rule="evenodd" clip-rule="evenodd" d="M734.081 228.844L731.758 230.502C733.407 233.687 730.844 231.503 735.233 233.486C738.567 234.99 743.826 236.026 746.778 235.104C746.58 232.374 746.163 233.494 745.784 232.625C741.297 222.411 763.171 213.886 774.268 219.866C785.42 225.878 780.925 230.17 785.784 234.988C792.116 241.262 794.7 236.767 798.897 247.745C803.73 260.381 797.137 262.829 796.904 269.596C796.776 273.314 803.306 276.99 801.898 287.984C799.656 305.493 785.102 309.853 770.071 307.179C763.758 319.354 748.588 322.101 738.932 315.265C731.711 310.151 738.476 311.66 727.711 310.76C708.942 309.186 701.543 286.888 714.561 274.431C718.527 274.519 714.554 276.891 720.273 275.614C719.574 270.975 703.43 251.569 698.608 248.986L695.465 249.191C696.607 251.873 695.393 249.533 696.834 251.708L711.679 269.527C707.357 279.089 701 282.165 704.943 296.75C710.703 318.054 726.781 311.825 735.457 317.947C749.149 327.606 761.991 323.592 772.181 312.453C781.575 312.289 786.916 313.463 794.03 308.269C798.795 304.786 804.151 299.421 805.868 290.77C808.321 278.392 801.707 272.978 801.812 269.081C802.04 260.619 807.67 258.959 802.847 245.755C798.781 234.619 794.747 238.036 789 231.443C783.22 224.817 788.47 222.796 776.239 216.207C769.435 212.541 760.796 212.444 754.141 215.194C745.939 218.584 744.823 222.742 739.026 229.75L734.084 228.849L734.081 228.844Z" fill="#0A5425"/>
<path fill-rule="evenodd" clip-rule="evenodd" d="M770.036 246.264C772.144 250.365 774.152 248.222 778.58 252.031C780.533 253.713 783.47 257.716 783.967 261.491C785.963 276.661 773.362 274.069 774.278 281.448C784.848 282.546 795.44 261.98 782.016 249.357C779.353 246.851 773.295 242.54 770.036 246.268L770.036 246.264Z" fill="#0A5425"/>
<path fill-rule="evenodd" clip-rule="evenodd" d="M720.434 256.415C726.073 257.713 729.508 261.142 733.908 259.418C732.478 254.126 717.554 249.116 712.287 250.09C712.222 254.922 721.344 265.457 723.6 269.655C725.757 273.663 724.61 273.853 729.774 274.2C729.889 267.26 722.735 262.894 720.43 256.414L720.434 256.415Z" fill="#0A5425"/>
<path fill-rule="evenodd" clip-rule="evenodd" d="M725.234 245.405C729.8 249.265 733.702 253.384 738.173 253.825C738.777 247.525 734.63 249.578 731.686 244.406C735.483 244.655 739.243 245.028 743.027 245.349C749.029 245.859 749.64 246.947 751.263 242.765C747.545 240.705 727.149 238.501 722.39 240.291C722.506 244.468 721.19 241.987 725.233 245.409L725.234 245.405Z" fill="#0A5425"/>
<path fill-rule="evenodd" clip-rule="evenodd" d="M464.411 542.907L460.358 543.449C464.472 558.687 467.148 564.716 476.774 574.313C504.31 601.776 489.863 645.754 454.815 653.627C423.086 660.754 388.724 633.008 400.745 592.328C404.466 579.728 404.756 573.136 400.741 557.728L397.26 558.983C399.725 579.629 400.498 576.447 395.841 594.202C385.774 632.594 419.108 665.909 455.801 657.578C480.259 652.023 495.035 630.212 495.333 609.411C495.54 595.246 490.517 583.691 482.476 574.463C471.437 561.779 470.483 562.904 464.407 542.913L464.411 542.907Z" fill="#F6F1D1"/>
<path fill-rule="evenodd" clip-rule="evenodd" d="M513.86 542.887C521.472 547.113 529.363 549.581 531.925 562.353C533.487 570.143 528.733 583.635 525.718 589.338C519.483 589.855 517.491 586.86 512.704 589.794C514.805 593.102 513.603 591.875 517.635 592.867C521.359 593.789 520.849 593.239 523.822 594.462L519.717 607.387C508.383 606.622 504.659 603.417 500.788 607.259C503.752 610.794 511.35 610.856 517.966 611.269C517.051 616.57 514.824 620.132 514.292 624.838C509.97 624.961 507.438 623.626 504.71 625.522C506.438 631.042 505.4 626.986 511.661 629.839L497.908 670.886C496.487 674.947 495.445 681.948 491.386 683.396C485.511 677.897 492.139 653.066 485.994 648.429C481.374 651.824 484.892 669.355 485.006 675.526C485.119 681.493 485.672 687.099 491.11 687.448C497.942 687.885 498.344 682.973 499.609 678.691C505.816 657.673 524.013 607.162 532.24 583.549C535.157 575.177 538.967 567.294 534.254 555.977C530.705 547.457 522.144 540.122 514.401 540.37L513.85 542.889L513.86 542.887Z" fill="#F6F1D1"/>
<path fill-rule="evenodd" clip-rule="evenodd" d="M395.391 555.258C395.498 517.675 448.511 507.493 464.018 538.318C458.852 539.906 455.655 540.359 450.736 539.264C445.79 538.166 444.039 535.769 440.628 535.714C435.54 543.95 441.392 548.27 430.43 554.534C426.229 551.87 426.075 552.968 422.299 549.48C418.792 546.238 418.08 543.638 414.517 541.961C406.931 546.915 412.218 550.812 395.39 555.253L395.391 555.258ZM397.259 558.984L400.741 557.729C407.527 556.469 410.837 551.869 414.947 548.68C419.712 552.154 425.858 559.462 432.002 558.568C437.765 557.729 442.443 546.787 442.713 541.53C448.348 542.537 453.412 545.142 460.362 543.444L464.415 542.902L469.537 540.511C466.676 530.187 457.571 523.872 451.488 520.599C439.897 514.36 437.891 517.142 424.516 515.822C420.916 503.696 410.626 496.958 402.741 498.64C401.066 498.998 399.965 498.964 397.747 501.339C403.943 506.9 415.651 497.537 420.206 517.234C405.687 523.667 396.531 530.871 392.293 545.67C391.145 549.681 389.509 555.674 392.313 559.371L397.253 558.98L397.259 558.984Z" fill="#0A5425"/>
<path fill-rule="evenodd" clip-rule="evenodd" d="M510.052 540.159L511.046 542.303L513.859 542.886L514.41 540.366C520.318 518.048 538.116 524.261 543.56 519.999C542.459 517.213 544.433 517.272 538.837 516.87C530.062 516.237 523.281 521.071 517.111 525.714C517.287 514.126 522.778 502.162 518.113 498.652C514.519 501.172 516.604 497.65 514.507 510.95C513.765 515.637 513.737 519.759 512.434 524.728C509.073 522.043 506.644 517.027 502.778 514.19C500.53 512.539 498.773 511.845 495.974 510.877C488.785 508.394 489.149 511.112 488.496 511.75C492.147 516.475 495.627 512.684 503.503 520.881C508.31 525.885 511.919 533.297 510.057 540.158L510.052 540.159Z" fill="#0A5425"/>
<path fill-rule="evenodd" clip-rule="evenodd" d="M511.045 542.298L510.05 540.154C505.203 534.071 478.772 548.183 482.109 564.014C486.299 561.93 485.58 560.521 487.053 556.981C488.236 554.136 489.181 552.684 491.646 550.082C497.847 543.547 502.298 544.244 511.044 542.293L511.045 542.298Z" fill="#F6F1D1"/>
<path fill-rule="evenodd" clip-rule="evenodd" d="M462.11 638.27C470.321 640.747 485.148 616.193 479.946 608.629C473.375 611.511 480.025 620.027 467.116 631.804C466.256 632.589 464.347 633.974 463.756 634.623C460.762 637.908 462.558 634.526 462.11 638.27V638.27Z" fill="#F6F1D1"/>
<path fill-rule="evenodd" clip-rule="evenodd" d="M122.809 273.513C112.263 268.598 109.441 272.333 101.154 269.923C86.0987 265.545 90.7648 240.808 110.595 259.696C119.136 267.829 123.717 262.488 122.809 273.513V273.513ZM122.3 245.401C112.078 239.901 111.919 242.935 103.93 240.085C89.4685 234.935 99.7857 212.212 113.501 231.612C119.884 240.643 124.069 234.005 122.3 245.401V245.401ZM127.012 240.533C128.964 232.642 128.742 237.811 135.01 233.735C138.379 231.547 139.582 227.875 143.287 227.523C147.828 227.09 151.144 230.377 150.941 234.36C150.718 238.639 146.961 241.092 144.985 242.475C134.962 241.784 138.361 239.215 127.017 240.535L127.012 240.533ZM122.696 202.268C126.197 213.174 131.124 208.237 126.665 222.332C123.459 218.541 121.529 214.981 117.525 211.179C113.155 207.029 112.032 207.752 108.331 202.245C110.959 190.677 119.452 192.176 122.694 202.273L122.696 202.268ZM160.822 203.789C167.143 205.864 168.765 212.184 164.089 217.275C153.44 226.251 149.912 205.896 149.176 204.831C146.672 201.205 144.073 201.81 142.496 199.967L147.719 195.001C150.901 205.823 151.368 200.682 160.832 203.798L160.822 203.789ZM136.458 181.689C134.732 175.837 134.058 174.023 140.004 169.545C147.765 171.204 148.391 173.903 147.134 181.012C145.481 190.378 145.871 188.504 141.626 195.377C138.353 191.781 137.806 186.244 136.461 181.697L136.458 181.689ZM162.791 184.501C167.042 182.713 183.587 181.354 181.299 189.957C180.088 194.509 175.093 194.98 171.196 192.451C169.574 191.394 163.998 185.77 162.794 184.508L162.791 184.501ZM160.584 179.311C162.611 168.414 164.625 160.177 173.315 155.069C182.476 157.486 185.971 166.278 178.537 172.641C175.6 175.15 163.443 179.199 160.584 179.311V179.311ZM99.6174 248.321L96.3638 248.423C92.3564 250.734 89.0635 252.992 87.9322 260.261L89.3425 266.055C97.6174 274.533 98.9359 274.293 112.024 274.836C120.737 275.198 127.466 280.228 124.418 288.671C116.437 288.167 115.784 285.346 108.756 282.539L106.471 281.878C98.6205 282.45 91.1902 281.388 89.2599 292.822C87.7951 301.507 94.16 305.71 103.162 306.426L108.444 305.698C110.986 304.403 110.515 304.491 113.36 304.038C116.743 303.502 116.144 303.602 119.854 304.184L120.81 302.217C122.653 298.054 121.421 301.375 120.608 299.731C110.018 298.623 104.257 305.183 94.7185 299.5C91.9748 293.152 93.8553 285.143 103.577 285.7C110.141 286.075 110.624 288.266 115.235 290.69C119.723 293.053 123.239 292.09 127.596 292.818L130.608 288.706L128.821 281.865C133.38 277.883 136.129 275.235 143.68 276.761L147.688 273.337C135.009 271.23 138.102 270.943 128.573 276.398C126.926 273.575 127.079 272.782 127.426 268.811C137.804 269.723 137.406 268.375 143.977 261.389C151.317 253.59 155.373 259.752 157.812 266.319L160.91 264.232C160.43 256.294 152.294 251.126 144.7 255.39C135.577 260.512 141.419 266.121 126.79 264.555C121.861 232.115 138.127 248.736 146.527 246.009C160.133 241.59 156.318 220.236 141.858 223.462C134.649 225.067 136.701 230.328 128.431 231.454C130.888 222.411 133.896 211.879 139.195 205.161L145.325 206.084C146.935 210.728 147.72 217.005 151.577 220.253C162.871 229.773 176.135 215.245 168.767 204.417C164.211 197.718 158.539 200.699 152.202 197.108C152.359 189.524 152.465 190.126 157.923 186.749C165.262 190.663 169.937 201.716 179.673 197.474C189.915 193.008 187.433 183.051 176.152 178.849C189.943 175.475 190.037 150.732 173.542 151.306C167.183 151.53 162.872 158.156 159.966 165.256C153.455 181.155 160.92 183.136 150.357 185.138C152.001 177.403 153.534 170.376 146.043 166.795C139.033 163.447 132.397 167.323 131.157 174.985C130.611 178.371 134.197 188.828 135.332 192.385C136.845 197.114 138.413 199.513 134.066 205.388L130.727 208.655C126.562 203.394 125.971 194.38 120.221 191.524C113.447 188.157 105.429 192.208 104.598 200.164C103.8 207.821 111.636 210.681 116.639 216.271C120.901 221.03 125.462 227.533 123.524 234.434C114.166 230.154 115.68 221.89 106.184 220.087C98.7437 218.674 90.8003 225.857 92.8967 234.34C94.8483 242.245 102.573 243.972 111.307 245.292C123.014 247.061 122.885 253.343 122.051 261.727C111.762 259.771 112.076 249.998 99.6248 248.336L99.6174 248.321Z" fill="#F6F1D1"/>
<path fill-rule="evenodd" clip-rule="evenodd" d="M88.4249 197.022L86.1682 226.172C84.7907 223.142 81.9373 217.061 81.6725 213.155C81.28 207.311 86.1637 201.756 88.423 197.027L88.4249 197.022ZM89.3437 266.05L87.9334 260.256C75.02 252.042 65.8739 231.144 63.9541 217.334C61.7172 201.265 68.308 172.307 75.6316 156.119C78.9212 164.729 74.9694 194.259 76.2647 206.656C77.6806 220.176 85.9491 241.042 96.365 248.417L99.6187 248.315C98.7288 243.637 93.0259 240.244 91.5419 235.959C86.8692 222.459 97.9554 191.343 91.576 186.016C85.9095 190.204 84.6785 197.366 80.2122 202.006C79.5508 188.042 81.1935 168.798 80.2777 148.638C80.0129 142.874 80.859 143.964 76.8344 141.808C70.8695 151.717 65.3724 173.735 62.223 186.083C52.0771 225.847 70.1941 243.709 71.8431 250.206C76.6746 269.198 73.1792 269.024 87.4843 292.105C92.4366 285.784 83.5019 282.83 77.5884 257.119C79.6419 258.95 80.6628 260.038 82.9905 262.304C83.9049 263.194 85.3713 264.67 86.3268 265.276C91.0357 268.249 87.5992 266.573 89.3548 266.054L89.3437 266.05Z" fill="#0A5425"/>
<path fill-rule="evenodd" clip-rule="evenodd" d="M118.279 316.907C137.29 271.299 163.531 283.836 192.269 232.505C192.728 233.91 192.73 233.414 192.817 235.6C192.977 239.52 190.107 246.768 188.615 250.267C186.545 255.135 183.789 259.533 180.851 263.576C174.976 271.67 166.762 277.935 160.551 282.043C133.533 299.895 136.08 302.485 121.402 314.71L118.279 316.907V316.907ZM160.919 264.222L157.821 266.309C155.141 269.285 152.037 271.042 147.69 273.33L143.682 276.754L130.609 288.7L127.597 292.812L120.814 302.205L119.857 304.172L116.786 309.531L108.453 305.688L103.172 306.416C104.78 309.717 110.489 311.578 114.198 313.24C113.717 319.514 109.103 323.732 110.947 329.201C114.463 329.531 132.663 309.168 132.667 309.157C132.895 308.725 133.154 308.695 133.425 308.502L133.797 308.156C136.137 305.723 135.668 305.222 139.196 304.007L142.134 301.294C144.867 298.311 151.021 293.332 154.534 291.996L156.102 290.113C196.484 267.187 204.156 224.274 195.619 217.255C191.18 220.414 179.604 254.787 160.927 264.218L160.919 264.222Z" fill="#0A5425"/>
<path fill-rule="evenodd" clip-rule="evenodd" d="M154.523 292.005L157.07 297.218C153.475 307.686 150.14 304.821 142.124 301.304L139.185 304.017C139.961 304.692 138.621 303.813 141.121 305.355C159.427 316.651 166.213 293.824 156.093 290.117L154.525 292L154.523 292.005Z" fill="#F6F1D1"/>
<path fill-rule="evenodd" clip-rule="evenodd" d="M133.787 308.166L133.415 308.511L132.089 312.689C136.662 320.525 139.688 334.625 147.203 337.225C148.141 333.345 147.016 332.452 144.911 329.279C138.846 320.132 138.154 313.564 136.278 310.519C134.915 308.302 136.327 309.61 133.785 308.172L133.787 308.166Z" fill="#F6F1D1"/>
<path fill-rule="evenodd" clip-rule="evenodd" d="M393.098 138.028L376.528 112.852C389.992 113.853 395.646 123.835 393.098 138.028ZM244.19 206.03C228.944 220.614 209.443 197.444 224.108 184.578C227.55 181.559 231.032 180.557 234.487 178.166C239.438 174.743 237.664 172.784 244.483 176.271C257.935 183.152 253.418 189.341 260.502 189.897C262.449 182.06 250.595 174.919 246.583 172.826C235.63 167.113 204.848 172.201 210.538 151.587C213.523 140.771 224.248 142.861 232.2 143.467C232.557 148.562 231.73 151.642 230.076 155.455C228.653 158.742 225.786 162.055 227.357 164.895C233.348 165.029 236.529 149.825 236.303 144.504L248.188 145.499C248.42 152.281 244.885 155.636 247.268 160.09C252.147 158.175 252.34 150.319 252.452 145.93C271.33 142.765 270.217 137.267 278.111 131.449C282.91 133.164 288.597 139.028 292.331 144.226C296.805 150.454 298.624 159.978 302.025 164.633C304.648 162.847 306.65 163.917 301.296 151.843C299.653 148.139 298.049 145.153 295.644 141.831C290.726 135.04 284.477 131.533 280.925 126.213C284.893 123.3 287.166 119.509 291.081 116.181C294.947 118.384 295.839 118.287 299.167 121.399C303.296 125.257 302.528 127.239 308.137 126.066C305.913 120.507 297.528 114.565 294.167 112.559C301.342 97.5585 315.116 97.4324 320.302 106.702C328.678 121.677 306.359 127.029 312.338 134.749C318.409 135.99 328.431 129.479 335.25 127.373C337.662 130.417 340.962 134.469 343.594 138.719C345.929 142.486 347.507 148.333 351.574 150.238C351.718 149.899 351.8 149.451 351.827 149.162C351.855 148.879 352.002 148.439 352.013 148.092C352.308 138.675 353.374 154.938 351.969 145.966C351.149 140.733 341.341 129.611 339.512 125.427L352.42 120.508C358.381 125.059 364.553 135.591 367.837 142.955C369.918 147.621 368.826 148.303 372.859 148.671C375.856 141.147 360.437 124.553 357.432 118.092L371.132 113.234C371.656 114.026 391.886 140.445 388.467 143.045C388.2 143.247 388.473 143.623 388.405 143.9C385.805 148.067 381.526 148.989 376.489 150.991C363.204 156.273 364.903 154.144 364.226 158.528C369.029 159.878 389.408 151.852 394.836 142.865C401.187 132.354 398.104 119.333 388.1 112.248C372.127 100.937 338.573 122.903 318.526 129.159C321.252 122.872 331.407 117.121 323.691 104.327C319.723 97.7468 310.081 93.3793 300.83 98.6387C292.683 103.272 277.392 127.928 267.827 135.665C250.116 149.993 228.148 132.79 213.901 141.031C206.477 145.326 202.842 155.884 209.02 164.909C214.956 173.582 223.486 171.555 229.191 173.11C231.609 173.771 230.531 173.44 231.897 174.232C224.475 181.646 215.895 181.707 214.844 193.513C213.779 205.474 222.05 212.474 229.723 214.235C241.703 216.987 269.122 195.949 281.01 190.908C280.531 199.48 274.965 206.155 284.773 216.826C288.715 221.113 301.745 228.469 309.186 220.763C305.334 215.113 304.901 221.752 295.255 218.587C290.221 216.935 287.15 214.788 284.86 208.517C289.582 207.091 297.955 206.63 301.084 203.557C298.302 198.945 293.284 201.993 283.391 204.673C282.404 195.362 290.845 185.985 278.615 186.949C277.297 181.913 276.223 178.483 273.813 173.889C269.107 164.924 269.288 165.866 266.234 165.156C266.133 165.468 266.084 165.9 266.079 166.128C265.863 176.052 264.33 161.397 266.164 168.95C266.586 170.688 266.556 170.08 267.358 171.516C270.559 177.257 272.916 178.932 274.592 188.633C270.985 192.797 254.284 201.433 248.286 204.023C246.55 198.037 245.087 189.89 239.436 187.601C238.483 189.994 238.806 187.522 239.107 190.565C239.542 194.959 242.211 194.526 244.189 206.03L244.19 206.03Z" fill="#F6F1D1"/>
<path fill-rule="evenodd" clip-rule="evenodd" d="M340.367 221.302C325.274 200.59 357.205 182.258 369.637 199.973C383.375 219.552 354.566 240.787 340.367 221.302V221.302ZM329.037 185.162C314.015 165.592 345.071 145.339 358.138 164.309C363.936 172.724 361.616 185.862 354.316 188.244C341.511 192.42 336.875 195.371 329.037 185.162V185.162ZM331.379 156.028C323.22 161.729 324.22 166.027 320.358 164.961C314.205 163.261 312.404 149.41 312.451 142.942C321.425 142.449 330.23 147.635 335.292 152.661L331.378 156.028L331.379 156.028ZM333.177 217.571C310.055 224.579 298.059 192.237 322.817 183.024C326.039 191.06 331.433 193.675 336.875 196.832C332.956 203.747 332.191 206.68 333.177 217.571L333.177 217.571ZM308.059 187.431C303.83 185.724 298.969 183.096 295.833 178.108C305.33 172.992 306.734 169.216 320.352 169.515C321.903 171.908 320.938 174.656 321.317 178.881C313.243 182.008 313.184 184.475 308.059 187.431V187.431ZM361.492 189.736C362.787 182.826 369.031 179.229 364.412 166.937C357.577 148.741 346.139 156.828 338.131 149.568C330.269 142.443 320.729 137.007 308.649 138.987C307.373 149.772 309.491 154.835 313.823 165.438C303.791 167.682 295.493 171.395 290.851 178.461C293.794 185.466 301.703 189.576 306.386 191.381C304.933 201.371 303.092 207.872 311.671 216.766C319.105 224.472 323.6 221.889 335.247 222.299C340.852 227.968 343.817 232.005 351.948 232.948C360.899 233.984 368.75 230.04 372.985 223.966C382.198 210.757 375.784 193.157 361.492 189.737L361.492 189.736Z" fill="#0A5425"/>
<path fill-rule="evenodd" clip-rule="evenodd" d="M362.414 218.747C359.894 213.959 360.683 216.438 357.978 212.834C360.231 209.474 360.473 211.447 358.53 207.497C354.267 209.042 356.756 209.569 353.636 210.345C349.157 211.46 352.847 208.92 348.349 210.32C348.4 215.184 349.84 212.986 350.545 215.254C351.62 218.711 347.724 215.417 351.226 221.272C354.609 220.491 352.154 220.061 354.868 219.033C358.858 217.521 355.832 219.585 362.414 218.746L362.414 218.747Z" fill="#0A5425"/>
<path fill-rule="evenodd" clip-rule="evenodd" d="M335.793 179.091C335.784 179.479 335.551 181.549 335.631 181.861C336.441 185.008 335.776 183.583 337.639 185.317C340.205 182.764 339.229 181.916 341.338 180.944C344.957 179.273 342.941 183.662 346.202 178.789C343.342 174.374 344.215 178.212 342.337 175.521C339.973 172.134 344.715 173.303 339.767 170.057C336.51 172.494 338.664 169.526 337.094 174.785C332.862 174.056 334.834 173.476 330.963 175.82C332.463 179.451 331.909 178.487 335.794 179.091L335.793 179.091Z" fill="#0A5425"/>
<path fill-rule="evenodd" clip-rule="evenodd" d="M318.009 206.103C318.022 206.63 317.919 209.181 317.974 209.491L319.265 212.297C322.514 212.356 321.668 211.387 322.995 208.188C323.719 208.218 324.727 208.524 325.625 208.235C332.887 205.898 319.948 212.5 327.986 206.882C328.169 206.752 328.463 206.417 328.668 206.154C326.092 203.544 325.797 204.789 324.658 203.091C323.757 201.747 324.133 199.441 322.69 197.55C318.152 199.875 321.188 197.364 319.038 202.125C317.192 202.021 315.473 201.398 313.358 204.038C315.988 206.828 314.296 205.906 318.009 206.103L318.009 206.103Z" fill="#0A5425"/>
<path fill-rule="evenodd" clip-rule="evenodd" d="M670.438 485.612C679.503 499.885 680.784 499.037 698.399 506.206C704.124 508.537 712.555 512.636 718.339 513.68C726.317 515.126 729.075 513.321 735.396 512.272L723.284 534.614L663.321 510.55L670.436 485.617L670.438 485.612ZM681.482 445.715C688.262 421.524 694.707 394.183 702.706 370.731L792.521 407.219C782.494 429.427 767.014 454.427 755.238 476.119C749.493 486.696 743.886 501.437 734.842 506.407C723.501 512.631 715.774 508.281 701.228 502.361C665.563 487.839 671.941 479.779 681.482 445.715V445.715ZM710.888 341.536L807.149 381.094L794.945 403.195L703.864 366.035L710.888 341.536V341.536ZM724.976 540.306C731.11 532.265 811.608 384.284 813.118 378.159L708.414 335.801C705.368 340.567 660.191 500.232 658.245 512.754C665.157 517.447 715.281 537.415 724.981 540.308L724.976 540.306Z" fill="#F6F1D1"/>
<path fill-rule="evenodd" clip-rule="evenodd" d="M729.594 436.11L721.972 457.09C716.074 454.669 711.128 450.391 709.286 445.632L729.599 436.112L729.594 436.11ZM733.547 437.614C735.912 440.056 743.038 455.296 743.076 458.566C739.108 459.256 731.808 461.067 726.241 458.172L733.547 437.614V437.614ZM748.023 455.503C744.876 451.086 739.652 440.701 738.601 435.348L759.486 442.898C755.963 449.638 753.38 452.398 748.025 455.498L748.023 455.503ZM759.654 421.308C762.206 426.06 762.788 431.471 760.771 438.758L739.881 430.917L759.654 421.308ZM703.492 444.709C716.862 472.333 755.797 469.52 764.812 440.77C767.618 431.832 766.404 420.59 761.514 416.158C755.082 417.561 723.996 434.159 717.165 436.926C711.588 439.188 706.974 439.629 703.49 444.714L703.492 444.709Z" fill="#0A5425"/>
<path fill-rule="evenodd" clip-rule="evenodd" d="M691.649 486.461C687.949 482.001 685.638 476.351 686.62 469.095L708.413 472.208C703.658 477.857 696.604 481.397 691.643 486.458L691.649 486.461ZM690.512 491.539C695.335 489.474 714.816 474.322 717.225 469.932C711.59 467.475 689.316 464.756 683.292 465.298C679.513 473.813 684.897 488.035 690.51 491.544L690.512 491.539Z" fill="#0A5425"/>
<path fill-rule="evenodd" clip-rule="evenodd" d="M597.379 646.003C586.809 639.578 579.525 634.309 572.689 624.966C556.333 602.6 552.007 571.212 567.786 545.136L702.121 626.876C693.885 645.802 666.645 657.654 654.873 659.302C634.433 662.165 620.721 660.188 597.382 646L597.379 646.003ZM627.07 576.007C634.25 565.621 649.315 575.144 642.899 585.964L627.07 576.007ZM608.537 565.12C615.57 550.137 636.757 545.931 650.545 554.098C665.761 563.114 670.838 581.823 661.921 596.659C657.105 595.748 651.944 591.643 647.341 588.667C648.478 581.215 650.609 574.926 642.38 569.719C634.827 564.938 628.626 568.06 622.898 573.9L608.535 565.123L608.537 565.12ZM665.62 599.728C667.272 595.265 668.926 592.16 669.801 587.748C670.758 582.946 669.686 580.392 670.843 575.711C687.688 584.675 700.558 602.793 697.712 619.295L665.624 599.73L665.62 599.728ZM612.863 553.16L611.876 553.985L604.848 562.228L566.501 539.646C552.347 557.871 552.502 586.217 556.197 600.093C568.688 646.992 634.012 684.678 683.666 651.961C692.195 646.341 701.571 637.517 707.307 626.993C705.277 621.937 704.771 625.387 702.827 621.196L699.364 599.955L698.626 598.164C697.323 596.318 687.751 581.93 687.659 581.688L685.826 581.244C681.01 576.943 670.135 572.106 667.676 567.876C660.312 555.198 651.438 544.077 631.513 545.95C621.071 546.932 618.558 550.774 612.869 553.158L612.863 553.16Z" fill="#F6F1D1"/>
<path fill-rule="evenodd" clip-rule="evenodd" d="M611.876 553.985L612.863 553.159C615.383 548.582 613.832 539.936 613.476 535.173C612.674 524.425 613.508 507.896 608.221 500.769C601.967 492.339 596.913 494.042 589.761 492.396C590.911 476.29 598.968 480.427 603.145 473.874C597.61 469.184 591.227 477.06 587.653 482.25C586.008 477.398 585.866 469.844 581.479 466.343C577.484 470.694 583.507 475.985 582.408 483.469C577.078 480.295 565.02 477.282 565.747 483.094C567.312 486.457 575.746 480.357 585.45 492.919C575.871 503.486 566.568 502.693 577.783 527.728C583.949 541.489 590.68 564.438 600.413 552.024C594.328 549.292 598.176 552.309 592.736 550.313L590.244 543.956C594.707 542.482 599.562 543.265 600.895 538.368C596.845 536.399 592.434 538.874 588.323 539.598C586.253 536.952 586.636 536.411 584.238 533.644C588.955 529.805 589.678 532.225 591.552 528.676C588.962 525.846 586.835 527.144 583.048 528.054C564.506 504.246 594.214 486.55 605.272 504.037C608.973 509.89 608.237 522.465 608.775 529.506L609.804 548.853C610.112 553.186 609.041 552.716 611.866 553.984L611.876 553.985Z" fill="#0A5425"/>
<path fill-rule="evenodd" clip-rule="evenodd" d="M685.828 581.25L687.661 581.693L697.994 582.032C703.229 581.908 736.298 549.569 742.359 544.059C749.668 537.417 753.16 531.702 759.506 541.187C756.948 549.299 733.915 562.314 725.923 567.462C706.01 580.293 700.196 580.877 698.628 598.17L699.366 599.961C699.642 599.87 700.61 601.017 703.305 595.943C704.454 593.781 704.655 592.081 705.208 590.036C707.31 582.255 719.021 577.615 731.481 569.109C744.926 559.928 767.696 548.384 762.657 537.886C754.823 521.557 737.448 542.708 724.479 554.564C718.329 560.187 712.514 565.341 706.432 571.054C702.567 574.685 701.314 577.01 696.971 577.342C694.51 577.53 693.828 577.145 691.855 577.4C689.233 577.74 688.955 578.253 686.067 578.554L685.838 581.251L685.828 581.25Z" fill="#0A5425"/>
<path fill-rule="evenodd" clip-rule="evenodd" d="M615.611 568.874C622.725 570.913 617.865 566.056 628.65 562.156C638.212 558.697 651.971 564.334 654.299 577.043C655.588 584.09 651.753 588.719 654.438 592.641C657.257 591.293 654.219 596.731 657.87 589.045C667.229 569.352 636.084 543.928 617.926 563.918L615.609 568.878L615.611 568.874Z" fill="#0A5425"/>
<path fill-rule="evenodd" clip-rule="evenodd" d="M612.769 184.822C604.689 194.188 598.29 200.504 587.949 205.706C563.192 218.15 531.52 217.242 508.403 197.378L611.174 78.3608C628.483 89.6038 635.681 118.426 635.366 130.309C634.82 150.94 630.609 164.139 612.766 184.819L612.769 184.822ZM548.626 143.997C539.567 135.202 551.443 121.913 561.058 130.026L548.626 143.997ZM534.832 160.48C521.214 151.074 520.559 129.483 530.888 117.23C542.29 103.709 561.58 101.786 574.742 113.028C573.05 117.627 568.15 122.041 564.455 126.09C557.293 123.74 551.442 120.602 544.949 127.86C538.989 134.521 541.045 141.151 545.86 147.764L534.836 160.483L534.832 160.48ZM578.379 109.885C574.249 107.52 571.46 105.377 567.253 103.786C562.674 102.05 559.978 102.687 555.552 100.774C567.171 85.637 587.164 75.9314 602.97 81.4587L578.382 109.882L578.379 109.885ZM523.749 154.241L524.401 155.351L531.372 163.643L502.776 197.741C518.418 214.706 546.401 219.228 560.696 217.87C609.013 213.284 656.954 155.068 632.873 100.699C628.736 91.3601 621.579 80.6574 612.145 73.2649C606.823 74.4329 610.142 75.5012 605.688 76.7272L584.168 76.6409L582.279 77.0733C580.244 78.0536 564.474 85.1225 564.22 85.1739L563.48 86.9079C558.443 90.9488 551.88 100.877 547.302 102.605C533.584 107.778 521.151 114.697 519.713 134.658C518.961 145.119 522.335 148.231 523.749 154.236L523.749 154.241Z" fill="#F6F1D1"/>
<path fill-rule="evenodd" clip-rule="evenodd" d="M524.4 155.351L523.749 154.241C519.65 151.001 510.867 151.105 506.11 150.671C495.377 149.689 479.212 146.141 471.311 150.181C461.965 154.96 462.811 160.225 460.008 167.008C444.312 163.218 449.721 155.953 443.947 150.752C438.408 155.438 445.123 163.033 449.653 167.414C444.597 168.236 437.123 167.131 432.946 170.881C436.579 175.538 442.79 170.47 449.991 172.788C445.982 177.522 441.021 188.918 446.874 189.159C450.449 188.17 445.823 178.846 459.813 171.346C468.656 182.537 466.34 191.581 492.881 184.648C507.471 180.835 531.216 177.98 520.576 166.334C516.878 171.885 520.489 168.587 517.623 173.623L510.942 175.033C510.224 170.388 511.797 165.728 507.186 163.606C504.577 167.276 506.291 172.036 506.327 176.209C503.376 177.814 502.905 177.347 499.781 179.256C496.772 173.971 499.278 173.657 496.087 171.223C492.869 173.311 493.798 175.623 494.071 179.509C467.532 193.871 454.977 161.652 474.048 153.628C480.43 150.943 492.712 153.743 499.745 154.373L518.997 156.549C523.322 156.959 522.682 157.937 524.398 155.36L524.4 155.351Z" fill="#0A5425"/>
<path fill-rule="evenodd" clip-rule="evenodd" d="M563.486 86.9066L564.226 85.1725L566.263 75.036C567.005 69.853 540.561 31.9039 536.126 25.0171C530.78 16.7132 525.718 12.327 536.121 7.63135C543.699 11.4917 552.738 36.3558 556.498 45.0877C565.87 66.8436 565.487 72.674 582.285 77.0719L584.173 76.6396C584.129 76.352 585.42 75.5865 580.86 72.0924C578.917 70.6026 577.273 70.1237 575.347 69.241C568.02 65.8846 565.374 53.5689 559.039 39.8765C552.2 25.1023 544.569 0.74033 533.383 3.97977C515.987 9.01336 533.984 29.638 543.539 44.3852C548.07 51.3776 552.195 57.9636 556.827 64.9041C559.771 69.3152 561.857 70.934 561.469 75.2719C561.249 77.7306 560.757 78.3396 560.683 80.3276C560.586 82.9702 561.045 83.3283 560.866 86.2262L563.489 86.8975L563.486 86.9066Z" fill="#0A5425"/>
<path fill-rule="evenodd" clip-rule="evenodd" d="M539.702 154.122C542.886 147.442 537.294 151.434 535.226 140.154C533.391 130.153 541.219 117.511 554.138 117.311C561.301 117.201 565.234 121.747 569.545 119.745C568.681 116.743 573.543 120.636 566.565 115.767C548.685 103.29 518.473 129.816 535.195 151.021L539.705 154.124L539.702 154.122Z" fill="#0A5425"/>
</svg>
