<svg width="868" height="1240" viewBox="0 0 868 1240" fill="none" xmlns="http://www.w3.org/2000/svg">
<path fill-rule="evenodd" clip-rule="evenodd" d="M168.306 1128.85L207.148 1122.18C213.346 1138.17 225.482 1148 235.276 1154.29C230.121 1160.08 205.422 1162.83 193.17 1158.05C182.92 1154.06 171.8 1144.53 168.307 1128.85L168.306 1128.85ZM201.927 1105.2L204.986 1118.17L195.511 1120.11C194.968 1112.44 196.678 1108.24 201.927 1105.2ZM189.61 1118.87C186.974 1113.67 166.692 1086.38 162.595 1084.97C160.988 1088.73 163.6 1090.82 166.368 1094.28C169.084 1097.68 170.463 1099.83 173.126 1103.3C177.445 1108.93 183.689 1115.91 186.524 1121.36C182.964 1121.18 185.891 1123.47 178.128 1114.86C173.764 1110.02 158.46 1090.19 152.911 1090.58C152.25 1095.66 175.129 1115.71 179.212 1122.92L164.306 1125.61C162.755 1135.79 172.381 1148.53 177.574 1152.99C198.932 1171.3 215.849 1165.01 238.412 1158.51C247.919 1155.77 285.536 1181.72 324.551 1137.42C337.644 1122.56 345.582 1085.46 336.046 1080.74C333.064 1084.04 336.634 1091.46 334.59 1105.12C326.445 1159.52 249.878 1182.74 215.435 1129.35C187.184 1085.56 219.561 1026.84 273.528 1029.14C288.07 1029.76 308.338 1037.94 313.211 1045.89C307.848 1046.05 302.298 1044.11 297.319 1046.49C299.437 1051.2 315.771 1050.72 321.16 1050.22C321.548 1044.99 320.105 1028.08 314.818 1027.06C312.766 1030.98 315.457 1036.86 315.788 1041.49C302.522 1033.42 295.141 1026.55 275.489 1025.1C242.764 1022.69 211.812 1044.19 203.442 1075.57C202.377 1079.57 200.71 1099.27 200.498 1099.71C197.17 1106.71 197.508 1097.02 191.28 1115.33C190.073 1118.88 191.141 1116.67 189.61 1118.87L189.61 1118.87Z" fill="#F6F1D1"/>
<path fill-rule="evenodd" clip-rule="evenodd" d="M262.103 1063.1L267.84 1095.55C269.076 1095.7 268.955 1095.99 270.934 1095.55C273.499 1094.98 289.195 1086.67 290.814 1082.97C287.115 1079.82 280.959 1085.76 271.593 1090.54L265.987 1061.24C265.069 1055.98 264.66 1058.54 263.321 1057.86C261.294 1059.92 261.164 1057.66 262.103 1063.1L262.103 1063.1Z" fill="#0A5425"/>
<path fill-rule="evenodd" clip-rule="evenodd" d="M212.109 1105.01C221.627 1109.28 220.771 1102.37 220.791 1102.31C219.844 1101.91 219.388 1100.22 215.188 1101.47C209.347 1103.19 212.913 1103.83 212.109 1105.01L212.109 1105.01Z" fill="#0A5425"/>
<path fill-rule="evenodd" clip-rule="evenodd" d="M318.39 1085.26C319.904 1087.13 316.625 1088.08 322.977 1087.43C328.084 1086.9 326.739 1085.55 327.288 1083.71C322.259 1081.37 321.474 1082.43 318.39 1085.26V1085.26Z" fill="#0A5425"/>
<path fill-rule="evenodd" clip-rule="evenodd" d="M279.764 1151.99C281.7 1149.9 281.723 1151.71 281.223 1147.41C280.569 1141.77 279.62 1143.43 276.596 1143.3C276.528 1147.84 276.225 1150.28 279.764 1151.99L279.764 1151.99Z" fill="#0A5425"/>
<path fill-rule="evenodd" clip-rule="evenodd" d="M261.184 1045.62C264.137 1042.57 263.918 1038.84 259.611 1036.62C256.317 1040.18 257.389 1043.78 261.184 1045.62Z" fill="#0A5425"/>
<path fill-rule="evenodd" clip-rule="evenodd" d="M302.934 194.494L315.94 157.292C332.927 159.625 347.41 153.779 357.658 148.263C360.226 155.58 350.651 178.513 340.534 186.912C332.069 193.939 318.349 199.047 302.934 194.494L302.934 194.494ZM298.554 153.623L311.382 157.237L308.488 166.467C301.518 163.223 298.675 159.691 298.554 153.623ZM304.538 171.024C298.719 170.811 265.016 175.315 261.788 178.21C264.3 181.44 267.399 180.172 271.765 179.428C276.05 178.698 278.605 178.538 282.93 177.891C289.944 176.842 299.08 174.768 305.22 174.931C303.335 177.957 306.761 176.509 295.467 179.123C289.12 180.594 264.349 184.358 262.003 189.402C266.127 192.445 294.758 182.159 303.036 182.081L298.162 196.422C306.313 202.715 322.127 200.478 328.54 198.095C354.916 188.299 357.618 170.453 362.871 147.567C365.085 137.924 406.023 117.61 386.204 62.01C379.552 43.35 350.959 18.4185 342.206 24.4699C343.644 28.6767 351.863 29.1517 362.819 37.5645C406.444 71.0669 389.62 149.288 326.228 153.522C274.233 156.994 238.576 100.202 266.76 54.1211C274.354 41.7041 291.338 27.9458 300.654 27.5403C298.19 32.3056 293.806 36.2206 293.469 41.7269C298.622 42.163 306.116 27.6411 308.298 22.6893C303.912 19.8136 288.419 12.8732 284.963 17.0018C287.394 20.6961 293.841 21.1936 298.054 23.1513C284.568 30.8422 274.975 33.9636 264.178 50.4479C246.199 77.897 249.991 115.392 273.382 137.932C276.361 140.802 292.778 151.811 293.065 152.212C297.569 158.515 289.265 153.524 302.255 167.848C304.776 170.626 303.356 168.618 304.537 171.024L304.538 171.024Z" fill="#F6F1D1"/>
<path fill-rule="evenodd" clip-rule="evenodd" d="M290.919 80.5818L322.084 91.3017C322.815 90.2944 323.008 90.5389 323.582 88.5945C324.328 86.0748 324.672 68.3185 322.219 65.1068C317.672 66.8152 319.881 75.0794 319.519 85.5886L291.173 76.2808C286.135 74.5363 288.175 76.1358 286.928 76.9762C287.747 79.7472 285.709 78.7658 290.919 80.5816L290.919 80.5818Z" fill="#0A5425"/>
<path fill-rule="evenodd" clip-rule="evenodd" d="M303.33 144.627C311.676 138.373 305.217 135.77 305.178 135.726C304.37 136.361 302.673 135.941 301.723 140.217C300.401 146.162 302.691 143.354 303.33 144.627L303.33 144.627Z" fill="#0A5425"/>
<path fill-rule="evenodd" clip-rule="evenodd" d="M337.597 42.1019C339.961 41.6821 339.206 45.0127 341.715 39.1408C343.731 34.4188 341.896 34.939 340.552 33.5661C336.068 36.8308 336.62 38.0344 337.597 42.1019V42.1019Z" fill="#0A5425"/>
<path fill-rule="evenodd" clip-rule="evenodd" d="M377.221 108.24C376.333 105.534 377.933 106.395 373.923 104.743C368.674 102.58 369.669 104.217 368.085 106.797C372.027 109.061 374.016 110.509 377.221 108.24L377.221 108.24Z" fill="#0A5425"/>
<path fill-rule="evenodd" clip-rule="evenodd" d="M275.191 72.9114C273.948 68.8452 270.588 67.2322 266.557 69.9218C268.073 74.5288 271.737 75.3352 275.191 72.9114Z" fill="#0A5425"/>
<path fill-rule="evenodd" clip-rule="evenodd" d="M154.536 1047.37C159.765 1045.17 166.689 1038.9 172.315 1035.46C176.134 1036.43 178.125 1038.64 181.428 1040.77C184.624 1042.82 188.463 1044.29 190.688 1046.38C185.914 1049.17 179.633 1050.15 173.52 1050.48C170.152 1050.66 166.312 1050.57 162.944 1050.28L157.093 1049.04C154.876 1048.01 156.04 1048.75 154.54 1047.37L154.536 1047.37ZM128.202 1037.05C133.148 1032.84 153.622 1017.92 158.474 1015.98C161.731 1023.64 166.685 1026.88 168.902 1032.48L150.205 1045.44C144.563 1048.29 131.23 1041.22 128.206 1037.05L128.202 1037.05ZM147.993 992.707C153.135 989.249 154.397 989.134 159.478 993.53C160.531 1007.44 145.071 1005.58 147.993 992.707ZM187.914 995.022C190.368 992.162 202.529 983.717 205.955 982.443C208.59 988.085 211.736 993.723 213.125 1000.99L207.418 1004.75C206.672 1004.43 189.303 995.948 187.914 995.018V995.022ZM94.4269 994.665C91.7718 985.418 90.2025 973.957 97.9712 968.561L135.307 942.915C141.666 941.411 156.265 944.456 161.322 947.164C159.42 949.799 151.816 954.715 148.398 957.1C138.081 964.291 137.475 962.824 137.122 968.36C143.342 968.167 155.77 957.407 161.211 953.535C166.222 949.971 167.484 948.487 173.999 952.462C178.187 955.015 182.042 956.678 185.119 960.005C180.87 965.602 164.329 973.99 162.956 977.231C159.588 985.172 173.913 974.465 176.712 972.564C180.608 969.917 186.119 965.34 189.827 963.816C194.396 967.577 198.981 972.207 202.382 977.518C199.485 981.644 191.778 985.766 187.373 989.064C177.76 996.259 178.773 991.916 165.312 994.461L162.67 990.625C160.264 987.224 157.294 984.778 151.553 985.831C146.28 986.798 148.443 988.831 143.797 987.438C136.491 985.245 117.012 965.717 110.976 969.712C112.136 974.207 139.318 990.367 142.191 991.514C144.399 1011.9 147.8 1003.48 156.712 1009.04C155.147 1013.4 156.925 1010.75 152.647 1013.91L123.293 1034.03C118.975 1031.85 118.606 1031.23 115.172 1027.67C111.321 1023.67 110.788 1024.3 109.288 1020.7L129.595 1006.03C133.893 1002.96 133.607 1004.17 134.07 999.386C126.858 999.845 112.845 1013.28 105.781 1016.65C101.987 1013.53 97.4836 1005.04 96.2667 999.246C101.401 996.714 116.102 987.687 116.16 982.271C110.493 982.205 99.9871 991.728 94.4269 994.67V994.665ZM98.0572 962.259C101.192 955.101 111.739 946.578 122.359 944.804C119.794 947.996 102.491 960.415 98.0572 962.259ZM216.026 993.805L215.432 990.711C204.746 973.269 208.614 974.039 192.966 960.12L191.032 958.022C172.651 946.996 154.299 933.077 124.588 939.108C59.3652 952.347 87.9366 1043.78 158.453 1054.39C169.266 1056.01 190.639 1056.89 196.228 1047.56C197.756 1041 186.197 1040.14 173.921 1029.6C152.119 1010.88 158.994 986.909 193.757 1002.78C197.817 1004.64 202.734 1007.66 206.053 1010.32C207.979 1011.87 214.199 1019.17 218.165 1013.82C220.599 1008.26 217.973 999.464 216.03 993.809L216.026 993.805Z" fill="#F6F1D1"/>
<path fill-rule="evenodd" clip-rule="evenodd" d="M191.024 958.013L192.958 960.111C195.912 958.079 194.064 960.894 195.486 956.292C196.563 952.797 196.936 947.45 195.654 944.635C192.97 945.172 194.134 945.446 193.318 945.93C183.742 951.654 172.561 931.011 177.113 919.256C181.69 907.443 186.508 911.368 190.684 905.947C196.121 898.883 191.339 896.88 201.71 891.348C213.646 884.981 216.895 891.217 223.639 890.606C227.343 890.27 230.179 883.334 241.262 883.362C258.914 883.407 265.052 897.306 264.269 912.552C277.135 917.301 281.749 932.011 276.168 942.443C271.993 950.245 272.649 943.345 273.095 954.137C273.87 972.957 252.665 983.073 238.685 971.707C238.279 967.761 241.127 971.408 239.148 965.893C234.633 967.163 217.386 985.597 215.424 990.703L216.018 993.796C218.538 992.329 216.366 993.825 218.345 992.124L234.178 975.177C244.204 978.275 248.048 984.2 262.028 978.472C282.45 970.105 274.267 954.928 279.262 945.557C287.141 930.769 281.56 918.526 269.239 909.803C267.908 900.502 268.408 895.056 262.368 888.644C258.32 884.35 252.329 879.703 243.532 879.076C230.945 878.183 226.397 885.419 222.516 885.8C214.092 886.628 211.744 881.248 199.243 887.677C188.7 893.098 192.593 896.675 186.766 903.198C180.911 909.758 178.252 904.8 173.237 917.756C170.446 924.963 171.426 933.548 174.982 939.808C179.366 947.524 183.632 948.114 191.306 952.994L191.028 958.009L191.024 958.013Z" fill="#0A5425"/>
<path fill-rule="evenodd" clip-rule="evenodd" d="M203.833 920.169C207.639 917.567 205.263 915.842 208.491 910.974C209.917 908.827 213.523 905.414 217.207 904.451C232.011 900.583 231.007 913.408 238.214 911.581C237.989 900.956 216.264 893.007 205.41 907.897C203.255 910.851 199.731 917.399 203.837 920.169H203.833Z" fill="#0A5425"/>
<path fill-rule="evenodd" clip-rule="evenodd" d="M220.078 968.122C220.664 962.366 223.639 958.53 221.381 954.38C216.308 956.457 213.194 971.888 214.817 976.993C219.619 976.457 228.937 966.094 232.821 963.333C236.529 960.694 236.861 961.808 236.562 956.641C229.662 957.391 226.22 965.033 220.078 968.127V968.122Z" fill="#0A5425"/>
<path fill-rule="evenodd" clip-rule="evenodd" d="M208.556 964.73C211.818 959.719 215.419 955.334 215.301 950.844C208.974 951.028 211.527 954.888 206.762 958.452C206.536 954.654 206.438 950.876 206.286 947.082C206.045 941.063 207.048 940.321 202.697 939.231C201.115 943.177 201.468 963.689 203.836 968.188C207.966 967.553 205.668 969.167 208.56 964.73H208.556Z" fill="#0A5425"/>
<path fill-rule="evenodd" clip-rule="evenodd" d="M697.689 229.519C700.726 224.726 702.84 215.631 705.5 209.598C709.191 208.218 712.086 208.896 716.009 208.755C719.805 208.618 723.8 207.64 726.82 208.087C724.488 213.099 719.887 217.486 715.053 221.242C712.389 223.312 709.185 225.427 706.252 227.11L700.743 229.434C698.331 229.847 699.71 229.792 697.69 229.514L697.689 229.519ZM670.169 236.059C671.831 229.782 680.139 205.849 683.021 201.494C690.064 205.926 695.982 205.762 700.998 209.098L693.031 230.405C690.021 235.962 675.036 237.758 670.175 236.06L670.169 236.059ZM661.134 188.353C663.385 182.579 664.357 181.765 671.038 182.478C679.835 193.3 666.078 200.593 661.134 188.353ZM695.245 167.483C695.629 163.734 700.801 149.861 702.888 146.86C708.27 149.992 714.071 152.828 719.358 158.006L716.815 164.351C716.021 164.514 696.914 167.451 695.243 167.48L695.245 167.483ZM618.254 220.515C610.798 214.434 602.972 205.915 606.275 197.052L622.313 154.691C626.679 149.829 640.407 144.002 646.105 143.342C646.046 146.591 642.604 154.967 641.158 158.875C636.785 170.666 635.45 169.808 638.318 174.555C643.317 170.849 647.387 154.923 649.648 148.639C651.731 142.852 651.921 140.914 659.539 140.463C664.435 140.171 668.551 139.338 672.976 140.316C672.679 147.336 663.876 163.661 664.598 167.106C666.361 175.549 672.019 158.585 673.234 155.427C674.924 151.03 676.84 144.127 679.017 140.76C684.915 141.244 691.322 142.431 697.144 144.853C697.118 149.895 693.139 157.677 691.402 162.898C687.611 174.291 685.965 170.146 676.361 179.914L672.002 178.271C668.087 176.85 664.252 176.535 660.137 180.674C656.357 184.477 659.294 184.912 654.682 186.418C647.431 188.784 620.293 183.855 617.614 190.579C621.131 193.61 652.675 191.379 655.689 190.683C669.132 206.17 667.121 197.31 677.61 196.791C678.813 201.268 678.764 198.079 677.052 203.114L664.42 236.385C659.624 237.052 658.973 236.761 654.12 235.791C648.675 234.703 648.597 235.525 645.314 233.426L653.621 209.788C655.401 204.815 655.857 205.975 653.508 201.78C647.846 206.27 644.002 225.302 640.121 232.098C635.226 231.701 626.683 227.293 622.378 223.228C625.151 218.22 632.078 202.42 629.035 197.938C624.343 201.117 621.146 214.93 618.257 220.518L618.254 220.515ZM602.751 191.827C601.243 184.159 605.045 171.143 612.756 163.628C612.47 167.713 605.341 187.783 602.751 191.827ZM717.641 150.448L715.389 148.246C696.662 140.015 700.279 138.441 679.487 135.934L676.701 135.314C655.314 136.742 632.301 135.778 611.338 157.678C565.317 205.755 640.939 264.559 704.908 233.047C714.717 228.215 732.774 216.748 732.038 205.89C729.556 199.637 719.569 205.52 703.475 203.866C674.891 200.928 666.864 177.315 704.471 170.525C708.865 169.733 714.628 169.412 718.871 169.703C721.334 169.874 730.61 172.326 730.813 165.665C729.641 159.71 722.468 153.986 717.647 150.449L717.641 150.448Z" fill="#F6F1D1"/>
<path fill-rule="evenodd" clip-rule="evenodd" d="M676.689 135.312L679.474 135.932C680.742 132.577 680.829 135.943 679.373 131.353C678.264 127.867 675.52 123.263 672.861 121.682C670.963 123.654 672.076 123.216 671.682 124.078C667.081 134.242 646.122 123.664 643.156 111.412C640.177 99.0987 646.374 99.5743 646.712 92.7402C647.148 83.8366 642.078 84.9184 647.441 74.4596C653.613 62.4214 659.839 65.6904 665.03 61.3419C667.881 58.9532 666.253 51.638 675.373 45.3396C689.897 35.3081 702.866 43.2228 710.92 56.1922C724.197 52.7541 736.376 62.2046 737.743 73.9564C738.764 82.7459 735.366 76.7044 741.889 85.3144C753.26 100.33 741.614 120.735 723.648 119.373C721.064 116.364 725.483 117.735 720.711 114.333C717.727 117.952 714.077 142.931 715.377 148.244L717.629 150.446C718.862 147.804 717.932 150.271 718.587 147.745L721.925 124.795C731.927 121.62 738.464 124.294 746.679 111.615C758.681 93.094 743.303 85.2955 742.06 74.7496C740.097 58.1092 728.53 51.2363 713.434 51.099C707.035 44.2189 704.34 39.461 695.721 37.639C689.947 36.421 682.376 36.0215 674.793 40.5245C663.944 46.9706 664.336 55.5083 661.366 58.0346C654.919 63.5196 649.922 60.4399 643.321 72.8511C637.753 83.3172 642.991 84.0349 641.926 92.7163C640.858 101.444 635.846 98.8888 639.117 112.391C640.936 119.903 646.637 126.395 653.129 129.509C661.131 133.345 664.971 131.397 674.058 131.028L676.69 135.306L676.689 135.312Z" fill="#0A5425"/>
<path fill-rule="evenodd" clip-rule="evenodd" d="M665.624 96.921C667.266 92.6127 664.33 92.5514 664.206 86.7115C664.152 84.1346 665.167 79.2745 667.643 76.3825C677.597 64.7612 684.087 75.8679 688.965 70.2558C682.72 61.6576 660.342 67.5202 659.92 85.9415C659.834 89.5974 660.675 96.9854 665.627 96.9187L665.624 96.921Z" fill="#0A5425"/>
<path fill-rule="evenodd" clip-rule="evenodd" d="M706.32 127.042C703.517 121.98 703.773 117.133 699.551 115.011C696.57 119.611 702.813 134.062 707.058 137.329C710.697 134.149 712.439 120.323 714.054 115.839C715.595 111.557 716.503 112.283 713.31 108.21C708.071 112.761 709.602 121.001 706.322 127.046L706.32 127.042Z" fill="#0A5425"/>
<path fill-rule="evenodd" clip-rule="evenodd" d="M694.922 130.827C694.742 124.851 695.2 119.196 692.541 115.575C687.449 119.335 691.748 121.049 689.867 126.695C687.515 123.704 685.28 120.657 682.991 117.627C679.359 112.821 679.761 111.639 675.565 113.226C676.516 117.369 688.506 134.016 693.017 136.36C696.047 133.483 695.08 136.12 694.925 130.825L694.922 130.827Z" fill="#0A5425"/>
<path fill-rule="evenodd" clip-rule="evenodd" d="M336.917 340.417C342.45 339.161 350.365 334.205 356.505 331.805C360.095 333.429 361.669 335.952 364.549 338.62C367.337 341.2 370.859 343.325 372.684 345.771C367.496 347.679 361.14 347.544 355.064 346.797C351.716 346.385 347.952 345.624 344.687 344.748L339.142 342.51C337.141 341.102 338.157 342.035 336.922 340.413L336.917 340.417ZM312.796 325.642C318.402 322.364 341.172 311.259 346.287 310.204C348.154 318.314 352.464 322.372 353.666 328.275L332.991 337.759C326.937 339.575 315.048 330.279 312.8 325.647L312.796 325.642ZM340.041 285.451C345.709 282.946 346.972 283.054 351.205 288.272C349.808 302.149 334.912 297.616 340.041 285.451ZM378.941 294.717C381.858 292.331 395.309 286.145 398.905 285.49C400.512 291.506 402.623 297.608 402.719 305.007L396.441 307.712C395.762 307.267 380.147 295.872 378.942 294.713L378.941 294.717ZM286.959 278.005C285.964 268.435 286.424 256.877 295.017 252.924L336.265 234.208C342.789 233.84 356.631 239.392 361.135 242.944C358.802 245.205 350.454 248.715 346.672 250.465C335.255 255.74 334.915 254.189 333.599 259.578C339.757 260.477 353.876 252.058 359.911 249.198C365.468 246.565 366.971 245.326 372.689 250.379C376.366 253.625 379.871 255.938 382.318 259.752C377.155 264.519 359.401 269.882 357.482 272.833C352.777 280.062 368.754 272.027 371.842 270.645C376.142 268.721 382.369 265.179 386.286 264.328C390.126 268.831 393.83 274.192 396.249 280.015C392.675 283.571 384.365 286.28 379.451 288.757C368.728 294.159 370.484 290.06 356.787 290.209L354.856 285.971C353.083 282.201 350.586 279.273 344.75 279.305C339.389 279.334 341.163 281.714 336.832 279.529C330.023 276.092 314.262 253.456 307.62 256.333C307.975 260.962 331.91 281.63 334.537 283.262C333.144 303.723 337.966 296.024 345.768 303.054C343.463 307.076 345.678 304.781 340.913 307.143L308.49 321.818C304.621 318.908 304.365 318.242 301.608 314.131C298.516 309.52 297.881 310.048 297.034 306.243L319.596 295.347C324.365 293.077 323.871 294.221 325.164 289.59C317.984 288.78 301.835 299.56 294.29 301.64C291.1 297.906 288.153 288.755 287.969 282.837C293.467 281.243 309.521 274.928 310.526 269.605C304.958 268.549 292.948 276.086 286.959 278.009L286.959 278.005ZM296.205 246.734C300.544 240.235 312.419 233.69 323.187 233.802C320.103 236.495 300.893 245.695 296.205 246.734ZM406.833 298.439L406.789 295.289C399.321 276.246 402.994 277.681 390.023 261.238L388.486 258.834C372.319 244.761 356.685 227.845 326.378 228.584C259.845 230.204 271.973 325.227 339.546 348.009C349.908 351.503 370.796 356.11 377.933 347.895C380.584 341.711 369.355 338.837 359.113 326.313C340.922 304.069 351.888 281.668 383.336 303.381C387.009 305.919 391.321 309.756 394.123 312.956C395.749 314.813 400.594 323.095 405.436 318.516C408.806 313.468 407.759 304.351 406.836 298.444L406.833 298.439Z" fill="#F6F1D1"/>
<path fill-rule="evenodd" clip-rule="evenodd" d="M388.48 258.824L390.017 261.228C393.281 259.744 390.969 262.192 393.174 257.91C394.847 254.658 396.15 249.459 395.38 246.463C392.643 246.521 393.741 246.995 392.853 247.329C382.424 251.289 375.027 229.007 381.566 218.23C388.14 207.4 392.197 212.108 397.257 207.502C403.846 201.498 399.489 198.689 410.668 195.058C423.534 190.877 425.641 197.586 432.389 198.165C436.094 198.483 440.1 192.149 451.007 194.117C468.379 197.251 471.99 212.009 468.551 226.883C480.387 233.81 482.355 249.101 475.035 258.395C469.559 265.345 471.412 258.667 469.963 269.371C467.432 288.035 444.784 294.285 433.009 280.647C433.3 276.691 435.466 280.78 434.482 275.004C429.814 275.464 409.608 290.596 406.782 295.279L406.826 298.429C409.564 297.426 407.164 298.518 409.41 297.19L427.964 283.276C437.293 288.08 440.041 294.586 454.808 291.393C476.378 286.729 470.978 270.355 477.536 262.002C487.882 248.822 484.53 235.791 473.926 225.046C474.242 215.655 475.687 210.381 470.863 203.011C467.629 198.075 462.544 192.451 453.993 190.295C441.756 187.212 436.011 193.541 432.124 193.237C423.685 192.577 422.315 186.87 408.882 191.011C397.553 194.504 400.76 198.707 393.881 204.109C386.968 209.543 385.218 204.197 378.013 216.075C374.004 222.683 373.466 231.306 375.872 238.093C378.838 246.456 382.934 247.784 389.636 253.931L388.484 258.821L388.48 258.824Z" fill="#0A5425"/>
<path fill-rule="evenodd" clip-rule="evenodd" d="M407.714 223.805C411.917 221.91 409.879 219.795 413.91 215.568C415.69 213.703 419.837 210.974 423.632 210.671C438.885 209.453 435.652 221.904 443.068 221.367C444.705 210.866 424.707 199.238 411.415 211.999C408.776 214.53 404.16 220.36 407.718 223.806L407.714 223.805Z" fill="#0A5425"/>
<path fill-rule="evenodd" clip-rule="evenodd" d="M415.316 273.862C416.901 268.296 420.501 265.041 419.004 260.559C413.646 261.717 407.88 276.364 408.584 281.675C413.406 281.987 424.393 273.415 428.701 271.376C432.814 269.427 432.945 270.582 433.555 265.443C426.63 264.973 421.904 271.895 415.316 273.866L415.316 273.862Z" fill="#0A5425"/>
<path fill-rule="evenodd" clip-rule="evenodd" d="M404.567 268.505C408.655 264.142 412.968 260.456 413.637 256.014C407.376 255.088 409.214 259.335 403.898 262.011C404.341 258.231 404.905 254.495 405.42 250.733C406.236 244.764 407.354 244.21 403.26 242.375C401.012 245.983 397.77 266.24 399.314 271.084C403.492 271.181 400.946 272.369 404.571 268.506L404.567 268.505Z" fill="#0A5425"/>
<path fill-rule="evenodd" clip-rule="evenodd" d="M814.033 751.287C813.854 745.616 810.495 736.903 809.307 730.418C811.585 727.203 814.362 726.138 817.529 723.818C820.593 721.573 823.348 718.519 826.098 717.194C826.983 722.649 825.641 728.863 823.751 734.686C822.709 737.894 821.246 741.445 819.765 744.484L816.512 749.501C814.748 751.198 815.858 750.378 814.031 751.282L814.033 751.287ZM794.938 772.155C792.787 766.028 786.219 741.56 786.156 736.338C794.473 736.049 799.278 732.59 805.301 732.533L810.677 754.636C811.308 760.924 799.918 770.827 794.943 772.152L794.938 772.155ZM760.667 737.758C759.287 731.717 759.633 730.498 765.562 727.336C778.918 731.348 771.633 745.109 760.667 737.758ZM777.168 701.333C775.38 698.015 771.868 683.632 771.909 679.978C778.121 679.546 784.513 678.634 791.796 679.949L793.256 686.627C792.69 687.208 778.531 700.369 777.164 701.332L777.168 701.333ZM743.254 788.453C733.67 787.609 722.41 784.956 720.165 775.768L709.642 731.712C710.523 725.237 718.608 712.706 722.952 708.96C724.728 711.68 726.585 720.544 727.583 724.59C730.588 736.801 729.001 736.84 734.041 739.158C736.095 733.284 730.518 717.821 728.858 711.352C727.332 705.394 726.401 703.684 732.45 699.031C736.337 696.04 739.274 693.04 743.485 691.363C747.182 697.339 749.068 715.789 751.599 718.234C757.8 724.23 752.954 707.015 752.185 703.721C751.114 699.133 748.822 692.346 748.732 688.338C753.883 685.425 759.852 682.809 766.029 681.543C768.839 685.729 769.918 694.402 771.414 699.698C774.676 711.253 770.986 708.749 768.525 722.224L763.997 723.313C759.959 724.336 756.609 726.23 755.53 731.966C754.538 737.234 757.212 735.945 754.243 739.781C749.573 745.812 724.351 756.976 725.911 764.044C730.522 764.577 755.368 745.013 757.471 742.745C777.292 748.007 770.651 741.808 779.038 735.486C782.548 738.514 780.717 735.904 782.128 741.031L790.364 775.654C786.77 778.899 786.068 779.023 781.508 780.947C776.392 783.105 776.79 783.829 772.894 783.936L766.491 759.713C765.17 754.599 766.199 755.302 761.899 753.151C759.737 760.046 767.246 777.952 767.852 785.754C763.579 788.175 754.034 789.327 748.19 788.381C747.671 782.68 744.528 765.717 739.493 763.718C737.396 768.983 742.51 782.208 743.258 788.454L743.254 788.453ZM714.314 773.424C708.76 767.927 704.595 755.023 706.754 744.474C708.811 748.014 714.186 768.624 714.314 773.424ZM786.13 674.66L783.03 674.103C762.913 677.81 765.021 674.477 746.41 684.081L743.758 685.133C726.865 698.326 707.282 710.454 702.239 740.348C691.166 805.973 786.761 812.152 821.987 750.151C827.389 740.644 835.888 721.015 829.181 712.445C823.616 708.665 818.657 719.142 804.412 726.813C779.113 740.437 759.208 725.408 786.509 698.668C789.7 695.545 794.288 692.042 797.962 689.9C800.096 688.658 809.148 685.477 805.575 679.852C801.26 675.583 792.11 674.876 786.136 674.657L786.13 674.66Z" fill="#F6F1D1"/>
<path fill-rule="evenodd" clip-rule="evenodd" d="M743.746 685.137L746.399 684.086C745.563 680.599 747.527 683.334 743.743 680.355C740.868 678.093 736.012 675.825 732.924 676.011C732.461 678.708 733.135 677.721 733.294 678.655C735.196 689.648 711.914 692.669 702.579 684.197C693.198 675.683 698.593 672.596 695.033 666.752C690.394 659.14 686.806 662.883 685.369 651.218C683.714 637.791 690.701 636.999 692.554 630.485C693.571 626.908 688.116 621.77 692.124 611.436C698.506 594.979 713.682 594.243 727.63 600.45C736.683 590.149 752.069 591.127 759.8 600.082C765.581 606.781 759.377 603.691 769.61 607.151C787.451 613.188 789.276 636.611 773.646 645.576C769.818 644.537 774.244 643.189 768.386 643.055C767.95 647.725 778.959 670.442 783.019 674.108L786.119 674.664C785.655 671.786 786.271 674.35 785.395 671.892L775.266 651.029C781.759 642.784 788.669 641.325 788.345 626.221C787.872 604.156 770.769 606.341 763.817 598.314C752.847 585.648 739.416 586.459 726.849 594.824C717.691 592.726 712.788 590.303 704.634 593.636C699.173 595.872 692.684 599.794 688.939 607.778C683.584 619.205 688.704 626.049 687.665 629.807C685.412 637.966 679.548 638.225 681.057 652.201C682.329 663.987 687.065 661.639 691.06 669.42C695.079 677.241 689.497 677.942 699.787 687.276C705.511 692.469 713.874 694.639 720.994 693.569C729.77 692.248 731.853 688.48 739.164 683.07L743.744 685.132L743.746 685.137Z" fill="#0A5425"/>
<path fill-rule="evenodd" clip-rule="evenodd" d="M713.029 659.589C711.968 655.102 709.504 656.7 706.121 651.938C704.63 649.836 702.74 645.245 703.164 641.462C704.872 626.256 716.48 631.8 717.364 624.417C707.367 620.811 692.145 638.23 702.143 653.709C704.126 656.781 708.97 662.422 713.03 659.585L713.029 659.589Z" fill="#0A5425"/>
<path fill-rule="evenodd" clip-rule="evenodd" d="M763.618 661.653C758.455 659.038 755.945 654.885 751.26 655.501C751.377 660.981 764.659 669.43 770.007 669.75C771.231 665.075 764.907 652.657 763.725 648.04C762.594 643.632 763.754 643.722 758.824 642.145C757.045 648.854 762.941 654.811 763.621 661.655L763.618 661.653Z" fill="#0A5425"/>
<path fill-rule="evenodd" clip-rule="evenodd" d="M756.313 671.187C752.807 666.343 750.01 661.407 745.776 659.905C743.675 665.875 748.195 664.879 749.81 670.607C746.184 669.453 742.623 668.188 739.027 666.966C733.323 665.03 732.992 663.827 730.411 667.496C733.526 670.389 752.795 677.429 757.845 676.834C758.735 672.752 759.416 675.477 756.314 671.183L756.313 671.187Z" fill="#0A5425"/>
<path fill-rule="evenodd" clip-rule="evenodd" d="M475.411 1076.41L471.358 1076.95C475.472 1092.19 478.148 1098.22 487.774 1107.81C515.31 1135.28 500.863 1179.26 465.815 1187.13C434.086 1194.25 399.724 1166.51 411.745 1125.83C415.466 1113.23 415.756 1106.64 411.741 1091.23L408.26 1092.48C410.725 1113.13 411.498 1109.95 406.841 1127.7C396.774 1166.09 430.108 1199.41 466.801 1191.08C491.259 1185.52 506.035 1163.71 506.333 1142.91C506.54 1128.75 501.517 1117.19 493.476 1107.96C482.437 1095.28 481.483 1096.41 475.407 1076.41L475.411 1076.41Z" fill="#F6F1D1"/>
<path fill-rule="evenodd" clip-rule="evenodd" d="M524.86 1076.39C532.472 1080.61 540.363 1083.08 542.925 1095.85C544.487 1103.64 539.733 1117.14 536.718 1122.84C530.483 1123.36 528.491 1120.36 523.704 1123.29C525.805 1126.6 524.603 1125.38 528.635 1126.37C532.359 1127.29 531.849 1126.74 534.822 1127.96L530.717 1140.89C519.383 1140.12 515.659 1136.92 511.788 1140.76C514.752 1144.3 522.35 1144.36 528.966 1144.77C528.051 1150.07 525.824 1153.63 525.292 1158.34C520.97 1158.46 518.438 1157.13 515.71 1159.02C517.438 1164.54 516.4 1160.49 522.661 1163.34L508.908 1204.39C507.487 1208.45 506.445 1215.45 502.386 1216.9C496.511 1211.4 503.139 1186.57 496.994 1181.93C492.374 1185.32 495.892 1202.86 496.006 1209.03C496.119 1214.99 496.672 1220.6 502.11 1220.95C508.942 1221.39 509.344 1216.47 510.609 1212.19C516.816 1191.17 535.013 1140.66 543.24 1117.05C546.157 1108.68 549.967 1100.8 545.254 1089.48C541.705 1080.96 533.144 1073.62 525.401 1073.87L524.85 1076.39L524.86 1076.39Z" fill="#F6F1D1"/>
<path fill-rule="evenodd" clip-rule="evenodd" d="M406.391 1088.76C406.498 1051.18 459.511 1040.99 475.018 1071.82C469.852 1073.41 466.655 1073.86 461.736 1072.77C456.79 1071.67 455.039 1069.27 451.628 1069.21C446.54 1077.45 452.392 1081.77 441.43 1088.04C437.229 1085.37 437.075 1086.47 433.299 1082.98C429.792 1079.74 429.08 1077.14 425.517 1075.46C417.931 1080.42 423.218 1084.31 406.39 1088.75L406.391 1088.76ZM408.259 1092.48L411.741 1091.23C418.527 1089.97 421.837 1085.37 425.947 1082.18C430.712 1085.66 436.858 1092.96 443.002 1092.07C448.765 1091.23 453.443 1080.29 453.713 1075.03C459.348 1076.04 464.412 1078.64 471.362 1076.95L475.415 1076.4L480.537 1074.01C477.676 1063.69 468.571 1057.37 462.488 1054.1C450.897 1047.86 448.891 1050.64 435.516 1049.32C431.916 1037.2 421.626 1030.46 413.741 1032.14C412.066 1032.5 410.965 1032.47 408.747 1034.84C414.943 1040.4 426.651 1031.04 431.206 1050.74C416.687 1057.17 407.531 1064.37 403.293 1079.17C402.145 1083.18 400.509 1089.17 403.313 1092.87L408.253 1092.48L408.259 1092.48Z" fill="#0A5425"/>
<path fill-rule="evenodd" clip-rule="evenodd" d="M521.052 1073.66L522.046 1075.8L524.859 1076.39L525.41 1073.87C531.318 1051.55 549.116 1057.76 554.56 1053.5C553.459 1050.71 555.433 1050.77 549.837 1050.37C541.062 1049.74 534.281 1054.57 528.111 1059.22C528.287 1047.63 533.778 1035.66 529.113 1032.15C525.519 1034.67 527.604 1031.15 525.507 1044.45C524.765 1049.14 524.737 1053.26 523.434 1058.23C520.073 1055.54 517.644 1050.53 513.778 1047.69C511.53 1046.04 509.773 1045.35 506.974 1044.38C499.785 1041.9 500.149 1044.61 499.496 1045.25C503.147 1049.98 506.627 1046.19 514.503 1054.38C519.31 1059.39 522.919 1066.8 521.057 1073.66L521.052 1073.66Z" fill="#0A5425"/>
<path fill-rule="evenodd" clip-rule="evenodd" d="M522.045 1075.8L521.05 1073.65C516.203 1067.57 489.772 1081.68 493.109 1097.51C497.299 1095.43 496.58 1094.02 498.053 1090.48C499.236 1087.64 500.181 1086.19 502.646 1083.58C508.847 1077.05 513.298 1077.75 522.044 1075.79L522.045 1075.8Z" fill="#F6F1D1"/>
<path fill-rule="evenodd" clip-rule="evenodd" d="M473.11 1171.77C481.321 1174.25 496.148 1149.69 490.946 1142.13C484.375 1145.01 491.025 1153.53 478.116 1165.31C477.256 1166.09 475.347 1167.47 474.756 1168.12C471.762 1171.41 473.558 1168.03 473.11 1171.77V1171.77Z" fill="#F6F1D1"/>
<path fill-rule="evenodd" clip-rule="evenodd" d="M583.908 290.227L580.587 287.843C573.132 301.755 570.945 307.978 571.371 321.564C572.581 360.436 531.909 382.539 501 364.236C473.019 347.666 467.033 303.908 503.679 282.542C515.027 275.922 519.759 271.323 527.402 257.355L524.008 255.881C511.644 272.599 514.388 270.813 498.824 280.544C465.171 301.584 466.589 348.691 499.009 367.788C520.62 380.516 546.332 374.773 560.812 359.837C570.676 349.669 574.943 337.814 575.418 325.584C576.082 308.782 574.615 308.946 583.901 290.229L583.908 290.227Z" fill="#F6F1D1"/>
<path fill-rule="evenodd" clip-rule="evenodd" d="M619.914 324.121C622.556 332.417 626.607 339.624 619.714 350.677C615.51 357.419 602.798 363.979 596.692 366.062C591.8 362.163 592.403 358.617 586.908 357.47C586.169 361.319 586.135 359.601 588.389 363.088C590.468 366.313 590.473 365.563 591.799 368.491L579.948 375.084C572.223 366.755 571.71 361.869 566.258 362.011C565.991 366.617 571.479 371.872 576.012 376.71C571.71 379.94 567.647 381.005 564.032 384.066C560.803 381.192 559.875 378.485 556.59 377.994C554.062 383.197 556.087 379.532 558.688 385.902L520.531 406.348C516.712 408.329 511.153 412.711 507.206 410.982C506.701 402.95 528.552 389.422 527.259 381.833C521.568 381.135 512.107 396.308 507.958 400.878C503.949 405.298 500.507 409.758 504.226 413.741C508.9 418.744 512.56 415.444 516.417 413.196C535.347 402.154 583.229 377.867 605.409 366.32C613.273 362.227 621.452 359.103 625.782 347.633C629.041 338.998 627.84 327.789 622.034 322.66L619.905 324.115L619.914 324.121Z" fill="#F6F1D1"/>
<path fill-rule="evenodd" clip-rule="evenodd" d="M525.201 251.889C551.051 224.606 596.62 253.548 586.769 286.618C581.919 284.231 579.282 282.369 576.453 278.199C573.606 274.007 573.975 271.062 571.53 268.683C562.179 271.189 563.476 278.346 551.202 275.389C549.971 270.569 549.106 271.263 548.749 266.134C548.42 261.37 549.685 258.989 548.241 255.326C539.322 253.73 540.498 260.192 525.204 251.884L525.201 251.889ZM524.007 255.882L527.401 257.356C533.205 261.093 538.768 260.014 543.947 260.511C545.032 266.307 544.495 275.841 549.579 279.403C554.349 282.744 565.258 277.988 569.059 274.346C572.47 278.943 574.37 284.312 580.593 287.842L583.915 290.226L589.283 291.999C594.279 282.522 591.982 271.683 589.799 265.129C585.641 252.64 582.273 253.288 573.443 243.156C579.138 231.861 576.268 219.901 569.375 215.719C567.911 214.831 567.133 214.051 563.89 214.258C564.587 222.556 579.529 223.768 569.338 241.229C554.359 235.955 542.754 234.92 529.521 242.786C525.935 244.918 520.635 248.158 520.141 252.772L524.005 255.874L524.007 255.882Z" fill="#0A5425"/>
<path fill-rule="evenodd" clip-rule="evenodd" d="M619.012 319.524L618.266 321.767L619.913 324.12L622.043 322.664C641.647 310.47 650.341 327.197 657.226 327.828C658.335 325.045 659.732 326.442 655.934 322.311C649.981 315.834 641.73 314.703 634.056 313.851C642.13 305.536 654.331 300.594 653.342 294.841C648.998 294.211 652.931 293.077 642.285 301.319C638.531 304.222 635.684 307.203 631.328 309.926C630.723 305.667 632.394 300.35 631.526 295.635C631.022 292.891 630.218 291.181 628.846 288.557C625.315 281.821 623.716 284.048 622.804 284.065C622.221 290.008 627.353 289.635 627.465 301.001C627.532 307.94 625.077 315.81 619.017 319.527L619.012 319.524Z" fill="#0A5425"/>
<path fill-rule="evenodd" clip-rule="evenodd" d="M618.269 321.762L619.015 319.519C619.658 311.768 590.743 303.915 582.316 317.726C586.795 319.083 587.238 317.565 590.737 315.997C593.55 314.738 595.233 314.329 598.812 314.126C607.806 313.621 610.568 317.18 618.271 321.758L618.269 321.762Z" fill="#F6F1D1"/>
<path fill-rule="evenodd" clip-rule="evenodd" d="M516.841 358.061C521.119 365.494 548.748 357.789 550.148 348.717C543.389 346.309 542.39 357.067 524.918 356.787C523.754 356.769 521.415 356.467 520.54 356.535C516.108 356.873 519.734 355.643 516.841 358.061V358.061Z" fill="#F6F1D1"/>
<path fill-rule="evenodd" clip-rule="evenodd" d="M145.023 177.67L141.69 180.039C152.431 191.603 157.608 195.69 170.598 199.695C207.76 211.16 215.475 256.803 188.135 280.103C163.384 301.196 120.05 292.663 111.727 251.068C109.147 238.186 106.331 232.218 95.5978 220.458L93.1023 223.19C104.906 240.308 104.107 237.133 108.262 255.012C117.247 293.67 162.267 307.611 190.848 283.139C209.898 266.825 212.807 240.641 203.376 222.098C196.957 209.469 187.128 201.588 175.713 197.17C160.035 191.092 159.715 192.533 145.022 177.678L145.023 177.67Z" fill="#F6F1D1"/>
<path fill-rule="evenodd" clip-rule="evenodd" d="M188.763 154.606C197.468 154.798 205.6 153.304 213.818 163.41C218.832 169.574 220.913 183.727 220.903 190.178C215.628 193.541 212.469 191.82 209.602 196.646C213.003 198.594 211.367 198.069 215.397 197.067C219.121 196.147 218.414 195.899 221.614 195.595L224.006 208.944C213.622 213.549 208.833 212.448 207.199 217.652C211.469 219.398 218.22 215.912 224.266 213.194C225.927 218.311 225.617 222.5 227.339 226.912C223.573 229.035 220.711 229.034 219.181 231.982C223.282 236.061 220.473 232.957 227.342 232.563L234.305 275.289C234.94 279.544 237.281 286.223 234.365 289.397C226.604 287.269 220.896 262.211 213.298 260.973C210.792 266.129 222.075 280.001 225.052 285.407C227.933 290.633 231.035 295.336 236.009 293.111C242.257 290.312 240.323 285.779 239.447 281.401C235.143 259.913 227.703 206.742 223.975 182.016C222.655 173.25 222.352 164.499 212.908 156.683C205.797 150.799 194.804 148.299 188.069 152.127L188.755 154.613L188.763 154.606Z" fill="#F6F1D1"/>
<path fill-rule="evenodd" clip-rule="evenodd" d="M89.713 220.765C72.2914 187.464 114.449 153.748 142.536 173.793C138.705 177.606 136.088 179.497 131.226 180.821C126.337 182.154 123.671 180.849 120.627 182.39C119.965 192.049 127.156 193.143 120.376 203.794C115.418 203.396 115.794 204.439 110.827 203.112C106.214 201.879 104.372 199.91 100.438 200.086C96.0349 208.005 102.529 208.99 89.7095 220.762L89.713 220.765ZM93.1023 223.191L95.5978 220.458C101.015 216.181 101.8 210.568 103.95 205.83C109.784 206.685 118.628 210.285 123.647 206.631C128.355 203.203 127.395 191.341 125.183 186.565C130.638 184.829 136.333 184.773 141.69 180.032L145.023 177.664L148.441 173.161C141.098 165.361 130.1 164.017 123.192 163.956C110.03 163.838 109.55 167.234 97.1021 172.3C88.2648 163.249 76.0205 162.084 69.8285 167.247C68.5141 168.344 67.5236 168.827 66.6677 171.963C74.7422 173.995 80.7362 160.254 93.9471 175.558C84.0994 188.016 79.3558 198.658 82.5038 213.726C83.3572 217.81 84.7023 223.875 88.9065 225.839L93.0949 223.19L93.1023 223.191Z" fill="#0A5425"/>
<path fill-rule="evenodd" clip-rule="evenodd" d="M184.122 153.968L186.002 155.402L188.762 154.606L188.075 152.12C182.9 129.621 201.543 126.822 204.374 120.514C202.1 118.563 203.875 117.695 198.736 119.947C190.677 123.477 186.931 130.914 183.636 137.898C178.39 127.563 177.673 114.418 171.91 113.487C169.905 117.392 170.109 113.304 174.451 126.048C175.98 130.541 177.876 134.201 179.038 139.205C174.814 138.396 170.327 135.09 165.584 134.382C162.825 133.968 160.948 134.174 158.02 134.621C150.503 135.775 152.091 138.01 151.811 138.879C157.243 141.358 158.555 136.382 169.343 139.963C175.929 142.151 182.576 147.027 184.126 153.964L184.122 153.968Z" fill="#0A5425"/>
<path fill-rule="evenodd" clip-rule="evenodd" d="M185.998 155.397L184.119 153.964C176.995 150.842 160.188 175.645 170.518 188.096C173.254 184.3 171.962 183.389 171.614 179.57C171.335 176.501 171.495 174.776 172.463 171.325C174.904 162.653 179.166 161.196 185.995 155.393L185.998 155.397Z" fill="#F6F1D1"/>
<path fill-rule="evenodd" clip-rule="evenodd" d="M187.432 263.115C195.85 261.48 197.525 232.846 189.397 228.578C184.927 234.19 194.779 238.625 188.847 255.062C188.452 256.157 187.408 258.272 187.188 259.122C186.07 263.423 186.083 259.594 187.432 263.115V263.115Z" fill="#F6F1D1"/>
<path fill-rule="evenodd" clip-rule="evenodd" d="M159.227 824.974C147.659 823.727 146.194 828.173 137.572 828.567C121.911 829.285 118.341 804.366 143.207 815.84C153.917 820.78 156.528 814.246 159.227 824.974V824.974ZM149.67 798.531C138.219 796.626 139.049 799.549 130.568 799.431C115.218 799.225 117.647 774.389 136.89 788.322C145.847 794.809 147.665 787.175 149.67 798.531V798.531ZM152.558 792.403C151.858 784.305 153.317 789.268 157.933 783.387C160.415 780.229 160.368 776.365 163.762 774.836C167.92 772.96 172.119 775 173.213 778.835C174.383 782.958 171.619 786.492 170.196 788.439C160.486 791.021 162.874 787.492 152.564 792.403H152.558ZM136.12 757.58C142.954 766.772 146.024 760.509 146.353 775.289C142.095 772.736 139.119 769.99 134.102 767.684C128.627 765.167 127.798 766.214 122.516 762.197C121.269 750.399 129.791 749.076 136.12 757.586V757.58ZM172.695 746.711C179.347 746.635 182.923 752.093 180.141 758.421C172.96 770.354 163.05 752.228 162.009 751.458C158.469 748.835 156.204 750.246 154.116 749.011L157.457 742.624C163.962 751.84 162.744 746.823 172.707 746.717L172.695 746.711ZM142.501 733.661C138.978 728.679 137.755 727.18 141.936 721.022C149.817 720.087 151.282 722.439 152.387 729.573C153.846 738.972 153.611 737.072 151.811 744.947C147.553 742.6 145.247 737.537 142.507 733.667L142.501 733.661ZM168.332 727.821C171.778 724.756 186.999 718.128 187.61 727.009C187.934 731.708 183.358 733.767 178.853 732.632C176.977 732.155 169.884 728.632 168.337 727.827L168.332 727.821ZM164.568 723.621C162.968 712.653 162.215 704.207 168.79 696.567C178.242 695.897 184.388 703.09 179.406 711.512C177.436 714.835 167.238 722.592 164.568 723.621V723.621ZM129.144 808.618L126.098 809.765C123.051 813.246 120.664 816.446 121.94 823.692L125.145 828.72C135.714 834.072 136.884 833.419 149.447 829.708C157.81 827.238 165.803 829.826 165.644 838.801C157.928 840.9 156.398 838.442 148.841 838.054L146.465 838.166C139.219 841.241 131.844 842.635 133.708 854.08C135.126 862.773 142.507 864.696 151.258 862.467L156.022 860.073C158.01 858.027 157.592 858.262 160.139 856.915C163.168 855.315 162.633 855.604 166.332 854.957L166.602 852.786C167.002 848.252 166.908 851.792 165.609 850.499C155.228 852.869 151.893 860.938 141.031 858.638C136.384 853.516 135.579 845.329 144.959 842.718C151.293 840.953 152.458 842.871 157.604 843.676C162.615 844.464 165.632 842.418 169.99 841.7L171.513 836.836L167.614 830.937C170.643 825.697 172.39 822.304 180.029 821.31L182.717 816.775C170.037 818.875 172.872 817.605 165.614 825.844C163.144 823.703 163.033 822.904 162.08 819.034C172.196 816.546 171.384 815.399 175.348 806.665C179.777 796.914 185.605 801.437 190.034 806.865L192.292 803.889C189.275 796.532 179.906 794.268 174.095 800.755C167.114 808.547 174.454 811.97 160.104 815.211C144.965 786.098 165.726 796.579 172.795 791.286C184.246 782.711 173.742 763.732 161.098 771.454C154.793 775.3 158.433 779.617 150.97 783.352C150.376 774.001 149.823 763.061 152.67 754.992L158.769 753.887C161.792 757.762 164.562 763.45 169.261 765.279C183.023 770.642 190.886 752.61 180.418 744.741C173.942 739.871 169.537 744.524 162.38 743.171C160.08 735.943 160.374 736.478 164.45 731.52C172.66 732.855 180.653 741.806 188.499 734.649C196.75 727.115 191.186 718.493 179.153 718.158C191.116 710.512 183.217 687.063 167.79 692.933C161.845 695.197 159.904 702.86 159.445 710.518C158.416 727.668 166.12 727.133 156.769 732.437C155.828 724.586 155.01 717.44 146.765 716.47C139.049 715.564 134.02 721.375 135.32 729.026C135.896 732.408 142.666 741.148 144.889 744.147C147.847 748.135 150.105 749.899 147.888 756.862L145.783 761.032C140.143 757.398 136.673 749.058 130.309 748.211C122.81 747.211 116.529 753.634 118.311 761.432C120.028 768.937 128.368 769.113 134.908 772.789C140.478 775.918 146.894 780.599 147.288 787.757C137.049 786.728 135.814 778.417 126.245 779.776C118.746 780.841 113.547 790.204 118.27 797.555C122.669 804.407 130.538 803.548 139.231 801.978C150.882 799.872 152.787 805.86 154.705 814.064C144.336 815.534 141.478 806.183 129.156 808.63L129.144 808.618Z" fill="#F6F1D1"/>
<path fill-rule="evenodd" clip-rule="evenodd" d="M101.99 763.679L109.265 791.998C106.983 789.574 102.319 784.74 100.808 781.129C98.5495 775.724 101.378 768.89 101.99 763.685V763.679ZM125.145 828.715L121.939 823.686C107.066 820.081 91.6625 803.254 85.3872 790.804C78.0826 776.318 74.9714 746.782 76.677 729.097C82.5701 736.184 88.3631 765.408 93.5916 776.724C99.2965 789.063 113.859 806.142 126.098 809.759L129.144 808.612C126.792 804.472 120.299 803.101 117.511 799.526C108.73 788.257 109.177 755.228 101.42 752.246C97.4086 758.039 98.5554 765.214 95.8265 771.048C90.6921 758.045 86.0341 739.301 78.659 720.516C76.5476 715.147 77.7004 715.905 73.1953 715.164C70.7487 726.468 72.6542 749.082 73.6599 761.785C76.8946 802.696 99.8081 813.752 103.466 819.369C114.17 835.784 110.806 836.748 131.797 853.975C134.443 846.394 125.033 846.482 111.136 824.057C113.67 825.127 114.988 825.827 117.923 827.221C119.075 827.768 120.94 828.691 122.039 828.956C127.456 830.25 123.663 829.773 125.157 828.715H125.145Z" fill="#0A5425"/>
<path fill-rule="evenodd" clip-rule="evenodd" d="M168.949 867.507C172.219 818.204 201.102 821.597 211.729 763.737C212.617 764.919 212.459 764.449 213.247 766.49C214.664 770.148 214.288 777.935 214.005 781.728C213.617 787.004 212.429 792.056 210.953 796.831C208.006 806.388 202.255 814.969 197.702 820.862C177.894 846.481 181.141 848.11 171.195 864.419L168.949 867.507V867.507ZM192.297 803.877L190.039 806.853C188.463 810.535 186.093 813.199 182.717 816.769L180.029 821.303L171.513 836.83L169.99 841.694L166.602 852.774L166.332 854.944L165.155 861.008L156.028 860.061L151.264 862.455C153.851 865.06 159.856 864.978 163.903 865.354C165.473 871.447 162.468 876.929 165.979 881.51C169.413 880.687 180.064 855.538 180.064 855.527C180.141 855.044 180.376 854.933 180.57 854.662L180.811 854.215C182.24 851.157 181.635 850.833 184.581 848.546L186.487 845.029C188.11 841.323 192.327 834.625 195.22 832.225L196.097 829.937C226.915 795.202 220.322 752.11 209.977 748.222C206.795 752.645 206.936 788.915 192.303 803.871L192.297 803.877Z" fill="#0A5425"/>
<path fill-rule="evenodd" clip-rule="evenodd" d="M195.214 832.238L199.307 836.349C199.284 847.417 195.202 845.782 186.48 845.041L184.575 848.558C185.527 848.947 183.975 848.547 186.839 849.199C207.812 853.981 206.865 830.185 196.09 829.944L195.214 832.232V832.238Z" fill="#F6F1D1"/>
<path fill-rule="evenodd" clip-rule="evenodd" d="M180.805 854.228L180.564 854.675L180.658 859.056C187.516 864.996 194.932 877.365 202.883 877.4C202.519 873.424 201.166 872.942 198.149 870.619C189.456 863.92 186.681 857.927 183.922 855.651C181.917 853.992 183.675 854.774 180.805 854.233V854.228Z" fill="#F6F1D1"/>
<path fill-rule="evenodd" clip-rule="evenodd" d="M393.997 1014.95L415.493 993.826C417.115 1007.23 408.415 1014.71 393.997 1014.95ZM298.48 882.006C281.223 869.868 300.184 846.255 315.644 858.155C319.271 860.948 320.928 864.17 323.942 867.098C328.258 871.293 329.837 869.173 327.734 876.538C323.585 891.067 316.64 887.832 317.464 894.89C325.53 895.284 330.243 882.273 331.52 877.933C335.007 866.082 324.062 836.865 345.388 838.46C356.576 839.297 356.6 850.225 357.544 858.143C352.614 859.479 349.432 859.263 345.372 858.378C341.871 857.617 338.066 855.445 335.583 857.535C336.611 863.44 352.143 863.62 357.319 862.369L358.642 874.223C352.033 875.761 348.057 872.942 344.148 876.142C346.971 880.558 354.716 879.228 359.044 878.489C365.8 896.398 370.979 894.243 378.214 900.863C377.46 905.903 372.806 912.617 368.428 917.286C363.183 922.879 354.191 926.506 350.281 930.743C352.541 932.971 351.878 935.142 362.689 927.554C366.005 925.226 368.624 923.075 371.419 920.073C377.13 913.935 379.363 907.125 383.896 902.611C387.52 905.941 391.68 907.438 395.702 910.635C394.288 914.855 394.556 915.711 392.146 919.578C389.16 924.375 387.067 924.005 389.302 929.281C394.326 926.024 398.534 916.648 399.853 912.963C415.957 917.101 418.745 930.591 410.653 937.471C397.581 948.586 388.013 927.723 381.595 935.082C381.552 941.278 389.879 949.852 393.264 956.135C390.744 959.09 387.406 963.111 383.745 966.516C380.501 969.535 375.07 972.214 373.987 976.573C374.348 976.649 374.803 976.643 375.092 976.614C375.375 976.586 375.835 976.645 376.178 976.588C385.474 975.057 369.724 979.248 378.255 976.135C383.231 974.317 392.246 962.544 395.996 959.94L403.319 971.653C400.007 978.382 390.868 986.475 384.278 991.121C380.102 994.064 379.223 993.125 379.641 997.153C387.603 998.638 400.901 980.301 406.659 976.103L414.075 988.605C413.399 989.273 391.392 1014.23 388.179 1011.38C387.93 1011.16 387.614 1011.5 387.328 1011.48C382.737 1009.74 381.005 1005.72 378.066 1001.16C370.315 989.151 372.733 990.405 368.301 990.59C367.905 995.562 379.721 1014 389.587 1017.59C401.128 1021.79 413.307 1016.25 418.324 1005.06C426.332 987.203 398.292 958.53 388.277 940.072C394.973 941.531 402.579 950.382 413.639 940.337C419.328 935.172 421.748 924.867 414.799 916.808C408.677 909.711 381.53 899.477 372.089 891.589C354.605 876.983 367.235 852.103 356.395 839.719C350.745 833.266 339.683 831.741 332.024 839.547C324.662 847.048 328.301 855.026 327.878 860.923C327.698 863.424 327.814 862.302 327.301 863.796C318.592 857.948 316.872 849.542 305.086 850.793C293.145 852.061 287.877 861.531 287.633 869.399C287.25 881.685 313.193 904.518 320.438 915.207C311.936 916.394 304.31 912.225 295.737 923.911C292.294 928.607 287.596 942.814 296.596 948.624C301.395 943.752 294.796 944.612 296.037 934.536C296.684 929.277 298.197 925.849 303.906 922.389C306.219 926.747 308.29 934.872 311.911 937.347C315.897 933.726 311.936 929.393 307.393 920.204C316.338 917.436 327.17 923.903 323.859 912.091C328.545 909.824 331.703 908.107 335.744 904.854C343.63 898.503 342.74 898.863 342.846 895.729C342.52 895.69 342.087 895.726 341.863 895.765C332.084 897.473 346.166 893.134 339.11 896.394C337.487 897.145 338.078 896.997 336.824 898.062C331.811 902.313 330.623 904.949 321.429 908.47C316.646 905.736 304.943 891.02 301.242 885.637C306.779 882.776 314.489 879.765 315.643 873.778C313.111 873.306 315.597 873.144 312.671 874.028C308.443 875.305 309.385 877.84 298.48 882.006L298.48 882.006Z" fill="#F6F1D1"/>
<path fill-rule="evenodd" clip-rule="evenodd" d="M302.097 979.321C319.5 960.507 343.661 988.291 328.685 1003.91C312.132 1021.18 285.727 997.02 302.097 979.321V979.321ZM335.364 961.215C351.659 942.692 377.536 969.245 361.451 985.734C354.316 993.05 340.978 993.315 337.229 986.613C330.655 974.858 326.864 970.88 335.364 961.215V961.215ZM364.401 957.879C357.23 950.976 353.206 952.789 353.505 948.793C353.983 942.428 367.225 937.982 373.579 936.778C375.799 945.486 372.413 955.128 368.461 961.067L364.401 957.878L364.401 957.879ZM304.368 971.545C293.02 950.215 322.432 932.191 336.259 954.699C328.997 959.415 327.476 965.212 325.43 971.162C317.888 968.655 314.863 968.471 304.368 971.545L304.368 971.545ZM329.081 941.072C329.937 936.593 331.576 931.316 335.863 927.274C342.72 935.602 346.696 936.25 349.036 949.668C346.988 951.653 344.106 951.238 340.034 952.426C335.404 945.11 332.972 945.529 329.081 941.072V941.072ZM337.153 993.942C344.183 993.877 348.919 999.307 360.087 992.398C376.617 982.172 366.471 972.515 372.045 963.254C377.515 954.162 381.003 943.751 376.725 932.282C365.896 933.116 361.339 936.173 351.774 942.474C347.632 933.066 342.384 925.643 334.554 922.455C328.25 926.697 325.747 935.251 324.881 940.195C314.8 940.701 308.065 940.152 300.999 950.289C294.875 959.073 298.279 962.984 300.129 974.491C295.651 981.086 292.264 984.776 292.911 992.935C293.625 1001.92 299.014 1008.86 305.792 1011.84C320.534 1018.32 336.561 1008.63 337.152 993.943L337.153 993.942Z" fill="#0A5425"/>
<path fill-rule="evenodd" clip-rule="evenodd" d="M308.869 1000.46C313.079 997.059 310.799 998.313 313.812 994.962C317.543 996.523 315.655 997.141 319.155 994.471C316.815 990.587 316.779 993.132 315.414 990.221C313.454 986.042 316.659 989.171 314.416 985.029C309.653 986.019 312.089 987.006 309.999 988.138C306.816 989.86 309.294 985.401 304.228 989.969C305.648 993.138 305.594 990.645 307.128 993.109C309.384 996.732 306.773 994.163 308.869 1000.46L308.869 1000.46Z" fill="#0A5425"/>
<path fill-rule="evenodd" clip-rule="evenodd" d="M342.627 966.67C342.245 966.736 340.169 966.908 339.878 967.047C336.947 968.45 338.216 967.522 336.875 969.685C339.876 971.708 340.52 970.588 341.881 972.468C344.22 975.696 339.524 974.567 344.936 976.824C348.715 973.164 345.118 974.762 347.395 972.4C350.26 969.425 350.031 974.304 352.259 968.822C349.237 966.098 352.566 967.637 347.103 967.113C347 962.821 347.95 964.643 344.902 961.299C341.63 963.473 342.468 962.742 342.627 966.67L342.627 966.67Z" fill="#0A5425"/>
<path fill-rule="evenodd" clip-rule="evenodd" d="M312.685 954.446C312.171 954.561 309.649 954.953 309.355 955.067L306.851 956.876C307.422 960.076 308.209 959.058 311.604 959.741C311.714 960.457 311.609 961.505 312.066 962.331C315.764 969.004 306.784 957.585 313.851 964.385C314.013 964.54 314.399 964.764 314.697 964.913C316.759 961.882 315.48 961.833 316.926 960.386C318.071 959.243 320.406 959.166 321.982 957.384C318.824 953.382 321.874 955.875 316.788 954.686C316.532 952.855 316.811 951.048 313.812 949.484C311.584 952.603 312.16 950.765 312.686 954.446L312.685 954.446Z" fill="#0A5425"/>
<path fill-rule="evenodd" clip-rule="evenodd" d="M518.796 198.251L545.713 184.693C543.167 197.952 532.601 202.418 518.796 198.251ZM468.402 42.5004C455.671 25.6758 480.934 8.97409 492.025 25.0244C494.627 28.7907 495.222 32.365 497.198 36.0725C500.028 41.3852 502.179 39.8481 497.929 46.2201C489.544 58.79 483.917 53.5899 482.548 60.5627C490.109 63.3994 498.568 52.4472 501.109 48.7034C508.046 38.4814 506.538 7.31857 526.36 15.3448C536.759 19.5559 533.447 29.9694 531.93 37.7987C526.827 37.5665 523.863 36.3896 520.267 34.3079C517.165 32.5154 514.205 29.2859 511.202 30.5185C510.379 36.4548 525.115 41.3663 530.427 41.7541L528.07 53.4461C521.306 52.8946 518.38 48.9968 513.681 50.8513C515.022 55.9177 522.803 57.0146 527.15 57.6317C528.119 76.7484 533.709 76.2762 538.579 84.7883C536.323 89.3576 529.841 94.3312 524.248 97.4417C517.547 101.168 507.876 101.878 502.86 104.72C504.332 107.531 503.039 109.396 515.649 105.469C519.518 104.264 522.668 103.014 526.245 101.008C533.558 96.9057 537.762 91.1021 543.456 88.1869C545.891 92.4638 549.396 95.159 552.251 99.4307C549.617 103.017 549.61 103.914 546.136 106.862C541.828 110.519 539.948 109.528 540.466 115.234C546.245 113.666 553.113 106.021 555.493 102.914C569.567 111.769 568.105 125.466 558.3 129.549C542.459 136.145 539.714 113.358 531.357 118.407C529.425 124.294 534.738 135.001 536.045 142.017C532.743 144.062 528.337 146.872 523.812 148.998C519.802 150.883 513.812 151.777 511.451 155.598C511.771 155.78 512.207 155.913 512.491 155.973C512.768 156.033 513.189 156.229 513.532 156.28C522.852 157.659 506.574 156.844 515.649 156.482C520.942 156.27 533.12 147.809 537.486 146.474L540.886 159.863C535.678 165.26 524.505 170.178 516.812 172.591C511.937 174.12 511.386 172.958 510.556 176.921C517.684 180.765 535.944 167.36 542.708 165.12L545.956 179.288C545.108 179.718 516.534 196.77 514.346 193.074C514.176 192.785 513.771 193.012 513.503 192.914C509.664 189.851 509.241 185.493 507.832 180.26C504.116 166.455 506.036 168.388 501.759 167.21C499.865 171.825 505.489 192.993 513.791 199.42C523.5 206.94 536.789 205.378 544.98 196.257C558.056 181.693 540.102 145.832 536.197 125.198C542.129 128.631 546.671 139.38 560.269 133.189C567.262 130.006 572.711 120.932 568.553 111.136C564.889 102.51 542.159 84.48 535.576 74.0875C523.383 54.843 543.002 35.0036 536.458 19.902C533.047 12.0329 522.978 7.20507 513.301 12.3022C504.002 17.1993 505.033 25.9067 502.831 31.3939C501.896 33.7198 502.349 32.6874 501.405 33.9532C494.895 25.7267 495.823 17.1968 484.216 14.7918C472.458 12.3558 464.552 19.7663 461.919 27.1845C457.805 38.7677 475.544 68.4281 479.181 80.8176C470.722 79.3544 464.732 73.0568 453.003 81.5701C448.29 84.9914 439.482 97.0872 446.279 105.367C452.336 102.191 445.79 100.996 450.046 91.7795C452.267 86.9689 454.753 84.1658 461.246 82.613C462.119 87.4687 461.612 95.8388 464.304 99.3004C469.206 97.0683 466.756 91.733 465.234 81.5966C474.597 81.6896 482.939 91.154 483.39 78.8946C488.544 78.1655 492.075 77.4944 496.916 75.6295C506.364 71.9879 505.407 72.059 506.464 69.107C506.166 68.9707 505.742 68.8722 505.517 68.8415C495.684 67.4836 510.418 67.6486 502.703 68.6002C500.928 68.8194 501.536 68.8597 500.017 69.4907C493.946 72.0092 492.01 74.1573 482.181 74.705C478.46 70.6422 471.805 53.0568 469.924 46.8005C476.07 45.7663 484.331 45.2513 487.256 39.9015C484.989 38.6793 487.407 39.2844 484.35 39.233C479.934 39.1596 480.057 41.86 468.402 42.5001L468.402 42.5004Z" fill="#F6F1D1"/>
<path fill-rule="evenodd" clip-rule="evenodd" d="M442.151 136.278C464.465 123.672 478.996 157.502 459.967 167.81C438.935 179.201 421.161 148.138 442.151 136.278V136.278ZM479.356 129.187C500.526 116.52 517.066 149.702 496.717 160.497C487.691 165.286 474.908 161.468 473.382 153.942C470.709 140.742 468.312 135.796 479.356 129.187V129.187ZM508.026 134.87C503.303 126.108 498.919 126.606 500.423 122.893C502.82 116.977 516.787 116.784 523.206 117.576C522.662 126.546 516.496 134.695 510.92 139.144L508.027 134.869L508.026 134.87ZM446.686 129.565C442.388 105.79 475.897 97.6006 482.197 123.254C473.843 125.529 470.624 130.586 466.861 135.628C460.444 130.939 457.619 129.841 446.687 129.565L446.686 129.565ZM479.519 108.087C481.702 104.083 484.872 99.5572 490.189 97.017C494.177 107.04 497.765 108.869 495.899 122.362C493.344 123.628 490.726 122.352 486.485 122.242C484.308 113.862 481.865 113.519 479.519 108.087V108.087ZM471.073 160.899C477.788 162.982 480.642 169.598 493.385 166.426C512.247 161.732 505.531 149.44 513.666 142.321C521.649 135.332 528.147 126.482 527.573 114.254C517.006 111.745 511.734 113.265 500.702 116.347C499.628 106.123 496.896 97.4526 490.412 92.0274C483.115 94.144 478.121 101.527 475.788 105.97C466.032 103.376 459.786 100.798 449.964 108.295C441.452 114.792 443.5 119.555 441.751 131.077C435.474 135.991 431.122 138.472 429.249 146.44C427.188 155.212 430.202 163.465 435.747 168.371C447.807 179.046 466.029 174.702 471.073 160.899L471.073 160.899Z" fill="#0A5425"/>
<path fill-rule="evenodd" clip-rule="evenodd" d="M442.15 158.472C447.196 156.521 444.643 157.019 448.534 154.747C451.612 157.372 449.624 157.385 453.772 155.91C452.729 151.498 451.918 153.91 451.507 150.721C450.915 146.143 453.013 150.101 452.141 145.472C447.303 144.962 449.321 146.645 446.986 147.085C443.429 147.754 447.15 144.264 440.931 147.068C441.316 150.519 442.026 148.129 442.735 150.943C443.777 155.082 442.075 151.838 442.15 158.472L442.15 158.472Z" fill="#0A5425"/>
<path fill-rule="evenodd" clip-rule="evenodd" d="M484.609 136.598C484.224 136.544 482.195 136.074 481.875 136.117C478.656 136.56 480.148 136.063 478.211 137.714C480.451 140.556 481.406 139.685 482.129 141.892C483.371 145.679 479.244 143.171 483.709 146.972C488.425 144.639 484.511 145.064 487.401 143.509C491.037 141.551 489.33 146.126 493.124 141.586C491.078 138.07 493.779 140.551 488.736 138.385C489.948 134.266 490.296 136.292 488.414 132.177C484.634 133.248 485.656 132.808 484.609 136.598L484.609 136.598Z" fill="#0A5425"/>
<path fill-rule="evenodd" clip-rule="evenodd" d="M459.825 115.82C459.3 115.772 456.778 115.376 456.464 115.395L453.527 116.354C453.095 119.575 454.155 118.846 457.18 120.532C457.066 121.249 456.646 122.214 456.829 123.14C458.314 130.623 453.247 117.009 457.902 125.64C458.01 125.837 458.309 126.168 458.547 126.402C461.436 124.144 460.233 123.707 462.051 122.771C463.49 122.031 465.737 122.671 467.782 121.455C465.995 116.68 468.14 119.985 463.659 117.301C463.974 115.478 464.791 113.843 462.412 111.438C459.338 113.729 460.448 112.155 459.826 115.82L459.825 115.82Z" fill="#0A5425"/>
<path fill-rule="evenodd" clip-rule="evenodd" d="M30.7359 606.406L48.2741 630.917C34.7812 630.441 28.7427 620.688 30.7359 606.406ZM176.88 532.651C191.546 517.484 211.935 539.876 197.782 553.304C194.461 556.455 191.021 557.592 187.662 560.115C182.848 563.729 184.697 565.618 177.747 562.399C164.037 556.048 168.31 549.687 161.209 549.407C159.569 557.315 171.693 563.988 175.783 565.923C186.95 571.204 217.51 564.921 212.629 585.741C210.068 596.665 199.269 594.994 191.299 594.699C190.744 589.622 191.45 586.512 192.954 582.638C194.248 579.298 196.984 575.875 195.304 573.098C189.312 573.198 186.726 588.515 187.16 593.823L175.244 593.292C174.749 586.524 178.15 583.034 175.595 578.676C170.795 580.78 170.908 588.638 170.967 593.027C152.227 596.926 153.553 602.377 145.892 608.498C141.03 606.972 135.118 601.333 131.184 596.284C126.471 590.236 124.283 580.79 120.703 576.271C118.151 578.158 116.109 577.167 121.93 589.023C123.716 592.66 125.435 595.581 127.967 598.807C133.146 605.401 139.528 608.662 143.284 613.84C139.433 616.904 137.309 620.782 133.527 624.26C129.578 622.209 128.691 622.341 125.243 619.361C120.967 615.667 121.657 613.657 116.098 615.047C118.538 620.515 127.148 626.126 130.584 628C124 643.268 110.241 643.931 104.698 634.87C95.7438 620.233 117.837 614.015 111.562 606.534C105.448 605.531 95.6865 612.428 88.9549 614.798C86.4262 611.85 82.9711 607.929 80.1748 603.785C77.6954 600.113 75.8908 594.332 71.752 592.586C71.6214 592.931 71.5569 593.382 71.5409 593.671C71.5245 593.955 71.3951 594.401 71.3976 594.748C71.4691 604.169 69.7699 587.96 71.5238 596.871C72.5478 602.068 82.7817 612.799 84.7723 616.908L72.066 622.327C65.932 618.011 59.3536 607.728 55.7853 600.498C53.5246 595.916 54.5883 595.193 50.5446 594.982C47.8429 602.617 63.8972 618.597 67.1518 624.936L53.6515 630.325C53.0971 629.553 31.8522 603.943 35.1672 601.212C35.4263 601 35.1396 600.635 35.1958 600.355C37.6317 596.09 41.8722 595.002 46.827 592.805C59.8957 587.009 58.2813 589.203 58.7865 584.796C53.9352 583.635 33.8845 592.449 28.8109 601.64C22.8742 612.391 26.4624 625.282 36.735 631.971C53.1371 642.651 85.8093 619.394 105.597 612.361C103.117 618.75 93.1949 624.892 101.404 637.376C105.625 643.796 115.43 647.785 124.469 642.169C132.429 637.221 146.747 611.988 156.003 603.884C173.143 588.876 195.764 605.21 209.679 596.42C216.93 591.839 220.151 581.147 213.626 572.37C207.357 563.935 198.912 566.293 193.151 564.961C190.709 564.396 191.799 564.684 190.403 563.946C197.53 556.248 206.101 555.853 206.692 544.014C207.29 532.021 198.751 525.35 191.016 523.889C178.938 521.606 152.36 543.697 140.677 549.197C140.822 540.613 146.123 533.726 135.907 523.445C131.801 519.315 118.494 512.473 111.359 520.463C115.429 525.959 115.602 519.307 125.364 522.094C130.459 523.549 133.611 525.575 136.144 531.751C131.481 533.36 123.132 534.147 120.126 537.34C123.086 541.84 127.98 538.599 137.762 535.535C139.111 544.801 131.042 554.5 143.225 553.059C144.738 558.04 145.945 561.426 148.532 565.922C153.584 574.697 153.366 573.762 156.446 574.353C156.535 574.037 156.567 573.604 156.563 573.376C156.391 563.451 158.495 578.036 156.368 570.559C155.878 568.839 155.932 569.446 155.075 568.042C151.652 562.43 149.232 560.849 147.179 551.22C150.621 546.919 166.973 537.638 172.865 534.816C174.833 540.73 176.613 548.813 182.349 550.881C183.208 548.453 182.982 550.935 182.562 547.907C181.955 543.532 179.306 544.069 176.88 532.651L176.88 532.651Z" fill="#F6F1D1"/>
<path fill-rule="evenodd" clip-rule="evenodd" d="M80.1806 521.14C96.0692 541.248 64.8768 560.811 51.7642 543.594C37.2733 524.564 65.2327 502.223 80.1806 521.14V521.14ZM92.9109 556.811C108.684 575.78 78.4413 597.228 64.6443 578.782C58.5234 570.599 60.3292 557.381 67.531 554.716C80.1629 550.044 84.681 546.915 92.9109 556.811V556.811ZM91.7062 586.014C99.637 579.999 98.4699 575.743 102.371 576.658C108.585 578.117 110.924 591.887 111.13 598.352C102.182 599.195 93.1818 594.356 87.9275 589.53L91.7066 586.014L91.7062 586.014ZM87.511 524.588C110.342 516.683 123.589 548.534 99.2096 558.705C95.6767 550.8 90.1848 548.398 84.6242 545.455C88.2699 538.393 88.9203 535.432 87.5108 524.588L87.511 524.588ZM113.784 553.726C118.077 555.266 123.036 557.703 126.364 562.565C117.074 568.047 115.818 571.875 102.199 572.107C100.556 569.776 101.413 566.993 100.87 562.786C108.815 559.346 108.778 556.879 113.784 553.726V553.726ZM60.3021 553.505C59.2769 560.46 53.1785 564.298 58.273 576.401C65.8125 594.316 76.926 585.79 85.2113 592.732C93.3448 599.546 103.09 604.605 115.083 602.156C115.937 591.329 113.624 586.353 108.882 575.927C118.818 573.293 126.966 569.259 131.329 562.018C128.115 555.133 120.052 551.335 115.302 549.713C116.365 539.674 117.951 533.106 109.032 524.554C101.303 517.143 96.9117 519.899 85.2576 519.944C79.4362 514.497 76.3155 510.579 68.1546 509.954C59.1699 509.267 51.479 513.515 47.4837 519.749C38.792 533.308 45.8875 550.644 60.3019 553.504L60.3021 553.505Z" fill="#0A5425"/>
<path fill-rule="evenodd" clip-rule="evenodd" d="M58.2501 524.552C60.9545 529.239 60.0694 526.792 62.9132 530.288C60.7928 533.732 60.4745 531.77 62.5699 535.642C66.7694 533.933 64.2613 533.503 67.3487 532.605C71.7811 531.317 68.1926 533.999 72.6322 532.425C72.392 527.566 71.0394 529.819 70.2458 527.579C69.0376 524.167 73.0587 527.307 69.3313 521.593C65.9807 522.506 68.4514 522.839 65.7794 523.972C61.8506 525.639 64.7938 523.458 58.2502 524.553L58.2501 524.552Z" fill="#0A5425"/>
<path fill-rule="evenodd" clip-rule="evenodd" d="M86.3965 563.141C86.3903 562.753 86.5424 560.675 86.4505 560.366C85.5182 557.253 86.2387 558.651 84.3096 556.991C81.8454 559.642 82.8529 560.451 80.7839 561.505C77.233 563.315 79.076 558.851 76.0075 563.848C79.0373 568.148 78.0157 564.347 79.997 566.963C82.4911 570.255 77.7073 569.271 82.7779 572.322C85.9371 569.76 83.9008 572.81 85.2651 567.494C89.5214 568.057 87.5737 568.714 91.3503 566.221C89.7098 562.651 90.3017 563.593 86.3962 563.141L86.3965 563.141Z" fill="#0A5425"/>
<path fill-rule="evenodd" clip-rule="evenodd" d="M103.115 535.456C103.081 534.929 103.084 532.377 103.017 532.069L101.617 529.315C98.3684 529.383 99.2519 530.319 98.0511 533.566C97.3258 533.565 96.3072 533.298 95.4209 533.622C88.2554 536.24 100.928 529.139 93.1148 535.067C92.9367 535.203 92.6556 535.55 92.4615 535.82C95.1369 538.327 95.3836 537.072 96.5881 538.725C97.5404 540.032 97.2545 542.351 98.7705 544.185C103.214 541.685 100.278 544.312 102.241 539.471C104.09 539.503 105.831 540.058 107.842 537.338C105.105 534.653 106.832 535.508 103.114 535.456L103.115 535.456Z" fill="#0A5425"/>
<path fill-rule="evenodd" clip-rule="evenodd" d="M676.562 981.471C686.201 995.362 687.446 994.463 705.339 1000.91C711.154 1003 719.745 1006.76 725.567 1007.56C733.597 1008.68 736.28 1006.77 742.553 1005.46L731.361 1028.28L670.467 1006.68L676.56 981.476L676.562 981.471ZM685.97 941.157C691.759 916.709 697.084 889.129 704.12 865.37L795.348 898.167C786.234 920.765 771.787 946.375 760.905 968.53C755.595 979.332 750.594 994.288 741.76 999.624C730.682 1006.3 722.785 1002.27 708.009 996.951C671.781 983.894 677.826 975.581 685.97 941.157V941.157ZM711.105 835.866L808.899 871.467L797.606 894.047L705.086 860.63L711.105 835.866V835.866ZM733.284 1033.9C739.086 1025.61 813.484 874.472 814.743 868.291L708.4 830.237C705.55 835.123 666.92 996.496 665.485 1009.09C672.583 1013.49 723.479 1031.4 733.289 1033.9L733.284 1033.9Z" fill="#F6F1D1"/>
<path fill-rule="evenodd" clip-rule="evenodd" d="M733.651 929.598L726.891 950.872C720.898 948.694 715.783 944.62 713.748 939.941L733.656 929.6L733.651 929.598ZM737.662 930.94C740.125 933.284 747.866 948.22 748.037 951.487C744.1 952.338 736.881 954.444 731.2 951.779L737.662 930.94V930.94ZM752.855 948.225C749.531 943.939 743.887 933.776 742.62 928.47L763.795 935.163C760.55 942.041 758.081 944.904 752.857 948.219L752.855 948.225ZM763.083 913.584C765.826 918.228 766.628 923.61 764.91 930.974L743.717 923.991L763.083 913.584ZM707.921 939.254C722.406 966.311 761.194 961.913 769.03 932.819C771.469 923.775 769.798 912.592 764.732 908.362C758.361 910.026 727.978 927.877 721.265 930.921C715.785 933.408 711.193 934.037 707.919 939.26L707.921 939.254Z" fill="#0A5425"/>
<path fill-rule="evenodd" clip-rule="evenodd" d="M697.789 981.454C693.911 977.149 691.371 971.598 692.056 964.308L713.959 966.53C709.438 972.368 702.534 976.193 697.783 981.452L697.789 981.454ZM696.86 986.574C701.595 984.314 720.442 968.382 722.67 963.897C716.94 961.672 694.573 959.863 688.577 960.649C685.147 969.311 691.107 983.303 696.858 986.58L696.86 986.574Z" fill="#0A5425"/>
<path fill-rule="evenodd" clip-rule="evenodd" d="M58.9181 463.554C65.9771 478.918 67.3609 478.251 83.849 487.728C89.2083 490.808 97.0099 496.006 102.6 497.82C110.311 500.327 113.287 498.91 119.692 498.723L104.68 519.229L48.5058 487.306L58.9151 463.559L58.9181 463.554ZM75.2366 425.509C85.2145 402.452 95.2839 376.229 106.37 354.068L190.45 402.324C177.522 422.979 158.815 445.665 144.224 465.573C137.106 475.279 129.565 489.13 119.934 492.837C107.857 497.475 100.787 492.124 87.1705 484.298C53.7872 465.104 61.1931 457.976 75.2366 425.509V425.509ZM118.41 326.242L208.464 378.408L193.394 398.663L108.15 349.57L118.41 326.242V326.242ZM105.59 525.097C112.752 517.956 212.453 382.169 214.774 376.304L116.732 320.226C113.072 324.538 46.7952 476.66 43.1794 488.806C49.3962 494.387 96.3724 520.926 105.595 525.1L105.59 525.097Z" fill="#F6F1D1"/>
<path fill-rule="evenodd" clip-rule="evenodd" d="M124.204 422.473L113.825 442.235C108.307 439.042 103.983 434.136 102.798 429.173L124.209 422.476L124.204 422.473ZM127.918 424.496C129.933 427.235 134.941 443.295 134.538 446.541C130.512 446.69 123.036 447.501 117.909 443.882L127.918 424.496V424.496ZM139.852 444.173C137.329 439.372 133.552 428.377 133.232 422.932L152.909 433.227C148.511 439.431 145.578 441.818 139.855 444.168L139.852 444.173ZM155.984 411.856C157.873 416.909 157.72 422.349 154.741 429.298L135.097 418.714L155.984 411.856ZM97.1819 427.477C106.708 456.651 145.667 459.109 158.474 431.836C162.458 423.358 162.769 412.055 158.522 407.004C151.959 407.527 118.92 419.786 111.779 421.607C105.947 423.098 101.317 422.913 97.1788 427.482L97.1819 427.477Z" fill="#0A5425"/>
<path fill-rule="evenodd" clip-rule="evenodd" d="M79.8211 467.253C76.7561 462.335 75.2269 456.426 77.1776 449.368L98.353 455.388C92.8802 460.345 85.4135 462.903 79.8158 467.249L79.8211 467.253ZM78.0106 472.131C83.0673 470.735 104.412 458.346 107.391 454.321C102.139 451.127 80.4335 445.432 74.3922 445.157C69.4996 453.085 72.919 467.903 78.0075 472.136L78.0106 472.131Z" fill="#0A5425"/>
<path fill-rule="evenodd" clip-rule="evenodd" d="M643.379 1167.5C632.809 1161.08 625.525 1155.81 618.689 1146.47C602.333 1124.1 598.007 1092.71 613.786 1066.64L748.121 1148.38C739.885 1167.3 712.645 1179.16 700.873 1180.8C680.433 1183.67 666.721 1181.69 643.382 1167.5L643.379 1167.5ZM673.07 1097.51C680.25 1087.12 695.315 1096.65 688.899 1107.47L673.07 1097.51ZM654.537 1086.62C661.57 1071.64 682.757 1067.43 696.545 1075.6C711.761 1084.62 716.838 1103.32 707.921 1118.16C703.105 1117.25 697.944 1113.14 693.341 1110.17C694.478 1102.72 696.609 1096.43 688.38 1091.22C680.827 1086.44 674.626 1089.56 668.898 1095.4L654.535 1086.62L654.537 1086.62ZM711.62 1121.23C713.272 1116.77 714.926 1113.66 715.801 1109.25C716.758 1104.45 715.686 1101.89 716.843 1097.21C733.688 1106.18 746.558 1124.29 743.712 1140.8L711.624 1121.23L711.62 1121.23ZM658.863 1074.66L657.876 1075.49L650.848 1083.73L612.501 1061.15C598.347 1079.37 598.502 1107.72 602.197 1121.59C614.688 1168.49 680.012 1206.18 729.666 1173.46C738.195 1167.84 747.571 1159.02 753.307 1148.49C751.277 1143.44 750.771 1146.89 748.827 1142.7L745.364 1121.46L744.626 1119.67C743.323 1117.82 733.751 1103.43 733.659 1103.19L731.826 1102.75C727.01 1098.44 716.135 1093.61 713.676 1089.38C706.312 1076.7 697.438 1065.58 677.513 1067.45C667.071 1068.43 664.558 1072.28 658.869 1074.66L658.863 1074.66Z" fill="#F6F1D1"/>
<path fill-rule="evenodd" clip-rule="evenodd" d="M657.876 1075.49L658.863 1074.66C661.383 1070.08 659.832 1061.44 659.476 1056.67C658.674 1045.93 659.508 1029.4 654.221 1022.27C647.967 1013.84 642.913 1015.54 635.761 1013.9C636.911 997.791 644.968 1001.93 649.145 995.375C643.61 990.685 637.227 998.561 633.653 1003.75C632.008 998.9 631.866 991.346 627.479 987.844C623.484 992.196 629.507 997.486 628.408 1004.97C623.078 1001.8 611.02 998.783 611.747 1004.6C613.312 1007.96 621.746 1001.86 631.45 1014.42C621.871 1024.99 612.568 1024.19 623.783 1049.23C629.949 1062.99 636.68 1085.94 646.413 1073.53C640.328 1070.79 644.176 1073.81 638.736 1071.81L636.244 1065.46C640.707 1063.98 645.562 1064.77 646.895 1059.87C642.845 1057.9 638.434 1060.38 634.323 1061.1C632.253 1058.45 632.636 1057.91 630.238 1055.15C634.955 1051.31 635.678 1053.73 637.552 1050.18C634.962 1047.35 632.835 1048.65 629.048 1049.56C610.506 1025.75 640.214 1008.05 651.272 1025.54C654.973 1031.39 654.237 1043.97 654.775 1051.01L655.804 1070.35C656.112 1074.69 655.041 1074.22 657.866 1075.49L657.876 1075.49Z" fill="#0A5425"/>
<path fill-rule="evenodd" clip-rule="evenodd" d="M731.828 1102.75L733.661 1103.19L743.994 1103.53C749.229 1103.41 782.298 1071.07 788.359 1065.56C795.668 1058.92 799.16 1053.2 805.506 1062.69C802.948 1070.8 779.915 1083.81 771.923 1088.96C752.01 1101.79 746.196 1102.38 744.628 1119.67L745.366 1121.46C745.642 1121.37 746.61 1122.52 749.305 1117.44C750.454 1115.28 750.655 1113.58 751.208 1111.54C753.31 1103.76 765.021 1099.12 777.481 1090.61C790.926 1081.43 813.696 1069.89 808.657 1059.39C800.823 1043.06 783.448 1064.21 770.479 1076.07C764.329 1081.69 758.514 1086.84 752.432 1092.55C748.567 1096.19 747.314 1098.51 742.971 1098.84C740.51 1099.03 739.828 1098.65 737.855 1098.9C735.233 1099.24 734.955 1099.75 732.067 1100.05L731.838 1102.75L731.828 1102.75Z" fill="#0A5425"/>
<path fill-rule="evenodd" clip-rule="evenodd" d="M661.611 1090.38C668.725 1092.41 663.865 1087.56 674.65 1083.66C684.212 1080.2 697.971 1085.84 700.299 1098.54C701.588 1105.59 697.753 1110.22 700.438 1114.14C703.257 1112.79 700.219 1118.23 703.87 1110.55C713.229 1090.85 682.084 1065.43 663.926 1085.42L661.609 1090.38L661.611 1090.38Z" fill="#0A5425"/>
<path fill-rule="evenodd" clip-rule="evenodd" d="M688.099 419.094C678.031 411.908 671.154 406.116 665.024 396.296C650.36 372.786 648.357 341.165 666.014 316.321L793.964 407.732C784.358 425.999 756.319 435.814 744.457 436.59C723.862 437.941 710.333 434.959 688.101 419.091L688.099 419.094ZM722.863 351.474C730.788 341.645 745.112 352.251 737.916 362.57L722.863 351.474ZM705.182 339.252C713.299 324.827 734.739 322.193 747.888 331.353C762.399 341.466 766.084 360.498 756.099 374.636C751.363 373.373 746.518 368.899 742.147 365.592C743.83 358.245 746.418 352.13 738.594 346.331C731.414 341.007 725 343.663 718.858 349.065L705.18 339.255L705.182 339.252ZM759.562 377.969C761.538 373.64 763.416 370.665 764.614 366.33C765.922 361.611 765.04 358.985 766.539 354.402C782.679 364.582 794.179 383.599 790.126 399.846L759.566 377.972L759.562 377.969ZM710.377 327.643L709.332 328.393L701.716 336.096L665.136 310.751C649.678 327.885 647.745 356.166 650.409 370.275C659.412 417.967 721.784 460.361 773.712 431.39C782.632 426.413 792.633 418.303 799.128 408.23C797.476 403.038 796.717 406.441 795.087 402.119L793.197 380.681L792.593 378.84C791.43 376.903 782.943 361.85 782.869 361.601L781.074 361.024C776.588 356.379 766.099 350.755 763.958 346.355C757.547 333.17 749.516 321.425 729.507 321.825C719.022 322.037 716.232 325.683 710.383 327.642L710.377 327.643Z" fill="#F6F1D1"/>
<path fill-rule="evenodd" clip-rule="evenodd" d="M709.332 328.393L710.377 327.642C713.227 323.263 712.317 314.526 712.313 309.75C712.305 298.972 714.354 282.549 709.606 275.053C703.989 266.185 698.824 267.511 691.813 265.343C694.146 249.365 701.876 254.084 706.525 247.857C701.35 242.771 694.404 250.156 690.457 255.069C689.174 250.109 689.588 242.565 685.472 238.75C681.167 242.796 686.784 248.515 685.137 255.899C680.055 252.341 668.252 248.448 668.549 254.298C669.862 257.767 678.722 252.305 687.474 265.547C677.143 275.38 667.925 273.904 677.265 299.696C682.401 313.874 687.424 337.257 698.044 325.593C692.177 322.421 695.793 325.713 690.515 323.322L688.497 316.798C693.057 315.657 697.841 316.795 699.531 312.009C695.637 309.748 691.055 311.892 686.903 312.311C685.033 309.52 685.455 309.008 683.267 306.072C688.254 302.591 688.797 305.057 690.928 301.656C688.553 298.643 686.336 299.781 682.492 300.41C665.754 275.301 696.684 259.841 706.425 278.094C709.685 284.204 708.024 296.691 708.043 303.752L707.643 323.123C707.632 327.467 706.599 326.919 709.323 328.391L709.332 328.393Z" fill="#0A5425"/>
<path fill-rule="evenodd" clip-rule="evenodd" d="M781.076 361.03L782.871 361.607L793.152 362.705C798.381 362.968 833.742 333.151 840.192 328.103C847.97 322.017 851.873 316.574 857.504 326.501C854.356 334.402 830.427 345.686 822.077 350.231C801.273 361.561 795.432 361.716 792.595 378.846L793.199 380.687C793.481 380.616 794.362 381.831 797.423 376.97C798.728 374.898 799.054 373.217 799.756 371.219C802.426 363.614 814.446 359.849 827.499 352.283C841.583 344.117 865.142 334.282 860.889 323.44C854.279 306.579 835.394 326.394 821.587 337.263C815.04 342.417 808.86 347.129 802.374 352.378C798.252 355.715 796.832 357.941 792.477 357.953C790.008 357.959 789.356 357.525 787.37 357.634C784.73 357.78 784.415 358.271 781.513 358.358L781.085 361.031L781.076 361.03Z" fill="#0A5425"/>
<path fill-rule="evenodd" clip-rule="evenodd" d="M711.961 343.517C718.905 346.075 714.416 340.872 725.46 337.777C735.25 335.032 748.557 341.666 749.942 354.513C750.709 361.635 746.543 365.969 748.933 370.078C751.843 368.942 748.413 374.141 752.62 366.745C763.403 347.795 734.215 320.146 714.635 338.744L711.959 343.52L711.961 343.517Z" fill="#0A5425"/>
<path fill-rule="evenodd" clip-rule="evenodd" d="M590.912 996.874C579.887 1002.48 571.574 1005.91 560.033 1006.81C532.407 1008.95 503.437 996.116 489.562 968.979L629.745 897.735C641.508 914.694 637.258 944.096 632.467 954.975C624.15 973.863 615.255 984.485 590.91 996.87L590.912 996.874ZM547.002 934.801C541.947 923.232 557.971 915.429 563.798 926.578L547.002 934.801ZM527.994 944.835C518.952 930.973 526.52 910.741 540.719 903.312C556.392 895.114 574.974 900.638 582.9 916.026C579.592 919.643 573.386 921.873 568.433 924.222C562.694 919.334 558.467 914.214 549.709 918.474C541.67 922.382 541.063 929.298 543.016 937.241L527.996 944.839L527.994 944.835ZM587.456 914.495C584.529 910.742 582.758 907.702 579.468 904.637C575.886 901.297 573.15 900.866 569.778 897.419C586.263 887.808 608.442 886.395 620.979 897.495L587.46 914.493L587.456 914.495ZM520.099 934.865L520.281 936.138L523.595 946.452L484.217 967.184C492.27 988.809 516.459 1003.59 530.203 1007.75C576.66 1021.79 643.074 986.065 641.371 926.626C641.078 916.416 638.506 903.8 632.573 893.386C627.205 892.452 629.873 894.697 625.286 894.146L605.4 885.917L603.489 885.602C601.234 885.739 583.962 886.311 583.707 886.262L582.366 887.587C576.174 889.42 566.34 896.124 561.449 895.99C546.793 895.584 532.667 897.281 523.778 915.211C519.121 924.608 521.065 928.766 520.101 934.859L520.099 934.865Z" fill="#F6F1D1"/>
<path fill-rule="evenodd" clip-rule="evenodd" d="M520.281 936.138L520.098 934.864C517.531 930.314 509.363 927.084 505.124 924.881C495.562 919.909 481.944 910.504 473.101 911.252C462.642 912.136 461.432 917.33 456.27 922.546C443.177 913.095 450.934 908.42 447.558 901.42C440.658 903.66 443.998 913.232 446.532 919.002C441.541 917.848 435.041 913.996 429.756 915.884C431.355 921.57 439.022 919.232 444.81 924.104C439.306 926.967 430.4 935.636 435.726 938.076C439.409 938.514 438.659 928.132 454.446 926.488C458.394 940.194 452.826 947.687 480.016 951.319C494.963 953.315 518.021 959.663 512.583 944.855C507.059 948.593 511.649 946.908 507.09 950.484L500.373 949.259C501.467 944.688 504.687 940.971 501.223 937.261C497.418 939.67 497.203 944.724 495.656 948.6C492.317 948.969 492.058 948.358 488.443 948.942C487.66 942.912 490.098 943.569 488.066 940.108C484.297 940.822 484.282 943.314 483.063 947.014C453.062 950.258 453.64 915.684 474.329 915.479C481.254 915.41 491.561 922.652 497.832 925.898L514.827 935.201C518.675 937.218 517.711 937.881 520.276 936.146L520.281 936.138Z" fill="#0A5425"/>
<path fill-rule="evenodd" clip-rule="evenodd" d="M582.372 887.588L583.713 886.263L589.437 877.653C592.086 873.137 581.979 828 580.482 819.947C578.678 810.237 575.654 804.261 587.06 803.854C592.612 810.296 591.564 836.732 591.738 846.237C592.175 869.922 589.613 875.173 603.495 885.604L605.407 885.918C605.474 885.635 606.959 885.416 604.062 880.455C602.827 878.341 601.487 877.275 600.039 875.729C594.527 869.848 596.742 857.447 596.063 842.376C595.327 826.112 597.489 800.675 585.909 799.438C567.902 797.51 576.749 823.413 580.01 840.68C581.556 848.868 582.88 856.525 584.539 864.703C585.594 869.9 586.912 872.188 584.911 876.056C583.776 878.248 583.089 878.626 582.268 880.438C581.178 882.847 581.468 883.352 580.205 885.967L582.378 887.581L582.372 887.588Z" fill="#0A5425"/>
<path fill-rule="evenodd" clip-rule="evenodd" d="M534.909 940.794C540.386 935.817 533.698 937.395 536.055 926.171C538.143 916.22 550.175 907.483 562.208 912.19C568.879 914.8 570.799 920.497 575.547 920.276C575.883 917.17 578.909 922.615 574.294 915.466C562.469 897.148 524.463 910.26 531.911 936.218L534.911 940.798L534.909 940.794Z" fill="#0A5425"/>
</svg>
