<svg width="585" height="1024" viewBox="0 0 585 1024" fill="none" xmlns="http://www.w3.org/2000/svg">
<mask id="mask0" mask-type="alpha" maskUnits="userSpaceOnUse" x="0" y="0" width="585" height="1024">
<rect width="585" height="1024" fill="#7BB34C"/>
</mask>
<g mask="url(#mask0)">
<path fill-rule="evenodd" clip-rule="evenodd" d="M23.3064 1018.85L62.1482 1012.18C68.3461 1028.17 80.4818 1038 90.2755 1044.29C85.1214 1050.08 60.4219 1052.83 48.1702 1048.05C37.9204 1044.06 26.8 1034.53 23.3066 1018.85L23.3064 1018.85ZM56.9267 995.196L59.9862 1008.17L50.5108 1010.11C49.9675 1002.44 51.6777 998.244 56.9267 995.196ZM44.6097 1008.87C41.9743 1003.67 21.6916 976.384 17.5949 974.966C15.9878 978.728 18.6 980.824 21.3677 984.281C24.0836 987.675 25.4625 989.832 28.1258 993.301C32.4448 998.925 38.6893 1005.91 41.5236 1011.36C37.9636 1011.18 40.8907 1013.47 33.1279 1004.86C28.7643 1000.02 13.4601 980.186 7.91118 980.58C7.2497 985.663 30.1293 1005.71 34.2115 1012.92L19.3062 1015.61C17.7549 1025.79 27.3808 1038.53 32.5742 1042.99C53.9318 1061.3 70.8491 1055.01 93.4117 1048.51C102.919 1045.77 140.536 1071.72 179.551 1027.42C192.644 1012.56 200.582 975.462 191.046 970.742C188.064 974.039 191.634 981.457 189.59 995.119C181.445 1049.52 104.878 1072.74 70.4349 1019.35C42.1843 975.56 74.5606 916.836 128.528 919.139C143.07 919.759 163.338 927.941 168.211 935.891C162.848 936.047 157.298 934.111 152.319 936.487C154.437 941.205 170.771 940.716 176.16 940.224C176.548 934.994 175.105 918.079 169.818 917.058C167.766 920.976 170.457 926.855 170.788 931.489C157.522 923.424 150.141 916.549 130.489 915.1C97.7638 912.686 66.8118 934.185 58.4418 965.573C57.3765 969.57 55.7102 989.266 55.4984 989.711C52.1704 996.707 52.5084 987.024 46.2802 1005.33C45.0729 1008.88 46.1413 1006.67 44.6097 1008.87L44.6097 1008.87Z" fill="#F6F1D1"/>
<path fill-rule="evenodd" clip-rule="evenodd" d="M117.103 953.099L122.84 985.553C124.076 985.704 123.955 985.991 125.934 985.55C128.499 984.98 144.195 976.671 145.814 972.968C142.115 969.82 135.959 975.76 126.593 980.54L120.987 951.235C120.069 945.983 119.66 948.543 118.321 947.861C116.294 949.921 116.164 947.662 117.103 953.099L117.103 953.099Z" fill="#0A5425"/>
<path fill-rule="evenodd" clip-rule="evenodd" d="M67.1095 995.011C76.627 999.277 75.771 992.365 75.7908 992.31C74.8436 991.911 74.3878 990.224 70.188 991.467C64.347 993.194 67.9131 993.835 67.1094 995.01L67.1095 995.011Z" fill="#0A5425"/>
<path fill-rule="evenodd" clip-rule="evenodd" d="M173.39 975.261C174.904 977.125 171.625 978.08 177.977 977.427C183.084 976.9 181.739 975.547 182.288 973.706C177.259 971.367 176.474 972.434 173.39 975.261V975.261Z" fill="#0A5425"/>
<path fill-rule="evenodd" clip-rule="evenodd" d="M116.184 935.624C119.137 932.565 118.918 928.844 114.611 926.624C111.317 930.183 112.389 933.779 116.184 935.624Z" fill="#0A5425"/>
<path fill-rule="evenodd" clip-rule="evenodd" d="M157.934 84.4939L170.94 47.2921C187.927 49.6247 202.41 43.7787 212.658 38.2626C215.226 45.5801 205.651 68.5133 195.534 76.9125C187.069 83.939 173.349 89.0466 157.934 84.4938L157.934 84.4939ZM153.554 43.6226L166.382 47.2371L163.488 56.4669C156.518 53.2234 153.675 49.6915 153.554 43.6226ZM159.538 61.0241C153.719 60.8109 120.016 65.3152 116.788 68.21C119.3 71.4402 122.399 70.1716 126.765 69.4279C131.05 68.6985 133.605 68.5384 137.93 67.8914C144.944 66.8418 154.08 64.7676 160.22 64.9312C158.335 67.9566 161.761 66.5095 150.467 69.1232C144.12 70.5936 119.349 74.3576 117.003 79.4016C121.127 82.4447 149.758 72.1591 158.036 72.0812L153.162 86.4221C161.313 92.7153 177.127 90.4775 183.54 88.095C209.916 78.2994 212.618 60.4533 217.871 37.5672C220.085 27.9241 261.023 7.6103 241.204 -47.99C234.552 -66.65 205.959 -91.5815 197.206 -85.5301C198.644 -81.3233 206.863 -80.8483 217.819 -72.4355C261.444 -38.9331 244.62 39.2877 181.228 43.5217C129.233 46.9937 93.5759 -9.79821 121.76 -55.8789C129.354 -68.2959 146.338 -82.0542 155.654 -82.4597C153.19 -77.6944 148.806 -73.7794 148.469 -68.2731C153.622 -67.837 161.116 -82.3589 163.298 -87.3107C158.912 -90.1864 143.419 -97.1268 139.963 -92.9982C142.394 -89.3039 148.841 -88.8064 153.054 -86.8487C139.568 -79.1578 129.975 -76.0364 119.178 -59.5521C101.199 -32.103 104.991 5.3915 128.382 27.9323C131.361 30.8022 147.778 41.8106 148.065 42.212C152.569 48.5148 144.265 43.5239 157.255 57.8483C159.776 60.6265 158.356 58.6176 159.537 61.024L159.538 61.0241Z" fill="#F6F1D1"/>
<path fill-rule="evenodd" clip-rule="evenodd" d="M158.33 34.6275C166.676 28.3726 160.217 25.7697 160.178 25.7256C159.37 26.3607 157.673 25.9407 156.723 30.2165C155.401 36.1623 157.691 33.3544 158.33 34.6274L158.33 34.6275Z" fill="#0A5425"/>
<path fill-rule="evenodd" clip-rule="evenodd" d="M232.221 -1.75982C231.333 -4.466 232.933 -3.60547 228.923 -5.25654C223.674 -7.41981 224.669 -5.78287 223.085 -3.20303C227.027 -0.939375 229.016 0.509457 232.221 -1.75988L232.221 -1.75982Z" fill="#0A5425"/>
<path fill-rule="evenodd" clip-rule="evenodd" d="M9.53622 937.371C14.7645 935.166 21.6892 928.901 27.315 925.464C31.1338 926.435 33.1251 928.643 36.4277 930.766C39.6236 932.818 43.4629 934.293 45.6878 936.383C40.9143 939.169 34.633 940.149 28.5196 940.477C25.1515 940.657 21.3122 940.567 17.9441 940.276L12.093 939.042C9.87631 938.006 11.04 938.747 9.54032 937.367L9.53622 937.371ZM-16.798 927.045C-11.8524 922.837 8.6225 907.918 13.4739 905.984C16.7313 913.642 21.6851 916.884 23.9018 922.485L5.20524 935.441C-0.436925 938.288 -13.77 931.216 -16.7939 927.049L-16.798 927.045ZM2.99263 882.707C8.1349 879.249 9.39691 879.134 14.4777 883.53C15.5308 897.437 0.0711588 895.581 2.99263 882.707ZM42.9139 885.022C45.3682 882.162 57.5294 873.717 60.9549 872.443C63.5895 878.085 66.7363 883.723 68.1254 890.992L62.4177 894.753C61.6719 894.434 44.3029 885.948 42.9139 885.018V885.022ZM-50.5731 884.665C-53.2282 875.418 -54.7975 863.957 -47.0288 858.561L-9.69301 832.915C-3.3338 831.411 11.2653 834.456 16.3216 837.164C14.4204 839.799 6.81552 844.715 3.39827 847.1C-6.91906 854.291 -7.52547 852.824 -7.87785 858.36C-1.65795 858.167 10.7695 847.407 16.2109 843.535C21.2221 839.971 22.4841 838.487 28.999 842.462C33.1866 845.015 37.0423 846.678 40.1194 850.005C35.8704 855.602 19.3291 863.99 17.9564 867.231C14.5884 875.172 28.913 864.465 31.7115 862.564C35.6082 859.917 41.1192 855.34 44.8274 853.816C49.396 857.577 53.981 862.207 57.3819 867.518C54.485 871.644 46.7778 875.766 42.373 879.064C32.7605 886.259 33.7725 881.916 20.3125 884.461L17.6696 880.625C15.2644 877.224 12.2938 874.778 6.55329 875.831C1.2799 876.798 3.44334 878.831 -1.20314 877.438C-8.50886 875.245 -27.988 855.717 -34.0236 859.712C-32.864 864.207 -5.68163 880.367 -2.80934 881.514C-0.600821 901.903 2.80005 893.479 11.712 899.035C10.1467 903.399 11.925 900.752 7.64731 903.911L-21.7067 924.034C-26.0254 921.846 -26.3941 921.235 -29.8278 917.67C-33.6794 913.671 -34.212 914.302 -35.7117 910.705L-15.4048 896.028C-11.1066 892.959 -11.3934 894.171 -10.9304 889.386C-18.1419 889.845 -32.1551 903.284 -39.2191 906.652C-43.0133 903.534 -47.5164 895.04 -48.7333 889.246C-43.5993 886.714 -28.8977 877.687 -28.8403 872.271C-34.5071 872.205 -45.0129 881.728 -50.5731 884.67V884.665ZM-46.9428 852.259C-43.8082 845.101 -33.2614 836.578 -22.6409 834.804C-25.2059 837.996 -42.5093 850.415 -46.9428 852.259ZM71.0264 883.805L70.4322 880.711C59.7461 863.269 63.6141 864.039 47.966 850.12L46.032 848.022C27.651 836.996 9.29857 823.077 -20.4119 829.108C-85.6348 842.347 -57.0634 933.781 13.4534 944.385C24.2665 946.012 45.6387 946.893 51.2276 937.555C52.7559 931.003 41.1971 930.139 28.9212 919.6C7.11874 900.883 13.9942 876.909 48.7568 892.782C52.8174 894.639 57.7343 897.662 61.0532 900.322C62.979 901.866 69.1989 909.172 73.1652 903.817C75.5991 898.257 72.9726 889.464 71.0304 883.809L71.0264 883.805Z" fill="#F6F1D1"/>
<path fill-rule="evenodd" clip-rule="evenodd" d="M46.0236 848.013L47.9576 850.111C50.9118 848.079 49.0639 850.894 50.4857 846.292C51.5633 842.797 51.9362 837.45 50.6537 834.635C47.9699 835.172 49.1336 835.446 48.3182 835.93C38.7425 841.654 27.5606 821.011 32.1128 809.256C36.6897 797.443 41.5082 801.368 45.6835 795.947C51.1208 788.883 46.3391 786.88 56.7097 781.348C68.6455 774.981 71.8948 781.217 78.6392 780.606C82.3432 780.27 85.1787 773.334 96.2622 773.362C113.914 773.407 120.052 787.306 119.269 802.552C132.135 807.301 136.749 822.011 131.168 832.443C126.993 840.245 127.649 833.345 128.095 844.137C128.87 862.957 107.665 873.073 93.6849 861.707C93.2793 857.761 96.127 861.408 94.1479 855.893C89.6326 857.163 72.3865 875.597 70.4238 880.703L71.0179 883.796C73.5379 882.329 71.3662 883.825 73.3453 882.124L89.1778 865.177C99.2042 868.275 103.048 874.2 117.028 868.472C137.45 860.105 129.267 844.928 134.262 835.557C142.141 820.769 136.56 808.526 124.239 799.803C122.908 790.502 123.408 785.056 117.368 778.644C113.32 774.35 107.329 769.703 98.5322 769.076C85.9449 768.183 81.3967 775.419 77.5165 775.8C69.0922 776.628 66.7443 771.248 54.2431 777.677C43.7004 783.098 47.5929 786.675 41.7664 793.198C35.9112 799.758 33.2519 794.8 28.2367 807.756C25.4463 814.963 26.4256 823.548 29.9822 829.808C34.3664 837.524 38.6318 838.114 46.3063 842.994L46.0277 848.009L46.0236 848.013Z" fill="#0A5425"/>
<path fill-rule="evenodd" clip-rule="evenodd" d="M58.8326 810.169C62.6391 807.567 60.2626 805.842 63.4914 800.974C64.9173 798.827 68.523 795.414 72.2066 794.451C87.0106 790.583 86.0068 803.408 93.2142 801.581C92.9888 790.956 71.2642 783.007 60.4101 797.897C58.2549 800.851 54.7311 807.399 58.8367 810.169H58.8326Z" fill="#0A5425"/>
<path fill-rule="evenodd" clip-rule="evenodd" d="M75.0779 858.122C75.6638 852.366 78.6385 848.53 76.3809 844.38C71.3082 846.457 68.1942 861.888 69.8168 866.993C74.619 866.457 83.9365 856.094 87.8209 853.333C91.5291 850.694 91.8609 851.808 91.5618 846.641C84.6618 847.391 81.2199 855.033 75.0779 858.127V858.122Z" fill="#0A5425"/>
<path fill-rule="evenodd" clip-rule="evenodd" d="M63.5563 854.73C66.8178 849.719 70.4195 845.334 70.3007 840.844C63.9742 841.028 66.5269 844.888 61.7616 848.452C61.5363 844.654 61.4379 840.876 61.2863 837.082C61.0446 831.063 62.0484 830.321 57.697 829.231C56.1154 833.177 56.4677 853.689 58.8361 858.188C62.9663 857.553 60.6676 859.167 63.5604 854.73H63.5563Z" fill="#0A5425"/>
<path fill-rule="evenodd" clip-rule="evenodd" d="M552.689 119.519C555.726 114.726 557.84 105.631 560.5 99.5982C564.191 98.2176 567.086 98.8957 571.009 98.7553C574.805 98.6184 578.8 97.6401 581.82 98.0874C579.488 103.099 574.887 107.486 570.053 111.242C567.389 113.312 564.185 115.427 561.252 117.11L555.743 119.434C553.331 119.847 554.71 119.792 552.69 119.514L552.689 119.519ZM525.169 126.059C526.831 119.782 535.139 95.8493 538.021 91.4935C545.064 95.9256 550.982 95.7621 555.998 99.0983L548.031 120.405C545.021 125.962 530.036 127.758 525.175 126.06L525.169 126.059ZM516.134 78.3526C518.385 72.579 519.357 71.7649 526.038 72.478C534.835 83.2999 521.078 90.5934 516.134 78.3526ZM550.245 57.4831C550.629 53.734 555.801 39.861 557.888 36.8605C563.27 39.992 569.071 42.828 574.358 48.0061L571.815 54.3513C571.021 54.5141 551.914 57.4514 550.243 57.4798L550.245 57.4831ZM473.254 110.515C465.798 104.434 457.972 95.9155 461.275 87.0518L477.313 44.6909C481.679 39.8285 495.407 34.0018 501.105 33.3423C501.046 36.5907 497.604 44.9671 496.158 48.875C491.785 60.6665 490.45 59.8075 493.318 64.5553C498.317 60.8493 502.387 44.9229 504.648 38.6387C506.731 32.8524 506.921 30.9142 514.539 30.4627C519.435 30.1708 523.551 29.3379 527.976 30.3155C527.679 37.3364 518.876 53.6607 519.598 57.1058C521.361 65.5493 527.019 48.5845 528.234 45.4266C529.924 41.0299 531.84 34.1271 534.017 30.76C539.915 31.2436 546.322 32.4313 552.144 34.8532C552.118 39.8946 548.139 47.6765 546.402 52.8982C542.611 64.291 540.965 60.1463 531.361 69.9138L527.002 68.2712C523.087 66.8498 519.252 66.535 515.137 70.6743C511.357 74.4765 514.294 74.9118 509.682 76.4178C502.431 78.7845 475.293 73.8554 472.614 80.5794C476.131 83.6099 507.675 81.3787 510.689 80.6827C524.132 96.1697 522.121 87.3104 532.61 86.7906C533.813 91.2677 533.764 88.0793 532.052 93.1141L519.42 126.385C514.624 127.052 513.973 126.761 509.12 125.791C503.675 124.703 503.597 125.525 500.314 123.426L508.621 99.7877C510.401 94.8153 510.857 95.9751 508.508 91.7801C502.846 96.2704 499.002 115.302 495.121 122.098C490.226 121.701 481.683 117.293 477.378 113.228C480.151 108.22 487.078 92.42 484.035 87.9381C479.343 91.1166 476.146 104.93 473.257 110.518L473.254 110.515ZM457.751 81.8266C456.243 74.1592 460.045 61.1431 467.756 53.6279C467.47 57.7127 460.341 77.7833 457.751 81.8266ZM572.641 40.4483L570.389 38.2462C551.662 30.0146 555.279 28.441 534.487 25.9341L531.701 25.3141C510.314 26.742 487.301 25.7776 466.338 47.6784C420.317 95.7553 495.939 154.559 559.908 123.047C569.717 118.215 587.774 106.748 587.038 95.8901C584.556 89.6369 574.569 95.5199 558.475 93.866C529.891 90.9284 521.864 67.3151 559.471 60.5246C563.865 59.733 569.628 59.4122 573.871 59.7033C576.334 59.8736 585.61 62.3265 585.813 55.6654C584.641 49.7101 577.468 43.9859 572.647 40.4493L572.641 40.4483Z" fill="#F6F1D1"/>
<path fill-rule="evenodd" clip-rule="evenodd" d="M531.689 25.3116L534.474 25.9316C535.742 22.5772 535.829 25.9434 534.373 21.3529C533.264 17.8675 530.52 13.2628 527.861 11.6823C525.963 13.654 527.076 13.2157 526.682 14.0779C522.081 24.2415 501.122 13.6642 498.156 1.41203C495.177 -10.9013 501.374 -10.4257 501.712 -17.2598C502.148 -26.1634 497.078 -25.0816 502.441 -35.5404C508.613 -47.5786 514.839 -44.3096 520.03 -48.6581C522.881 -51.0468 521.253 -58.362 530.373 -64.6604C544.897 -74.6919 557.866 -66.7772 565.92 -53.8078C579.197 -57.2459 591.376 -47.7954 592.743 -36.0436C593.764 -27.2541 590.366 -33.2956 596.889 -24.6856C608.26 -9.66957 596.614 10.7347 578.648 9.3732C576.064 6.36361 580.483 7.73457 575.711 4.33346C572.727 7.95232 569.077 32.9308 570.377 38.2437L572.629 40.4458C573.862 37.8036 572.932 40.2707 573.587 37.7452L576.925 14.7947C586.927 11.6199 593.464 14.2942 601.679 1.61481C613.681 -16.906 598.303 -24.7045 597.06 -35.2504C595.097 -51.8908 583.53 -58.7637 568.434 -58.901C562.035 -65.7811 559.34 -70.539 550.721 -72.361C544.947 -73.579 537.376 -73.9785 529.793 -69.4755C518.944 -63.0294 519.336 -54.4917 516.366 -51.9654C509.919 -46.4804 504.922 -49.5601 498.321 -37.1489C492.753 -26.6828 497.991 -25.9651 496.926 -17.2837C495.858 -8.55576 490.846 -11.1112 494.117 2.39121C495.936 9.90273 501.637 16.3949 508.129 19.5087C516.131 23.3452 519.971 21.3968 529.058 21.0276L531.69 25.3059L531.689 25.3116Z" fill="#0A5425"/>
<path fill-rule="evenodd" clip-rule="evenodd" d="M561.32 17.0423C558.517 11.9795 558.773 7.13263 554.551 5.01116C551.57 9.61088 557.813 24.0616 562.058 27.3295C565.697 24.1494 567.439 10.3234 569.054 5.83941C570.595 1.55689 571.503 2.28299 568.31 -1.79029C563.071 2.76138 564.602 11.0013 561.322 17.0456L561.32 17.0423Z" fill="#0A5425"/>
<path fill-rule="evenodd" clip-rule="evenodd" d="M549.922 20.8274C549.742 14.851 550.2 9.19559 547.541 5.57478C542.449 9.33482 546.748 11.0491 544.867 16.6952C542.515 13.7039 540.28 10.657 537.991 7.62702C534.359 2.82099 534.761 1.63922 530.565 3.22607C531.516 7.36919 543.506 24.0159 548.017 26.3603C551.047 23.4828 550.08 26.12 549.925 20.8251L549.922 20.8274Z" fill="#0A5425"/>
<path fill-rule="evenodd" clip-rule="evenodd" d="M191.917 230.417C197.45 229.161 205.365 224.205 211.505 221.805C215.095 223.429 216.669 225.952 219.549 228.62C222.337 231.2 225.859 233.325 227.684 235.771C222.496 237.679 216.14 237.544 210.064 236.797C206.716 236.385 202.952 235.624 199.687 234.748L194.142 232.51C192.141 231.102 193.157 232.035 191.922 230.413L191.917 230.417ZM167.796 215.642C173.402 212.364 196.172 201.259 201.287 200.204C203.154 208.314 207.464 212.372 208.666 218.275L187.991 227.759C181.937 229.575 170.048 220.279 167.8 215.647L167.796 215.642ZM195.041 175.451C200.709 172.946 201.972 173.054 206.205 178.272C204.808 192.149 189.912 187.616 195.041 175.451ZM233.941 184.717C236.858 182.331 250.309 176.145 253.905 175.49C255.512 181.506 257.623 187.608 257.719 195.007L251.441 197.712C250.762 197.267 235.147 185.872 233.942 184.713L233.941 184.717ZM141.959 168.005C140.964 158.435 141.424 146.877 150.017 142.924L191.265 124.208C197.789 123.84 211.631 129.392 216.135 132.944C213.802 135.205 205.454 138.715 201.672 140.465C190.255 145.74 189.915 144.189 188.599 149.578C194.757 150.477 208.876 142.058 214.911 139.198C220.468 136.565 221.971 135.326 227.689 140.379C231.366 143.625 234.871 145.938 237.318 149.752C232.155 154.519 214.401 159.882 212.482 162.833C207.777 170.062 223.754 162.027 226.842 160.645C231.142 158.721 237.369 155.179 241.286 154.328C245.126 158.831 248.83 164.192 251.249 170.015C247.675 173.571 239.365 176.28 234.451 178.757C223.728 184.159 225.484 180.06 211.787 180.209L209.856 175.971C208.083 172.201 205.586 169.273 199.75 169.305C194.389 169.334 196.163 171.714 191.832 169.529C185.023 166.092 169.262 143.456 162.62 146.333C162.975 150.962 186.91 171.63 189.537 173.262C188.144 193.723 192.966 186.024 200.768 193.054C198.463 197.076 200.678 194.781 195.913 197.143L163.49 211.818C159.621 208.908 159.365 208.242 156.608 204.131C153.516 199.52 152.881 200.048 152.034 196.243L174.596 185.347C179.365 183.077 178.871 184.221 180.164 179.59C172.984 178.78 156.835 189.56 149.29 191.64C146.1 187.906 143.153 178.755 142.969 172.837C148.467 171.243 164.521 164.928 165.526 159.605C159.958 158.549 147.948 166.086 141.959 168.009L141.959 168.005ZM151.205 136.734C155.544 130.235 167.419 123.69 178.187 123.802C175.103 126.495 155.893 135.695 151.205 136.734ZM261.833 188.439L261.789 185.289C254.321 166.246 257.994 167.681 245.023 151.238L243.486 148.834C227.319 134.761 211.685 117.845 181.378 118.584C114.845 120.204 126.973 215.227 194.546 238.009C204.908 241.503 225.796 246.11 232.933 237.895C235.584 231.711 224.355 228.837 214.113 216.313C195.922 194.069 206.888 171.668 238.336 193.381C242.009 195.919 246.321 199.756 249.123 202.956C250.749 204.813 255.594 213.095 260.436 208.516C263.806 203.468 262.759 194.351 261.836 188.444L261.833 188.439Z" fill="#F6F1D1"/>
<path fill-rule="evenodd" clip-rule="evenodd" d="M243.48 148.824L245.017 151.228C248.281 149.744 245.969 152.192 248.174 147.91C249.847 144.658 251.15 139.459 250.38 136.463C247.643 136.521 248.741 136.995 247.853 137.329C237.424 141.289 230.027 119.007 236.566 108.23C243.14 97.4003 247.197 102.108 252.257 97.5019C258.846 91.4985 254.489 88.6889 265.668 85.0577C278.534 80.8775 280.641 87.5862 287.389 88.1654C291.094 88.4828 295.1 82.1492 306.007 84.1171C323.379 87.2507 326.99 102.009 323.551 116.883C335.387 123.81 337.355 139.101 330.035 148.395C324.559 155.345 326.412 148.667 324.963 159.371C322.432 178.035 299.784 184.285 288.009 170.647C288.3 166.691 290.466 170.78 289.482 165.004C284.814 165.464 264.608 180.596 261.782 185.279L261.826 188.429C264.564 187.426 262.164 188.518 264.41 187.19L282.964 173.276C292.293 178.08 295.041 184.586 309.808 181.393C331.378 176.729 325.978 160.355 332.536 152.002C342.882 138.822 339.53 125.791 328.926 115.046C329.242 105.655 330.687 100.381 325.863 93.0109C322.629 88.0746 317.544 82.4514 308.993 80.2946C296.756 77.2123 291.011 83.5407 287.124 83.2368C278.685 82.5774 277.315 76.8696 263.882 81.0114C252.553 84.5036 255.76 88.7067 248.881 94.1094C241.968 99.5434 240.218 94.1967 233.013 106.075C229.004 112.683 228.466 121.306 230.872 128.093C233.838 136.456 237.934 137.784 244.636 143.931L243.484 148.821L243.48 148.824Z" fill="#0A5425"/>
<path fill-rule="evenodd" clip-rule="evenodd" d="M262.714 113.805C266.917 111.91 264.879 109.795 268.91 105.568C270.69 103.703 274.837 100.974 278.632 100.671C293.885 99.4531 290.652 111.904 298.068 111.367C299.705 100.866 279.707 89.2381 266.415 101.999C263.776 104.53 259.16 110.36 262.718 113.806L262.714 113.805Z" fill="#0A5425"/>
<path fill-rule="evenodd" clip-rule="evenodd" d="M270.316 163.862C271.901 158.296 275.501 155.041 274.004 150.559C268.646 151.717 262.88 166.364 263.584 171.675C268.406 171.987 279.393 163.415 283.701 161.376C287.814 159.427 287.945 160.582 288.555 155.443C281.63 154.973 276.904 161.895 270.316 163.866L270.316 163.862Z" fill="#0A5425"/>
<path fill-rule="evenodd" clip-rule="evenodd" d="M259.567 158.505C263.655 154.142 267.968 150.456 268.637 146.014C262.376 145.088 264.214 149.335 258.898 152.011C259.341 148.231 259.905 144.495 260.42 140.733C261.236 134.764 262.354 134.21 258.26 132.375C256.012 135.983 252.77 156.24 254.314 161.084C258.492 161.181 255.946 162.369 259.571 158.506L259.567 158.505Z" fill="#0A5425"/>
<path fill-rule="evenodd" clip-rule="evenodd" d="M669.033 641.287C668.854 635.616 665.495 626.903 664.307 620.418C666.585 617.203 669.362 616.138 672.529 613.818C675.593 611.573 678.348 608.519 681.098 607.194C681.983 612.649 680.641 618.863 678.751 624.686C677.709 627.894 676.246 631.445 674.765 634.484L671.512 639.501C669.748 641.198 670.858 640.378 669.031 641.282L669.033 641.287ZM649.938 662.155C647.787 656.028 641.219 631.56 641.156 626.338C649.473 626.049 654.278 622.59 660.301 622.533L665.677 644.636C666.308 650.924 654.918 660.827 649.943 662.152L649.938 662.155ZM615.667 627.758C614.287 621.717 614.633 620.498 620.562 617.336C633.918 621.348 626.633 635.109 615.667 627.758ZM632.168 591.333C630.38 588.015 626.868 573.632 626.909 569.978C633.121 569.546 639.513 568.634 646.796 569.949L648.256 576.627C647.69 577.208 633.531 590.369 632.164 591.332L632.168 591.333ZM598.254 678.453C588.67 677.609 577.41 674.956 575.165 665.768L564.642 621.712C565.523 615.237 573.608 602.706 577.952 598.96C579.728 601.68 581.585 610.544 582.583 614.59C585.588 626.801 584.001 626.84 589.041 629.158C591.095 623.284 585.518 607.821 583.858 601.352C582.332 595.394 581.401 593.684 587.45 589.031C591.337 586.04 594.274 583.04 598.485 581.363C602.182 587.339 604.068 605.789 606.599 608.234C612.8 614.23 607.954 597.015 607.185 593.721C606.114 589.133 603.822 582.346 603.732 578.338C608.883 575.425 614.852 572.809 621.029 571.543C623.839 575.729 624.918 584.402 626.414 589.698C629.676 601.253 625.986 598.749 623.525 612.224L618.997 613.313C614.959 614.336 611.609 616.23 610.53 621.966C609.538 627.234 612.212 625.945 609.243 629.781C604.573 635.812 579.351 646.976 580.911 654.044C585.522 654.577 610.368 635.013 612.471 632.745C632.292 638.007 625.651 631.808 634.038 625.486C637.548 628.514 635.717 625.904 637.128 631.031L645.364 665.654C641.77 668.899 641.068 669.023 636.508 670.947C631.392 673.105 631.79 673.829 627.894 673.936L621.491 649.713C620.17 644.599 621.199 645.302 616.899 643.151C614.737 650.046 622.246 667.952 622.852 675.754C618.579 678.175 609.034 679.327 603.19 678.381C602.671 672.68 599.528 655.717 594.493 653.718C592.396 658.983 597.51 672.208 598.258 678.454L598.254 678.453ZM569.314 663.424C563.76 657.927 559.595 645.023 561.754 634.474C563.811 638.014 569.186 658.624 569.314 663.424ZM641.13 564.66L638.03 564.103C617.913 567.81 620.021 564.477 601.41 574.081L598.758 575.133C581.865 588.326 562.282 600.454 557.239 630.348C546.166 695.973 641.761 702.152 676.987 640.151C682.389 630.644 690.888 611.015 684.181 602.445C678.616 598.665 673.657 609.142 659.412 616.813C634.113 630.437 614.208 615.408 641.509 588.668C644.7 585.545 649.288 582.042 652.962 579.9C655.096 578.658 664.148 575.477 660.575 569.852C656.26 565.583 647.11 564.876 641.136 564.657L641.13 564.66Z" fill="#F6F1D1"/>
<path fill-rule="evenodd" clip-rule="evenodd" d="M598.746 575.137L601.399 574.086C600.563 570.599 602.527 573.334 598.743 570.355C595.868 568.093 591.012 565.825 587.924 566.011C587.461 568.708 588.135 567.721 588.294 568.655C590.196 579.648 566.914 582.669 557.579 574.197C548.198 565.683 553.593 562.596 550.033 556.752C545.394 549.14 541.806 552.883 540.369 541.218C538.714 527.791 545.701 526.999 547.554 520.485C548.571 516.908 543.116 511.77 547.124 501.436C553.506 484.979 568.682 484.243 582.63 490.45C591.683 480.149 607.069 481.127 614.8 490.082C620.581 496.781 614.377 493.691 624.61 497.151C642.451 503.188 644.276 526.611 628.646 535.576C624.818 534.537 629.244 533.189 623.386 533.055C622.95 537.725 633.959 560.442 638.019 564.108L641.119 564.664C640.655 561.786 641.271 564.35 640.395 561.892L630.266 541.029C636.759 532.784 643.669 531.325 643.345 516.221C642.872 494.156 625.769 496.341 618.817 488.314C607.847 475.648 594.416 476.459 581.849 484.824C572.691 482.726 567.788 480.303 559.634 483.636C554.173 485.872 547.684 489.794 543.939 497.778C538.584 509.205 543.704 516.049 542.665 519.807C540.412 527.966 534.548 528.225 536.057 542.201C537.329 553.987 542.065 551.639 546.06 559.42C550.079 567.241 544.497 567.942 554.787 577.276C560.511 582.469 568.874 584.639 575.994 583.569C584.77 582.248 586.853 578.48 594.164 573.07L598.744 575.132L598.746 575.137Z" fill="#0A5425"/>
<path fill-rule="evenodd" clip-rule="evenodd" d="M568.029 549.589C566.968 545.102 564.504 546.7 561.121 541.938C559.63 539.836 557.74 535.245 558.164 531.462C559.872 516.256 571.48 521.8 572.364 514.417C562.367 510.811 547.145 528.23 557.143 543.709C559.126 546.781 563.97 552.422 568.03 549.585L568.029 549.589Z" fill="#0A5425"/>
<path fill-rule="evenodd" clip-rule="evenodd" d="M611.313 561.187C607.807 556.343 605.01 551.407 600.776 549.905C598.675 555.875 603.195 554.879 604.81 560.607C601.184 559.453 597.623 558.188 594.027 556.966C588.323 555.03 587.992 553.826 585.411 557.496C588.526 560.389 607.795 567.428 612.845 566.834C613.735 562.752 614.416 565.477 611.314 561.183L611.313 561.187Z" fill="#0A5425"/>
<path fill-rule="evenodd" clip-rule="evenodd" d="M330.411 966.408L326.358 966.95C330.472 982.189 333.148 988.217 342.774 997.814C370.31 1025.28 355.863 1069.26 320.815 1077.13C289.086 1084.25 254.724 1056.51 266.745 1015.83C270.466 1003.23 270.756 996.637 266.741 981.229L263.26 982.484C265.725 1003.13 266.498 999.949 261.841 1017.7C251.774 1056.09 285.108 1089.41 321.801 1081.08C346.259 1075.52 361.035 1053.71 361.333 1032.91C361.54 1018.75 356.517 1007.19 348.476 997.964C337.437 985.28 336.483 986.406 330.407 966.414L330.411 966.408Z" fill="#F6F1D1"/>
<path fill-rule="evenodd" clip-rule="evenodd" d="M379.86 966.388C387.472 970.615 395.363 973.083 397.925 985.854C399.487 993.644 394.733 1007.14 391.718 1012.84C385.483 1013.36 383.491 1010.36 378.704 1013.29C380.805 1016.6 379.603 1015.38 383.635 1016.37C387.359 1017.29 386.849 1016.74 389.822 1017.96L385.717 1030.89C374.383 1030.12 370.659 1026.92 366.788 1030.76C369.752 1034.3 377.35 1034.36 383.966 1034.77C383.051 1040.07 380.824 1043.63 380.292 1048.34C375.97 1048.46 373.438 1047.13 370.71 1049.02C372.438 1054.54 371.4 1050.49 377.661 1053.34L363.908 1094.39C362.487 1098.45 361.445 1105.45 357.386 1106.9C351.511 1101.4 358.139 1076.57 351.994 1071.93C347.374 1075.32 350.892 1092.86 351.006 1099.03C351.119 1104.99 351.672 1110.6 357.11 1110.95C363.942 1111.39 364.344 1106.47 365.609 1102.19C371.816 1081.17 390.013 1030.66 398.24 1007.05C401.157 998.678 404.967 990.795 400.254 979.478C396.705 970.958 388.144 963.623 380.401 963.871L379.85 966.39L379.86 966.388Z" fill="#F6F1D1"/>
<path fill-rule="evenodd" clip-rule="evenodd" d="M261.391 978.759C261.498 941.176 314.511 930.994 330.018 961.819C324.852 963.407 321.655 963.86 316.736 962.766C311.79 961.667 310.039 959.27 306.628 959.215C301.54 967.451 307.392 971.771 296.43 978.035C292.229 975.371 292.075 976.47 288.299 972.981C284.792 969.739 284.08 967.139 280.517 965.462C272.931 970.416 278.218 974.314 261.39 978.754L261.391 978.759ZM263.259 982.485L266.741 981.23C273.527 979.971 276.837 975.37 280.947 972.181C285.712 975.656 291.858 982.963 298.002 982.069C303.765 981.23 308.443 970.288 308.713 965.031C314.348 966.038 319.412 968.643 326.362 966.945L330.415 966.403L335.537 964.012C332.676 953.688 323.571 947.374 317.488 944.101C305.897 937.862 303.891 940.643 290.516 939.323C286.916 927.197 276.626 920.459 268.741 922.142C267.066 922.5 265.965 922.465 263.747 924.84C269.943 930.402 281.651 921.038 286.206 940.735C271.687 947.168 262.531 954.372 258.293 969.172C257.145 973.182 255.509 979.175 258.313 982.872L263.253 982.481L263.259 982.485Z" fill="#0A5425"/>
<path fill-rule="evenodd" clip-rule="evenodd" d="M376.052 963.66L377.046 965.805L379.859 966.387L380.41 963.868C386.318 941.549 404.116 947.762 409.56 943.5C408.459 940.714 410.433 940.773 404.837 940.371C396.062 939.739 389.281 944.573 383.111 949.216C383.287 937.627 388.778 925.663 384.113 922.153C380.519 924.674 382.604 921.152 380.507 934.451C379.765 939.139 379.737 943.26 378.434 948.229C375.073 945.545 372.644 940.528 368.778 937.692C366.53 936.04 364.773 935.347 361.974 934.378C354.785 931.896 355.149 934.613 354.496 935.251C358.147 939.976 361.627 936.186 369.503 944.382C374.31 949.387 377.919 956.799 376.057 963.659L376.052 963.66Z" fill="#0A5425"/>
<path fill-rule="evenodd" clip-rule="evenodd" d="M377.045 965.799L376.05 963.655C371.203 957.572 344.772 971.684 348.109 987.515C352.299 985.431 351.58 984.023 353.053 980.483C354.236 977.637 355.181 976.185 357.646 973.583C363.847 967.048 368.298 967.745 377.044 965.794L377.045 965.799Z" fill="#F6F1D1"/>
<path fill-rule="evenodd" clip-rule="evenodd" d="M438.908 180.227L435.587 177.843C428.132 191.755 425.945 197.978 426.371 211.564C427.581 250.436 386.909 272.539 356 254.236C328.019 237.666 322.033 193.908 358.679 172.542C370.027 165.922 374.759 161.323 382.402 147.355L379.008 145.881C366.644 162.599 369.388 160.813 353.824 170.544C320.171 191.584 321.589 238.691 354.009 257.788C375.62 270.516 401.332 264.773 415.812 249.837C425.676 239.669 429.943 227.814 430.418 215.584C431.082 198.782 429.615 198.946 438.901 180.229L438.908 180.227Z" fill="#F6F1D1"/>
<path fill-rule="evenodd" clip-rule="evenodd" d="M474.914 214.121C477.556 222.417 481.607 229.624 474.714 240.677C470.51 247.419 457.798 253.979 451.692 256.062C446.8 252.163 447.403 248.617 441.908 247.47C441.169 251.319 441.135 249.601 443.389 253.088C445.468 256.313 445.473 255.563 446.799 258.491L434.948 265.084C427.223 256.755 426.71 251.869 421.258 252.011C420.991 256.617 426.479 261.872 431.012 266.71C426.71 269.94 422.647 271.005 419.032 274.066C415.803 271.192 414.875 268.485 411.59 267.994C409.062 273.197 411.087 269.532 413.688 275.902L375.531 296.348C371.712 298.329 366.153 302.711 362.206 300.982C361.701 292.95 383.552 279.422 382.259 271.833C376.568 271.135 367.107 286.308 362.958 290.878C358.949 295.298 355.507 299.758 359.226 303.741C363.9 308.744 367.56 305.444 371.417 303.196C390.347 292.154 438.229 267.867 460.409 256.32C468.273 252.227 476.452 249.103 480.782 237.633C484.041 228.998 482.84 217.789 477.034 212.66L474.905 214.115L474.914 214.121Z" fill="#F6F1D1"/>
<path fill-rule="evenodd" clip-rule="evenodd" d="M380.201 141.889C406.051 114.606 451.62 143.548 441.769 176.618C436.919 174.231 434.282 172.369 431.453 168.199C428.606 164.007 428.975 161.062 426.53 158.683C417.179 161.189 418.476 168.346 406.202 165.389C404.971 160.569 404.106 161.263 403.749 156.134C403.42 151.37 404.685 148.989 403.241 145.326C394.322 143.73 395.498 150.192 380.204 141.884L380.201 141.889ZM379.007 145.882L382.401 147.356C388.205 151.093 393.768 150.014 398.947 150.511C400.032 156.307 399.495 165.841 404.579 169.403C409.349 172.744 420.258 167.988 424.059 164.346C427.47 168.943 429.37 174.312 435.593 177.842L438.915 180.226L444.283 181.999C449.279 172.522 446.982 161.683 444.799 155.129C440.641 142.64 437.273 143.288 428.443 133.156C434.138 121.861 431.268 109.901 424.375 105.719C422.911 104.831 422.133 104.051 418.89 104.258C419.587 112.556 434.529 113.768 424.338 131.229C409.359 125.955 397.754 124.92 384.521 132.786C380.935 134.918 375.635 138.158 375.141 142.772L379.005 145.874L379.007 145.882Z" fill="#0A5425"/>
<path fill-rule="evenodd" clip-rule="evenodd" d="M474.012 209.524L473.266 211.767L474.913 214.12L477.043 212.664C496.647 200.47 505.341 217.197 512.226 217.828C513.335 215.045 514.732 216.442 510.934 212.311C504.981 205.834 496.73 204.703 489.056 203.851C497.13 195.536 509.331 190.594 508.342 184.841C503.998 184.211 507.931 183.077 497.285 191.319C493.531 194.222 490.684 197.203 486.328 199.926C485.723 195.667 487.394 190.35 486.526 185.635C486.022 182.891 485.218 181.181 483.846 178.557C480.315 171.821 478.716 174.048 477.804 174.065C477.221 180.008 482.353 179.635 482.465 191.001C482.532 197.94 480.077 205.81 474.017 209.527L474.012 209.524Z" fill="#0A5425"/>
<path fill-rule="evenodd" clip-rule="evenodd" d="M473.269 211.762L474.015 209.519C474.658 201.768 445.743 193.915 437.316 207.726C441.795 209.083 442.238 207.565 445.737 205.997C448.55 204.738 450.233 204.329 453.812 204.126C462.806 203.621 465.568 207.18 473.271 211.758L473.269 211.762Z" fill="#F6F1D1"/>
<path fill-rule="evenodd" clip-rule="evenodd" d="M371.841 248.061C376.119 255.494 403.748 247.789 405.148 238.717C398.389 236.309 397.39 247.067 379.918 246.787C378.754 246.769 376.415 246.467 375.54 246.535C371.108 246.873 374.734 245.643 371.841 248.061V248.061Z" fill="#F6F1D1"/>
<path fill-rule="evenodd" clip-rule="evenodd" d="M0.0227725 67.6702L-3.31021 70.0388C7.43144 81.6035 12.6079 85.6904 25.598 89.6945C62.7599 101.16 70.4746 146.803 43.1347 170.103C18.3836 191.196 -24.9496 182.663 -33.2732 141.068C-35.8533 128.186 -38.6691 122.218 -49.4022 110.458L-51.8977 113.19C-40.0942 130.308 -40.8931 127.133 -36.738 145.012C-27.7526 183.67 17.2671 197.611 45.8482 173.139C64.8985 156.825 67.8065 130.641 58.376 112.098C51.9573 99.4692 42.1275 91.5877 30.713 87.1703C15.0346 81.0924 14.7147 82.5332 0.0223051 67.6776L0.0227725 67.6702Z" fill="#F6F1D1"/>
<path fill-rule="evenodd" clip-rule="evenodd" d="M43.7629 44.6065C52.4678 44.7982 60.5996 43.3042 68.8184 53.4098C73.8317 59.5739 75.9134 73.7267 75.9033 80.1776C70.6284 83.5408 67.4694 81.8195 64.602 86.6458C68.0027 88.5936 66.367 88.0686 70.3969 87.0673C74.1213 86.1469 73.4138 85.8988 76.6141 85.5945L79.0056 98.9436C68.6216 103.549 63.8332 102.448 62.1992 107.652C66.4689 109.398 73.2198 105.912 79.2665 103.194C80.9267 108.311 80.6167 112.5 82.3394 116.912C78.5732 119.035 75.7109 119.034 74.1807 121.982C78.2824 126.061 75.4731 122.957 82.3422 122.563L89.3049 165.289C89.94 169.544 92.2811 176.223 89.365 179.397C81.6042 177.269 75.8955 152.211 68.2979 150.973C65.7918 156.129 77.0752 170.001 80.052 175.407C82.9326 180.633 86.0351 185.336 91.009 183.111C97.2572 180.312 95.3232 175.779 94.4474 171.401C90.1434 149.913 82.7026 96.7423 78.9754 72.016C77.6545 63.2499 77.3523 54.4993 67.9077 46.6826C60.7969 40.799 49.8039 38.2989 43.0687 42.1271L43.755 44.6134L43.7629 44.6065Z" fill="#F6F1D1"/>
<path fill-rule="evenodd" clip-rule="evenodd" d="M-55.287 110.765C-72.7086 77.4638 -30.5505 43.7476 -2.4638 63.7932C-6.29491 67.6063 -8.91207 69.4969 -13.7741 70.8207C-18.6627 72.1541 -21.3286 70.8492 -24.3725 72.3905C-25.0354 82.0485 -17.8441 83.1431 -24.6238 93.7944C-29.5821 93.3956 -29.206 94.4387 -34.1731 93.1124C-38.7863 91.8786 -40.6284 89.9096 -44.5622 90.0865C-48.9651 98.0055 -42.4713 98.9897 -55.2905 110.762L-55.287 110.765ZM-51.8977 113.191L-49.4022 110.458C-43.9848 106.181 -43.2002 100.568 -41.0503 95.8305C-35.2157 96.6845 -26.3716 100.285 -21.3529 96.6314C-16.6448 93.203 -17.6054 81.3412 -19.817 76.5646C-14.362 74.8292 -8.66713 74.7735 -3.30976 70.0324L0.0232184 67.6638L3.44136 63.1611C-3.90194 55.3609 -14.9004 54.0173 -21.8079 53.9564C-34.9704 53.8383 -35.4496 57.2343 -47.8979 62.2998C-56.7352 53.2493 -68.9795 52.0837 -75.1715 57.2473C-76.4859 58.3442 -77.4764 58.8273 -78.3323 61.9625C-70.2578 63.9947 -64.2638 50.2539 -51.0529 65.5582C-60.9006 78.0163 -65.6442 88.6578 -62.4962 103.726C-61.6428 107.81 -60.2977 113.875 -56.0935 115.839L-51.9051 113.19L-51.8977 113.191Z" fill="#0A5425"/>
<path fill-rule="evenodd" clip-rule="evenodd" d="M39.1224 43.9678L41.0016 45.4015L43.7617 44.6063L43.0754 42.12C37.9002 19.6205 56.5434 16.822 59.3736 10.514C57.1004 8.56259 58.875 7.69464 53.7362 9.94668C45.6774 13.4771 41.9313 20.9143 38.6362 27.8977C33.3904 17.5627 32.6732 4.41838 26.9102 3.48724C24.905 7.39225 25.1085 3.3042 29.451 16.0484C30.9796 20.5414 32.8755 24.2007 34.0385 29.2047C29.814 28.3957 25.3266 25.0897 20.5841 24.3818C17.8254 23.9684 15.9476 24.1736 13.0202 24.621C5.5029 25.7752 7.09105 28.0101 6.81059 28.8787C12.2433 31.3576 13.5553 26.3822 24.3435 29.9633C30.9289 32.1509 37.5763 37.0267 39.1264 43.9644L39.1224 43.9678Z" fill="#0A5425"/>
<path fill-rule="evenodd" clip-rule="evenodd" d="M40.9983 45.3974L39.1191 43.9637C31.9951 40.8415 15.1876 65.6453 25.5179 78.0963C28.2542 74.3 26.9615 73.3887 26.6143 69.5703C26.3352 66.5014 26.4949 64.7761 27.4633 61.3254C29.9036 52.6535 34.1659 51.1957 40.9948 45.3935L40.9983 45.3974Z" fill="#F6F1D1"/>
<path fill-rule="evenodd" clip-rule="evenodd" d="M42.4315 153.115C50.8502 151.48 52.5247 122.846 44.3971 118.578C39.9271 124.19 49.7795 128.625 43.847 145.062C43.4522 146.157 42.408 148.272 42.188 149.122C41.0701 153.423 41.0832 149.594 42.4315 153.115V153.115Z" fill="#F6F1D1"/>
<path fill-rule="evenodd" clip-rule="evenodd" d="M14.2273 714.974C2.65882 713.727 1.19438 718.173 -7.4276 718.567C-23.0895 719.285 -26.6594 694.366 -1.79333 705.84C8.91651 710.78 11.5278 704.246 14.2273 714.974V714.974ZM4.67022 688.531C-6.78066 686.626 -5.9514 689.549 -14.4322 689.431C-29.7824 689.225 -27.3534 664.389 -8.10984 678.322C0.847378 684.809 2.6647 677.175 4.67022 688.531V688.531ZM7.55794 682.403C6.85807 674.305 8.31663 679.268 12.9334 673.387C15.4154 670.229 15.3683 666.365 18.7618 664.836C22.9199 662.96 27.1191 665 28.2131 668.835C29.3834 672.958 26.6192 676.492 25.1959 678.439C15.4859 681.021 17.8737 677.492 7.56382 682.403H7.55794ZM-8.88028 647.58C-2.04622 656.772 1.02382 650.509 1.35317 665.289C-2.90489 662.736 -5.88083 659.99 -10.8976 657.684C-16.3731 655.167 -17.2023 656.214 -22.4837 652.197C-23.7306 640.399 -15.2086 639.076 -8.88028 647.586V647.58ZM27.6955 636.711C34.3472 636.635 37.9231 642.093 35.1412 648.421C27.9602 660.354 18.0502 642.228 17.0092 641.458C13.4686 638.835 11.2043 640.246 9.11648 639.011L12.4571 632.624C18.9618 641.84 17.7443 636.823 27.7073 636.717L27.6955 636.711ZM-2.49908 623.661C-6.02198 618.679 -7.24528 617.18 -3.06368 611.022C4.81725 610.087 6.28169 612.439 7.38738 619.573C8.84594 628.972 8.61069 627.072 6.81101 634.947C2.55296 632.6 0.247487 627.537 -2.4932 623.667L-2.49908 623.661ZM23.3316 617.821C26.778 614.756 41.9988 608.128 42.6105 617.009C42.9339 621.708 38.3583 623.767 33.8532 622.632C31.9771 622.155 24.8842 618.632 23.3375 617.827L23.3316 617.821ZM19.5675 613.621C17.9678 602.653 17.215 594.207 23.7903 586.567C33.2416 585.897 39.3875 593.09 34.4061 601.512C32.4358 604.835 22.2377 612.592 19.5675 613.621V613.621ZM-15.8555 698.618L-18.902 699.765C-21.9485 703.246 -24.3363 706.446 -23.0601 713.692L-19.8548 718.72C-9.2861 724.072 -8.11572 723.419 4.44673 719.708C12.8099 717.238 20.8026 719.826 20.6438 728.801C12.9276 730.9 11.3984 728.442 3.84096 728.054L1.46491 728.166C-5.78084 731.241 -13.156 732.635 -11.2916 744.08C-9.87422 752.773 -2.4932 754.696 6.25817 752.467L11.022 750.073C13.0099 748.027 12.5923 748.262 15.1389 746.915C18.1678 745.315 17.6326 745.604 21.3319 744.957L21.6025 742.786C22.0024 738.252 21.9083 741.792 20.6085 740.499C10.228 742.869 6.89335 750.938 -3.9694 748.638C-8.61563 743.516 -9.42136 735.329 -0.0406972 732.718C6.29346 730.953 7.45796 732.871 12.6041 733.676C17.615 734.464 20.6321 732.418 24.9901 731.7L26.5134 726.836L22.6141 720.937C25.6429 715.697 27.3897 712.304 35.0295 711.31L37.7172 706.775C25.0372 708.875 27.8719 707.605 20.6144 715.844C18.1443 713.703 18.0325 712.904 17.0798 709.034C27.1956 706.546 26.384 705.399 30.348 696.665C34.7766 686.914 40.6049 691.437 45.0336 696.865L47.292 693.889C44.2749 686.532 34.906 684.268 29.0952 690.755C22.1141 698.547 29.454 701.97 15.1036 705.211C-0.0348113 676.098 20.7262 686.579 27.7955 681.286C39.2464 672.711 28.7424 653.732 16.0976 661.454C9.79283 665.3 13.4333 669.617 5.96998 673.352C5.37597 664.001 4.82313 653.061 7.66968 644.992L13.7686 643.887C16.7916 647.762 19.5617 653.45 24.2608 655.279C38.0231 660.642 45.8863 642.61 35.4176 634.741C28.9423 629.871 24.5372 634.524 17.3797 633.171C15.0801 625.943 15.3742 626.478 19.4499 621.52C27.6602 622.855 35.6529 631.806 43.4985 624.649C51.75 617.115 46.1863 608.493 34.1532 608.158C46.1157 600.512 38.2171 577.063 22.7905 582.933C16.8445 585.197 14.9037 592.86 14.4449 600.518C13.4157 617.668 21.1202 617.133 11.7689 622.437C10.8279 614.586 10.0104 607.44 1.76486 606.47C-5.9514 605.564 -10.9799 611.375 -9.68014 619.026C-9.10377 622.408 -2.3344 631.148 -0.111274 634.147C2.84702 638.135 5.10544 639.899 2.88819 646.862L0.782685 651.032C-4.85748 647.398 -8.32744 639.058 -14.691 638.211C-22.1897 637.211 -28.4709 643.634 -26.6889 651.432C-24.9715 658.937 -16.6318 659.113 -10.0918 662.789C-4.52224 665.918 1.89425 670.599 2.2883 677.757C-7.95104 676.728 -9.18611 668.417 -18.755 669.776C-26.2536 670.841 -31.4527 680.204 -26.73 687.555C-22.3308 694.407 -14.4616 693.548 -5.76908 691.978C5.88177 689.872 7.78731 695.86 9.70461 704.064C-0.664114 705.534 -3.52243 696.183 -15.8437 698.63L-15.8555 698.618Z" fill="#F6F1D1"/>
<path fill-rule="evenodd" clip-rule="evenodd" d="M23.9487 757.507C27.2187 708.204 56.1018 711.597 66.7293 653.737C67.6174 654.919 67.4586 654.449 68.2467 656.49C69.6641 660.148 69.2877 667.935 69.0054 671.728C68.6172 677.004 67.4292 682.056 65.953 686.831C63.0064 696.388 57.2545 704.969 52.7024 710.862C32.8942 736.481 36.1407 738.11 26.1954 754.419L23.9487 757.507V757.507ZM47.2975 693.877L45.0391 696.853C43.4629 700.535 41.0927 703.199 37.7169 706.769L35.0291 711.303L26.513 726.83L24.9897 731.694L21.6021 742.774L21.3316 744.944L20.1553 751.008L11.0275 750.061L6.26367 752.455C8.85144 755.06 14.8562 754.978 18.9026 755.354C20.4729 761.447 17.4675 766.929 20.9787 771.51C24.4134 770.687 35.0644 745.538 35.0644 745.527C35.1408 745.044 35.3761 744.933 35.5702 744.662L35.8113 744.215C37.2405 741.157 36.6347 740.833 39.5812 738.546L41.4868 735.029C43.11 731.323 47.3269 724.625 50.2205 722.225L51.0968 719.937C81.9148 685.202 75.3219 642.11 64.9767 638.222C61.7949 642.645 61.936 678.915 47.3034 693.871L47.2975 693.877Z" fill="#0A5425"/>
<path fill-rule="evenodd" clip-rule="evenodd" d="M50.214 722.238L54.3074 726.349C54.2838 737.417 50.2022 735.782 41.4803 735.041L39.5747 738.558C40.5275 738.947 38.9748 738.547 41.839 739.199C62.8117 743.981 61.8648 720.185 51.0903 719.944L50.214 722.232V722.238Z" fill="#F6F1D1"/>
<path fill-rule="evenodd" clip-rule="evenodd" d="M35.8051 744.228L35.564 744.675L35.6581 749.056C42.5157 754.996 49.932 767.365 57.8835 767.4C57.5188 763.424 56.1661 762.942 53.149 760.619C44.4565 753.92 41.6805 747.927 38.9222 745.651C36.9167 743.992 38.6752 744.774 35.8051 744.233V744.228Z" fill="#F6F1D1"/>
<path fill-rule="evenodd" clip-rule="evenodd" d="M248.997 904.951L270.493 883.826C272.115 897.229 263.415 904.707 248.997 904.951ZM153.48 772.006C136.223 759.868 155.184 736.255 170.644 748.155C174.271 750.948 175.928 754.17 178.942 757.098C183.258 761.293 184.837 759.173 182.734 766.538C178.585 781.067 171.64 777.832 172.464 784.89C180.53 785.284 185.243 772.273 186.52 767.933C190.007 756.082 179.062 726.865 200.388 728.46C211.576 729.297 211.6 740.225 212.544 748.143C207.614 749.479 204.432 749.263 200.372 748.378C196.871 747.617 193.066 745.445 190.583 747.535C191.611 753.44 207.143 753.62 212.319 752.369L213.642 764.223C207.033 765.761 203.057 762.942 199.148 766.142C201.971 770.558 209.716 769.228 214.044 768.489C220.8 786.398 225.979 784.243 233.214 790.863C232.46 795.903 227.806 802.617 223.428 807.286C218.183 812.879 209.191 816.506 205.281 820.743C207.541 822.971 206.878 825.142 217.689 817.554C221.005 815.226 223.624 813.075 226.419 810.073C232.13 803.935 234.363 797.125 238.896 792.611C242.52 795.941 246.68 797.438 250.702 800.635C249.288 804.855 249.556 805.711 247.146 809.578C244.16 814.375 242.067 814.005 244.302 819.281C249.326 816.024 253.534 806.648 254.853 802.963C270.957 807.101 273.745 820.591 265.653 827.471C252.581 838.586 243.013 817.723 236.595 825.082C236.552 831.278 244.879 839.852 248.264 846.135C245.744 849.09 242.406 853.111 238.745 856.516C235.501 859.535 230.07 862.214 228.987 866.573C229.348 866.649 229.803 866.643 230.092 866.614C230.375 866.586 230.835 866.645 231.178 866.588C240.474 865.057 224.724 869.248 233.255 866.135C238.231 864.317 247.246 852.544 250.996 849.94L258.319 861.653C255.007 868.382 245.868 876.475 239.278 881.121C235.102 884.064 234.223 883.125 234.641 887.153C242.603 888.638 255.901 870.301 261.659 866.103L269.075 878.605C268.399 879.273 246.392 904.23 243.179 901.379C242.93 901.156 242.614 901.495 242.328 901.483C237.737 899.738 236.005 895.717 233.066 891.163C225.315 879.151 227.733 880.405 223.301 880.59C222.905 885.562 234.721 904.004 244.587 907.592C256.128 911.79 268.307 906.247 273.324 895.062C281.332 877.203 253.292 848.53 243.277 830.072C249.973 831.531 257.579 840.382 268.639 830.337C274.328 825.172 276.748 814.867 269.799 806.808C263.677 799.711 236.53 789.477 227.089 781.589C209.605 766.983 222.235 742.103 211.395 729.719C205.745 723.266 194.683 721.741 187.024 729.547C179.662 737.048 183.301 745.026 182.878 750.923C182.698 753.424 182.814 752.302 182.301 753.796C173.592 747.948 171.872 739.542 160.086 740.793C148.145 742.061 142.877 751.531 142.633 759.399C142.25 771.685 168.193 794.518 175.438 805.207C166.936 806.394 159.31 802.225 150.737 813.911C147.294 818.607 142.596 832.814 151.596 838.624C156.395 833.752 149.796 834.612 151.037 824.536C151.684 819.277 153.197 815.849 158.906 812.389C161.219 816.747 163.29 824.872 166.911 827.347C170.897 823.726 166.936 819.393 162.393 810.204C171.338 807.436 182.17 813.903 178.859 802.091C183.545 799.824 186.703 798.107 190.744 794.854C198.63 788.503 197.74 788.863 197.846 785.729C197.52 785.69 197.087 785.726 196.863 785.765C187.084 787.473 201.166 783.134 194.11 786.394C192.487 787.145 193.078 786.997 191.824 788.062C186.811 792.313 185.623 794.949 176.429 798.47C171.646 795.736 159.943 781.02 156.242 775.637C161.779 772.776 169.489 769.765 170.643 763.778C168.111 763.306 170.597 763.144 167.671 764.028C163.443 765.305 164.385 767.84 153.48 772.006L153.48 772.006Z" fill="#F6F1D1"/>
<path fill-rule="evenodd" clip-rule="evenodd" d="M157.097 869.321C174.5 850.507 198.661 878.291 183.685 893.913C167.132 911.179 140.727 887.02 157.097 869.321V869.321ZM190.364 851.215C206.659 832.692 232.536 859.245 216.451 875.734C209.316 883.05 195.978 883.315 192.229 876.613C185.655 864.858 181.864 860.88 190.364 851.215V851.215ZM219.401 847.879C212.23 840.976 208.206 842.789 208.505 838.793C208.983 832.428 222.225 827.982 228.579 826.778C230.799 835.486 227.413 845.128 223.461 851.067L219.401 847.878L219.401 847.879ZM159.368 861.545C148.02 840.215 177.432 822.191 191.259 844.699C183.997 849.415 182.476 855.212 180.43 861.162C172.888 858.655 169.863 858.471 159.368 861.545L159.368 861.545ZM184.081 831.072C184.937 826.593 186.576 821.316 190.863 817.274C197.72 825.602 201.696 826.25 204.036 839.668C201.988 841.653 199.106 841.238 195.034 842.426C190.404 835.11 187.972 835.529 184.081 831.072V831.072ZM192.153 883.942C199.183 883.877 203.919 889.307 215.087 882.398C231.617 872.172 221.471 862.515 227.045 853.254C232.515 844.162 236.003 833.751 231.725 822.282C220.896 823.116 216.339 826.173 206.774 832.474C202.632 823.066 197.384 815.643 189.554 812.455C183.25 816.697 180.747 825.251 179.881 830.195C169.8 830.701 163.065 830.152 155.999 840.289C149.875 849.073 153.279 852.984 155.129 864.491C150.651 871.086 147.264 874.776 147.911 882.935C148.625 891.918 154.014 898.858 160.792 901.838C175.534 908.323 191.561 898.626 192.152 883.943L192.153 883.942Z" fill="#0A5425"/>
<path fill-rule="evenodd" clip-rule="evenodd" d="M163.869 890.458C168.079 887.059 165.799 888.313 168.812 884.962C172.543 886.523 170.655 887.141 174.155 884.471C171.815 880.587 171.779 883.132 170.414 880.221C168.454 876.042 171.659 879.171 169.416 875.029C164.653 876.019 167.089 877.006 164.999 878.138C161.816 879.86 164.294 875.401 159.228 879.969C160.648 883.138 160.594 880.645 162.128 883.109C164.384 886.732 161.773 884.163 163.869 890.457L163.869 890.458Z" fill="#0A5425"/>
<path fill-rule="evenodd" clip-rule="evenodd" d="M197.627 856.67C197.245 856.736 195.169 856.908 194.878 857.047C191.947 858.45 193.216 857.522 191.875 859.685C194.876 861.708 195.52 860.588 196.881 862.468C199.22 865.696 194.524 864.567 199.936 866.824C203.715 863.164 200.118 864.762 202.395 862.4C205.26 859.425 205.031 864.304 207.259 858.822C204.237 856.098 207.566 857.637 202.103 857.113C202 852.821 202.95 854.643 199.902 851.299C196.63 853.473 197.468 852.742 197.627 856.67L197.627 856.67Z" fill="#0A5425"/>
<path fill-rule="evenodd" clip-rule="evenodd" d="M167.685 844.446C167.171 844.561 164.649 844.953 164.355 845.067L161.851 846.876C162.422 850.076 163.209 849.058 166.604 849.741C166.714 850.457 166.609 851.505 167.066 852.331C170.764 859.004 161.784 847.585 168.851 854.385C169.013 854.54 169.399 854.764 169.697 854.913C171.759 851.882 170.48 851.833 171.926 850.386C173.071 849.243 175.406 849.166 176.982 847.384C173.824 843.382 176.874 845.875 171.788 844.686C171.532 842.855 171.811 841.048 168.812 839.484C166.584 842.603 167.16 840.765 167.686 844.446L167.685 844.446Z" fill="#0A5425"/>
<path fill-rule="evenodd" clip-rule="evenodd" d="M373.796 88.2514L400.713 74.6928C398.167 87.9519 387.601 92.4181 373.796 88.2514ZM323.402 -67.4996C310.671 -84.3242 335.934 -101.026 347.025 -84.9756C349.627 -81.2093 350.222 -77.635 352.198 -73.9275C355.028 -68.6148 357.179 -70.1519 352.929 -63.7799C344.544 -51.21 338.917 -56.4101 337.548 -49.4373C345.109 -46.6006 353.568 -57.5528 356.109 -61.2966C363.046 -71.5186 361.538 -102.681 381.36 -94.6552C391.759 -90.4441 388.447 -80.0306 386.93 -72.2013C381.827 -72.4335 378.863 -73.6104 375.267 -75.6921C372.165 -77.4846 369.205 -80.7141 366.202 -79.4815C365.379 -73.5452 380.115 -68.6337 385.427 -68.2459L383.07 -56.5539C376.306 -57.1054 373.38 -61.0032 368.681 -59.1487C370.022 -54.0823 377.803 -52.9854 382.15 -52.3683C383.119 -33.2516 388.709 -33.7238 393.579 -25.2117C391.323 -20.6424 384.841 -15.6688 379.248 -12.5583C372.547 -8.83187 362.876 -8.12231 357.86 -5.28049C359.332 -2.46889 358.039 -0.60378 370.649 -4.53105C374.518 -5.7361 377.668 -6.98576 381.245 -8.99154C388.558 -13.0943 392.762 -18.8979 398.456 -21.8131C400.891 -17.5362 404.396 -14.841 407.251 -10.5693C404.617 -6.98263 404.61 -6.08583 401.136 -3.138C396.828 0.519256 394.948 -0.471783 395.466 5.23447C401.245 3.66557 408.113 -3.97903 410.493 -7.08617C424.567 1.76892 423.105 15.4657 413.3 19.5491C397.459 26.1447 394.714 3.35762 386.357 8.40695C384.425 14.2944 389.738 25.0005 391.045 32.0166C387.743 34.0617 383.337 36.8725 378.812 38.998C374.802 40.8828 368.812 41.7767 366.451 45.5976C366.771 45.7797 367.207 45.9128 367.491 45.9732C367.768 46.0331 368.189 46.2294 368.532 46.2804C377.852 47.6591 361.574 46.8444 370.649 46.4823C375.942 46.27 388.12 37.8088 392.486 36.474L395.886 49.8627C390.678 55.2598 379.505 60.1779 371.812 62.5914C366.937 64.1203 366.386 62.958 365.556 66.9212C372.684 70.7652 390.944 57.3605 397.708 55.1198L400.956 69.2884C400.108 69.7175 371.534 86.7696 369.346 83.0739C369.176 82.7853 368.771 83.0125 368.503 82.9138C364.664 79.8507 364.241 75.4934 362.832 70.2596C359.116 56.4548 361.036 58.3876 356.759 57.2104C354.865 61.8252 360.489 82.9932 368.791 89.4204C378.5 96.9403 391.789 95.3779 399.98 86.2568C413.056 71.693 395.102 35.8318 391.197 15.1981C397.129 18.6306 401.671 29.38 415.269 23.1891C422.262 20.0062 427.711 10.9315 423.553 1.13628C419.889 -7.49034 397.159 -25.52 390.576 -35.9125C378.383 -55.157 398.002 -74.9964 391.458 -90.098C388.047 -97.9671 377.978 -102.795 368.301 -97.6978C359.002 -92.8007 360.033 -84.0933 357.831 -78.6061C356.896 -76.2802 357.349 -77.3126 356.405 -76.0468C349.895 -84.2733 350.823 -92.8032 339.216 -95.2082C327.458 -97.6442 319.552 -90.2337 316.919 -82.8155C312.805 -71.2323 330.544 -41.5719 334.181 -29.1824C325.722 -30.6456 319.732 -36.9432 308.003 -28.4299C303.29 -25.0086 294.482 -12.9128 301.279 -4.63336C307.336 -7.80912 300.79 -9.00376 305.046 -18.2205C307.267 -23.0311 309.753 -25.8342 316.246 -27.387C317.119 -22.5313 316.612 -14.1612 319.304 -10.6996C324.206 -12.9317 321.756 -18.267 320.234 -28.4034C329.597 -28.3104 337.939 -18.846 338.39 -31.1054C343.544 -31.8345 347.075 -32.5056 351.916 -34.3705C361.364 -38.0121 360.407 -37.941 361.464 -40.893C361.166 -41.0293 360.742 -41.1278 360.517 -41.1585C350.684 -42.5164 365.418 -42.3514 357.703 -41.3998C355.928 -41.1806 356.536 -41.1403 355.017 -40.5093C348.946 -37.9908 347.01 -35.8427 337.181 -35.295C333.46 -39.3578 326.805 -56.9432 324.924 -63.1995C331.07 -64.2337 339.331 -64.7487 342.256 -70.0985C339.989 -71.3207 342.407 -70.7156 339.35 -70.767C334.934 -70.8404 335.057 -68.14 323.402 -67.4999L323.402 -67.4996Z" fill="#F6F1D1"/>
<path fill-rule="evenodd" clip-rule="evenodd" d="M297.151 26.2778C319.465 13.6718 333.996 47.5025 314.967 57.8103C293.935 69.2011 276.161 38.1376 297.151 26.2778V26.2778ZM334.356 19.1868C355.526 6.51961 372.066 39.7019 351.717 50.4968C342.691 55.2861 329.908 51.4683 328.382 43.9422C325.709 30.742 323.312 25.7962 334.356 19.1868V19.1868ZM363.026 24.8697C358.303 16.108 353.919 16.6065 355.423 12.8927C357.82 6.97722 371.787 6.78393 378.206 7.57557C377.662 16.5461 371.496 24.695 365.92 29.1444L363.027 24.8693L363.026 24.8697ZM301.686 19.5651C297.388 -4.20998 330.897 -12.3994 337.197 13.2544C328.843 15.5291 325.624 20.5861 321.861 25.6278C315.444 20.939 312.619 19.8409 301.687 19.5654L301.686 19.5651ZM334.519 -1.91271C336.702 -5.91702 339.872 -10.4428 345.189 -12.983C349.177 -2.96005 352.765 -1.13054 350.899 12.3622C348.344 13.6275 345.726 12.3524 341.485 12.2415C339.308 3.8616 336.865 3.51874 334.519 -1.91271V-1.91271ZM326.073 50.8987C332.788 52.9817 335.642 59.5979 348.385 56.4261C367.247 51.7325 360.531 39.4395 368.666 32.3208C376.649 25.3323 383.147 16.4818 382.573 4.25416C372.006 1.74466 366.734 3.26477 355.702 6.3469C354.628 -3.87663 351.896 -12.5474 345.412 -17.9726C338.115 -15.856 333.121 -8.47345 330.788 -4.02995C321.032 -6.62401 314.786 -9.20161 304.964 -1.70467C296.452 4.79179 298.5 9.55498 296.751 21.0773C290.474 25.9914 286.122 28.4722 284.249 36.4398C282.188 45.212 285.202 53.4647 290.747 58.3715C302.807 69.0456 321.029 64.7016 326.073 50.8988L326.073 50.8987Z" fill="#0A5425"/>
<path fill-rule="evenodd" clip-rule="evenodd" d="M297.15 48.4723C302.196 46.5211 299.643 47.0193 303.534 44.7471C306.612 47.3722 304.624 47.3849 308.772 45.91C307.729 41.4975 306.918 43.9097 306.507 40.721C305.915 36.1431 308.013 40.1014 307.141 35.4725C302.303 34.9623 304.321 36.6455 301.986 37.0851C298.429 37.754 302.15 34.2638 295.931 37.0678C296.316 40.5188 297.026 38.1288 297.735 40.9433C298.777 45.0818 297.075 41.8382 297.15 48.4723L297.15 48.4723Z" fill="#0A5425"/>
<path fill-rule="evenodd" clip-rule="evenodd" d="M339.609 26.5976C339.224 26.544 337.195 26.0741 336.875 26.1173C333.656 26.5596 335.148 26.0628 333.211 27.7135C335.451 30.5561 336.406 29.6852 337.129 31.8917C338.371 35.6788 334.244 33.1709 338.709 36.9716C343.425 34.6395 339.511 35.0641 342.401 33.5089C346.037 31.5508 344.33 36.1264 348.124 31.5856C346.078 28.0698 348.779 30.551 343.736 28.3852C344.948 24.2662 345.296 26.2917 343.414 22.1766C339.634 23.2483 340.656 22.8084 339.609 26.5979L339.609 26.5976Z" fill="#0A5425"/>
<path fill-rule="evenodd" clip-rule="evenodd" d="M314.825 5.81954C314.3 5.77228 311.778 5.37613 311.464 5.39488L308.527 6.35422C308.095 9.57501 309.155 8.84595 312.18 10.5322C312.066 11.2485 311.646 12.214 311.829 13.1395C313.314 20.6226 308.247 7.00876 312.902 15.6405C313.01 15.8374 313.309 16.1685 313.547 16.402C316.436 14.1441 315.233 13.7071 317.051 12.7712C318.49 12.0314 320.737 12.6707 322.782 11.4548C320.995 6.67976 323.14 9.98451 318.659 7.30055C318.974 5.47839 319.791 3.84335 317.412 1.43822C314.338 3.72921 315.448 2.15451 314.826 5.81982L314.825 5.81954Z" fill="#0A5425"/>
<path fill-rule="evenodd" clip-rule="evenodd" d="M-114.264 496.406L-96.7259 520.917C-110.219 520.441 -116.257 510.688 -114.264 496.406ZM31.8802 422.651C46.546 407.484 66.9353 429.876 52.7824 443.304C49.4612 446.455 46.021 447.592 42.6616 450.115C37.8475 453.729 39.6972 455.618 32.7472 452.399C19.0371 446.048 23.3096 439.687 16.2092 439.407C14.5694 447.315 26.6926 453.988 30.7827 455.923C41.9502 461.204 72.5102 454.921 67.6288 475.741C65.0678 486.665 54.2687 484.994 46.2992 484.699C45.7436 479.622 46.4505 476.512 47.9541 472.638C49.2481 469.298 51.9838 465.875 50.304 463.098C44.3116 463.198 41.7257 478.515 42.1596 483.823L30.2441 483.292C29.7485 476.524 33.1498 473.034 30.5945 468.676C25.7946 470.78 25.908 478.638 25.9669 483.027C7.22683 486.926 8.55336 492.377 0.891802 498.498C-3.97022 496.972 -9.8816 491.333 -13.8157 486.284C-18.5286 480.236 -20.7175 470.79 -24.2972 466.271C-26.8488 468.158 -28.8907 467.167 -23.0702 479.023C-21.2843 482.66 -19.5648 485.581 -17.0326 488.807C-11.8538 495.401 -5.47246 498.662 -1.71605 503.84C-5.56734 506.904 -7.69132 510.782 -11.4729 514.26C-15.4222 512.209 -16.3093 512.341 -19.7566 509.361C-24.033 505.667 -23.343 503.657 -28.9015 505.047C-26.4624 510.515 -17.8521 516.126 -14.4158 518C-21.0004 533.268 -34.759 533.931 -40.3022 524.87C-49.2562 510.233 -27.1627 504.015 -33.4376 496.534C-39.5522 495.531 -49.3135 502.428 -56.0451 504.798C-58.5738 501.85 -62.0289 497.929 -64.8252 493.785C-67.3046 490.113 -69.1092 484.332 -73.248 482.586C-73.3786 482.931 -73.4431 483.382 -73.4591 483.671C-73.4755 483.955 -73.6049 484.401 -73.6024 484.748C-73.5309 494.169 -75.2301 477.96 -73.4762 486.871C-72.4522 492.068 -62.2183 502.799 -60.2277 506.908L-72.934 512.327C-79.068 508.011 -85.6464 497.728 -89.2147 490.498C-91.4754 485.916 -90.4117 485.193 -94.4554 484.982C-97.1571 492.617 -81.1028 508.597 -77.8482 514.936L-91.3485 520.325C-91.9029 519.553 -113.148 493.943 -109.833 491.212C-109.574 491 -109.86 490.635 -109.804 490.355C-107.368 486.09 -103.128 485.002 -98.173 482.805C-85.1043 477.009 -86.7187 479.203 -86.2135 474.796C-91.0648 473.635 -111.116 482.449 -116.189 491.64C-122.126 502.391 -118.538 515.282 -108.265 521.971C-91.8629 532.651 -59.1907 509.394 -39.4033 502.361C-41.8825 508.75 -51.8051 514.892 -43.5959 527.376C-39.3751 533.796 -29.5701 537.785 -20.5313 532.169C-12.571 527.221 1.74721 501.988 11.0032 493.884C28.1429 478.876 50.7643 495.21 64.6793 486.42C71.9301 481.839 75.1514 471.147 68.6263 462.37C62.3569 453.935 53.9117 456.293 48.1511 454.961C45.709 454.396 46.7989 454.684 45.4028 453.946C52.53 446.248 61.1011 445.853 61.6919 434.014C62.2899 422.021 53.7514 415.35 46.0163 413.889C33.9383 411.606 7.35991 433.697 -4.32259 439.197C-4.17817 430.613 1.12303 423.726 -9.09344 413.445C-13.199 409.315 -26.5059 402.473 -33.641 410.463C-29.5713 415.959 -29.3979 409.307 -19.6362 412.094C-14.5412 413.549 -11.3889 415.575 -8.85575 421.751C-13.5194 423.36 -21.8678 424.147 -24.874 427.34C-21.9144 431.84 -17.0195 428.599 -7.23796 425.535C-5.8894 434.801 -13.9578 444.5 -1.77504 443.059C-0.261611 448.04 0.944689 451.426 3.53209 455.922C8.58378 464.697 8.3663 463.762 11.4458 464.353C11.5346 464.037 11.5668 463.604 11.5625 463.376C11.3914 453.451 13.4952 468.036 11.3681 460.559C10.8784 458.839 10.9322 459.446 10.075 458.042C6.65238 452.43 4.23209 450.849 2.17872 441.22C5.62083 436.919 21.9731 427.638 27.8654 424.816C29.8328 430.73 31.6126 438.813 37.3488 440.881C38.2076 438.453 37.9816 440.935 37.5622 437.907C36.9554 433.532 34.3061 434.069 31.8805 422.651L31.8802 422.651Z" fill="#F6F1D1"/>
<path fill-rule="evenodd" clip-rule="evenodd" d="M531.562 871.471C541.201 885.362 542.446 884.463 560.339 890.908C566.154 893.003 574.745 896.755 580.567 897.563C588.597 898.682 591.28 896.767 597.553 895.461L586.361 918.278L525.467 896.678L531.56 871.476L531.562 871.471ZM540.97 831.157C546.759 806.709 552.084 779.129 559.12 755.37L650.348 788.167C641.234 810.765 626.787 836.375 615.905 858.53C610.595 869.332 605.594 884.288 596.76 889.624C585.682 896.304 577.785 892.273 563.009 886.951C526.781 873.894 532.826 865.581 540.97 831.157V831.157ZM566.105 725.866L663.899 761.467L652.606 784.047L560.086 750.63L566.105 725.866V725.866ZM588.284 923.896C594.086 915.612 668.484 764.472 669.743 758.291L563.4 720.237C560.55 725.123 521.92 886.496 520.485 899.088C527.583 903.495 578.479 921.402 588.289 923.898L588.284 923.896Z" fill="#F6F1D1"/>
<path fill-rule="evenodd" clip-rule="evenodd" d="M588.651 819.598L581.891 840.872C575.898 838.694 570.783 834.62 568.748 829.941L588.656 819.6L588.651 819.598ZM592.662 820.94C595.125 823.284 602.866 838.22 603.037 841.487C599.1 842.338 591.881 844.444 586.2 841.779L592.662 820.94V820.94ZM607.855 838.225C604.531 833.939 598.887 823.776 597.62 818.47L618.795 825.163C615.55 832.041 613.081 834.904 607.857 838.219L607.855 838.225ZM618.083 803.584C620.826 808.228 621.628 813.61 619.91 820.974L598.717 813.991L618.083 803.584ZM562.921 829.254C577.406 856.311 616.194 851.913 624.03 822.819C626.469 813.775 624.798 802.592 619.732 798.362C613.361 800.026 582.978 817.877 576.265 820.921C570.785 823.408 566.193 824.037 562.919 829.26L562.921 829.254Z" fill="#0A5425"/>
<path fill-rule="evenodd" clip-rule="evenodd" d="M552.789 871.454C548.911 867.149 546.371 861.598 547.056 854.308L568.959 856.53C564.438 862.368 557.534 866.193 552.783 871.452L552.789 871.454ZM551.86 876.574C556.595 874.314 575.442 858.382 577.67 853.897C571.94 851.672 549.573 849.863 543.577 850.649C540.147 859.311 546.107 873.303 551.858 876.58L551.86 876.574Z" fill="#0A5425"/>
<path fill-rule="evenodd" clip-rule="evenodd" d="M-86.0819 353.554C-79.0229 368.918 -77.6391 368.251 -61.151 377.728C-55.7917 380.808 -47.9901 386.006 -42.3997 387.82C-34.6892 390.327 -31.7128 388.91 -25.3077 388.723L-40.3196 409.229L-96.4942 377.306L-86.0849 353.559L-86.0819 353.554ZM-69.7634 315.509C-59.7855 292.452 -49.7161 266.229 -38.6299 244.068L45.45 292.324C32.5219 312.979 13.8154 335.665 -0.775964 355.573C-7.89419 365.279 -15.4351 379.13 -25.0664 382.837C-37.1432 387.475 -44.213 382.124 -57.8295 374.298C-91.2128 355.104 -83.8069 347.976 -69.7634 315.509V315.509ZM-26.5897 216.242L63.4644 268.408L48.3936 288.663L-36.8497 239.57L-26.5897 216.242V216.242ZM-39.4104 415.097C-32.2482 407.956 67.4525 272.169 69.7742 266.304L-28.2676 210.226C-31.9284 214.538 -98.2048 366.66 -101.821 378.806C-95.6038 384.387 -48.6276 410.926 -39.4052 415.1L-39.4104 415.097Z" fill="#F6F1D1"/>
<path fill-rule="evenodd" clip-rule="evenodd" d="M-20.7959 312.473L-31.1748 332.235C-36.6933 329.042 -41.0172 324.136 -42.2018 319.173L-20.7906 312.476L-20.7959 312.473ZM-17.0818 314.496C-15.0669 317.235 -10.0593 333.295 -10.4624 336.541C-14.4875 336.69 -21.9641 337.501 -27.091 333.882L-17.0818 314.496V314.496ZM-5.14815 334.173C-7.67099 329.372 -11.4484 318.377 -11.768 312.932L7.90905 323.227C3.5106 329.431 0.578429 331.818 -5.14513 334.168L-5.14815 334.173ZM10.9845 301.856C12.8731 306.909 12.7203 312.349 9.74053 319.298L-9.90343 308.714L10.9845 301.856ZM-47.8181 317.477C-38.2921 346.651 0.666654 349.109 13.4737 321.836C17.458 313.358 17.7693 302.055 13.5218 297.004C6.95861 297.527 -26.0802 309.786 -33.2215 311.607C-39.0527 313.098 -43.6834 312.913 -47.8212 317.482L-47.8181 317.477Z" fill="#0A5425"/>
<path fill-rule="evenodd" clip-rule="evenodd" d="M498.379 1057.5C487.809 1051.08 480.525 1045.81 473.689 1036.47C457.333 1014.1 453.007 982.713 468.786 956.638L603.121 1038.38C594.885 1057.3 567.645 1069.16 555.873 1070.8C535.433 1073.67 521.721 1071.69 498.382 1057.5L498.379 1057.5ZM528.07 987.508C535.25 977.123 550.315 986.645 543.899 997.466L528.07 987.508ZM509.537 976.621C516.57 961.638 537.757 957.432 551.545 965.599C566.761 974.616 571.838 993.325 562.921 1008.16C558.105 1007.25 552.944 1003.14 548.341 1000.17C549.478 992.717 551.609 986.428 543.38 981.221C535.827 976.44 529.626 979.562 523.898 985.401L509.535 976.625L509.537 976.621ZM566.62 1011.23C568.272 1006.77 569.926 1003.66 570.801 999.25C571.758 994.447 570.686 991.893 571.843 987.213C588.688 996.177 601.558 1014.29 598.712 1030.8L566.624 1011.23L566.62 1011.23ZM513.863 964.661L512.876 965.487L505.848 973.73L467.501 951.147C453.347 969.372 453.502 997.719 457.197 1011.59C469.688 1058.49 535.012 1096.18 584.666 1063.46C593.195 1057.84 602.571 1049.02 608.307 1038.49C606.277 1033.44 605.771 1036.89 603.827 1032.7L600.364 1011.46L599.626 1009.67C598.323 1007.82 588.751 993.432 588.659 993.189L586.826 992.746C582.01 988.444 571.135 983.607 568.676 979.377C561.312 966.7 552.438 955.578 532.513 957.451C522.071 958.434 519.558 962.275 513.869 964.66L513.863 964.661Z" fill="#F6F1D1"/>
<path fill-rule="evenodd" clip-rule="evenodd" d="M512.876 965.486L513.863 964.661C516.383 960.084 514.832 951.438 514.476 946.674C513.674 935.927 514.508 919.397 509.221 912.271C502.967 903.841 497.913 905.544 490.761 903.898C491.911 887.791 499.968 891.928 504.145 885.375C498.61 880.685 492.227 888.561 488.653 893.751C487.008 888.9 486.866 881.346 482.479 877.844C478.484 882.196 484.507 887.486 483.408 894.971C478.078 891.797 466.02 888.783 466.747 894.595C468.312 897.958 476.746 891.859 486.45 904.421C476.871 914.988 467.568 914.194 478.783 939.229C484.949 952.99 491.68 975.939 501.413 963.525C495.328 960.794 499.176 963.811 493.736 961.815L491.244 955.458C495.707 953.984 500.562 954.766 501.895 949.869C497.845 947.9 493.434 950.376 489.323 951.1C487.253 948.454 487.636 947.913 485.238 945.145C489.955 941.307 490.678 943.726 492.552 940.178C489.962 937.348 487.835 938.645 484.048 939.556C465.506 915.748 495.214 898.052 506.272 915.539C509.973 921.391 509.237 933.967 509.775 941.007L510.804 960.355C511.112 964.688 510.041 964.217 512.866 965.485L512.876 965.486Z" fill="#0A5425"/>
<path fill-rule="evenodd" clip-rule="evenodd" d="M586.828 992.751L588.661 993.195L598.994 993.533C604.229 993.41 637.298 961.07 643.359 955.56C650.668 948.918 654.16 943.203 660.506 952.689C657.948 960.8 634.915 973.815 626.923 978.963C607.01 991.794 601.196 992.378 599.628 1009.67L600.366 1011.46C600.642 1011.37 601.61 1012.52 604.305 1007.44C605.454 1005.28 605.655 1003.58 606.208 1001.54C608.31 993.756 620.021 989.116 632.481 980.61C645.926 971.429 668.696 959.886 663.657 949.387C655.823 933.058 638.448 954.209 625.479 966.066C619.329 971.688 613.514 976.842 607.432 982.555C603.567 986.186 602.314 988.511 597.971 988.844C595.51 989.032 594.828 988.646 592.855 988.901C590.233 989.241 589.955 989.754 587.067 990.055L586.838 992.752L586.828 992.751Z" fill="#0A5425"/>
<path fill-rule="evenodd" clip-rule="evenodd" d="M516.611 980.376C523.725 982.415 518.865 977.557 529.65 973.657C539.212 970.199 552.971 975.835 555.299 988.545C556.588 995.591 552.753 1000.22 555.438 1004.14C558.257 1002.79 555.219 1008.23 558.87 1000.55C568.229 980.854 537.084 955.43 518.926 975.419L516.609 980.379L516.611 980.376Z" fill="#0A5425"/>
<path fill-rule="evenodd" clip-rule="evenodd" d="M543.099 309.094C533.031 301.908 526.154 296.116 520.024 286.296C505.36 262.786 503.357 231.165 521.014 206.321L648.964 297.732C639.358 315.999 611.319 325.814 599.457 326.59C578.862 327.941 565.333 324.959 543.101 309.091L543.099 309.094ZM577.863 241.474C585.788 231.645 600.112 242.251 592.916 252.57L577.863 241.474ZM560.182 229.252C568.299 214.827 589.739 212.193 602.888 221.353C617.399 231.466 621.084 250.498 611.099 264.636C606.363 263.373 601.518 258.899 597.147 255.592C598.83 248.245 601.418 242.13 593.594 236.331C586.414 231.007 580 233.663 573.858 239.065L560.18 229.255L560.182 229.252ZM614.562 267.969C616.538 263.64 618.416 260.665 619.614 256.33C620.922 251.611 620.04 248.985 621.539 244.402C637.679 254.582 649.179 273.599 645.126 289.846L614.566 267.972L614.562 267.969ZM565.377 217.643L564.332 218.393L556.716 226.096L520.136 200.751C504.678 217.885 502.745 246.166 505.409 260.275C514.412 307.967 576.784 350.361 628.712 321.39C637.632 316.413 647.633 308.303 654.128 298.23C652.476 293.038 651.717 296.441 650.087 292.119L648.197 270.681L647.593 268.84C646.43 266.903 637.943 251.85 637.869 251.601L636.074 251.024C631.588 246.379 621.099 240.755 618.958 236.355C612.547 223.17 604.516 211.425 584.507 211.825C574.022 212.037 571.232 215.683 565.383 217.642L565.377 217.643Z" fill="#F6F1D1"/>
<path fill-rule="evenodd" clip-rule="evenodd" d="M564.332 218.393L565.377 217.642C568.227 213.263 567.317 204.526 567.313 199.75C567.305 188.972 569.354 172.549 564.606 165.053C558.989 156.185 553.824 157.511 546.813 155.343C549.146 139.365 556.876 144.084 561.525 137.857C556.35 132.771 549.404 140.156 545.457 145.069C544.174 140.109 544.588 132.565 540.472 128.75C536.167 132.796 541.784 138.515 540.137 145.899C535.055 142.341 523.252 138.448 523.549 144.298C524.862 147.767 533.722 142.305 542.474 155.547C532.143 165.38 522.925 163.904 532.265 189.696C537.401 203.874 542.424 227.257 553.044 215.593C547.177 212.421 550.793 215.713 545.515 213.322L543.497 206.798C548.057 205.657 552.841 206.795 554.531 202.009C550.637 199.748 546.055 201.892 541.903 202.311C540.033 199.52 540.455 199.008 538.267 196.072C543.254 192.591 543.797 195.057 545.928 191.656C543.553 188.643 541.336 189.781 537.492 190.41C520.754 165.301 551.684 149.841 561.425 168.094C564.685 174.204 563.024 186.691 563.043 193.752L562.643 213.123C562.632 217.467 561.599 216.919 564.323 218.391L564.332 218.393Z" fill="#0A5425"/>
<path fill-rule="evenodd" clip-rule="evenodd" d="M566.961 233.517C573.905 236.075 569.416 230.872 580.46 227.777C590.25 225.032 603.557 231.666 604.942 244.513C605.709 251.635 601.543 255.969 603.933 260.078C606.843 258.942 603.413 264.141 607.62 256.745C618.403 237.795 589.215 210.146 569.635 228.744L566.959 233.52L566.961 233.517Z" fill="#0A5425"/>
<path fill-rule="evenodd" clip-rule="evenodd" d="M445.912 886.874C434.887 892.483 426.574 895.906 415.033 896.805C387.407 898.949 358.437 886.116 344.562 858.979L484.745 787.735C496.508 804.694 492.258 834.096 487.467 844.975C479.15 863.863 470.255 874.485 445.91 886.87L445.912 886.874ZM402.002 824.801C396.947 813.232 412.971 805.429 418.798 816.578L402.002 824.801ZM382.994 834.835C373.952 820.973 381.52 800.741 395.719 793.312C411.392 785.114 429.974 790.638 437.9 806.026C434.592 809.643 428.386 811.873 423.433 814.222C417.694 809.334 413.467 804.214 404.709 808.474C396.67 812.382 396.063 819.298 398.016 827.241L382.996 834.839L382.994 834.835ZM442.456 804.495C439.529 800.742 437.758 797.702 434.468 794.637C430.886 791.297 428.15 790.866 424.778 787.419C441.263 777.808 463.442 776.395 475.979 787.495L442.46 804.493L442.456 804.495ZM375.099 824.865L375.281 826.138L378.595 836.452L339.217 857.184C347.27 878.809 371.459 893.589 385.203 897.745C431.66 911.795 498.074 876.065 496.371 816.626C496.078 806.416 493.506 793.8 487.573 783.386C482.205 782.452 484.873 784.697 480.286 784.146L460.4 775.917L458.489 775.602C456.234 775.739 438.962 776.311 438.707 776.262L437.366 777.587C431.174 779.42 421.34 786.124 416.449 785.99C401.793 785.584 387.667 787.281 378.778 805.211C374.121 814.608 376.065 818.766 375.101 824.859L375.099 824.865Z" fill="#F6F1D1"/>
<path fill-rule="evenodd" clip-rule="evenodd" d="M375.281 826.138L375.098 824.864C372.531 820.314 364.363 817.084 360.124 814.881C350.562 809.909 336.944 800.504 328.101 801.252C317.642 802.136 316.432 807.33 311.27 812.546C298.177 803.095 305.934 798.42 302.558 791.42C295.658 793.66 298.998 803.232 301.532 809.002C296.541 807.848 290.041 803.996 284.756 805.884C286.355 811.57 294.022 809.232 299.81 814.104C294.306 816.967 285.4 825.636 290.726 828.076C294.409 828.514 293.659 818.132 309.446 816.488C313.394 830.194 307.826 837.687 335.016 841.319C349.963 843.315 373.021 849.663 367.583 834.855C362.059 838.593 366.649 836.908 362.09 840.484L355.373 839.259C356.467 834.688 359.687 830.971 356.223 827.261C352.418 829.67 352.203 834.724 350.656 838.6C347.317 838.969 347.058 838.358 343.443 838.942C342.66 832.912 345.098 833.569 343.066 830.108C339.297 830.822 339.282 833.314 338.063 837.014C308.062 840.258 308.64 805.684 329.329 805.479C336.254 805.41 346.561 812.652 352.832 815.898L369.827 825.201C373.675 827.218 372.711 827.881 375.276 826.146L375.281 826.138Z" fill="#0A5425"/>
<path fill-rule="evenodd" clip-rule="evenodd" d="M437.372 777.588L438.713 776.263L444.437 767.653C447.086 763.137 436.979 718 435.482 709.947C433.678 700.237 430.654 694.261 442.06 693.854C447.612 700.296 446.564 726.732 446.738 736.237C447.175 759.922 444.613 765.173 458.495 775.604L460.407 775.918C460.474 775.635 461.959 775.416 459.062 770.455C457.827 768.341 456.487 767.275 455.039 765.729C449.527 759.848 451.742 747.447 451.063 732.376C450.327 716.112 452.489 690.675 440.909 689.438C422.902 687.51 431.749 713.413 435.01 730.68C436.556 738.868 437.88 746.525 439.539 754.703C440.594 759.9 441.912 762.188 439.911 766.056C438.776 768.248 438.089 768.626 437.268 770.438C436.178 772.847 436.468 773.352 435.205 775.967L437.378 777.581L437.372 777.588Z" fill="#0A5425"/>
<path fill-rule="evenodd" clip-rule="evenodd" d="M389.909 830.794C395.386 825.817 388.698 827.395 391.055 816.171C393.143 806.22 405.175 797.483 417.208 802.19C423.879 804.8 425.799 810.497 430.547 810.276C430.883 807.17 433.909 812.615 429.294 805.466C417.469 787.148 379.463 800.26 386.911 826.218L389.911 830.798L389.909 830.794Z" fill="#0A5425"/>
</g>
</svg>
